<svg width="242" height="206" viewBox="0 0 242 206" fill="none" xmlns="http://www.w3.org/2000/svg">
<g clip-path="url(#clip0_3273_4779)">
<path d="M105.611 181.681C93.3811 184.247 81.8587 189.579 72.199 197.473C61.1683 206.485 45.1394 216.468 29.8286 214.591C2.76777 211.272 -4.94361 186.144 -22.4744 182.555C-40.0034 178.97 -84.1448 104.254 -51.0021 73.7529C-17.8574 43.256 19.8705 25.0871 58.9665 28.7189C136.768 35.9462 164.86 91.5421 157.966 137.497C157.966 137.497 154.053 171.517 105.614 181.674L105.611 181.681Z" fill="#E2DBD5"/>
<path d="M189.818 146.113C181.557 153.743 176.458 162.17 172.643 172.729C168.285 184.784 155.171 203.41 142.478 209.031C120.044 218.966 110.176 193.307 94.9779 198.631C79.7832 203.958 11.1818 166.636 22.6935 127.77C34.2087 88.9075 79.191 76.6973 86.8318 42.1982C94.4726 7.699 182.042 33.6382 213.536 80.4928C213.536 80.4928 233.77 107.271 201.048 137.488L189.818 146.113Z" fill="#EFEAE6"/>
<path d="M102.897 172.048C102.897 172.048 137.281 70.1333 154.306 72.9195C169.827 75.4569 144.756 111.186 145.246 119.84C145.731 128.494 166.423 97.0885 184.433 83.875C202.445 70.6621 210.437 80.9192 198.346 98.5615C186.652 115.624 151.788 132.112 158.483 135.127C165.179 138.139 208.702 118.876 213.048 129.348C218.376 142.189 154.498 152.727 160.181 156.05C165.865 159.373 196.48 153.24 194.946 162.513C193.412 171.786 153.216 167.516 153.588 171.694C154.192 178.464 193.131 170.895 193.592 180.223C194.068 189.765 146.821 179.604 146.885 187.016C146.921 191.274 193.099 193.507 193.795 199.469C195.384 213.067 92 203.109 92 203.109L102.893 172.051L102.897 172.048Z" fill="#DCD3CB"/>
<path d="M80.9674 161.084C80.9674 161.084 75.9381 161.265 75.4105 161.506C74.883 161.748 68.2663 167.988 68.2663 167.988C68.2663 167.988 64.311 174.592 64.9422 175.132C65.5718 175.672 67.7999 173.008 67.9711 172.457C68.1422 171.906 72.6769 166.785 73.272 166.432C73.8671 166.079 78.3452 164.895 78.4959 164.702C78.6482 164.509 81.6677 162.993 81.7446 162.752C81.8215 162.51 80.9689 161.084 80.9689 161.084H80.9674Z" fill="#DCA799"/>
<path d="M72.8276 164.219C72.9092 164 74.6882 161.497 75.6429 161.453C76.5976 161.409 76.9775 162.131 76.9399 162.252C76.9006 162.373 76.1689 163.158 75.6555 163.613C75.142 164.069 72.8276 164.219 72.8276 164.219Z" fill="#DCA799"/>
<path d="M68.4452 170.778C68.2678 171.298 65.2829 177.501 65.4619 177.721C65.6409 177.941 67.2001 177.896 67.6319 177.417L68.0621 176.938C68.0621 176.938 68.932 176.944 69.4454 176.19C69.9589 175.437 70.901 173.53 71.3642 173.141C71.8274 172.752 73.0851 170.071 73.363 170.012C73.6393 169.952 77.7924 167.423 77.7924 167.423L79.9514 168.793C79.9514 168.793 78.7707 170.487 78.1206 171.354C77.4706 172.219 76.1924 173.909 76.4751 175.231C76.7593 176.553 77.7767 176.752 77.7862 176.751C77.7972 176.749 78.8068 174.41 79.1161 174.053C79.4254 173.697 81.6896 171.122 82.3491 170.787C83.007 170.453 85.4141 169.68 86.2824 168.625C87.1491 167.572 90.2502 163.428 90.2502 163.428L83.343 161.666C83.343 161.666 73.9518 164.516 73.7807 164.617C73.6095 164.717 68.4452 170.778 68.4452 170.778Z" fill="#DCA799"/>
<path d="M65.9079 166.932C65.9079 166.932 68.4044 165.866 68.7907 165.639C69.1754 165.411 71.672 163.888 71.8965 163.814C72.1226 163.742 76.7373 162.655 76.7373 162.655C76.7373 162.655 79.7489 161.069 80.1729 160.906C80.5968 160.743 84.048 159.521 84.7578 159.344C85.4675 159.168 88.2985 157.524 88.7444 157.356C89.1904 157.188 93.2053 156.111 93.2053 156.111C93.2053 156.111 97.6724 159.95 97.7368 161.6C97.7368 161.6 90.3539 163.282 90.0367 163.495C90.0335 163.497 90.0304 163.5 90.0273 163.502C88.1242 164.8 85.838 165.411 83.5409 165.238C82.8202 165.185 82.0571 165.163 81.5373 165.245C80.2545 165.447 74.4574 166.086 73.3756 166.102C72.2938 166.116 67.4796 167.848 66.9348 167.893C66.3899 167.939 65.0317 167.457 65.9079 166.932Z" fill="#ECBAAB"/>
<path d="M137.611 55.7035C132.888 40.2671 122.165 35.7309 116.291 35.1845C105.701 34.1984 100.436 37.0859 92.3134 45.7721C81.7053 57.1166 80.6973 54.1898 66.035 58.6915C31.6373 69.254 36.9775 114.599 56.3816 129.811C87.168 153.947 108.744 134.33 123.401 110.9C139.191 85.6607 139.541 62.0108 137.611 55.7035Z" fill="#C74532"/>
<path d="M94.0622 162.931C94.0622 162.931 86.1375 176.359 83.0411 188.415C80.9026 196.746 79.8239 205.5 79.8239 205.5H147.327C147.327 205.5 139.793 171.638 125.641 165.209C111.489 158.781 94.0622 162.931 94.0622 162.931Z" fill="#2C67A9"/>
<path d="M134.732 92.6195C124.931 91.6994 98.3837 94.1018 86.3421 96.0488C84.6212 96.3267 94.6891 156.061 91.9366 166.562L86.3311 178.04C86.3311 178.04 120.087 185.289 137.055 176.118L127.57 161.647C129.261 153.908 142.25 93.3246 134.732 92.618V92.6195Z" fill="#B59A94"/>
<path d="M102.754 77.1186C102.754 77.1186 101.29 112.768 109.758 113.499C118.226 114.231 118.427 92.5063 118.535 89.8386L119.124 75.3176L102.754 77.1186Z" fill="#ECBAAB"/>
<path opacity="0.5" d="M102.666 84.6984C108.07 91.0231 115.912 90.0417 118.695 85.9122L119.126 75.3167L102.755 77.1176C102.755 77.1176 102.626 80.2596 102.666 84.6969V84.6984Z" fill="#DCA799"/>
<path d="M75.599 111.233C75.4184 126.097 77.2508 148.719 86.7425 161.539C89.2233 164.889 93.5083 152.856 93.5083 152.856C93.5083 152.856 90.2942 95.4336 86.3248 96.0538C82.6867 96.6238 75.7466 98.9979 75.599 111.233Z" fill="#DCA799"/>
<path d="M93.02 141.767C91.676 124.152 89.0726 95.6217 86.3248 96.0519C82.6867 96.6219 74.4057 98.996 74.2565 111.231C74.1372 121.055 74.9081 134.779 78.1772 146.31C81.137 144.611 85.5272 142.523 89.0114 142.286C90.3664 142.215 91.6964 142.008 93.0185 141.767H93.02Z" fill="#C8B1AC"/>
<path d="M99.6524 46.6263C99.6524 46.6263 97.4228 51.6445 97.4228 62.0987C97.4228 72.5529 99.9319 78.5463 104.81 82.0321C109.689 85.5163 115.315 83.9649 118.053 82.0321C122.996 78.5431 127.81 65.5845 126.416 56.3849C125.022 47.1853 120.84 29.0639 99.6524 46.6278V46.6263Z" fill="#ECBAAB"/>
<path d="M133.628 92.5496C133.628 92.5496 134.121 94.1182 133.383 107.246C132.522 122.552 128.003 156.278 128.003 156.278C128.003 156.278 106.61 155.033 92.1847 155.714L85.2178 159.296L89.4337 163.878C89.4337 163.878 131.219 171.518 135.404 170.168C139.587 168.816 154.977 97.5568 133.628 92.5496Z" fill="#ECBAAB"/>
<path d="M91.0934 96.0248C91.0934 96.0248 87.8039 92.214 87.6233 91.6645C87.4427 91.1133 87.5149 82.0189 87.5149 82.0189C87.5149 82.0189 89.6661 74.6281 90.4904 74.7223C91.3148 74.8165 90.8767 78.2615 90.5893 78.7624C90.302 79.2633 89.6331 86.07 89.7791 86.7451C89.9252 87.4203 92.103 91.509 92.0637 91.7524C92.0245 91.9958 92.9681 95.2397 92.8425 95.4596C92.7169 95.681 91.0934 96.0248 91.0934 96.0248Z" fill="#DCA799"/>
<path d="M87.8573 87.9248C87.7521 88.1336 87.1256 91.1405 87.7443 91.8706C88.3613 92.6008 89.1496 92.3872 89.2124 92.2773C89.2752 92.1674 89.3521 91.0965 89.3364 90.4104C89.3207 89.7242 87.8573 87.9248 87.8573 87.9248Z" fill="#DCA799"/>
<path d="M89.6834 80.2514C89.9441 79.7662 92.461 73.3599 92.7437 73.341C93.0247 73.3222 94.0532 74.4967 93.9967 75.1389L93.9386 75.7795C93.9386 75.7795 94.5352 76.4123 94.3327 77.301C94.1301 78.1897 93.3733 80.1776 93.4031 80.7821C93.433 81.3866 92.3229 84.1328 92.4673 84.3762C92.6118 84.6196 93.5821 89.385 93.5821 89.385L96.0552 90.0351C96.0552 90.0351 96.4948 88.0174 96.6864 86.9513C96.8779 85.8851 97.2469 83.7999 98.4089 83.1091C99.5708 82.4182 100.409 83.0274 100.416 83.0368C100.422 83.0463 99.3934 85.378 99.3431 85.8459C99.2929 86.3154 98.9458 89.7273 99.1484 90.4371C99.351 91.1468 100.422 93.4377 100.238 94.7896C100.056 96.1431 99.128 101.234 99.128 101.234L93.1378 97.3678C93.1378 97.3678 88.8387 88.5466 88.7963 88.3519C88.7539 88.1572 89.6834 80.2498 89.6834 80.2498V80.2514Z" fill="#DCA799"/>
<path d="M99.3352 100.087C98.8846 97.8279 97.5813 96.6534 95.8918 95.0864C95.3611 94.5949 94.8273 94.0501 94.5336 93.612C93.8098 92.5333 90.3366 87.8495 89.6112 87.0456C88.8857 86.2416 86.8806 81.5358 86.543 81.1056C86.2055 80.6754 84.9289 80.0081 85.1393 81.0083C85.1393 81.0083 86.0563 83.5629 86.1521 84.001C86.2479 84.4375 86.8272 87.3031 86.9277 87.5182C87.0282 87.7333 89.3709 91.855 89.3709 91.855C89.3709 91.855 90.2565 95.1429 90.4261 95.5637C90.5941 95.9845 92.0465 99.3479 92.3998 99.9869C92.7531 100.628 93.1456 102.863 93.3262 103.305C93.3262 103.305 88.3896 118.593 87.2559 121.277C86.1207 123.96 81.2013 142.582 80.187 147.538C79.5087 150.851 82.3837 161.929 85.5633 163.302C88.6628 164.642 92.3385 165.091 95.3564 147.538C96.1195 143.098 99.4922 100.865 99.3368 100.087H99.3352Z" fill="#ECBAAB"/>
<path d="M133.601 92.5332C133.601 92.5332 132.973 92.6777 132.816 107.247C132.731 115.084 131.499 127.722 130.269 138.205C135.002 137.924 141.683 138.192 146.277 138.845C149.794 116.965 147.841 93.0074 133.601 92.5332Z" fill="#C8B1AC"/>
<path d="M94.0689 66.1435C94.9325 68.1078 96.7083 69.2273 98.0351 68.6432C99.3635 68.0591 99.7388 65.9943 98.8767 64.03C98.0131 62.0657 96.2373 60.9462 94.9105 61.5303C93.5821 62.1144 93.2069 64.1792 94.0689 66.1435Z" fill="#ECBAAB"/>
<path d="M128.867 66.9662C128.003 68.9305 126.228 70.05 124.901 69.4659C123.572 68.8818 123.197 66.8171 124.059 64.8528C124.923 62.8885 126.699 61.769 128.025 62.3531C129.354 62.9356 129.729 65.002 128.867 66.9662Z" fill="#ECBAAB"/>
<path d="M117.347 74.1828L107.013 72.7241C107.013 72.7241 106.698 76.6825 111.223 77.455C116.742 78.3972 117.347 74.1828 117.347 74.1828Z" fill="white"/>
<path d="M97.4228 62.0987C97.4228 62.0987 119.171 51.2002 123.596 44.5128C128.021 37.8254 115.97 38.8162 115.97 38.8162L107.009 38.7644L97.7384 43.1829L92.8552 57.1118L97.4228 62.0971V62.0987Z" fill="#C74532"/>
<path d="M8.67938 142.718C9.86919 145.262 11.2834 147.298 12.9205 149.358C14.0708 154.04 15.6917 159.39 17.8542 165.063C16.1536 164.244 13.9912 162.258 12.9759 161.469C10.9728 159.907 9.11305 158.158 7.43163 156.252C4.17246 152.555 -0.223661 149.984 -4.7897 148.168C-7.60716 147.046 -10.7688 146.252 -13.6532 147.185C-8.2029 155.24 -1.65834 161.728 7.92129 164.326C11.392 165.267 14.4715 165.396 17.9973 165.424C19.5926 169.568 21.4669 173.873 23.6718 178.22C24.2676 179.404 24.8809 180.561 25.4918 181.706C23.7997 181.002 21.8073 179.65 20.8252 179.088C18.6183 177.826 16.5272 176.36 14.5933 174.715C10.8391 171.522 6.12296 169.605 1.33962 168.459C-1.60926 167.751 -4.84857 167.412 -7.57362 168.748C-1.03094 175.938 6.37205 181.434 16.2248 182.635C19.6205 183.052 22.5545 182.786 25.841 182.349C28.1664 186.619 30.5991 190.591 33.0228 194.199C31.1562 194.036 28.2393 192.632 26.9563 192.143C24.5856 191.234 22.2919 190.105 20.129 188.775C15.9321 186.195 10.976 185.017 6.07913 184.615C3.05635 184.368 -0.196816 184.526 -2.68737 186.262C4.87436 192.373 13.0336 196.669 22.9505 196.352C26.6296 196.238 29.6653 195.423 33.1463 194.385C33.2199 194.494 33.2886 194.602 33.3622 194.711C36.6332 199.604 39.9613 203.765 43.0074 207.018C46.0572 210.278 48.8163 212.622 50.8033 214.121C51.8037 214.864 52.5953 215.421 53.1533 215.765C53.7099 216.113 54.0089 216.28 54.0341 216.243C54.0932 216.157 52.9953 215.336 51.1138 213.736C49.2386 212.132 46.6 209.712 43.6718 206.414C40.7424 203.121 37.5283 198.951 34.3362 194.062C34.2439 193.921 34.1515 193.781 34.0592 193.64C36.8692 191.462 39.2564 189.482 41.453 186.611C47.4896 178.732 48.7532 169.603 48.1927 159.891C45.3307 160.905 43.3066 163.452 41.7472 166.057C39.2162 170.272 37.2891 174.986 36.9364 179.9C36.7592 182.434 36.3403 184.956 35.6922 187.413C35.3554 188.703 34.8147 191.769 33.9032 193.414C31.642 189.965 29.3641 186.202 27.1709 182.168C27.2599 182.153 27.3476 182.144 27.4353 182.134C27.3476 182.144 27.2561 182.147 27.1559 182.143C27.0973 182.038 27.0437 181.934 26.9851 181.828C29.2451 179.149 31.141 176.73 32.677 173.5C36.931 164.536 36.2614 155.34 33.6865 145.966C31.0999 147.555 29.6537 150.472 28.6724 153.341C27.0813 157.99 26.1758 163.005 26.8607 167.883C27.2161 170.398 27.3333 172.948 27.2188 175.487C27.159 176.757 27.2565 179.637 26.7956 181.461C26.1211 180.208 25.4554 178.942 24.8035 177.642C22.5575 173.206 20.6296 168.818 18.9856 164.613C21.1514 162.033 22.9745 159.67 24.4589 156.539C28.7129 147.575 28.0433 138.379 25.4683 129.005C22.8817 130.594 21.4355 133.511 20.4543 136.38C18.8631 141.029 17.9576 146.044 18.6425 150.922C18.9979 153.437 19.1139 155.992 19.0006 158.526C18.9487 159.659 19.0162 162.069 18.7031 163.876C16.9835 159.402 15.5902 155.154 14.4841 151.288C14.6765 151.518 14.8651 151.742 15.0612 151.978C13.9758 150.686 14.1915 146.376 14.1257 144.739C14.0222 142.198 14.1543 139.652 14.5244 137.135C15.2391 132.264 14.3616 127.241 12.7953 122.582C11.8281 119.705 10.3988 116.78 7.8194 115.18C5.19197 124.539 4.46577 133.734 8.6731 142.721L8.67938 142.718Z" fill="#FBF9F8"/>
<path d="M196.706 57.9873C196.709 57.9772 196.713 57.9676 196.715 57.9577C197.217 56.0778 196.316 53.9938 194.272 53.4485C192.647 53.0152 191.394 53.9314 190.781 54.9384C190.752 53.76 190.121 52.3413 188.497 51.908C186.452 51.3627 184.634 52.7214 184.132 54.601C184.13 54.6111 184.128 54.6211 184.125 54.631C184.005 55.0373 182.905 59.2016 188.29 64.2715L188.29 64.2723C188.29 64.2723 188.29 64.2721 188.291 64.2721C188.291 64.2722 188.291 64.2725 188.291 64.2728C188.292 64.2729 188.292 64.2725 188.292 64.2726C188.292 64.2726 188.293 64.273 188.293 64.2732L188.293 64.2724C195.488 62.558 196.608 58.399 196.706 57.9872L196.706 57.9873Z" fill="#C74532"/>
<path d="M186.409 62.2272C186.925 62.8861 187.545 63.5697 188.29 64.2709L188.29 64.2717C188.29 64.2717 188.29 64.2715 188.291 64.2715C188.291 64.2716 188.291 64.2719 188.291 64.2722C188.292 64.2722 188.292 64.2719 188.292 64.272C188.293 64.272 188.293 64.2723 188.293 64.2727L188.294 64.2718C195.488 62.5574 196.608 58.3985 196.706 57.9866C196.709 57.9766 196.712 57.9669 196.715 57.9571C196.779 57.7193 196.819 57.4779 196.838 57.237C193.581 61.4884 189.165 62.2385 186.409 62.2274L186.409 62.2272Z" fill="#AB3423"/>
<path d="M184.366 55.1226C184.366 55.1226 185.278 51.5289 189.009 52.4787C189.009 52.4787 186.314 52.418 184.366 55.1226Z" fill="#DF7464"/>
<path d="M184.034 17.4712C184.033 17.4608 184.033 17.4505 184.032 17.4404C183.874 15.5012 182.327 13.8397 180.218 14.0114C178.543 14.1478 177.669 15.4312 177.429 16.5853C177.006 15.4852 175.936 14.36 174.261 14.4964C172.152 14.668 170.894 16.5579 171.052 18.4969C171.053 18.5073 171.054 18.5174 171.055 18.5275C171.079 18.9505 171.438 23.2426 178.211 26.2136L178.211 26.2145C178.211 26.2145 178.212 26.214 178.212 26.2139C178.213 26.2139 178.213 26.2141 178.213 26.2143C178.214 26.2143 178.214 26.2138 178.214 26.2138C178.214 26.2138 178.215 26.214 178.215 26.2142L178.215 26.2133C184.418 22.1859 184.079 17.8921 184.033 17.4712L184.034 17.4712Z" fill="#C74532"/>
<path d="M175.754 24.9183C176.461 25.3659 177.275 25.8021 178.211 26.213L178.211 26.2138C178.211 26.2138 178.212 26.2133 178.212 26.2133C178.212 26.2133 178.213 26.2135 178.213 26.2137C178.213 26.2137 178.214 26.2132 178.214 26.2132C178.214 26.2132 178.215 26.2133 178.215 26.2135L178.215 26.2127C184.418 22.1853 184.079 17.8915 184.033 17.4706C184.033 17.4602 184.033 17.4499 184.032 17.4398C184.012 17.1944 183.969 16.9534 183.907 16.72C182.263 21.8176 178.355 24.0047 175.754 24.9185L175.754 24.9183Z" fill="#AB3423"/>
<path d="M171.447 18.9095C171.447 18.9095 171.101 15.2183 174.935 14.8619C174.935 14.8619 172.375 15.7086 171.447 18.9095Z" fill="#DF7464"/>
<path d="M143.531 23.8532C143.529 23.8465 143.528 23.8398 143.526 23.8332C143.19 22.5806 141.975 21.6772 140.613 22.0433C139.531 22.3343 139.112 23.2809 139.094 24.0665C138.684 23.396 137.847 22.7869 136.765 23.0778C135.403 23.444 134.805 24.8345 135.142 26.087C135.144 26.0937 135.146 26.1001 135.148 26.1066C135.214 26.3812 135.966 29.1524 140.765 30.2861L140.765 30.2866C140.765 30.2866 140.765 30.2862 140.765 30.2862C140.766 30.2861 140.766 30.2862 140.766 30.2863C140.766 30.2863 140.766 30.2859 140.766 30.2859C140.767 30.2859 140.767 30.2859 140.767 30.286L140.767 30.2855C144.35 26.8986 143.611 24.1238 143.531 23.8533L143.531 23.8532Z" fill="#C74532"/>
<path d="M138.997 29.732C139.515 29.9405 140.101 30.1287 140.764 30.2855L140.764 30.286C140.764 30.286 140.765 30.2856 140.765 30.2856C140.765 30.2856 140.765 30.2856 140.766 30.2857C140.766 30.2857 140.766 30.2853 140.766 30.2853C140.766 30.2853 140.767 30.2853 140.767 30.2854L140.767 30.2848C144.35 26.898 143.611 24.1232 143.531 23.8527C143.529 23.8459 143.528 23.8392 143.526 23.8327C143.483 23.6742 143.426 23.5212 143.357 23.3758C142.893 26.916 140.593 28.8202 138.997 29.7322L138.997 29.732Z" fill="#AB3423"/>
<path d="M135.451 26.3101C135.451 26.3101 134.78 23.9313 137.251 23.2366C137.251 23.2366 135.674 24.0996 135.451 26.3101Z" fill="#DF7464"/>
<path d="M176.817 40.5403C176.817 40.5277 176.818 40.5153 176.818 40.503C176.774 38.1524 175.033 36.0318 172.477 36.0795C170.446 36.1174 169.296 37.5992 168.919 38.9729C168.492 37.6142 167.287 36.1764 165.256 36.2143C162.7 36.262 161.04 38.446 161.084 40.7964C161.084 40.8089 161.085 40.8213 161.086 40.8336C161.082 41.3454 161.191 46.5488 169.135 50.6435L169.135 50.6446C169.135 50.6446 169.136 50.644 169.136 50.644C169.136 50.644 169.137 50.6443 169.137 50.6445C169.138 50.6445 169.138 50.644 169.138 50.644C169.138 50.644 169.139 50.6442 169.139 50.6445L169.139 50.6434C176.924 46.2552 176.84 41.0514 176.817 40.5403L176.817 40.5403Z" fill="#C74532"/>
<path d="M166.269 48.8952C167.088 49.4885 168.036 50.076 169.135 50.6423L169.135 50.6433C169.135 50.6433 169.135 50.6428 169.136 50.6428C169.136 50.6428 169.136 50.643 169.137 50.6433C169.137 50.6433 169.137 50.6427 169.138 50.6427C169.138 50.6427 169.138 50.643 169.139 50.6432L169.139 50.6422C176.924 46.2539 176.84 41.0501 176.817 40.539C176.816 40.5265 176.817 40.5141 176.817 40.5018C176.811 40.2044 176.778 39.9105 176.72 39.6243C174.353 45.6477 169.474 47.99 166.269 48.8955L166.269 48.8952Z" fill="#AB3423"/>
<path d="M161.53 41.324C161.53 41.324 161.391 36.8463 166.042 36.7062C166.042 36.7062 162.89 37.5339 161.53 41.324Z" fill="#DF7464"/>
<path d="M151.152 38.9101C151.154 38.9054 151.157 38.9009 151.159 38.8963C151.577 38.0178 151.324 36.9112 150.369 36.4568C149.61 36.0957 148.91 36.4319 148.517 36.871C148.61 36.289 148.429 35.534 147.67 35.1729C146.715 34.7185 145.697 35.2207 145.279 36.099C145.277 36.1037 145.275 36.1085 145.273 36.1131C145.177 36.3019 144.256 38.2489 146.442 41.2322L146.441 41.2326C146.441 41.2326 146.442 41.2326 146.442 41.2326C146.442 41.2327 146.442 41.2328 146.442 41.233C146.442 41.2331 146.442 41.2329 146.443 41.233C146.443 41.233 146.443 41.2332 146.443 41.2334L146.443 41.233C150.136 41.046 151.066 39.1035 151.152 38.91L151.152 38.9101Z" fill="#C74532"/>
<path d="M145.703 40.0558C145.897 40.4268 146.139 40.8194 146.441 41.232L146.441 41.2324C146.441 41.2324 146.442 41.2323 146.442 41.2324C146.442 41.2324 146.442 41.2326 146.442 41.2328C146.442 41.2328 146.442 41.2327 146.443 41.2327C146.443 41.2328 146.443 41.233 146.443 41.2332L146.443 41.2328C150.136 41.0458 151.066 39.1033 151.152 38.9098C151.154 38.9051 151.157 38.9007 151.159 38.8961C151.212 38.7849 151.254 38.67 151.285 38.5533C149.296 40.3464 147.057 40.3126 145.703 40.0559L145.703 40.0558Z" fill="#AB3423"/>
<path d="M145.347 36.3766C145.347 36.3766 146.122 34.693 147.87 35.5001C147.87 35.5001 146.551 35.2245 145.347 36.3766Z" fill="#DF7464"/>
</g>
<defs>
<clipPath id="clip0_3273_4779">
<rect width="242" height="205" fill="white" transform="translate(0 0.5)"/>
</clipPath>
</defs>
</svg>
