<svg width="31" height="28" viewBox="0 0 31 28" fill="none" xmlns="http://www.w3.org/2000/svg">
<path d="M30.5455 8.76864C30.5455 8.74433 30.5475 8.72053 30.5475 8.69673C30.5475 4.15693 27.2642 0 22.3274 0C18.4044 0 16.13 2.8194 15.3541 5.45799C14.5782 2.8194 12.3032 0 8.38081 0C3.44395 0 0.160645 4.15693 0.160645 8.69622C0.160645 8.72053 0.162164 8.74433 0.16267 8.76814C0.136335 9.75622 0.160645 19.8062 15.3495 27.998V28C15.3495 28 15.3511 27.999 15.3516 27.999C15.3526 27.999 15.3531 27.9995 15.3536 28C15.3546 28 15.3551 27.999 15.3556 27.999C15.3561 27.999 15.3571 27.9995 15.3576 28V27.998C30.5465 19.8062 30.5708 9.75622 30.5445 8.76864H30.5455Z" fill="#C74532"/>
<path d="M9.87939 24.5216C11.4398 25.6966 13.2488 26.865 15.3495 27.9979V27.9999C15.3495 27.9999 15.3511 27.9989 15.3516 27.9989C15.3521 27.9989 15.3531 27.9994 15.3536 27.9999C15.3541 27.9999 15.3551 27.9989 15.3556 27.9989C15.3561 27.9989 15.3571 27.9994 15.3582 27.9999V27.9979C30.547 19.8061 30.5713 9.75613 30.545 8.76855C30.545 8.74424 30.547 8.72044 30.547 8.69664C30.547 8.12233 30.4939 7.55358 30.3921 6.99902C25.6046 18.543 16.1011 22.8893 9.87939 24.5221V24.5216Z" fill="#B53927"/>
<path d="M1.00201 9.73097C1.00201 9.73097 0.895656 1.08084 9.87954 0.978027C9.87954 0.978027 3.7657 2.46243 1.00201 9.73097Z" fill="#D86453"/>
</svg>
