<svg width="31" height="28" viewBox="0 0 31 28" fill="none" xmlns="http://www.w3.org/2000/svg">
<path d="M30.9322 8.76864C30.9322 8.74433 30.9343 8.72053 30.9343 8.69673C30.9343 4.15693 27.651 0 22.7141 0C18.7911 0 16.5167 2.8194 15.7408 5.45799C14.9649 2.8194 12.69 0 8.76752 0C3.83067 0 0.547363 4.15693 0.547363 8.69622C0.547363 8.72053 0.548883 8.74433 0.549389 8.76814C0.523054 9.75622 0.547363 19.8062 15.7363 27.998V28C15.7363 28 15.7378 27.999 15.7383 27.999C15.7393 27.999 15.7398 27.9995 15.7403 28C15.7413 28 15.7418 27.999 15.7423 27.999C15.7428 27.999 15.7438 27.9995 15.7444 28V27.998C30.9332 19.8062 30.9576 9.75622 30.9312 8.76864H30.9322Z" fill="#F2EDE9"/>
<path d="M10.2661 24.5216C11.8265 25.6966 13.6355 26.865 15.7363 27.9979V27.9999C15.7363 27.9999 15.7378 27.9989 15.7383 27.9989C15.7388 27.9989 15.7398 27.9994 15.7403 27.9999C15.7408 27.9999 15.7418 27.9989 15.7423 27.9989C15.7428 27.9989 15.7439 27.9994 15.7449 27.9999V27.9979C30.9338 19.8061 30.9581 9.75613 30.9317 8.76855C30.9317 8.74424 30.9338 8.72044 30.9338 8.69664C30.9338 8.12233 30.8806 7.55358 30.7788 6.99902C25.9913 18.543 16.4878 22.8893 10.2661 24.5221V24.5216Z" fill="#F2EDE9"/>
<path d="M1.38873 9.73097C1.38873 9.73097 1.28237 1.08084 10.2663 0.978027C10.2663 0.978027 4.15242 2.46243 1.38873 9.73097Z" fill="#F2EDE9"/>
</svg>
