<svg width="60" height="16" viewBox="0 0 60 16" fill="none" xmlns="http://www.w3.org/2000/svg">
<path d="M46.3821 4.33276H43.144C42.9535 4.33276 42.763 4.52326 42.6678 4.71376L41.3345 13.0947C41.3345 13.2852 41.4297 13.3805 41.6202 13.3805H43.3345C43.5249 13.3805 43.6202 13.2852 43.6202 13.0947L44.0011 10.7138C44.0011 10.5233 44.1916 10.3328 44.4773 10.3328H45.5249C47.7154 10.3328 48.9535 9.28516 49.2392 7.18996C49.4297 6.33276 49.2392 5.57086 48.8583 5.09466C48.2869 4.61846 47.4297 4.33276 46.3821 4.33276ZM46.763 7.47566C46.5726 8.61846 45.7154 8.61846 44.8583 8.61846H44.2869L44.6678 6.42796C44.6678 6.33276 44.763 6.23756 44.9535 6.23756H45.144C45.7154 6.23756 46.2869 6.23756 46.5726 6.61846C46.763 6.71376 46.763 6.99946 46.763 7.47566Z" fill="#139AD6"/>
<path d="M23.0498 4.33276H19.8117C19.6212 4.33276 19.4308 4.52326 19.3355 4.71376L18.0022 13.0947C18.0022 13.2852 18.0974 13.3805 18.2879 13.3805H19.8117C20.0022 13.3805 20.1927 13.19 20.2879 12.9995L20.6689 10.7138C20.6689 10.5233 20.8593 10.3328 21.1451 10.3328H22.1927C24.3831 10.3328 25.6212 9.28516 25.907 7.18996C26.0974 6.33276 25.907 5.57086 25.526 5.09466C24.9546 4.61846 24.1927 4.33276 23.0498 4.33276ZM23.4308 7.47566C23.2403 8.61846 22.3831 8.61846 21.526 8.61846H21.0498L21.4308 6.42796C21.4308 6.33276 21.526 6.23756 21.7165 6.23756H21.907C22.4784 6.23756 23.0498 6.23756 23.3355 6.61846C23.4308 6.71376 23.526 6.99946 23.4308 7.47566Z" fill="#263B80"/>
<path d="M32.8585 7.38007H31.3347C31.2395 7.38007 31.049 7.47527 31.049 7.57057L30.9538 8.04677L30.8585 7.85627C30.4776 7.38007 29.8109 7.18958 29.049 7.18958C27.3348 7.18958 25.811 8.52298 25.5252 10.3325C25.3348 11.2849 25.6205 12.142 26.0967 12.7135C26.5729 13.2849 27.2395 13.4754 28.0967 13.4754C29.5252 13.4754 30.2871 12.6182 30.2871 12.6182L30.1919 13.0944C30.1919 13.2849 30.2871 13.3801 30.4776 13.3801H31.9062C32.0966 13.3801 32.2871 13.1896 32.3823 12.9992L33.2395 7.66578C33.1442 7.57058 32.9538 7.38007 32.8585 7.38007ZM30.6681 10.4277C30.4776 11.2849 29.8109 11.9515 28.8586 11.9515C28.3824 11.9515 28.0014 11.7611 27.8109 11.5706C27.6205 11.2849 27.5252 10.9039 27.5252 10.4277C27.6205 9.57058 28.3824 8.90387 29.2395 8.90387C29.7157 8.90387 30.0014 9.09437 30.2871 9.28487C30.5728 9.57057 30.6681 10.0468 30.6681 10.4277Z" fill="#263B80"/>
<path d="M56.0947 7.38083H54.5709C54.4756 7.38083 54.2852 7.47613 54.2852 7.57133L54.1899 8.04753L54.0947 7.85703C53.7137 7.38083 53.0471 7.19043 52.2851 7.19043C50.5709 7.19043 49.047 8.52373 48.7613 10.3332C48.5708 11.2856 48.8566 12.1428 49.3328 12.7142C49.8089 13.2856 50.4756 13.4761 51.3328 13.4761C52.7613 13.4761 53.5232 12.619 53.5232 12.619L53.428 13.0952C53.428 13.2856 53.5232 13.3809 53.7137 13.3809H55.1423C55.3328 13.3809 55.5233 13.1904 55.6185 12.9999L56.4756 7.66663C56.3804 7.57133 56.2852 7.38083 56.0947 7.38083ZM53.9042 10.4285C53.7137 11.2856 53.0471 11.9523 52.0947 11.9523C51.6185 11.9523 51.2375 11.7618 51.047 11.5713C50.8566 11.2856 50.7613 10.9047 50.7613 10.4285C50.8566 9.57133 51.6185 8.90473 52.4756 8.90473C52.9518 8.90473 53.2375 9.09513 53.5232 9.28563C53.9042 9.57133 53.9994 10.0475 53.9042 10.4285Z" fill="#139AD6"/>
<path d="M41.1424 7.38123H39.5234C39.3329 7.38123 39.2377 7.47652 39.1424 7.57172L37.0472 10.8098L36.0948 7.76222C35.9996 7.57172 35.9043 7.47652 35.6186 7.47652H34.0948C33.9043 7.47652 33.8091 7.66693 33.8091 7.85743L35.5234 12.905L33.9043 15.1907C33.8091 15.3812 33.9043 15.6669 34.0948 15.6669H35.6186C35.8091 15.6669 35.9043 15.5717 35.9996 15.4764L41.2377 7.95272C41.5234 7.66692 41.3329 7.38123 41.1424 7.38123Z" fill="#263B80"/>
<path d="M57.9058 4.61859L56.5725 13.19C56.5725 13.3805 56.6677 13.4757 56.8582 13.4757H58.1916C58.382 13.4757 58.5725 13.2853 58.6677 13.0948L60.0011 4.71379C60.0011 4.52329 59.9058 4.42809 59.7154 4.42809H58.1916C58.0963 4.33289 58.0011 4.42809 57.9058 4.61859Z" fill="#139AD6"/>
<path d="M10.9524 1.47664C10.2857 0.714741 9.04762 0.33374 7.33333 0.33374H2.57143C2.28571 0.33374 2 0.619539 1.90476 0.905239L0 13.3814C0 13.6671 0.190476 13.8576 0.380952 13.8576H3.33333L4.09524 9.19094V9.38144C4.19048 9.09564 4.47619 8.80994 4.76191 8.80994H6.19048C8.95238 8.80994 11.0476 7.66714 11.7143 4.52424C11.7143 4.42904 11.7143 4.33374 11.7143 4.23854C11.619 4.23854 11.619 4.23854 11.7143 4.23854C11.8095 3.00044 11.619 2.23854 10.9524 1.47664Z" fill="#263B80"/>
<path d="M11.619 4.2373C11.619 4.3325 11.619 4.4278 11.619 4.523C10.9524 7.7611 8.85713 8.8087 6.09523 8.8087H4.66666C4.38094 8.8087 4.09523 9.0944 3.99999 9.3802L3.04761 15.1897C3.04761 15.3802 3.14285 15.5706 3.42856 15.5706H5.90475C6.19046 15.5706 6.47618 15.3802 6.47618 15.0944V14.9992L6.95237 12.0468V11.8564C6.95237 11.5706 7.23808 11.3802 7.5238 11.3802H7.90475C10.2857 11.3802 12.1905 10.4278 12.6667 7.5706C12.8571 6.4278 12.7619 5.3802 12.1905 4.7135C12.0952 4.523 11.9047 4.3325 11.619 4.2373Z" fill="#139AD6"/>
<path d="M10.9516 3.95328C10.8564 3.95328 10.7611 3.85798 10.6659 3.85798C10.5707 3.85798 10.4754 3.85798 10.3802 3.76278C9.99924 3.66748 9.61829 3.66748 9.1421 3.66748H5.42782C5.33258 3.66748 5.23734 3.66748 5.1421 3.76278C4.95163 3.85798 4.85639 4.04848 4.85639 4.23898L4.09448 9.19128V9.38178C4.18972 9.09608 4.47543 8.81038 4.76115 8.81038H6.18972C8.95162 8.81038 11.0469 7.66748 11.7135 4.52468C11.7135 4.42938 11.7135 4.33418 11.8088 4.23898C11.6183 4.14368 11.5231 4.04848 11.3326 4.04848C11.0469 3.95328 11.0469 3.95328 10.9516 3.95328Z" fill="#232C65"/>
</svg>
