<svg width="15" height="17" viewBox="0 0 15 17" fill="none" xmlns="http://www.w3.org/2000/svg">
<path d="M14.7962 2.37924C14.766 2.16005 14.6101 1.97975 14.3995 1.92049L7.64714 0.0203335C7.55088 -0.00677782 7.4492 -0.00677782 7.35286 0.0203335L0.600532 1.92049C0.389852 1.97975 0.234001 2.15998 0.203841 2.37924C0.164676 2.6642 -0.728777 9.39728 1.56287 12.7468C3.85181 16.0923 7.22849 16.9496 7.37109 16.9845C7.41347 16.9949 7.45666 17 7.5 17C7.54334 17 7.58653 16.9948 7.62891 16.9845C7.77159 16.9496 11.1483 16.0923 13.4371 12.7468C15.7288 9.39736 14.8353 2.66428 14.7962 2.37924ZM11.8544 6.31008L7.24862 10.9706C7.14145 11.0791 7.0009 11.1334 6.86042 11.1334C6.71994 11.1334 6.57939 11.0791 6.47222 10.9706L3.62451 8.08905C3.52151 7.9849 3.46368 7.84357 3.46368 7.69624C3.46368 7.5489 3.52159 7.40757 3.62451 7.30342L4.18994 6.73127C4.40435 6.51438 4.752 6.5143 4.96634 6.73127L6.86042 8.64787L10.5126 4.95222C10.6155 4.84799 10.7552 4.78948 10.9008 4.78948C11.0464 4.78948 11.186 4.84799 11.289 4.95222L11.8544 5.52437C12.0688 5.74133 12.0688 6.09311 11.8544 6.31008Z" fill="#726364"/>
</svg>
