<svg width="18" height="13" viewBox="0 0 18 13" fill="none" xmlns="http://www.w3.org/2000/svg">
<path d="M18 2.91797V1.96875C18 0.881438 17.1186 0 16.0312 0H1.96875C0.881438 0 0 0.881438 0 1.96875V2.91797C0 3.01504 0.0787148 3.09375 0.175781 3.09375H17.8242C17.9213 3.09375 18 3.01504 18 2.91797Z" fill="#232120"/>
<path d="M0 4.39465V10.4064C0 11.4937 0.881438 12.3751 1.96875 12.3751H16.0312C17.1186 12.3751 18 11.4937 18 10.4064V4.39465C18 4.29759 17.9213 4.21887 17.8242 4.21887H0.175781C0.0787148 4.21887 0 4.29759 0 4.39465ZM4.5 9.00012C4.5 9.31076 4.24814 9.56262 3.9375 9.56262H3.375C3.06436 9.56262 2.8125 9.31076 2.8125 9.00012V8.43762C2.8125 8.12698 3.06436 7.87512 3.375 7.87512H3.9375C4.24814 7.87512 4.5 8.12698 4.5 8.43762V9.00012Z" fill="#232120"/>
</svg>
