<?xml version="1.0" standalone="no"?>
<!DOCTYPE svg PUBLIC "-//W3C//DTD SVG 1.1//EN" "http://www.w3.org/Graphics/SVG/1.1/DTD/svg11.dtd" >
<svg xmlns="http://www.w3.org/2000/svg" xmlns:xlink="http://www.w3.org/1999/xlink" version="1.1">
<metadata></metadata>
<defs>
<font id="urwclassicow01-regularregular" horiz-adv-x="1132" >
<font-face units-per-em="2048" ascent="1503" descent="-545" />
<missing-glyph horiz-adv-x="512" />
<glyph horiz-adv-x="0" />
<glyph horiz-adv-x="682" />
<glyph unicode=" "  horiz-adv-x="512" />
<glyph unicode="&#x09;" horiz-adv-x="512" />
<glyph unicode="&#xa0;" horiz-adv-x="512" />
<glyph unicode="!" horiz-adv-x="528" d="M150 96q0 45 33.5 78t80.5 33t80 -33t33 -80t-34 -80.5t-83 -33.5q-45 0 -77.5 34.5t-32.5 81.5zM164 1251q0 133 102 133q94 0 94 -120v-25.5t-2 -28.5l-73 -878h-43l-76 872z" />
<glyph unicode="&#x22;" horiz-adv-x="786" d="M158 1307q0 41 22.5 67.5t57.5 26.5t56 -26.5t21 -69.5q0 -10 -1 -22.5t-3 -31.5l-55 -428h-39l-55 428q-2 14 -3 29.5t-1 26.5zM471 1288v19q0 41 22.5 67.5t57.5 26.5t56.5 -26.5t21.5 -69.5q0 -10 -1 -26.5t-3 -27.5l-56 -428h-39l-55 428q-4 29 -4 37z" />
<glyph unicode="#" d="M139 238l27 141h184l111 622h-189l19 138h190l37 204h70l-33 -204h190l37 204h68l-35 -204h193l-27 -138h-190l-107 -622h199l-25 -141h-199l-36 -203h-68l33 203h-195l-33 -203h-69l35 203h-187zM422 379h192l109 622h-195z" />
<glyph unicode="$" d="M152 92q35 90 41 148h18q98 -199 303 -201v588q-92 29 -142 51t-87 47q-63 43 -98 111.5t-35 148.5q0 147 97 245.5t265 123.5q0 59 -1 89t-5 58q20 -4 28.5 -5t18.5 -1t35 6q-4 -27 -5 -68.5t-1 -78.5q98 2 193 -28t149 -77q-29 -39 -43.5 -64.5t-22.5 -54.5h-18 q-68 156 -258 164v-520q100 -33 150 -51t87 -41q86 -49 124 -116.5t38 -168.5q0 -82 -28.5 -153.5t-81 -126t-126 -90t-163.5 -47.5v-80t1 -57.5t2 -43t3 -37.5q-18 4 -26.5 4.5t-18.5 0.5h-15.5t-21.5 -5q4 25 4 43.5t2 65.5v104q-125 2 -211 30t-151 87zM287 1049 q0 -123 104 -197q20 -14 47 -26.5t76 -30.5v495q-106 -14 -166.5 -78.5t-60.5 -162.5zM584 45q117 20 185.5 98t68.5 189q0 102 -59.5 165.5t-194.5 108.5v-561z" />
<glyph unicode="%" horiz-adv-x="1615" d="M68 1030q0 160 86.5 248t246.5 88q154 0 240 -89t86 -247t-87 -246t-243 -88t-242.5 88t-86.5 246zM217 1028q0 -139 45 -211t133 -72q180 0 180 285q0 139 -45 212t-131 73q-182 0 -182 -287zM315 -174l463 879q100 193 199.5 385t200.5 387q16 -4 25 -4h20h19t26 4 q-223 -426 -437.5 -837t-422.5 -816q-10 2 -17.5 2h-17.5h-37h-21zM887 334q0 160 87 248t247 88q154 0 239.5 -89t85.5 -247t-87 -246t-242 -88q-156 0 -243 88t-87 246zM1036 332q0 -139 45 -211t133 -72q180 0 181 285q0 139 -45 211.5t-131 72.5q-182 0 -183 -286z" />
<glyph unicode="&#x26;" horiz-adv-x="1388" d="M109 297q0 129 93 240.5t271 195.5q-76 100 -106.5 173t-30.5 145q0 63 23.5 118.5t65.5 94.5t100.5 61.5t125.5 22.5q119 0 194 -60.5t75 -159.5q0 -96 -66 -179t-215 -177q35 -49 70.5 -95t99.5 -120l192 -227q80 117 141.5 220t96.5 185q20 -31 35.5 -48t44.5 -40 q-74 -102 -138.5 -187t-138.5 -177q20 -25 53 -63t69 -77t70 -74.5t56 -60.5v-16q-39 4 -64.5 6t-54.5 2q-31 0 -55 -2t-59 -6q-12 18 -21.5 32.5t-23 32t-31.5 41t-49 62.5q-59 -55 -111.5 -92t-103.5 -59.5t-105.5 -33t-115.5 -10.5q-178 0 -282.5 90t-104.5 242zM270 354 q0 -63 23.5 -117.5t63.5 -94.5t95.5 -63.5t118.5 -23.5q88 0 162 35t160 115q-6 6 -17.5 20.5t-17.5 24.5l-172 205q-29 35 -76 95t-100 136q-113 -51 -176.5 -139t-63.5 -193zM479 1110q0 -66 29.5 -134.5t97.5 -160.5q209 139 209 313q0 72 -45 118t-117 46 q-74 0 -124 -52t-50 -130z" />
<glyph unicode="'" horiz-adv-x="471" d="M158 1307q0 41 22.5 67.5t57.5 26.5t56 -26.5t21 -69.5q0 -10 -1 -22.5t-3 -31.5l-55 -428h-39l-55 428q-2 14 -3 29.5t-1 26.5z" />
<glyph unicode="(" horiz-adv-x="669" d="M115 670q0 322 157 581q45 72 98.5 130.5t137.5 123.5l59 -24q-84 -78 -133 -151t-84 -167q-41 -104 -61.5 -231t-20.5 -262q0 -152 25.5 -290t73.5 -247q35 -78 81 -141.5t119 -134.5l-59 -25q-94 76 -152.5 142.5t-107.5 154.5q-133 246 -133 541z" />
<glyph unicode=")" horiz-adv-x="669" d="M102 -143q84 78 133.5 150.5t83.5 166.5q41 104 61.5 232.5t20.5 263.5q0 150 -25.5 289t-72.5 247q-35 78 -81 140.5t-120 134.5l60 24q94 -74 152.5 -141.5t107.5 -155.5q133 -246 133 -538q0 -322 -158 -582q-45 -72 -98 -131t-137 -125z" />
<glyph unicode="*" horiz-adv-x="886" d="M125 930l256 117q-78 35 -141.5 64.5t-114.5 51.5q6 8 15.5 22.5t18.5 30t15 28.5t8 22l25 -19q45 -29 90 -65q47 -33 68.5 -48.5t48.5 -33.5l-29 282q16 -4 26.5 -4h32.5h32t26 4l-27 -282q59 41 114.5 82t115.5 84q2 -8 10 -23.5l16 -31t16.5 -29t14.5 -19.5 q-63 -29 -127 -58.5t-129 -57.5q84 -39 147.5 -68t108.5 -49q-6 -6 -14.5 -19.5t-16.5 -28t-16 -29.5t-10 -24q-59 41 -116 82l-114 82q4 -51 7 -83.5t6.5 -60.5t6.5 -57.5t7 -78.5q-14 4 -24.5 4h-33.5h-33t-26 -4l29 280l-232 -164q-4 8 -11 23.5t-15.5 31t-16.5 28 t-14 18.5z" />
<glyph unicode="+" d="M125 606v111h381v362h121v-362h381v-111h-381v-360h-121v360h-381z" />
<glyph unicode="," horiz-adv-x="473" d="M35 -334l147 473q29 92 92 92q31 0 54.5 -21.5t23.5 -49.5q0 -37 -33 -88l-249 -420z" />
<glyph unicode="-" horiz-adv-x="473" d="M0 481v133h473v-133h-473z" />
<glyph unicode="." horiz-adv-x="473" d="M123 96q0 45 34 78t81 33t79.5 -33t32.5 -80t-33.5 -80.5t-83.5 -33.5q-45 0 -77.5 34.5t-32.5 81.5z" />
<glyph unicode="/" horiz-adv-x="919" d="M-2 -176l790 1669q23 -4 29 -4h12h16.5t24.5 4l-784 -1669q-12 2 -21.5 2h-21.5h-21.5t-23.5 -2z" />
<glyph unicode="0" d="M94 657q0 186 29 313.5t88 211.5q118 161 360 161q113 0 204 -41.5t149 -119.5q59 -82 87.5 -210t28.5 -315q0 -186 -28.5 -313t-87.5 -209q-119 -162 -357 -162t-356 162q-59 82 -88 209t-29 313zM262 659q0 -322 74 -472t231 -150q156 0 230.5 150.5t74.5 471.5 q0 147 -14 253t-45 184q-33 86 -97.5 135t-146.5 49q-160 0 -233.5 -148.5t-73.5 -472.5z" />
<glyph unicode="1" d="M158 1133q70 29 144.5 61.5t145 64t133 61.5t109.5 54l21 -12q-8 -104 -12.5 -187t-7.5 -159t-4 -152t-1 -168q0 -102 1 -205.5t4 -196.5t7 -171t11 -131q-37 4 -57.5 6t-41.5 2q-23 0 -43 -2t-55 -6q4 72 7 130t5 114.5t3 117t2 134t1 168v218.5v162q0 27 -1 43.5 t-1 29.5v26.5v38.5v15t2 30q-23 -10 -60.5 -32t-80.5 -46.5t-84 -48t-67 -37.5q-12 20 -37 43.5t-43 34.5z" />
<glyph unicode="2" d="M94 25q61 59 102.5 98t78 77t80.5 85t116 125q49 53 84 92t59.5 71.5t42 62.5t33.5 64q72 150 72 293q0 61 -17.5 112.5t-50 89.5t-77 58.5t-97.5 20.5q-94 0 -154.5 -58.5t-80.5 -168.5h-21q-18 47 -78 110q121 186 365 186q186 0 289.5 -92t103.5 -256q0 -55 -9 -102 t-31.5 -93t-58.5 -96.5t-89 -107.5q-4 -4 -79 -83t-220 -230q-31 -31 -50.5 -52.5t-34 -38t-25.5 -31t-25 -32.5l108 -2q47 0 116.5 2t143.5 5t146.5 6t126.5 7q-4 -27 -6.5 -43t-2.5 -36q0 -23 2 -37.5t7 -38.5q-98 6 -183.5 8t-193.5 2q-66 0 -142.5 -1t-146.5 -2t-124 -3 t-77 -4z" />
<glyph unicode="3" d="M121 41q25 49 43 164h20q31 -82 96.5 -125t157.5 -43q72 0 131.5 24.5t101.5 70.5t65.5 108.5t23.5 140.5q0 135 -75 210t-210 75q-23 0 -43 -2t-51 -9q4 10 4 17.5v17.5v22.5t-4 26.5q16 -4 25.5 -4h23.5q135 0 207 75t72 216q0 117 -58.5 185.5t-161.5 68.5 q-86 0 -145 -51t-84 -144h-16q-14 35 -30.5 67t-35.5 54q66 72 145.5 104.5t190.5 32.5q174 0 271.5 -78.5t97.5 -220.5q0 -246 -283 -331q162 -18 252 -103.5t90 -216.5q0 -92 -38 -170t-107.5 -133t-165.5 -86t-213 -31q-92 0 -163 16.5t-134 51.5z" />
<glyph unicode="4" d="M78 360v9v8v10v8q8 10 16 21.5t17 23.5q33 47 71.5 103.5t67.5 93.5q92 129 166 233q39 53 77.5 107.5t73.5 105.5l140 201q10 14 16 25.5t16 23.5q27 -4 40.5 -5t25.5 -1q10 0 21.5 1t47.5 5q-2 -45 -5 -128t-5 -176t-3 -185t-1 -158v-205q59 2 105.5 4t87.5 7 q-4 -23 -6.5 -36.5t-2.5 -29.5q0 -25 9 -66q-53 2 -101.5 3.5t-93.5 3.5v-33v-33t1 -46t1 -75q0 -72 2 -110.5t6 -77.5q-33 4 -51 6t-35 2q-16 0 -34.5 -2t-53.5 -6q6 51 10.5 145t4.5 199v33q-170 -4 -327 -5.5t-304 -3.5zM221 481l424 -2l64 2q2 154 2 330v379 q-20 -35 -42 -66.5t-49.5 -71.5t-63.5 -91.5t-87 -122.5q-51 -72 -87 -121t-62.5 -88t-49 -73t-49.5 -75z" />
<glyph unicode="5" d="M137 55q10 31 17.5 51.5t12.5 37t9 34t8 41.5h19q37 -88 107.5 -135t162.5 -47q68 0 126 27.5t99 75.5t64.5 116t23.5 147q0 147 -76.5 232.5t-211.5 85.5q-55 0 -102.5 -15.5t-102.5 -52.5l-17 15q8 63 12.5 144t4.5 177q0 39 -1 84t-3 91t-5 90t-5 79l12 6 q33 -6 65.5 -9t75.5 -5t101.5 -3t144.5 -1q82 0 142.5 3t125.5 9q-10 -45 -12 -61.5t-2 -32.5q0 -12 1 -25.5t3 -37.5q-53 6 -104.5 9t-114 6t-145.5 5t-199 4v-26q-4 -119 -6 -191t-3.5 -115t-2.5 -66.5t-1 -43.5h11q53 25 99 35t101 10q90 0 163 -26.5t125 -74t81 -116 t29 -150.5q0 -100 -38 -185t-105.5 -146.5t-160 -96.5t-202.5 -35q-92 0 -180 22.5t-146 59.5z" />
<glyph unicode="6" d="M139 543q0 174 36 307t112 242q172 252 463 251q31 0 56 -2t60 -10q4 -29 9.5 -47t17.5 -55l6 -15l-14 -6q-35 41 -71 57.5t-91 16.5q-203 0 -320 -256q-23 -49 -41 -105.5t-30.5 -111.5t-17.5 -106.5t-3 -92.5v-4q121 197 346 197q86 0 157 -27.5t121 -79t77.5 -123 t27.5 -157.5q0 -96 -33.5 -178t-93 -140.5t-142.5 -91.5t-181 -33q-217 0 -334 147.5t-117 422.5zM322 373q0 -74 20 -135.5t56 -106.5t85 -69.5t109 -24.5q123 0 194.5 99.5t71.5 271.5q0 145 -66.5 229t-183.5 84q-63 0 -115.5 -25.5t-90 -71.5t-59 -110.5t-21.5 -140.5z " />
<glyph unicode="7" d="M197 -8q117 188 204.5 330.5t154.5 253t117 193.5t90 152.5t74.5 131t69.5 129.5q-109 0 -194.5 -2t-165.5 -5.5t-161 -8.5t-179 -11q8 29 10 47.5t2 40.5q0 23 -2 42.5t-10 47.5q72 -10 202 -14t347 -4q111 0 181.5 1t133.5 5v-33q-31 -47 -83 -134t-114.5 -197.5 t-133 -236.5t-139.5 -251t-130 -241.5t-109 -209.5l-12 -26q-25 4 -40 6t-31 2t-34 -2t-48 -6z" />
<glyph unicode="8" d="M115 389q0 276 295 361q-113 29 -171.5 103.5t-58.5 186.5q0 141 103.5 222t283.5 81t283.5 -80.5t103.5 -222.5q0 -113 -58 -187t-171 -103q295 -84 295 -361q0 -92 -33 -169t-92 -132t-143 -85t-185 -30q-102 0 -185 30t-142.5 85t-92 132t-32.5 169zM297 373 q0 -152 73.5 -244t196.5 -92t197 92t74 244t-73 244t-194 92q-127 0 -200.5 -91.5t-73.5 -244.5zM354 1026q0 -115 58.5 -184.5t154.5 -69.5t154.5 69.5t58.5 184.5t-57.5 184.5t-153.5 69.5q-100 0 -157.5 -68.5t-57.5 -185.5z" />
<glyph unicode="9" d="M98 913q0 94 33 174t93.5 137.5t143.5 89.5t183 32q217 0 328.5 -146.5t111.5 -427.5q0 -176 -45 -323.5t-125 -254t-189.5 -167t-240.5 -60.5q-47 0 -91 8.5t-95 30.5q-14 37 -27.5 67.5t-21.5 43.5l16 10q66 -49 123 -70.5t119 -21.5q86 0 156.5 48t122.5 137t84 217 t40 288q-68 -104 -146.5 -151.5t-189.5 -47.5q-84 0 -154.5 29t-121.5 80t-79 121.5t-28 156.5zM272 930q0 -152 69 -238t189 -86q61 0 111.5 25.5t86.5 72t56.5 110t20.5 140.5q0 72 -19.5 132.5t-53.5 103.5t-81 67.5t-104 24.5q-127 0 -201 -95t-74 -257z" />
<glyph unicode=":" horiz-adv-x="473" d="M123 96q0 45 34 78t81 33t79.5 -33t32.5 -80t-33.5 -80.5t-83.5 -33.5q-45 0 -77.5 34.5t-32.5 81.5zM123 813q0 45 34 78t81 33t79.5 -33t32.5 -80t-33.5 -81t-83.5 -34q-45 0 -77.5 35t-32.5 82z" />
<glyph unicode=";" horiz-adv-x="473" d="M33 -334l147 473q29 92 92 92q31 0 54.5 -21.5t23.5 -49.5q0 -37 -33 -88l-249 -420zM135 813q0 45 34 78t81 33t79.5 -33t32.5 -80t-33.5 -81t-82.5 -34q-45 0 -78 35t-33 82z" />
<glyph unicode="&#x3c;" horiz-adv-x="1050" d="M29 418v71l946 373l47 -74l-842 -335l842 -334l-70 -80z" />
<glyph unicode="=" d="M125 449v108h883v-108h-883zM125 766v108h883v-108h-883z" />
<glyph unicode="&#x3e;" horiz-adv-x="1050" d="M29 113l841 331l-841 336l47 76l946 -373v-71l-924 -381z" />
<glyph unicode="?" horiz-adv-x="796" d="M164 1315q55 37 111.5 53t123.5 16q131 0 210 -72.5t79 -195.5q0 -111 -72 -207q-12 -18 -26.5 -36.5t-34.5 -41t-49 -54.5t-70 -77q-55 -59 -76.5 -99t-21.5 -83q0 -53 34 -88t87 -35q39 0 71 25l17 -8q-8 -10 -14.5 -27.5t-8.5 -28.5q-39 -16 -80 -16q-49 0 -92 17.5 t-74.5 47t-49 71.5t-17.5 91q0 37 9 73t29.5 73t54.5 77.5t83 92.5q51 51 84 89t51.5 68.5t25.5 57t7 55.5q0 70 -48 118t-116 48q-63 0 -116.5 -32t-84.5 -89h-14q0 70 -12 117zM285 96q0 45 33.5 78t80.5 33t80 -33t33 -80t-34 -80.5t-83 -33.5q-45 0 -77.5 34.5 t-32.5 81.5z" />
<glyph unicode="@" horiz-adv-x="1386" d="M55 551q0 150 52.5 276.5t146.5 219t224 143.5t284 51q125 0 226.5 -33.5t174 -95t111.5 -148.5t39 -194q0 -94 -32 -183t-84 -159t-120.5 -112t-140.5 -42q-143 0 -143 177q-59 -92 -112.5 -130t-125.5 -38q-92 0 -143.5 65.5t-51.5 183.5q0 96 34 187.5t93 161.5 q98 115 236 114q59 0 96 -20.5t62 -71.5l12 72l123 22l-105 -473q-12 -53 -15 -72.5t-3 -37.5q0 -37 21.5 -59.5t58.5 -22.5q51 0 99 35.5t83 96t56.5 141.5t21.5 171q0 106 -32 182t-99 132q-127 104 -330 104q-137 0 -249.5 -46t-192.5 -131t-124 -204t-44 -262 q0 -244 133 -377q68 -66 161 -101.5t203 -35.5q119 0 229.5 42t231.5 134l-14 -53q-215 -174 -467 -174q-236 0 -397 131q-96 78 -141.5 183.5t-45.5 250.5zM494 524q0 -180 114 -180q88 0 154 131q14 31 29.5 81t29 102.5t21.5 100.5t8 79q0 51 -30 82.5t-79 31.5 t-93 -35.5t-78.5 -95t-55 -136.5t-20.5 -161z" />
<glyph unicode="A" horiz-adv-x="1363" d="M43 -8q16 31 30.5 61.5t33 68.5t41 87t55.5 121q39 88 77.5 175t79.5 179q41 86 78 168t76 172q35 78 72 160t73 166l21 43q10 -2 20 -2t21 2l297 -703l151 -350q33 -76 54.5 -126t38 -87t30 -67.5t31.5 -67.5q-33 4 -54.5 6t-51.5 2q-29 0 -49.5 -2t-49.5 -6 q-14 39 -39.5 108.5t-56.5 147.5t-61.5 153.5t-55.5 130.5h-37l-233 3h-33t-74 -1.5t-80.5 -2.5t-58.5 -1q-37 -90 -64.5 -157.5t-39.5 -102.5l-9 -22q-8 -23 -20 -60.5t-29.5 -88t-38.5 -107.5q-47 8 -69 8q-16 0 -30.5 -2t-45.5 -6zM426 616q39 0 68.5 -1t56.5 -1h52.5 h58.5h54h46.5t48.5 1t59 1q-74 178 -129 305.5t-90 206.5z" />
<glyph unicode="B" horiz-adv-x="1202" d="M172 -8q6 61 10 124.5t6 149.5t3.5 204t1.5 288q0 86 -1.5 178t-3.5 177t-5 154.5t-5 106.5q37 -4 61.5 -5t51.5 -1q12 0 40.5 1t71.5 3q35 2 67 2h60q113 0 183.5 -7t130.5 -26q92 -29 140 -96t48 -166q0 -78 -35.5 -147.5t-101.5 -114.5q-41 -29 -82 -45.5t-111 -32.5 q383 -57 383 -338q0 -94 -46 -179t-124 -136q-76 -49 -169 -71.5t-222 -22.5q-23 0 -53.5 1t-64.5 3q-41 2 -71 3t-46 1q-31 0 -54.5 -2t-62.5 -6zM352 760q25 -2 37 -2h29q223 0 329.5 69.5t106.5 216.5q0 258 -344 259q-35 0 -66.5 -3.5t-83.5 -9.5q-2 -45 -3 -79.5 t-2 -65.5t-1 -59.5v-59.5v-192q-2 -23 -2 -37.5v-18.5v-18zM354 385q0 -23 1 -66t2 -90t3 -90t2 -61q47 -6 80 -8t68 -2q178 0 268 71q55 43 87 111.5t32 146.5q0 88 -38 154.5t-103 95.5q-49 23 -111.5 33t-155.5 10q-27 0 -53 -1t-80 -3z" />
<glyph unicode="C" horiz-adv-x="1396" d="M111 672q0 168 54 302t154.5 229t243 146.5t318.5 51.5q254 0 432 -84q-29 -68 -41 -156l-15 -6q-160 170 -395 170q-123 0 -229.5 -50t-181.5 -145q-137 -168 -138 -452q0 -295 146 -461q152 -176 399 -176q123 0 230.5 42t211.5 132l11 -6l-29 -121 q-178 -123 -459 -123q-162 0 -294 50.5t-225 142.5t-143 223t-50 291z" />
<glyph unicode="D" horiz-adv-x="1558" d="M172 -8q4 33 7 110.5t6 176t5.5 208t2.5 207.5q0 215 -5.5 390t-15.5 290q45 -4 78 -6t80 -2q29 0 81 1t128 3q59 2 118.5 3t104.5 1q90 0 161.5 -8t131 -26.5t108.5 -48t94 -72.5q190 -178 191 -484q0 -186 -68.5 -339.5t-195.5 -252.5q-53 -41 -108.5 -69.5t-122 -47 t-144.5 -26.5t-174 -8q-27 0 -77 1t-103 3q-47 2 -81 3t-57 1q-39 0 -69.5 -2t-75.5 -6zM354 717q0 -94 1 -191.5t3 -183.5t4.5 -154.5t4.5 -103.5q53 -10 95 -13t99 -3q100 0 178 8t139.5 26.5t110.5 48t90 72.5q166 172 166 490q0 301 -153 454q-37 37 -79 61.5t-97.5 40 t-128 21.5t-169.5 6q-78 0 -132 -3t-121 -11q-2 -29 -4.5 -97.5t-3.5 -152.5t-2 -169t-1 -146z" />
<glyph unicode="E" horiz-adv-x="997" d="M172 -8q4 51 8 136t7 191.5t5.5 228.5t2.5 245q0 94 -1 182t-3.5 162.5t-5.5 135t-5 101.5q45 -4 139.5 -6t227.5 -2q131 0 223 2t127 6q-4 -23 -5 -35t-1 -24q0 -10 1 -21.5t5 -38.5q-43 4 -99.5 8.5t-118 7.5t-122.5 4t-117 1h-31.5t-35.5 -2q-2 -16 -4 -80 t-5.5 -140.5t-5.5 -146t-2 -98.5v-15.5t2 -25.5q23 -2 36.5 -2h37.5q55 0 115.5 1t118 4t105.5 6t79 7q-4 -25 -6 -38t-2 -27q0 -25 8 -55q-66 6 -176.5 10t-245.5 4h-34.5t-37.5 -2v-50t2 -87v-152v-68.5t2 -80.5q2 -47 3.5 -77t1.5 -38v-33q23 -2 38 -2h33q61 0 130 2 t133.5 6t118.5 8.5t89 10.5q-4 -23 -5 -35t-1 -27q0 -16 1 -28.5t5 -32.5q-143 4 -221 6t-92 2q-45 0 -108.5 -1t-126 -2t-114.5 -2t-73 -3z" />
<glyph unicode="F" horiz-adv-x="950" d="M172 -8q4 51 8 147.5t7 217t5.5 258t2.5 270.5q0 51 -1 121.5t-3.5 140.5t-5.5 131t-5 96q47 -4 139.5 -6t227.5 -2q137 0 223 2t127 6q-4 -23 -5 -35t-1 -24q0 -10 1 -21.5t5 -38.5q-43 4 -99.5 7.5t-118 6.5t-122.5 5t-113 2h-31.5t-39.5 -2q-2 -18 -4 -82t-5.5 -139.5 t-5.5 -144t-2 -97.5v-16.5t2 -26.5q27 -2 42.5 -2h31.5q55 0 115.5 1t118 4t105.5 6t79 7q-4 -25 -6 -38t-2 -27q0 -25 8 -55q-78 8 -181.5 12t-226.5 4h-37.5t-48.5 -2q0 -150 1 -262.5t3 -194.5t5.5 -137t7.5 -92q-35 4 -55.5 6t-43.5 2t-44 -2t-58 -6z" />
<glyph unicode="G" horiz-adv-x="1587" d="M111 664q0 180 62.5 326.5t178.5 240.5q209 170 561 170q160 0 282 -29t232 -90q-18 -33 -29.5 -67.5t-21.5 -86.5h-20q-84 94 -204 145.5t-257 51.5q-133 0 -239.5 -46t-183.5 -130t-118 -203t-41 -264q0 -147 41 -266t118 -202t187.5 -128t247.5 -45q180 0 334 70 q4 70 6 132t2 134v73.5t-2 60.5t-4 54.5t-6 57.5q27 -4 44 -6.5t46 -2.5t50.5 2t52.5 7q-8 -80 -12.5 -168t-4.5 -181v-78.5t1 -55t2 -43t3 -40.5q-143 -47 -275 -69.5t-272 -22.5q-178 0 -309 41t-233 129q-109 92 -164 226.5t-55 302.5z" />
<glyph unicode="H" horiz-adv-x="1558" d="M172 -8q6 68 10 132t6 144t3.5 183.5t1.5 248.5q0 131 -1.5 231.5t-4.5 180.5t-6 143.5t-9 118.5q29 -4 49.5 -6t48.5 -2q29 0 50.5 2t52.5 6q-4 -35 -7.5 -99.5t-5.5 -140t-4 -154.5t-2 -142v-54q10 0 60.5 -1t116 -2t133 -2t114.5 -1t116 1t134.5 2t114.5 2t59 1 q2 16 2 33v21q0 63 -2 142t-5 154.5t-6 140t-7 99.5q33 -4 54.5 -6t49.5 -2q29 0 49.5 2t48.5 6q-6 -55 -9 -119.5t-6 -146.5t-4 -183.5t-1 -230.5q0 -139 1 -241.5t3 -183.5t6 -147.5t10 -129.5q-35 4 -55 6t-43 2t-43 -2t-61 -6q4 43 8 109.5t7 146.5t4 169t1 177v42 t-2 56q-23 0 -73 1t-111.5 2t-126 1h-113.5h-113.5t-126 -1t-111.5 -2t-73 -1v-108q0 -80 1 -167t4 -168t6.5 -148.5t7.5 -108.5q-39 4 -60.5 6t-42.5 2q-23 0 -43 -2t-55 -6z" />
<glyph unicode="I" horiz-adv-x="544" d="M172 -8q10 129 14 322.5t4 473.5q0 82 -1 165t-4 160t-6 144.5t-7 116.5q31 -4 51.5 -6t48.5 -2q29 0 49.5 2t51.5 6q-4 -53 -8.5 -124.5t-7.5 -152.5t-4 -170t-1 -177q0 -262 5 -451.5t16 -306.5q-37 4 -58.5 6t-44.5 2t-43 -2t-55 -6z" />
<glyph unicode="J" horiz-adv-x="692" d="M2 -229q23 -4 36 -5.5t30 -1.5q123 0 187 65t75 202q6 72 9 258t3 471q0 88 -1 179t-4 173t-7 149.5t-11 112.5q43 -4 65 -6t40 -2q20 0 40.5 2t57.5 6q-6 -90 -9 -163.5t-5 -142.5t-3 -139.5t-1 -152.5q0 -78 1 -158.5t3 -156.5q4 -88 5 -161t1 -118q0 -147 -45 -247.5 t-143 -159.5q-47 -29 -114 -45.5t-138 -16.5h-26.5t-29.5 4z" />
<glyph unicode="K" horiz-adv-x="1251" d="M172 -8q4 53 7 99t5 95.5t3 110.5t2 147t1 203v281q0 39 -2 103.5t-4 131t-6 125t-6 86.5q29 -4 53.5 -6t57.5 -2q35 0 51 2t39 6q-4 -39 -7.5 -109.5t-6.5 -158.5t-5 -184.5t-2 -184.5q14 0 27.5 5.5t40 29t74 69.5t129.5 128l44 44l39.5 39.5t43 46t57.5 62.5 q53 57 86 92t52.5 56.5t31.5 36t24 28.5q31 -4 48.5 -6t33.5 -2q18 0 36 2t57 6q-209 -193 -364 -342t-277 -274q12 -16 23 -30.5t27.5 -33t41 -45t65.5 -69.5q10 -12 36 -40t57.5 -65t68.5 -78t68.5 -77.5t56.5 -65.5t33 -39q53 -61 83.5 -97t50 -57.5t33 -36t29.5 -32.5 q-35 2 -55 4t-32.5 3t-20.5 1h-17q-18 0 -41.5 -2l-70.5 -6q-55 72 -122 152.5t-134.5 161.5t-134 157t-121.5 135q-41 43 -56 61q-18 23 -27 29t-24 10q2 -172 3 -280.5t3 -182t5.5 -127t9.5 -116.5q-37 4 -59.5 6t-49.5 2q-25 0 -44 -2t-48 -6z" />
<glyph unicode="L" horiz-adv-x="958" d="M172 -8q4 45 7 116.5t6 160.5t4 193.5t1 217.5q0 141 -1 234.5t-2 167t-5 140t-10 152.5q31 -4 53.5 -6t57.5 -2q29 0 47 2t43 6q-6 -78 -10.5 -152.5t-6.5 -163.5t-3 -198.5t-1 -255.5q0 -49 1 -112.5t3 -133t4 -140.5t7 -132q31 -2 49 -2h41q55 0 117.5 2t124 7 t117.5 11.5t99 12.5q-8 -35 -8 -68q0 -16 2 -28.5t6 -28.5q-23 2 -73.5 3t-111 2t-118 2t-88.5 1q-20 0 -69 -1t-104.5 -2t-105.5 -2t-73 -3z" />
<glyph unicode="M" horiz-adv-x="1849" d="M123 -8q20 109 38.5 222.5t41 270t52.5 374.5t71 534h32q74 -147 156 -305t160 -304.5t145.5 -270.5t114.5 -204q14 27 27.5 49.5t30 51t38 67.5t51.5 96q92 170 206 375t249 445h27l4 -35l71 -672q18 -158 31.5 -272.5t24 -196.5t18.5 -135t14 -90q-41 4 -61 6t-37 2 q-16 0 -35.5 -2t-60.5 -6q-4 147 -27.5 409.5t-68.5 626.5q-45 -78 -96.5 -168t-103.5 -186t-102.5 -192.5t-94.5 -183.5t-79.5 -161t-56.5 -125h-16q-55 113 -97 199t-79 157.5t-71 137t-73 138.5t-88 161t-112 205q-18 -141 -37 -300t-33 -302.5t-22.5 -255t-8.5 -160.5 q-35 4 -48 6t-25 2q-14 0 -27.5 -2t-42.5 -6z" />
<glyph unicode="N" horiz-adv-x="1556" d="M172 -8q8 61 15.5 185t12.5 287t8 352.5t3 379.5v71.5v51t-1 41t-1 41.5h33q14 -14 26.5 -28.5t33 -36t50 -55.5t76.5 -85q61 -66 110.5 -120t84.5 -89q51 -53 101 -105.5t99 -105.5q51 -51 106.5 -110.5t102.5 -114.5q41 -45 73 -78t56.5 -58.5t46 -47t43.5 -41.5 q2 104 3 169.5t2 111.5t1 82v81q0 217 -3 364.5t-11 239.5q29 -4 44.5 -6t27.5 -2q16 0 30.5 2t38.5 6q-8 -70 -15 -177t-11 -239.5t-7 -283t-3 -303.5v-218.5t4 -187.5h-31q-78 92 -174 201.5t-219 244t-277.5 298t-347.5 364.5q0 -16 -1 -57t-2 -94.5t-1 -112.5t-1 -111.5 t-1 -91.5v-51q0 -74 1 -151.5t4 -152.5t6 -142.5t7 -116.5q-39 8 -73 8q-20 0 -33.5 -2t-36.5 -6z" />
<glyph unicode="O" horiz-adv-x="1738" d="M111 684q0 166 52 298t150.5 225t238.5 143.5t314 50.5q178 0 319.5 -50.5t240 -143.5t150.5 -228t52 -307q0 -162 -53 -293t-152.5 -223.5t-240 -141.5t-314.5 -49q-176 0 -316 50.5t-238.5 143.5t-150.5 226t-52 299zM313 684q0 -272 113 -434q72 -104 187.5 -161.5 t254.5 -57.5q129 0 232.5 45t176.5 128t110.5 201.5t37.5 268.5q0 143 -26.5 250.5t-85.5 191.5q-72 104 -188 161.5t-257 57.5t-254.5 -56t-187.5 -163q-113 -162 -113 -432z" />
<glyph unicode="P" horiz-adv-x="1138" d="M172 -8q4 55 7 139t6 183.5t4 208t1 214.5q0 416 -18 637q47 -4 81 -6t75 -2q29 0 67.5 1t87.5 3q43 2 79 3t59 1q223 0 335.5 -86t112.5 -252q0 -104 -46 -190t-132 -137q-74 -45 -167 -64.5t-228 -19.5h-28.5h-27t-34 1t-52.5 1q0 -141 2 -244.5t4 -177.5t5.5 -124 t7.5 -89q-53 6 -69.5 7t-31.5 1q-12 0 -28.5 -1t-71.5 -7zM352 764q0 -17 2 -62q37 -4 62.5 -6t52.5 -2q203 0 309.5 84t106.5 244q0 281 -342 281q-49 0 -88 -3.5t-86 -11.5q-8 -104 -12.5 -229t-4.5 -258v-37z" />
<glyph unicode="Q" horiz-adv-x="1738" d="M111 682q0 166 53 299t151.5 226t238.5 143.5t316 50.5q174 0 314.5 -50.5t239 -142.5t151.5 -225t53 -299q0 -338 -213 -534q-66 -59 -137.5 -95t-177.5 -63q39 -33 69.5 -58.5t67.5 -54.5q27 -18 95.5 -68.5t183.5 -134.5q10 -8 19 -14t19 -14q-43 -16 -86 -39t-73 -45 q-41 43 -106.5 104.5t-135.5 120.5t-130 108.5t-93 69.5q-23 -2 -42.5 -2h-29.5q-172 0 -310 50.5t-235.5 143.5t-149.5 226t-52 297zM313 684q0 -272 113 -434q70 -102 185.5 -160.5t248.5 -58.5q270 0 417.5 171t147.5 484q0 268 -112 430q-72 104 -188 161.5t-255 57.5 q-141 0 -255.5 -56t-188.5 -163q-113 -158 -113 -432z" />
<glyph unicode="R" horiz-adv-x="1245" d="M172 -8q4 70 8 155.5t7 182t4.5 199t1.5 206.5q0 205 -5.5 360.5t-15.5 278.5q49 -4 83 -6t81 -2q27 0 62.5 1t80.5 3q53 2 96 3t66 1q98 0 165.5 -14t121.5 -47q59 -39 94 -105.5t35 -144.5q0 -104 -54.5 -186t-158.5 -134q-41 -23 -87 -36t-118 -27q10 -12 27.5 -33.5 t48 -60.5t79 -101.5t121.5 -154.5q53 -68 94.5 -119t75 -91t61.5 -71t54 -57q-47 4 -73.5 6t-55.5 2t-53.5 -2t-61.5 -6q-197 270 -334 445t-190 227h-78q0 -104 1 -210t4 -196t6.5 -159.5t7.5 -106.5q-37 4 -59.5 6t-47.5 2t-45 -2t-49 -6zM354 741q33 -4 59.5 -6t55.5 -2 q195 0 299 80t104 229q0 129 -82.5 196t-240.5 67q-43 0 -86 -3.5t-96 -11.5q-4 -66 -5.5 -120t-3.5 -114.5t-3 -135.5t-1 -179z" />
<glyph unicode="S" horiz-adv-x="1036" d="M104 80q10 33 17.5 57.5t11.5 44t7 39t5 41.5h21q20 -47 54 -85t76 -64.5t91 -42t98 -15.5q61 0 114.5 21.5t92.5 60.5t60.5 92.5t21.5 114.5q0 106 -72 174q-18 16 -34.5 29.5t-40 26t-58 27.5t-90.5 38q-92 39 -156.5 79t-105.5 85t-59.5 98t-18.5 119q0 84 32 154.5 t88 121t136 78t176 27.5q90 0 162 -22.5t146 -73.5q-18 -41 -33 -86t-23 -82h-20q-29 86 -98.5 135t-157.5 49q-53 0 -99.5 -18.5t-80 -52t-53 -79t-19.5 -96.5q0 -53 23.5 -102t66.5 -82q37 -27 88 -53.5t143 -63.5q51 -23 86 -38t59.5 -29.5t43 -28.5t37.5 -33 q92 -90 92 -231q0 -96 -37 -178t-102.5 -141.5t-154.5 -94.5t-191 -35q-201 0 -345 115z" />
<glyph unicode="T" horiz-adv-x="1048" d="M0 1243q4 20 6 32.5t2 29.5q0 16 -2 30.5t-6 38.5q68 -4 118 -6t103 -4t119 -2h162h175t128 2t112.5 4t131.5 6q-8 -23 -10.5 -36t-2.5 -29q0 -27 8 -66q-51 10 -161 17.5t-260 9.5q-6 -96 -9.5 -239.5t-3.5 -303.5q0 -266 4 -458.5t15 -276.5q-37 4 -59.5 6t-45.5 2 q-25 0 -44 -2t-52 -6q4 37 8 115.5t7 185t4.5 232.5t1.5 259q0 100 -3.5 225.5t-7.5 260.5q-16 0 -70.5 -2t-146.5 -6q-41 -2 -71.5 -3.5t-56 -3.5t-47 -5t-46.5 -7z" />
<glyph unicode="U" horiz-adv-x="1519" d="M172 1374q33 -4 54.5 -6t45.5 -2q27 0 47.5 2t53.5 6q-6 -57 -11.5 -141t-9.5 -181.5t-6 -202t-2 -198.5q0 -84 3 -145.5t11.5 -108.5t21.5 -82.5t32 -68.5q59 -96 148 -141.5t218 -45.5q162 0 273.5 75t146.5 210q10 39 17.5 84t11.5 109.5t5 155.5t1 225q0 88 -1 151.5 t-2 113.5t-4 94t-7 97q43 -6 55 -7t24 -1q23 0 70 8q-4 -29 -9 -98.5t-10.5 -157.5t-8.5 -183t-5 -173q-2 -92 -4 -148.5t-4 -93.5t-5 -62.5t-7 -51.5q-20 -117 -65.5 -197t-129.5 -139q-145 -104 -375 -105q-135 0 -246.5 36t-185.5 103q-76 70 -107.5 162t-31.5 244v36.5 t1 69.5t2 90.5t3 100.5t2 95v85q0 109 -3 212t-7 175z" />
<glyph unicode="V" horiz-adv-x="1304" d="M29 1374q31 -4 53 -6t55 -2q29 0 49.5 2t49.5 6q45 -125 77.5 -215t61 -167t56.5 -149.5t63.5 -160.5t82.5 -201.5t113 -273.5q33 74 77 179.5t90 223t93 238.5t86 225.5t68 184t37 116.5q31 -4 46 -6t30 -2q14 0 29.5 2t43.5 6q-55 -125 -117.5 -268t-124 -286.5 t-119 -280t-103.5 -249t-76.5 -191.5t-38.5 -107q-25 4 -37 6t-23 2q-10 0 -22.5 -2t-38.5 -6q-45 115 -76 196.5t-54.5 141t-40 102.5t-32.5 82t-32.5 78t-37.5 90q-33 80 -70.5 169t-75.5 180t-75 179t-67 164z" />
<glyph unicode="W" horiz-adv-x="1976" d="M29 1374q53 -6 68.5 -7t31.5 -1q18 0 37.5 2t60.5 6q27 -111 69 -258t88 -306t95 -315.5t92 -285.5q74 217 129.5 375.5t94.5 275.5t65.5 196t45 136t30.5 99t22 83l37.5 -6t22.5 -2t21.5 2t39.5 6q25 -90 51.5 -178t67.5 -213t102.5 -307t155.5 -459q61 178 116.5 347 t102.5 319.5t83 276.5t59 214q23 -4 36 -6t29 -2q10 0 23.5 1t56.5 7q-41 -98 -70.5 -173t-57.5 -150.5t-57.5 -162.5t-70.5 -210q-47 -137 -81 -232.5t-56.5 -163t-37.5 -111.5t-25.5 -74.5t-17.5 -54.5t-15 -50q-27 4 -39.5 6t-22.5 2t-20.5 -1t-44.5 -7q-23 82 -52.5 179 t-72.5 229t-101.5 307.5t-138.5 410.5q-10 -27 -18.5 -49t-17.5 -49t-21.5 -62.5t-30.5 -89.5q-14 -43 -29.5 -86t-28 -80.5t-22.5 -66.5t-16 -43q-29 -78 -55.5 -156t-53.5 -155q-16 -43 -28.5 -79t-24.5 -70t-23.5 -67.5t-23.5 -72.5q-29 4 -42.5 6t-23.5 2 q-12 0 -24.5 -2t-36.5 -6l-70 235q-10 35 -17 61.5t-15.5 52.5t-16.5 53.5t-20 68.5q-86 274 -139.5 441t-76.5 233l-67 202z" />
<glyph unicode="X" horiz-adv-x="1167" d="M43 -8q12 18 20.5 31.5t19.5 30t28.5 41t46.5 67.5q68 96 112.5 160.5t81.5 120l73 109.5t85 128q-47 80 -221 362q-92 147 -145.5 230.5t-65.5 101.5q41 -4 66.5 -6t54.5 -2t49 2t51 6q61 -113 99 -181.5t69 -122.5t62.5 -106.5t82.5 -134.5q80 121 128 195t82 127 t62.5 102.5t69.5 120.5q23 -4 35 -6t29 -2q14 0 29.5 2t52.5 6q-98 -133 -162 -222t-111 -155.5t-84.5 -123t-83.5 -123.5q12 -27 15 -27q125 -205 207 -337l123 -198q27 -43 45 -70.5t31.5 -49t23.5 -39t22 -37.5q-47 4 -71.5 6t-46.5 2q-25 0 -47.5 -2t-57.5 -6 q-55 102 -94 173t-67.5 122t-49 89t-41 70.5t-42 68.5t-52.5 85q-63 -96 -106 -164.5t-81 -130t-75 -128t-88 -159.5l-14 -26q-39 6 -51.5 7t-22.5 1t-22.5 -1t-53.5 -7z" />
<glyph unicode="Y" horiz-adv-x="1175" d="M14 1374q43 -4 69 -6t54 -2q27 0 47.5 2t51.5 6q16 -37 47.5 -95t68.5 -127t78 -141.5t78 -136t66.5 -113.5t46.5 -75q23 35 55.5 91.5t71 124t78.5 139t75 137t61.5 118t38.5 78.5q20 -4 34 -6t34 -2t39.5 2t50.5 6q-66 -94 -142.5 -212t-145 -229.5t-123 -205.5 t-74.5 -141q-2 -23 -2 -43.5v-26.5v-113l4 -202q0 -84 3 -127t9 -82q-57 6 -73.5 7t-30.5 1q-18 0 -37 -2t-60 -6q4 33 8.5 76t6.5 103t3 140t1 185v65q-145 242 -267 443.5t-225 369.5z" />
<glyph unicode="Z" horiz-adv-x="1302" d="M76 -8v33q20 27 50 66.5t80 110t129 182.5t200 284q57 82 99 142t74.5 107.5t59.5 86t54.5 79.5t58 87.5t71.5 109.5l-67 2q-80 0 -184.5 -2t-208 -5t-193.5 -6t-141 -7q4 23 5 36t1 29q0 12 -1 24.5t-5 32.5q37 -4 111.5 -7t159.5 -5t165 -4t129 -2q61 0 133 1t140.5 2 t129 3t99.5 4v-28q-119 -152 -227.5 -299.5t-216 -299t-218 -315.5t-231.5 -348q29 -2 53.5 -2h34.5q49 0 118.5 1t147.5 4t158 6t151.5 7t130 7.5t91.5 7.5q-6 -18 -8.5 -30.5t-2.5 -39.5q0 -20 2 -32.5t6 -32.5q-39 4 -95 8t-123.5 6t-142.5 3t-151 1h-91t-122.5 -1 t-134 -2t-126 -2t-99.5 -2t-53 -1z" />
<glyph unicode="[" horiz-adv-x="669" d="M219 -154q4 137 6 231.5t4 179.5t2 180v235v165.5t-1 133t-2 117t-2 116t-3 131t-4 162.5q16 -2 27.5 -2h17.5q41 -2 69.5 -3t41.5 -1h24.5t31 1t47 3t73.5 4q-2 -23 -2 -27v-8v-8t2 -26l-184 2q-2 -43 -3.5 -129t-2.5 -192.5t-1 -222.5v-216v-217t1 -221.5t2.5 -192.5 t3.5 -129l184 2q-2 -23 -2 -27v-8v-8t2 -27q-45 2 -72.5 4t-46 3.5t-32 1.5h-25.5t-41 -1.5t-70 -3.5h-17t-28 -2z" />
<glyph unicode="\" horiz-adv-x="919" d="M49 1493q16 -4 24.5 -4h16.5h11.5t29.5 4l791 -1669q-16 2 -23.5 2h-21.5h-22.5t-20.5 -2z" />
<glyph unicode="]" horiz-adv-x="669" d="M119 -86l184 -2q2 43 3 129t2 192.5t1 221v217.5v216t-1 222.5t-2 192.5t-3 129l-184 -2q2 23 2 26.5v7.5v8.5t-2 26.5q45 -2 72.5 -4t46 -3t32 -1h25.5t41 1t70 3h17t28 2q-4 -137 -6.5 -231.5t-4.5 -179.5t-2 -180v-234v-235.5t2 -179.5t4 -179t7 -232q-16 2 -27.5 2 h-17.5q-41 2 -70 3.5t-41 1.5h-24.5t-31 -1.5t-47 -3.5t-73.5 -4q2 23 2 27v8v8t-2 27z" />
<glyph unicode="^" horiz-adv-x="888" d="M94 930l309 497h66l324 -497l-93 -31l-260 412l-254 -412z" />
<glyph unicode="_" horiz-adv-x="1024" d="M0 -188h1024v-88h-1024v88z" />
<glyph unicode="`" horiz-adv-x="1024" d="M145 1372q0 23 18.5 40.5t45.5 17.5t51.5 -15.5t79.5 -68.5l264 -246h-61l-322 184q-43 25 -59.5 44.5t-16.5 43.5z" />
<glyph unicode="a" horiz-adv-x="1005" d="M96 215q0 66 23.5 118t68.5 83q39 29 92.5 47t159.5 35q55 8 93 16t66 16.5t47.5 18.5t39.5 22v2v7v14q2 10 2 21.5v21.5q0 113 -61.5 178.5t-169.5 65.5q-80 0 -145.5 -38t-104.5 -106h-21q4 23 5.5 34t1.5 24q0 12 -1.5 23t-5.5 34q86 59 164 85t164 26q156 0 243 -83 t87 -233q0 -23 -1 -57.5t-3 -75.5q-4 -59 -5 -108.5t-1 -100.5q0 -90 2 -134t8 -62q12 -53 69 -54q10 0 18.5 1t24.5 3v-39q-41 -16 -71.5 -23t-63.5 -7q-121 0 -139 121q-133 -145 -309 -146q-129 0 -203 66.5t-74 183.5zM262 236q0 -82 51.5 -133.5t132.5 -51.5 q68 0 131.5 38t104.5 104q2 97 6 296q-92 -18 -169 -36.5t-111 -28.5q-145 -45 -146 -188z" />
<glyph unicode="b" horiz-adv-x="1146" d="M133 -12q4 33 7 99.5t5 158.5t3.5 207.5t1.5 244.5q0 147 -1.5 276.5t-3.5 233t-5 178t-5 115.5q29 -4 46.5 -6t37.5 -2q23 0 41.5 2t48.5 6q-4 -55 -6 -122.5t-3 -155.5t-2 -203t-1 -264q109 207 344 207q92 0 168 -34t130 -95.5t84 -147.5t30 -190q0 -115 -35 -211.5 t-95.5 -168t-144.5 -111.5t-182 -40q-92 0 -158.5 32t-132.5 109q-31 -20 -71.5 -56t-63.5 -62h-37zM289 438q0 -96 13 -159.5t44 -116.5q35 -59 95.5 -94t127.5 -35q68 0 124.5 32.5t96 93t62 143.5t22.5 183q0 90 -20 165t-58 127t-91 81t-119 29t-127.5 -34t-98.5 -93 q-71 -117 -71 -316v-6z" />
<glyph unicode="c" horiz-adv-x="997" d="M96 463q0 113 38 206t108.5 157.5t169 100.5t221.5 36q92 0 159.5 -18.5t145.5 -61.5q-16 -33 -25.5 -61.5t-17.5 -71.5h-21q-35 66 -104.5 106.5t-153.5 40.5q-74 0 -137 -31.5t-108 -87t-71 -133.5t-26 -170q0 -96 28 -175t77 -137.5t116.5 -90t149.5 -31.5t148.5 30.5 t132.5 96.5l16 -4q-4 -23 -6 -35t-2 -29v-10t2 -16q-135 -109 -336 -109q-115 0 -208 36t-158.5 100.5t-101.5 156.5t-36 205z" />
<glyph unicode="d" horiz-adv-x="1134" d="M96 442q0 119 31 215.5t88 164t138 104.5t182 37q236 0 317 -195q-2 16 -2 30.5v18.5v36.5v34t1 41t1 58.5v78q0 133 -3 240.5t-7 195.5l58.5 -6t35.5 -2q20 0 37.5 2t42.5 6q-2 -33 -5 -95.5t-5 -144t-4.5 -179t-4.5 -198t-3 -199.5t-1 -185v-165t1 -149.5t2 -120 t3 -73.5q-23 4 -37 6t-34 2t-37 -2t-43 -6q2 35 3 57.5t1 43t1 43t1 57.5q-109 -223 -346 -224q-92 0 -169 34t-130 96.5t-83 149.5t-30 193zM274 442q0 -188 74 -292.5t205 -104.5q68 0 123 32t93 89t59.5 139t21.5 184q0 184 -75 290t-204 106q-145 0 -221 -113t-76 -330z " />
<glyph unicode="e" horiz-adv-x="1060" d="M96 457q0 236 129 374q61 68 145.5 100t196.5 32q197 0 303.5 -111t106.5 -315v-27.5t-2 -36.5q-49 4 -127 5t-207 1q-96 0 -179 -1t-188 -5v-45q0 -86 25 -156.5t69 -120t106.5 -77t139.5 -27.5q188 0 316 143l12 -4l-4 -18q-8 -27 -10 -40t-2 -44q-47 -35 -88 -57.5 t-82 -36t-84 -19.5t-94 -6q-111 0 -200 35t-151.5 98.5t-96.5 154.5t-34 204zM276 553q47 -2 121 -3t193 -1h83t54.5 1t41.5 2t46 5q-4 70 -11 112t-22 76q-59 154 -219 154q-121 0 -198.5 -93t-88.5 -253z" />
<glyph unicode="f" horiz-adv-x="593" d="M55 850q4 14 4 22.5v16.5v17t-4 22l146 -4q2 61 7 110t15 92t26.5 82t41.5 82q121 215 313 215q25 0 40 -2t34 -10q-47 -84 -66 -172l-18 -12q-35 53 -107 53q-68 0 -113.5 -50t-45.5 -126q0 -10 1 -31.5t5 -44.5q8 -59 11 -102t5 -84h223q-2 -16 -3 -25.5t-1 -19.5 v-14.5t4 -14.5l-221 2q0 -158 2 -305.5t4 -266t4.5 -195.5t4.5 -93q-41 4 -58.5 6t-34.5 2q-16 0 -33.5 -2t-50.5 -6q4 61 6.5 119.5t4.5 129t2 164v224.5l-2 225q-43 -2 -72 -2t-74 -2z" />
<glyph unicode="g" horiz-adv-x="1075" d="M96 -244q0 98 56.5 156.5t185.5 99.5q-72 8 -110 47t-38 103q0 61 36 100t124 72q-102 31 -157.5 106.5t-55.5 182.5q0 76 31 142t84 114q53 45 120.5 64.5t168.5 19.5h27.5t32 -1t56 -3.5t101.5 -4.5q10 -2 27.5 -2h50.5q57 0 98 1t78 5q-4 -10 -4 -16v-14v-13.5 t4 -27.5h-244q78 -43 111.5 -99.5t33.5 -150.5q0 -74 -26.5 -134.5t-74.5 -103.5t-115.5 -66.5t-149.5 -23.5h-26.5t-33.5 2q-16 2 -26 2h-21q-51 0 -86 -23.5t-35 -58.5q0 -23 14.5 -42t39.5 -29q12 -6 28.5 -10.5t44 -6.5t68.5 -3t102 -1q74 0 124.5 -2t86 -8t60 -16.5 t49.5 -24.5q115 -76 115 -227q0 -90 -37 -165t-103.5 -129t-159 -85t-202.5 -31q-162 0 -293 64q-78 39 -119 100t-41 141zM221 -233q0 -117 94.5 -185.5t247.5 -68.5q152 0 244 76.5t92 205.5q0 213 -334 213q-162 0 -253 -63.5t-91 -177.5zM301 621q0 -123 57.5 -187.5 t165.5 -64.5q113 0 171.5 69.5t58.5 204.5q0 127 -56.5 193.5t-165.5 66.5q-113 0 -172 -71.5t-59 -210.5z" />
<glyph unicode="h" horiz-adv-x="1099" d="M133 -8q4 61 7 138t4 187.5t2 263t1 361.5q0 72 -1 150.5t-3 154.5t-5 141.5t-5 112.5q29 -4 48.5 -6t47.5 -2q25 0 40.5 2t37.5 6q-2 -51 -4 -93t-3 -85t-1 -92t-1 -113.5t-1 -151.5v-206q41 96 128 149.5t198 53.5q139 0 237 -86q49 -47 71.5 -103.5t22.5 -142.5 q0 -23 -1 -59.5t-3 -77.5q-2 -51 -3 -101.5t-1 -91.5q0 -98 3 -174t7 -135q-49 6 -63 7t-29 1q-16 0 -32.5 -2l-49.5 -6q2 33 5.5 100.5t6.5 148.5t4 166t1 150q0 150 -56 221q-31 39 -80 61.5t-104 22.5q-72 0 -131 -35.5t-92 -95.5q-12 -23 -19.5 -47.5t-11.5 -58 t-6 -79.5t-2 -108q0 -141 3 -254.5t7 -191.5q-41 4 -56 6t-32 2q-16 0 -32.5 -2t-53.5 -6z" />
<glyph unicode="i" horiz-adv-x="450" d="M129 1290q0 43 30.5 73t73.5 30q41 0 71 -31t30 -72t-31 -71.5t-72 -30.5t-71.5 30.5t-30.5 71.5zM137 -8q10 84 13.5 186.5t3.5 255.5q0 168 -4.5 298t-12.5 216q31 -4 50.5 -6t43.5 -2q23 0 40.5 2t41.5 6q-2 -31 -4 -88t-4 -125.5t-3 -143.5t-1 -138q0 -49 1 -115 t3 -131.5t4 -123.5t4 -91q-27 4 -44 6t-40 2q-20 0 -39.5 -2t-52.5 -6z" />
<glyph unicode="j" horiz-adv-x="499" d="M-72 -508h15q92 0 148 63.5t71 182.5q6 51 9 122.5t6 181.5t4 265.5t1 370.5q0 35 -1 94t-5 170q31 -6 49.5 -8t38.5 -2q23 0 40.5 2t45.5 8q-4 -55 -8 -146t-7 -192.5t-5 -198t-2 -159.5l2 -289q0 -88 -5.5 -151.5t-18.5 -110.5t-35.5 -83t-55.5 -67 q-55 -53 -117.5 -75.5t-154.5 -22.5zM162 1282q0 43 30.5 72.5t73.5 29.5q41 0 71 -30.5t30 -71.5t-31 -71.5t-72 -30.5t-71.5 30.5t-30.5 71.5z" />
<glyph unicode="k" horiz-adv-x="983" d="M133 -8q2 43 5 119.5t6 170t4.5 193.5t1.5 191v106q-2 88 -2.5 150.5t-0.5 101.5v165.5t-1 115t-3 93.5t-4 103q31 -4 48.5 -6t35.5 -2q16 0 33.5 2t58.5 6q-4 -53 -7 -146t-6 -202t-5 -221.5t-2 -206.5v-82t2 -113h25q14 0 30.5 6.5t39 25t57 51t88.5 85.5 q23 23 58.5 60t71 75.5t65.5 70.5t40 44q23 -4 35 -5t31 -1q27 0 52 3t60 9q-10 -12 -17 -18t-9 -8l-105 -86q-27 -23 -53.5 -45.5t-52.5 -44.5q-45 -37 -72 -60.5t-35 -29.5l-96 -93q-2 -2 -8 -6t-17 -14q10 -10 40 -43t79 -90q29 -31 55.5 -62.5t55.5 -64.5 q33 -35 65.5 -72t67.5 -76q41 -47 65.5 -75.5t47.5 -57.5l-9 -16q-35 6 -56.5 8t-39.5 2q-23 0 -43 -2t-55 -8q-45 57 -79 99t-66.5 81t-67.5 80t-82 96q-27 27 -49.5 52.5t-48.5 54.5q-16 20 -27.5 28.5t-28.5 5.5l-16 -2v-24q0 -49 1 -120t2 -140.5t3 -128t4 -82.5 q-29 4 -46 6t-40 2q-20 0 -37.5 -2t-46.5 -6z" />
<glyph unicode="l" horiz-adv-x="440" d="M133 -8q2 61 5 110.5t4 98.5t2 103t2 125t1 163v217q0 135 -1 239.5t-2 186.5t-4 145.5t-7 118.5q29 -4 47.5 -5t42.5 -1q25 0 42.5 1t41.5 5q-2 -39 -4 -126t-4 -193.5t-3 -219t-1 -200.5q0 -123 1 -244t3 -224.5t4 -182t4 -117.5q-35 4 -52 6t-34 2q-16 0 -33.5 -2 t-54.5 -6z" />
<glyph unicode="m" horiz-adv-x="1679" d="M137 -8q10 115 13.5 234.5t3.5 265.5q0 156 -3.5 263t-13.5 193q27 -4 42.5 -6t37.5 -2q27 0 43 2t41 6q0 -10 -1 -30.5t-2 -43t-1.5 -44t-0.5 -35.5v-25q63 104 137.5 148.5t178.5 44.5q229 0 291 -201q104 201 326 201q143 0 231 -82q41 -39 59.5 -87.5t18.5 -119.5 q0 -23 -1 -69t-5 -97q-4 -57 -5 -117.5t-1 -111.5q0 -78 3 -144.5t7 -142.5q-31 4 -49.5 6t-38.5 2q-18 0 -36.5 -2t-49.5 -6q4 68 7 149.5t6 164.5t5 160t2 132q0 78 -11 120t-40 75q-29 35 -73 54t-93 19q-61 0 -116.5 -28.5t-85.5 -75.5q-49 -78 -50 -316q0 -72 1 -140 t2.5 -129.5t2.5 -110t3 -74.5q-29 4 -46.5 6t-37.5 2q-16 0 -36 -2t-54 -6q4 35 7 91t6 121.5t5 135.5t2 129q0 70 -1 116t-4 77.5t-7 52t-13 39.5q-49 112 -188 112h-2q-80 0 -140.5 -41t-84.5 -112q-10 -25 -15.5 -51.5t-8.5 -65.5t-4 -94.5t-1 -136.5q0 -131 3 -219.5 t9 -153.5q-39 4 -56 6t-34 2q-18 0 -35.5 -2t-48.5 -6z" />
<glyph unicode="n" horiz-adv-x="1097" d="M137 -8q4 29 7 91t6.5 141t4.5 166t1 167q0 182 -19 391q29 -4 48.5 -6t41.5 -2q23 0 37.5 2t35.5 6q-2 -25 -1.5 -40t-1.5 -42v-94q113 190 330 191q74 0 137 -24t108 -69t64.5 -99t19.5 -140q0 -10 -1 -59.5t-5 -112.5q-2 -37 -3 -79t-1 -89q0 -113 2 -182.5t6 -116.5 q-47 6 -60 7t-30 1q-14 0 -31.5 -2l-52.5 -6q4 43 7.5 108.5t6.5 139t4 146.5t1 130q0 98 -8.5 150.5t-30.5 89.5q-61 106 -199 106q-80 0 -140.5 -35.5t-86.5 -101.5q-10 -27 -16.5 -56.5t-10.5 -74.5t-5 -112.5t-2 -172.5v-80.5t2.5 -70.5t3.5 -74t5 -92q-35 4 -53 6 t-35 2q-16 0 -34.5 -2t-51.5 -6z" />
<glyph unicode="o" horiz-adv-x="1171" d="M96 463q0 117 35 209t100.5 156.5t159.5 99.5t211 35q225 0 350 -134.5t125 -375.5q0 -109 -35.5 -199t-100 -154.5t-155 -99.5t-200.5 -35q-111 0 -202 36t-154.5 100.5t-98.5 156.5t-35 205zM274 465q0 -205 83 -320.5t229 -115.5q145 0 229 114.5t84 313.5 q0 217 -78.5 329.5t-232.5 112.5q-147 0 -230.5 -114.5t-83.5 -319.5z" />
<glyph unicode="p" horiz-adv-x="1146" d="M131 948q37 -4 53.5 -6t30.5 -2q16 0 32.5 2t45.5 6q-4 -27 -5 -70.5t-1 -97.5v-13t2 -19q39 104 127 161.5t211 57.5q96 0 175 -35t134 -97.5t86 -151.5t31 -198q0 -115 -32 -209t-90.5 -161.5t-139 -105.5t-179.5 -38q-106 0 -190 45t-125 123v-49q0 -66 1 -149.5 t3 -169.5t4 -169t6 -149q-31 4 -49 6t-41 2t-41 -2t-47 -6q2 25 3 45.5t2 46t2 58t1 80.5q2 53 3 99t1 81q2 84 3.5 135t1.5 74q0 127 -1.5 254t-4.5 242.5t-6 214t-7 165.5zM289 444q0 -193 75.5 -297t213.5 -104q139 0 217.5 111.5t78.5 310.5t-73.5 308.5t-208.5 109.5 q-78 0 -142.5 -36t-101.5 -102q-59 -106 -59 -301z" />
<glyph unicode="q" horiz-adv-x="1146" d="M96 477q0 111 30 201t84 153.5t132 97.5t174 34q127 0 213 -55.5t125 -159.5q2 12 2 19v11l-2 74q-2 27 -3 42t-1 24.5v14.5v15q25 -4 39 -6t35 -2q16 0 36.5 2t53.5 6q-6 -115 -9.5 -272.5t-3.5 -390.5q0 -139 1.5 -267.5t3.5 -237t4 -192.5t6 -135q-29 4 -48.5 6 t-41.5 2q-23 0 -40.5 -2t-45.5 -6q2 57 5 108.5t4 109t2 127t1 161.5l2 131v45q-61 -92 -133 -131t-180 -39q-100 0 -182.5 37t-140.5 104.5t-90 161.5t-32 209zM274 463q0 -199 79 -312.5t216 -113.5t214 105.5t77 293.5q0 195 -61 309q-35 61 -99.5 99.5t-136.5 38.5 q-139 0 -214 -108.5t-75 -311.5z" />
<glyph unicode="r" horiz-adv-x="667" d="M137 -8q6 59 10.5 191t4.5 309q0 55 -1 97t-2.5 89t-4.5 109.5t-7 160.5q37 -4 53.5 -6t32.5 -2t31.5 2l46.5 6q-2 -53 -3 -82.5t-1 -49v-37v-42.5q51 106 124 166t150 60q18 0 31.5 -3.5t30.5 -11.5q-16 -66 -17 -117q0 -6 1 -16t4 -24l-15 -9q-47 33 -98 33 q-66 0 -118 -42t-75 -109q-6 -16 -9 -41t-5 -64t-3 -95t-1 -136q0 -41 1 -88t3 -93.5t4 -87.5t6 -67q-33 4 -50 6t-36 2q-16 0 -34.5 -2t-53.5 -6z" />
<glyph unicode="s" horiz-adv-x="778" d="M82 33q10 27 21.5 64.5t21.5 82.5h16q90 -143 236 -143q86 0 141 51t55 129q0 68 -43 108t-149 70q-45 12 -77 23.5t-54.5 21t-39.5 19.5t-32 22q-41 31 -63.5 83t-22.5 112q0 133 94.5 210t255.5 77q66 0 118 -10.5t124 -39.5q-14 -35 -21.5 -54t-12.5 -34.5t-9 -30 t-10 -38.5h-21q-16 68 -68.5 104.5t-131.5 36.5q-80 0 -131.5 -47t-51.5 -121q0 -41 17.5 -74.5t46.5 -54.5q12 -10 26.5 -17.5t34 -14.5t47 -15t68.5 -21q131 -35 185.5 -92t54.5 -157q0 -68 -28 -126.5t-77 -101.5t-116.5 -66.5t-147.5 -23.5q-72 0 -137.5 17.5 t-118.5 50.5z" />
<glyph unicode="t" horiz-adv-x="598" d="M47 846q4 12 5 20t1 19q0 10 -1 18t-5 23h135v26q0 12 -1 34t-3 49.5t-4 56t-4 55.5q41 10 85 28.5t85 41.5l6 -9q-4 -37 -6 -72.5t-4 -70.5q-4 -29 -4 -59.5t-2 -77.5l221 4q-8 -31 -8 -43q0 -14 8 -39h-25h-82h-94h-18q-4 -51 -6 -180t-2 -338q0 -47 1 -80t4 -57.5 t8 -42t13 -35.5q39 -78 135 -78q23 0 42.5 3t47.5 11v-47q-57 -18 -96 -25.5t-80 -7.5q-104 0 -167.5 68t-63.5 180q0 16 1 52t3 77q2 27 3 82t2 117.5t2 124t1 104.5v37t-2 35q-55 0 -85 -1t-46 -3z" />
<glyph unicode="u" horiz-adv-x="1105" d="M143 948q29 -4 46.5 -6t37.5 -2q23 0 41.5 2t48.5 6q-4 -39 -6 -100.5t-5 -130t-4 -138t-1 -124.5q0 -57 2 -98.5t6 -72t11.5 -53t17.5 -41.5q31 -57 84 -87.5t119 -30.5q84 0 145.5 46t89.5 126q8 25 12.5 46t6.5 59t3 102.5t1 173.5q0 47 -1 95t-2 92t-3 79t-5 57 q29 -4 46.5 -6t39.5 -2q23 0 40.5 2t48.5 6q-4 -41 -6.5 -100.5t-4.5 -128t-3 -140t-1 -139.5q0 -92 1 -161.5t2 -123t4 -93t8 -70.5q-33 4 -50.5 6t-35.5 2q-16 0 -33 -2t-45 -6q2 16 3 29.5t1 32t1 46t1 72.5q-47 -98 -134 -152.5t-198 -54.5q-143 0 -233 90 q-49 47 -72 107.5t-23 148.5q0 23 1 65t4 93l2 252v73.5t-1 56.5t-3.5 48.5t-4.5 48.5z" />
<glyph unicode="v" horiz-adv-x="952" d="M27 948q31 -4 49 -6t41 -2q20 0 41.5 2t56.5 6q33 -96 63.5 -180t64.5 -171t76 -186.5t97 -224.5q20 49 49 117t58.5 142.5t59.5 152.5t55.5 145.5t45 122t27.5 82.5q31 -4 43 -6t23 -2q20 0 61 8q-55 -115 -118.5 -256t-122 -278.5t-103.5 -251t-62 -170.5q-25 4 -35 6 t-20 2q-14 0 -53 -8q-12 35 -27.5 76t-37 96t-51 129t-70.5 172q-59 139 -93 222t-55.5 132t-35 76t-27.5 53z" />
<glyph unicode="w" horiz-adv-x="1507" d="M27 948q33 -4 50 -6t36 -2q23 0 71 6l29 2q33 -115 61.5 -205t56 -172t59.5 -167t75 -189q25 57 60.5 152.5t72.5 200t69.5 207t51.5 173.5q25 -4 38 -6t23 -2q20 0 60 8q10 -49 35.5 -134t60.5 -186.5t75 -210t79 -202.5q25 57 43 103.5t35.5 90.5t36 92t40.5 109 q16 41 31.5 85t32.5 87q16 43 26.5 69t16.5 43t10 28.5t8 25.5q27 -4 38 -6t22 -2q12 0 47 6l16 2q-57 -117 -117.5 -252t-116 -265t-100.5 -244.5t-69 -194.5q-27 8 -48 8q-18 0 -45 -8q-18 68 -47.5 162t-65.5 195.5t-73 201.5t-70 182q-14 -33 -43.5 -110.5t-66.5 -180 t-78 -220.5t-78 -230q-35 8 -49 8t-49 -8q-31 104 -63.5 201.5t-72.5 207t-92.5 241.5t-121.5 306z" />
<glyph unicode="x" horiz-adv-x="925" d="M33 -8q119 156 208 273.5t148 197.5q-14 18 -37.5 51t-50.5 70t-51.5 70.5t-40.5 56.5q-72 98 -115 157.5t-59 79.5q39 -4 60.5 -6t43.5 -2q23 0 46.5 2t58.5 6q37 -61 62.5 -104t50 -82t53 -82.5t71.5 -104.5q55 76 115.5 161t146.5 212q39 -8 68 -8q16 0 29.5 2t38.5 6 q-43 -47 -74 -83t-67 -79t-85 -105.5t-129 -162.5q59 -86 101.5 -146.5t81 -115.5t81.5 -115.5t105 -148.5l-64.5 6t-42.5 2q-20 0 -40.5 -2t-55.5 -6q-25 47 -88 148.5t-151 232.5q-4 8 -8.5 14t-8.5 12q-43 -61 -86 -123.5t-80 -118t-64.5 -99.5t-39.5 -66q-29 4 -39 6 t-19 2q-6 0 -16 -1t-27 -3q-4 0 -12 -1t-18 -3z" />
<glyph unicode="y" horiz-adv-x="950" d="M27 948q37 -4 60.5 -6t45.5 -2q23 0 40 2t44 6q16 -55 51 -150.5t77 -204t88 -217t83 -190.5q37 80 77 173.5t80 193.5t77.5 200.5t68.5 194.5q20 -4 32.5 -6t29.5 -2q25 0 71 8q-10 -20 -18 -36.5t-17.5 -37t-20.5 -47t-30 -65.5q-45 -94 -83 -173t-78 -171 q-166 -369 -268.5 -607.5t-143.5 -361.5q-25 8 -41 10t-39 2q-20 0 -36.5 -2t-41.5 -6q12 23 39 68l66 110q72 121 119 213.5t69 149.5q-10 31 -19.5 54.5t-28 67.5t-51 121.5t-89.5 217.5q-59 135 -99 233q-25 57 -41 96t-28.5 68t-22.5 50.5t-22 45.5z" />
<glyph unicode="z" horiz-adv-x="956" d="M2 0v20q12 16 58 73t126 159q84 104 162 203.5t154 195.5q45 57 71.5 92t43 56.5t24.5 35t18 27.5q-57 0 -113.5 -1t-120 -4t-138 -8t-170.5 -11q4 16 5 27.5t1 23.5q0 14 -1 25.5t-5 33.5q51 -4 165.5 -5t323.5 -1h74t61.5 1t65.5 2t86 3v-35q-23 -25 -313 -393 q-98 -131 -159 -210t-96.5 -125t-51 -66.5t-25.5 -34.5q190 2 357 6t265 12q-4 -29 -5 -42t-1 -21q0 -10 1 -19.5t5 -27.5q-123 4 -196.5 7t-125.5 4t-98.5 1h-111.5z" />
<glyph unicode="{" horiz-adv-x="665" d="M115 639v68q61 20 87.5 67t26.5 139v306q0 94 27 152.5t84 90.5q37 23 83 30t126 7v-67q-57 -2 -94 -13.5t-58.5 -38t-30 -72.5t-8.5 -116v-287q0 -96 -25.5 -148t-88.5 -89q66 -37 90 -90.5t24 -151.5v-274q0 -74 8.5 -121t30 -74t58.5 -38t94 -11v-70h-27 q-158 0 -225.5 69.5t-67.5 233.5v279q0 102 -25.5 149t-88.5 70z" />
<glyph unicode="|" horiz-adv-x="1112" d="M510 -342v1708h92v-1708h-92z" />
<glyph unicode="}" horiz-adv-x="669" d="M117 -92q57 0 94 11t58.5 38t29.5 74t8 121v274q0 98 24.5 151.5t90.5 90.5q-66 37 -90.5 88t-24.5 149v287q0 70 -8 116t-29.5 72.5t-58.5 38t-94 13.5v67q88 0 149.5 -14.5t99 -48t54 -87t16.5 -130.5v-306q0 -92 26.5 -140t88.5 -66v-68q-63 -20 -89 -69.5t-26 -149.5 v-279q0 -166 -67.5 -234.5t-229.5 -68.5h-22v70z" />
<glyph unicode="~" horiz-adv-x="909" d="M29 1311q121 109 231 108q37 0 77 -11t114 -42q63 -27 105 -38t77 -11q53 0 100 24.5t111 85.5l16 -79q-115 -127 -252 -127q-23 0 -39 1t-40.5 8t-66.5 21.5t-118 42.5q-53 20 -73.5 25.5t-41.5 5.5q-43 0 -87 -22.5t-97 -73.5z" />
<glyph unicode="&#xa2;" d="M141 647q0 104 34 191.5t95.5 153t148.5 105.5t193 50q0 12 -1 31.5t-3 41t-4 42t-4 34.5q18 -4 28.5 -4h20.5h18.5t20.5 4q-4 -37 -6 -66.5t-2 -82.5q117 -4 188.5 -21.5t122.5 -58.5q-16 -18 -28.5 -53t-18.5 -76h-20q-35 72 -97.5 108.5t-146.5 40.5v-862q86 0 162 33 t133 92h16l-4 -14q-8 -25 -10 -39t-2 -41q-90 -90 -295 -104q0 -74 2 -117t6 -90q-18 2 -26.5 2h-16.5h-15t-30 -2q6 59 9 107t3 102q-104 4 -191 43t-148.5 103.5t-96.5 153.5t-35 193zM313 672q0 -205 117 -344q39 -47 79 -69.5t103 -31.5v858q-137 -25 -218 -136 t-81 -277z" />
<glyph unicode="&#xa3;" d="M94 -8q4 20 4 32.5v28.5v31.5t-4 36.5q16 -2 28.5 -3t18.5 -1q66 0 119 24.5t86 69.5q29 41 41 97.5t12 152.5v51.5t-2 45t-4 48t-6 60.5q-35 -2 -59.5 -3t-46 -3.5t-44 -4.5t-51.5 -4q4 16 5.5 24.5t1.5 20.5q0 14 -1.5 22.5t-5.5 22.5q35 -4 74 -7t76 -3h20.5t22.5 2 l-2 27l-6 69q-2 16 -3 37t-1 43q0 102 28.5 186.5t82.5 143.5t130 91t168 32q86 0 149.5 -25.5t114.5 -81.5q-29 -29 -44 -49t-35 -55l-13 4q-16 66 -62 100.5t-114 34.5q-55 0 -100 -21.5t-78 -60.5t-51.5 -93t-18.5 -118q0 -18 2 -53t4 -74t5.5 -76.5t7.5 -60.5 q227 6 309 12q-4 -16 -5 -25t-1 -20q0 -10 1 -18t5 -25q-76 8 -305 13q4 -27 4 -45.5v-36.5q0 -293 -201 -457q16 -2 32.5 -2h20.5q195 0 353.5 4t273.5 14q-4 -39 -5 -57t-1 -35q0 -16 2 -29.5t8 -33.5q-16 0 -81.5 2t-145.5 3t-156 2t-110 1q-68 0 -135.5 -1t-128 -2 t-108.5 -2t-75 -3z" />
<glyph unicode="&#xa5;" d="M-4 1333q45 -8 68.5 -10t46.5 -2q20 0 36.5 2t45.5 10q20 -41 61 -110.5t94 -158.5t116.5 -194.5t133.5 -216.5q53 94 106.5 196.5t98.5 196t77.5 167t45.5 114.5q20 -4 33.5 -5t33.5 -1h30.5t49.5 4q-10 -16 -16 -27.5t-15.5 -29t-25 -45t-39.5 -74.5 q-35 -66 -63.5 -119t-41.5 -69q-27 -41 -51 -82t-51 -82q-8 -12 -38 -68.5t-79 -153.5h57.5t100.5 3q29 0 58.5 1t88.5 5q-4 -10 -4 -17.5v-17.5v-17.5t4 -23.5q-74 4 -153.5 6t-147.5 2v-121h41q59 0 137 3t132 8q-4 -10 -5 -14.5t-1 -14.5q0 -12 1 -21.5t5 -25.5 q-37 2 -79 3t-83 2t-80 1h-68q-2 -16 -2 -30.5v-18.5q0 -66 4.5 -149t10.5 -146q-10 2 -19.5 3t-13.5 1q-23 2 -37 3t-20 1q-10 0 -23.5 -1t-34.5 -3q-4 0 -15 -1t-24 -3q2 29 5.5 68.5t5.5 86t3 94.5t1 95q-74 0 -146.5 -1t-165.5 -5q4 10 4 16v14v18.5t-4 27.5 q41 -4 68 -6.5t54.5 -3.5t63.5 -1h95h31v123h-66q-72 0 -135.5 -1t-110.5 -5q2 14 2 19.5v15.5v19t-2 20q43 -4 76 -5t64.5 -2t70.5 -1h95q-10 14 -25.5 38.5t-42.5 66.5t-68 102.5t-98 150.5q-43 68 -79 121t-66.5 100t-58 89t-58.5 87z" />
<glyph unicode="&#xa8;" horiz-adv-x="1024" d="M213 1276q0 41 28.5 69.5t69.5 28.5t71 -29.5t30 -70.5t-30 -69.5t-71 -28.5t-69.5 29.5t-28.5 70.5zM612 1276q0 41 29 69.5t70 28.5t70.5 -29.5t29.5 -70.5t-29.5 -69.5t-70.5 -28.5t-70 29.5t-29 70.5z" />
<glyph unicode="&#xa9;" horiz-adv-x="1650" d="M106 684q0 152 56.5 284t155 229t231.5 153.5t287 56.5q145 0 274 -57.5t225.5 -155.5t152.5 -229t56 -279q0 -150 -56 -281t-153.5 -229t-228.5 -154.5t-281 -56.5q-147 0 -278 56.5t-229.5 154.5t-155 229.5t-56.5 278.5zM190 686q0 -133 50.5 -251t136.5 -205 t201.5 -138t246.5 -51t247 50t202 138t136 206t50 251q0 131 -50 249t-135 206t-198.5 139t-242.5 51q-135 0 -252 -50t-204 -137t-137.5 -205t-50.5 -253zM422 680q0 96 32.5 173t93 131t146.5 84t195 30q76 0 142.5 -12.5t119.5 -36.5q-10 -23 -15.5 -42.5t-9.5 -52.5 l-14 -2q-94 94 -235 95q-74 0 -134.5 -26t-102.5 -74t-65.5 -114.5t-23.5 -148.5q0 -166 87 -262t236 -96q145 0 265 98l12 -6l-10 -37l-11 -37q-111 -70 -276 -70q-98 0 -178 29t-136.5 82t-87 128t-30.5 167z" />
<glyph unicode="&#xab;" horiz-adv-x="808" d="M68 473l18 31q29 43 55.5 82t53.5 80q18 29 34.5 52t31.5 48t30.5 51.5t36.5 59.5q14 -20 38.5 -35t55.5 -25q-31 -41 -56.5 -76.5t-72.5 -101.5q-25 -35 -42.5 -58.5t-31.5 -42t-26.5 -32.5t-28.5 -33q16 -18 28.5 -32.5t26.5 -32t31.5 -41t42.5 -60.5q25 -35 41 -58.5 t30.5 -43t28 -37.5t29.5 -39q-31 -10 -55.5 -24.5t-38.5 -34.5q-39 63 -68 109t-65 102l-109 161q-6 10 -10 16.5t-8 14.5zM354 473l19 31q29 43 55.5 82t52.5 80q18 29 34.5 52t32 48t31 51.5t35.5 59.5q14 -20 39 -35t56 -25q-31 -41 -56.5 -76.5t-72.5 -101.5 q-25 -35 -42.5 -58.5t-31.5 -42t-26.5 -32.5t-28.5 -33q16 -18 28.5 -32.5t26.5 -32t31.5 -41t42.5 -60.5q25 -35 41 -58.5t30.5 -43t27.5 -37.5t30 -39q-31 -10 -55.5 -24.5t-39.5 -34.5q-39 63 -67.5 109t-65.5 102l-108 161q-6 10 -10.5 16.5t-8.5 14.5z" />
<glyph unicode="&#xad;" horiz-adv-x="473" d="M0 481v133h473v-133h-473z" />
<glyph unicode="&#xae;" horiz-adv-x="1650" d="M106 684q0 152 56.5 284t155 229t231.5 153.5t287 56.5q145 0 274 -57.5t225.5 -155.5t152.5 -229t56 -279q0 -150 -56 -281t-153.5 -229t-228.5 -154.5t-281 -56.5q-147 0 -278 56.5t-229.5 154.5t-155 229.5t-56.5 278.5zM190 686q0 -133 50.5 -251t136.5 -205 t201.5 -138t246.5 -51t247 50t202 138t136 206t50 251q0 131 -50 249t-135 206t-198.5 139t-242.5 51q-135 0 -252 -50t-204 -137t-137.5 -205t-50.5 -253zM551 289q6 92 9 199.5t3 228.5q0 227 -12 366q33 -4 54.5 -4h47.5h37t47 2q33 2 58.5 2h40.5q252 0 251 -182 q0 -86 -63 -142.5t-182 -76.5q4 -6 9 -12t14 -17.5t24.5 -29t40.5 -45.5q18 -23 35.5 -45.5t38.5 -45.5q31 -39 55 -67.5t44.5 -52t39 -42t37.5 -36.5q-35 4 -52.5 4h-33.5h-31.5t-38.5 -4q-123 160 -202 256t-113 127h-41q0 -66 1 -126.5t2 -111.5t3 -89t6 -56q-25 4 -39 4 h-29h-28.5t-32.5 -4zM666 761q0 -11 2 -40q23 -2 37 -2h30q113 0 174.5 45t61.5 127q0 72 -49.5 108.5t-141.5 36.5q-27 0 -51 -2t-53 -6q-2 -10 -3 -23.5t-1 -35.5q0 -2 -1 -25.5t-3 -56.5q-2 -43 -2 -68.5v-42.5v-15z" />
<glyph unicode="&#xb4;" horiz-adv-x="1009" d="M420 1112l264 248q29 27 48.5 43t32.5 25.5t25.5 12.5t24.5 3q27 0 45.5 -17.5t18.5 -42.5q0 -23 -16.5 -43t-57.5 -43l-324 -186h-61z" />
<glyph unicode="&#xb8;" horiz-adv-x="1024" d="M383 -358l23 43q70 -25 141 -25q59 0 93 24.5t34 71.5q0 41 -24.5 62.5t-67.5 21.5q-23 0 -54 -8l-12 12v156h64v-119q27 8 43 11.5t32 3.5q68 0 109 -36t41 -96q0 -78 -63.5 -122.5t-168.5 -44.5q-106 0 -190 45z" />
<glyph unicode="&#xbb;" horiz-adv-x="808" d="M100 129q14 20 27.5 37.5t28 38t32 44t41.5 58.5q25 35 42.5 58.5t31.5 42t26.5 33t28.5 32.5q-16 18 -28.5 32.5t-26.5 32t-31.5 41t-42.5 60.5q-25 33 -41 57.5t-30.5 44t-27.5 37t-30 39.5q63 18 95 60q39 -63 67.5 -109.5t65.5 -101.5q29 -41 54.5 -81t51.5 -81 q2 -2 9.5 -14.5t11.5 -16.5q-4 -8 -9.5 -14t-11.5 -17q-27 -41 -52.5 -80.5t-53.5 -80.5q-18 -29 -35 -52.5t-32 -48t-30.5 -51.5t-35.5 -59q-31 41 -95 59zM387 129q14 20 27.5 37.5t28 38t32 44t41.5 58.5q25 35 42 58.5t31.5 42t27 33t28.5 32.5q-16 18 -28.5 32.5 t-27 32t-31.5 41t-42 60.5q-25 33 -41 57.5t-30.5 44t-28 37t-29.5 39.5q63 18 94 60q39 -63 68 -109.5t65 -101.5q29 -41 54.5 -81t52.5 -81q2 -2 9 -14.5t11 -16.5q-4 -8 -9 -14t-11 -17q-27 -41 -52.5 -80.5t-54.5 -80.5q-18 -29 -34.5 -52.5t-32 -48t-30.5 -51.5 t-36 -59q-31 41 -94 59z" />
<glyph unicode="&#xc0;" horiz-adv-x="1363" d="M43 -8q16 31 30.5 61.5t33 68.5t41 87t55.5 121q39 88 77.5 175t79.5 179q41 86 78 168t76 172q35 78 72 160t73 166l21 43q10 -2 20 -2t21 2l297 -703l151 -350q33 -76 54.5 -126t38 -87t30 -67.5t31.5 -67.5q-33 4 -54.5 6t-51.5 2q-29 0 -49.5 -2t-49.5 -6 q-14 39 -39.5 108.5t-56.5 147.5t-61.5 153.5t-55.5 130.5h-37l-233 3h-33t-74 -1.5t-80.5 -2.5t-58.5 -1q-37 -90 -64.5 -157.5t-39.5 -102.5l-9 -22q-8 -23 -20 -60.5t-29.5 -88t-38.5 -107.5q-47 8 -69 8q-16 0 -30.5 -2t-45.5 -6zM367 1815q0 27 20.5 45t48.5 18 q12 0 24.5 -3t27 -12.5t34 -26.5t47.5 -44l275 -256h-78l-324 186q-76 43 -75 93zM426 616q39 0 68.5 -1t56.5 -1h52.5h58.5h54h46.5t48.5 1t59 1q-74 178 -129 305.5t-90 206.5z" />
<glyph unicode="&#xc2;" horiz-adv-x="1363" d="M43 -8q16 31 30.5 61.5t33 68.5t41 87t55.5 121q39 88 77.5 175t79.5 179q41 86 78 168t76 172q35 78 72 160t73 166l21 43q10 -2 20 -2t21 2l297 -703l151 -350q33 -76 54.5 -126t38 -87t30 -67.5t31.5 -67.5q-33 4 -54.5 6t-51.5 2q-29 0 -49.5 -2t-49.5 -6 q-14 39 -39.5 108.5t-56.5 147.5t-61.5 153.5t-55.5 130.5h-37l-233 3h-33t-74 -1.5t-80.5 -2.5t-58.5 -1q-37 -90 -64.5 -157.5t-39.5 -102.5l-9 -22q-8 -23 -20 -60.5t-29.5 -88t-38.5 -107.5q-47 8 -69 8q-16 0 -30.5 -2t-45.5 -6zM371 1516l286 350h97l254 -350h-74 l-236 208l-252 -208h-75zM426 616q39 0 68.5 -1t56.5 -1h52.5h58.5h54h46.5t48.5 1t59 1q-74 178 -129 305.5t-90 206.5z" />
<glyph unicode="&#xc6;" horiz-adv-x="1679" d="M-6 -8q61 86 110.5 158.5t100.5 147.5t108.5 164t135.5 210q111 176 222 350t222 352q20 -2 59 -3t86 -2t96.5 -2t88.5 -1q55 0 109 1t102.5 2t86.5 2t58 3q-4 -27 -5 -39t-1 -22t1 -23.5t5 -38.5q-68 8 -118 14.5t-102 9.5t-115.5 5t-153.5 4q-4 -129 -6.5 -244.5 t-2.5 -220.5v-55l68 -2q51 0 106.5 1t108.5 4t98 5t76 6q-4 -20 -6 -31.5t-2 -27.5q0 -12 1 -25.5t5 -36.5q-25 2 -73 5.5t-109.5 6.5t-131 5t-139.5 2q-2 -31 -3 -81t-2 -110.5t-1 -126v-127.5v-45v-33.5t1 -31t3 -35.5h54q47 0 110.5 2t129 6t123.5 8t93 9 q-4 -25 -5 -38.5t-1 -25.5t1 -23.5t5 -31.5q-14 0 -62 2t-102.5 3t-103.5 2t-68 1q-27 0 -79 -1t-109 -2t-105.5 -2t-66.5 -3q4 29 8 81t7 116.5t5.5 134t2.5 131.5v43h-59.5h-45t-52.5 1t-81 1q-61 2 -105.5 2h-66.5h-66q-35 -63 -71.5 -126t-73.5 -126q-35 -63 -67.5 -125 t-67.5 -133q-27 4 -42.5 6t-37.5 2q-20 0 -38.5 -2t-49.5 -6zM492 584h31.5h34t54 -1t93.5 -1h86h57t67 2q0 55 1.5 90t1.5 65.5v64.5v85v98v89t-1.5 92.5t-3.5 107.5q-20 -31 -28 -44t-23 -36z" />
<glyph unicode="&#xc7;" horiz-adv-x="1396" d="M111 672q0 168 54 302t154.5 229t243 146.5t318.5 51.5q125 0 235.5 -21.5t196.5 -62.5q-29 -72 -39 -156l-17 -6q-78 84 -178 127t-217 43q-123 0 -229.5 -50t-181.5 -142q-137 -170 -138 -453q0 -295 146 -461q152 -176 399 -176q123 0 230.5 42t211.5 132l13 -8 l-31 -121q-78 -57 -198.5 -89t-258.5 -32v-92q23 6 39.5 8t32.5 2q70 0 112 -37.5t42 -97.5q0 -78 -64.5 -125t-173.5 -47q-57 0 -102 11.5t-93 35.5l25 51q37 -12 71 -18t72 -6q121 0 121 90q0 35 -22.5 55.5t-63.5 20.5q-14 0 -24.5 -1t-28.5 -5l-16 14v143 q-150 12 -268.5 67.5t-201.5 146.5t-127 214t-44 275z" />
<glyph unicode="&#xc8;" horiz-adv-x="997" d="M172 -8q4 51 8 136t7 191.5t5.5 228.5t2.5 245q0 94 -1 182t-3.5 162.5t-5.5 135t-5 101.5q45 -4 139.5 -6t227.5 -2q131 0 223 2t127 6q-4 -23 -5 -35t-1 -24q0 -10 1 -21.5t5 -38.5q-43 4 -99.5 8.5t-118 7.5t-122.5 4t-117 1h-31.5t-35.5 -2q-2 -16 -4 -80 t-5.5 -140.5t-5.5 -146t-2 -98.5v-15.5t2 -25.5q23 -2 36.5 -2h37.5q55 0 115.5 1t118 4t105.5 6t79 7q-4 -25 -6 -38t-2 -27q0 -25 8 -55q-66 6 -176.5 10t-245.5 4h-34.5t-37.5 -2v-50t2 -87v-152v-68.5t2 -80.5q2 -47 3.5 -77t1.5 -38v-33q23 -2 38 -2h33q61 0 130 2 t133.5 6t118.5 8.5t89 10.5q-4 -23 -5 -35t-1 -27q0 -16 1 -28.5t5 -32.5q-143 4 -221 6t-92 2q-45 0 -108.5 -1t-126 -2t-114.5 -2t-73 -3zM174 1800q0 27 20.5 45.5t49.5 18.5q14 0 25.5 -3t25.5 -12.5t33.5 -27t48.5 -43.5l276 -256h-78l-323 186q-43 25 -60.5 45.5 t-17.5 46.5z" />
<glyph unicode="&#xc9;" horiz-adv-x="997" d="M172 -8q4 51 8 136t7 191.5t5.5 228.5t2.5 245q0 94 -1 182t-3.5 162.5t-5.5 135t-5 101.5q45 -4 139.5 -6t227.5 -2q131 0 223 2t127 6q-4 -23 -5 -35t-1 -24q0 -10 1 -21.5t5 -38.5q-43 4 -99.5 8.5t-118 7.5t-122.5 4t-117 1h-31.5t-35.5 -2q-2 -16 -4 -80 t-5.5 -140.5t-5.5 -146t-2 -98.5v-15.5t2 -25.5q23 -2 36.5 -2h37.5q55 0 115.5 1t118 4t105.5 6t79 7q-4 -25 -6 -38t-2 -27q0 -25 8 -55q-66 6 -176.5 10t-245.5 4h-34.5t-37.5 -2v-50t2 -87v-152v-68.5t2 -80.5q2 -47 3.5 -77t1.5 -38v-33q23 -2 38 -2h33q61 0 130 2 t133.5 6t118.5 8.5t89 10.5q-4 -23 -5 -35t-1 -27q0 -16 1 -28.5t5 -32.5q-143 4 -221 6t-92 2q-45 0 -108.5 -1t-126 -2t-114.5 -2t-73 -3zM440 1522l275 256q29 27 48 44t34.5 26.5t27 12.5t25.5 3q29 0 49.5 -18.5t20.5 -45.5t-17.5 -47t-60.5 -45l-324 -186h-78z" />
<glyph unicode="&#xca;" horiz-adv-x="997" d="M172 -8q4 51 8 136t7 191.5t5.5 228.5t2.5 245q0 94 -1 182t-3.5 162.5t-5.5 135t-5 101.5q45 -4 139.5 -6t227.5 -2q131 0 223 2t127 6q-4 -23 -5 -35t-1 -24q0 -10 1 -21.5t5 -38.5q-43 4 -99.5 8.5t-118 7.5t-122.5 4t-117 1h-31.5t-35.5 -2q-2 -16 -4 -80 t-5.5 -140.5t-5.5 -146t-2 -98.5v-15.5t2 -25.5q23 -2 36.5 -2h37.5q55 0 115.5 1t118 4t105.5 6t79 7q-4 -25 -6 -38t-2 -27q0 -25 8 -55q-66 6 -176.5 10t-245.5 4h-34.5t-37.5 -2v-50t2 -87v-152v-68.5t2 -80.5q2 -47 3.5 -77t1.5 -38v-33q23 -2 38 -2h33q61 0 130 2 t133.5 6t118.5 8.5t89 10.5q-4 -23 -5 -35t-1 -27q0 -16 1 -28.5t5 -32.5q-143 4 -221 6t-92 2q-45 0 -108.5 -1t-126 -2t-114.5 -2t-73 -3zM227 1516l287 350h96l254 -350h-73l-236 208l-252 -208h-76z" />
<glyph unicode="&#xcb;" horiz-adv-x="997" d="M172 -8q4 51 8 136t7 191.5t5.5 228.5t2.5 245q0 94 -1 182t-3.5 162.5t-5.5 135t-5 101.5q45 -4 139.5 -6t227.5 -2q131 0 223 2t127 6q-4 -23 -5 -35t-1 -24q0 -10 1 -21.5t5 -38.5q-43 4 -99.5 8.5t-118 7.5t-122.5 4t-117 1h-31.5t-35.5 -2q-2 -16 -4 -80 t-5.5 -140.5t-5.5 -146t-2 -98.5v-15.5t2 -25.5q23 -2 36.5 -2h37.5q55 0 115.5 1t118 4t105.5 6t79 7q-4 -25 -6 -38t-2 -27q0 -25 8 -55q-66 6 -176.5 10t-245.5 4h-34.5t-37.5 -2v-50t2 -87v-152v-68.5t2 -80.5q2 -47 3.5 -77t1.5 -38v-33q23 -2 38 -2h33q61 0 130 2 t133.5 6t118.5 8.5t89 10.5q-4 -23 -5 -35t-1 -27q0 -16 1 -28.5t5 -32.5q-143 4 -221 6t-92 2q-45 0 -108.5 -1t-126 -2t-114.5 -2t-73 -3zM242 1692q0 41 30.5 71.5t73.5 30.5t74 -30.5t31 -73.5t-31 -74t-74 -31t-73.5 31t-30.5 76zM641 1692q0 41 30.5 71.5t73.5 30.5 t74 -30.5t31 -73.5t-31 -74t-74 -31t-73.5 31t-30.5 76z" />
<glyph unicode="&#xce;" horiz-adv-x="544" d="M-45 1516l287 350h96l254 -350h-74l-235 208l-252 -208h-76zM172 -8q10 121 15.5 317.5t5.5 478.5q0 84 -1.5 168t-4.5 161t-7 143.5t-8 113.5q33 -4 53.5 -6t48.5 -2q29 0 49.5 2t51.5 6q-4 -53 -8.5 -123.5t-7.5 -151.5t-4 -171t-1 -178q0 -262 5.5 -453t15.5 -305 q-37 4 -59.5 6t-45.5 2t-43 -2t-55 -6z" />
<glyph unicode="&#xcf;" horiz-adv-x="544" d="M8 1704q0 41 31 71.5t74 30.5t73.5 -30.5t30.5 -73.5t-30.5 -74t-73.5 -31t-74 31t-31 76zM172 -8q18 236 18 796q0 82 -1 167t-4 162t-6 143.5t-7 113.5q31 -4 51.5 -6t48.5 -2q29 0 49.5 2t51.5 6q-4 -53 -8.5 -123.5t-7.5 -152.5t-4 -170t-1 -178q0 -262 5 -451.5 t16 -306.5q-37 4 -59.5 6t-45.5 2t-43 -2t-53 -6zM326 1704q0 41 30.5 71.5t73.5 30.5t74 -30.5t31 -73.5t-31 -74t-74 -31t-73.5 31t-30.5 76z" />
<glyph unicode="&#xd4;" horiz-adv-x="1738" d="M111 684q0 166 52 298t150.5 225t238.5 143.5t314 50.5q178 0 319.5 -50.5t240 -143.5t150.5 -228t52 -307q0 -162 -53 -293t-152.5 -223.5t-240 -141.5t-314.5 -49q-176 0 -316 50.5t-238.5 143.5t-150.5 226t-52 299zM313 684q0 -272 113 -434q72 -104 187.5 -161.5 t254.5 -57.5q129 0 232.5 45t176.5 128t110.5 201.5t37.5 268.5q0 143 -26.5 250.5t-85.5 191.5q-72 104 -188 161.5t-257 57.5t-254.5 -56t-187.5 -163q-113 -162 -113 -432zM551 1516l287 350h94l256 -350h-74l-237 208l-250 -208h-76z" />
<glyph unicode="&#xd9;" horiz-adv-x="1519" d="M172 1374q33 -4 54.5 -6t45.5 -2q27 0 47.5 2t53.5 6q-6 -57 -11.5 -141t-9.5 -181.5t-6 -202t-2 -198.5q0 -84 3 -145.5t11.5 -108.5t21.5 -82.5t32 -68.5q59 -96 148 -141.5t218 -45.5q162 0 273.5 75t146.5 210q10 39 17.5 84t11.5 109.5t5 155.5t1 225q0 88 -1 151.5 t-2 113.5t-4 94t-7 97q43 -6 55 -7t24 -1q23 0 70 8q-4 -29 -9 -98.5t-10.5 -157.5t-8.5 -183t-5 -173q-2 -92 -4 -148.5t-4 -93.5t-5 -62.5t-7 -51.5q-20 -117 -65.5 -197t-129.5 -139q-145 -104 -375 -105q-135 0 -246.5 36t-185.5 103q-76 70 -107.5 162t-31.5 244v36.5 t1 69.5t2 90.5t3 100.5t2 95v85q0 109 -3 212t-7 175zM416 1800q0 27 20.5 45.5t48.5 18.5q12 0 24.5 -3t27 -12.5t34 -27t47.5 -43.5l275 -256h-78l-323 186q-76 43 -76 92z" />
<glyph unicode="&#xdb;" horiz-adv-x="1519" d="M172 1374q33 -4 54.5 -6t45.5 -2q27 0 47.5 2t53.5 6q-6 -57 -11.5 -141t-9.5 -181.5t-6 -202t-2 -198.5q0 -84 3 -145.5t11.5 -108.5t21.5 -82.5t32 -68.5q59 -96 148 -141.5t218 -45.5q162 0 273.5 75t146.5 210q10 39 17.5 84t11.5 109.5t5 155.5t1 225q0 88 -1 151.5 t-2 113.5t-4 94t-7 97q43 -6 55 -7t24 -1q23 0 70 8q-4 -29 -9 -98.5t-10.5 -157.5t-8.5 -183t-5 -173q-2 -92 -4 -148.5t-4 -93.5t-5 -62.5t-7 -51.5q-20 -117 -65.5 -197t-129.5 -139q-145 -104 -375 -105q-135 0 -246.5 36t-185.5 103q-76 70 -107.5 162t-31.5 244v36.5 t1 69.5t2 90.5t3 100.5t2 95v85q0 109 -3 212t-7 175zM467 1516l289 350h94l254 -350h-74l-235 208l-250 -208h-78z" />
<glyph unicode="&#xdc;" horiz-adv-x="1519" d="M172 1374q33 -4 54.5 -6t45.5 -2q27 0 47.5 2t53.5 6q-6 -57 -11.5 -141t-9.5 -181.5t-6 -202t-2 -198.5q0 -84 3 -145.5t11.5 -108.5t21.5 -82.5t32 -68.5q59 -96 148 -141.5t218 -45.5q162 0 273.5 75t146.5 210q10 39 17.5 84t11.5 109.5t5 155.5t1 225q0 88 -1 151.5 t-2 113.5t-4 94t-7 97q43 -6 55 -7t24 -1q23 0 70 8q-4 -29 -9 -98.5t-10.5 -157.5t-8.5 -183t-5 -173q-2 -92 -4 -148.5t-4 -93.5t-5 -62.5t-7 -51.5q-20 -117 -65.5 -197t-129.5 -139q-145 -104 -375 -105q-135 0 -246.5 36t-185.5 103q-76 70 -107.5 162t-31.5 244v36.5 t1 69.5t2 90.5t3 100.5t2 95v85q0 109 -3 212t-7 175zM481 1692q0 41 31 71.5t74 30.5t73.5 -30.5t30.5 -73.5t-30.5 -74t-73.5 -31t-74 31t-31 76zM883 1692q0 41 30.5 71.5t73.5 30.5t74 -30.5t31 -73.5t-31 -74t-74 -31t-73.5 31t-30.5 76z" />
<glyph unicode="&#xe0;" horiz-adv-x="1005" d="M96 215q0 66 23.5 118t68.5 83q39 29 92.5 47t159.5 35q55 8 93 16t66 16.5t47.5 18.5t39.5 22v2v7v14q2 10 2 21.5v21.5q0 113 -61.5 178.5t-169.5 65.5q-80 0 -145.5 -38t-104.5 -106h-21q4 23 5.5 34t1.5 24q0 12 -1.5 23t-5.5 34q86 59 164 85t164 26q156 0 243 -83 t87 -233q0 -23 -1 -57.5t-3 -75.5q-4 -59 -5 -108.5t-1 -100.5q0 -90 2 -134t8 -62q12 -53 69 -54q10 0 18.5 1t24.5 3v-39q-41 -16 -71.5 -23t-63.5 -7q-121 0 -139 121q-133 -145 -309 -146q-129 0 -203 66.5t-74 183.5zM178 1372q0 23 18.5 40.5t45.5 17.5q12 0 23 -3.5 t25.5 -12.5t34 -25.5t48.5 -42.5l264 -246h-62l-323 184q-41 23 -57.5 43.5t-16.5 44.5zM262 236q0 -82 51.5 -133.5t132.5 -51.5q68 0 131.5 38t104.5 104q2 97 6 296q-92 -18 -169 -36.5t-111 -28.5q-145 -45 -146 -188z" />
<glyph unicode="&#xe2;" horiz-adv-x="1005" d="M96 215q0 66 23.5 118t68.5 83q39 29 92.5 47t159.5 35q55 8 93 16t66 16.5t47.5 18.5t39.5 22v2v7v14q2 10 2 21.5v21.5q0 113 -61.5 178.5t-169.5 65.5q-80 0 -145.5 -38t-104.5 -106h-21q4 23 5.5 34t1.5 24q0 12 -1.5 23t-5.5 34q86 59 164 85t164 26q156 0 243 -83 t87 -233q0 -23 -1 -57.5t-3 -75.5q-4 -59 -5 -108.5t-1 -100.5q0 -90 2 -134t8 -62q12 -53 69 -54q10 0 18.5 1t24.5 3v-39q-41 -16 -71.5 -23t-63.5 -7q-121 0 -139 121q-133 -145 -309 -146q-129 0 -203 66.5t-74 183.5zM217 1094l277 338h92l245 -338h-61l-238 211 l-253 -211h-62zM262 236q0 -82 51.5 -133.5t132.5 -51.5q68 0 131.5 38t104.5 104q2 97 6 296q-92 -18 -169 -36.5t-111 -28.5q-145 -45 -146 -188z" />
<glyph unicode="&#xe6;" horiz-adv-x="1630" d="M96 215q0 61 23.5 113.5t70.5 85.5q39 29 92.5 47t157.5 41q59 12 98.5 20t66 16.5t45 16.5t36.5 18q0 43 -1 70t-2 44.5t-4 28.5t-9 27q-23 61 -81.5 97.5t-135.5 36.5q-86 0 -143.5 -33t-104.5 -111h-19q4 16 4 27.5v30.5v29t-4 28q94 61 168 85.5t158 24.5 q207 0 295 -149q47 72 130 110.5t191 38.5q188 0 299 -107.5t111 -291.5q0 -12 -1 -37.5t-5 -52.5q-59 4 -143 5t-228 3h-147l-176 4q-2 -16 -2 -30.5v-20.5q0 -86 24.5 -156.5t70.5 -120t110.5 -77t144.5 -27.5q174 0 297 133l12 -4q-2 -14 -2 -18t-4 -13l-6 -49l-2 -14 q-158 -119 -346 -119q-137 0 -245 63.5t-155 168.5q-47 -111 -139 -171.5t-219 -60.5q-131 0 -206 66.5t-75 183.5zM262 236q0 -84 52.5 -134.5t138.5 -50.5q80 0 143 48t80 124q4 16 6 37t4 50.5t2 71.5v103q-6 0 -14 -2l-6 -2l-123 -22q-80 -16 -133.5 -34.5t-87 -45.5 t-48 -61.5t-14.5 -81.5zM842 549q25 -2 46 -3t47 -1h60.5h87.5h100.5t76 1t59 2t55.5 3q-2 76 -9 116t-22 76q-68 152 -221 152q-59 0 -109 -25.5t-87 -70.5t-59.5 -109.5t-24.5 -140.5z" />
<glyph unicode="&#xe7;" horiz-adv-x="997" d="M96 463q0 113 38 206t108.5 157.5t169 100.5t221.5 36q90 0 158.5 -18.5t146.5 -61.5q-16 -33 -26.5 -61.5t-18.5 -71.5h-19q-35 66 -104.5 106.5t-153.5 40.5q-74 0 -137 -31.5t-108 -87t-71 -133.5t-26 -170q0 -96 28 -175t77 -137.5t116.5 -90t147.5 -31.5 q82 0 149.5 30.5t133.5 96.5l16 -4q-8 -39 -8 -64v-26q-125 -106 -328 -109v-104q27 8 43.5 11t32.5 3q68 0 108.5 -36t40.5 -95q0 -78 -63 -123t-168 -45q-106 0 -190 45l22 43q70 -25 141 -24q59 0 93 24.5t34 71.5q0 41 -24.5 62.5t-67.5 21.5q-23 0 -53 -8l-12 12v143 q-209 20 -328 152.5t-119 343.5z" />
<glyph unicode="&#xe8;" horiz-adv-x="1060" d="M96 457q0 236 129 374q61 68 145.5 100t196.5 32q197 0 303.5 -111t106.5 -315v-27.5t-2 -36.5q-49 4 -127 5t-207 1q-96 0 -179 -1t-188 -5v-45q0 -86 25 -156.5t69 -120t106.5 -77t139.5 -27.5q188 0 316 143l12 -4l-4 -18q-8 -27 -10 -40t-2 -44q-47 -35 -88 -57.5 t-82 -36t-84 -19.5t-94 -6q-111 0 -200 35t-151.5 98.5t-96.5 154.5t-34 204zM260 1372q0 23 18.5 40.5t45.5 17.5t51 -15.5t80 -68.5l264 -246h-62l-323 184q-41 25 -57.5 44.5t-16.5 43.5zM276 553q47 -2 121 -3t193 -1h83t54.5 1t41.5 2t46 5q-4 70 -11 112t-22 76 q-59 154 -219 154q-121 0 -198.5 -93t-88.5 -253z" />
<glyph unicode="&#xe9;" horiz-adv-x="1060" d="M96 457q0 236 129 374q61 68 145.5 100t196.5 32q197 0 303.5 -111t106.5 -315v-27.5t-2 -36.5q-49 4 -127 5t-207 1q-96 0 -179 -1t-188 -5v-45q0 -86 25 -156.5t69 -120t106.5 -77t139.5 -27.5q188 0 316 143l12 -4l-4 -18q-8 -27 -10 -40t-2 -44q-47 -35 -88 -57.5 t-82 -36t-84 -19.5t-94 -6q-111 0 -200 35t-151.5 98.5t-96.5 154.5t-34 204zM276 553q47 -2 121 -3t193 -1h83t54.5 1t41.5 2t46 5q-4 70 -11 112t-22 76q-59 154 -219 154q-121 0 -198.5 -93t-88.5 -253zM446 1112l265 248q29 27 48 43t32.5 25.5t25.5 12.5t25 3 q27 0 45 -17.5t18 -42.5q0 -23 -17.5 -43t-58.5 -43l-321 -186h-62z" />
<glyph unicode="&#xea;" horiz-adv-x="1060" d="M96 457q0 236 129 374q61 68 145.5 100t196.5 32q197 0 303.5 -111t106.5 -315v-27.5t-2 -36.5q-49 4 -127 5t-207 1q-96 0 -179 -1t-188 -5v-45q0 -86 25 -156.5t69 -120t106.5 -77t139.5 -27.5q188 0 316 143l12 -4l-4 -18q-8 -27 -10 -40t-2 -44q-47 -35 -88 -57.5 t-82 -36t-84 -19.5t-94 -6q-111 0 -200 35t-151.5 98.5t-96.5 154.5t-34 204zM264 1094l279 338h90l246 -338h-60l-239 211l-252 -211h-64zM276 553q47 -2 121 -3t193 -1h83t54.5 1t41.5 2t46 5q-4 70 -11 112t-22 76q-59 154 -219 154q-121 0 -198.5 -93t-88.5 -253z" />
<glyph unicode="&#xeb;" horiz-adv-x="1060" d="M96 457q0 236 129 374q61 68 145.5 100t196.5 32q197 0 303.5 -111t106.5 -315v-27.5t-2 -36.5q-49 4 -127 5t-207 1q-96 0 -179 -1t-188 -5v-45q0 -86 25 -156.5t69 -120t106.5 -77t139.5 -27.5q188 0 316 143l12 -4l-4 -18q-8 -27 -10 -40t-2 -44q-47 -35 -88 -57.5 t-82 -36t-84 -19.5t-94 -6q-111 0 -200 35t-151.5 98.5t-96.5 154.5t-34 204zM272 1276q0 41 29 69.5t70 28.5t70.5 -29.5t29.5 -70.5t-29.5 -69.5t-70.5 -28.5t-70 29.5t-29 70.5zM276 553q47 -2 121 -3t193 -1h83t54.5 1t41.5 2t46 5q-4 70 -11 112t-22 76 q-59 154 -219 154q-121 0 -198.5 -93t-88.5 -253zM674 1276q0 41 28.5 69.5t69.5 28.5t70.5 -29.5t29.5 -70.5t-29.5 -69.5t-70.5 -28.5t-69.5 29.5t-28.5 70.5z" />
<glyph unicode="&#xee;" horiz-adv-x="450" d="M-82 1094l279 338h90l245 -338h-61l-238 211l-251 -211h-64zM139 -8q8 84 11.5 185.5t3.5 256.5q0 168 -4.5 299t-10.5 215q29 -4 49.5 -6t42.5 -2q23 0 40.5 2t41.5 6q-2 -29 -4 -86t-4 -127.5t-3 -145.5t-1 -136q0 -49 1 -116t3 -133.5t4 -123.5t4 -88q-27 4 -43 6 t-39 2t-42 -2t-50 -6z" />
<glyph unicode="&#xef;" horiz-adv-x="450" d="M-18 1276q0 41 28.5 69.5t69.5 28.5t70.5 -29.5t29.5 -70.5t-29.5 -69.5t-70.5 -28.5t-69.5 29.5t-28.5 70.5zM139 -8q10 82 13.5 185.5t3.5 256.5q0 168 -4.5 298t-12.5 216q31 -4 50.5 -6t43.5 -2q23 0 39.5 2t40.5 6q-2 -31 -4 -88t-3 -126.5t-2 -143.5t-1 -137 q0 -49 1 -116t2 -133.5t3 -123.5t4 -88q-27 4 -43 6t-39 2t-42 -2t-50 -6zM287 1276q0 41 28.5 69.5t69.5 28.5t70.5 -29.5t29.5 -70.5t-29.5 -69.5t-70.5 -28.5t-69.5 29.5t-28.5 70.5z" />
<glyph unicode="&#xf4;" horiz-adv-x="1171" d="M96 463q0 117 35 209t100.5 156.5t159.5 99.5t211 35q225 0 350 -134.5t125 -375.5q0 -109 -35.5 -199t-100 -154.5t-155 -99.5t-200.5 -35q-111 0 -202 36t-154.5 100.5t-98.5 156.5t-35 205zM274 465q0 -205 83 -320.5t229 -115.5q145 0 229 114.5t84 313.5 q0 217 -78.5 329.5t-232.5 112.5q-147 0 -230.5 -114.5t-83.5 -319.5zM279 1094l278 338h90l246 -338h-59l-240 211l-252 -211h-63z" />
<glyph unicode="&#xf9;" horiz-adv-x="1105" d="M143 948q29 -4 46.5 -6t37.5 -2q23 0 41.5 2t48.5 6q-4 -39 -6 -100.5t-5 -130t-4 -138t-1 -124.5q0 -57 2 -98.5t6 -72t11.5 -53t17.5 -41.5q31 -57 84 -87.5t119 -30.5q84 0 145.5 46t89.5 126q8 25 12.5 46t6.5 59t3 102.5t1 173.5q0 47 -1 95t-2 92t-3 79t-5 57 q29 -4 46.5 -6t39.5 -2q23 0 40.5 2t48.5 6q-4 -41 -6.5 -100.5t-4.5 -128t-3 -140t-1 -139.5q0 -92 1 -161.5t2 -123t4 -93t8 -70.5q-33 4 -50.5 6t-35.5 2q-16 0 -33 -2t-45 -6q2 16 3 29.5t1 32t1 46t1 72.5q-47 -98 -134 -152.5t-198 -54.5q-143 0 -233 90 q-49 47 -72 107.5t-23 148.5q0 23 1 65t4 93l2 252v73.5t-1 56.5t-3.5 48.5t-4.5 48.5zM227 1372q0 23 18.5 40.5t45.5 17.5q12 0 24.5 -3.5t25.5 -12.5t32.5 -25.5t48.5 -42.5l264 -246h-61l-324 184q-41 25 -57.5 44.5t-16.5 43.5z" />
<glyph unicode="&#xfb;" horiz-adv-x="1105" d="M143 948q29 -4 46.5 -6t37.5 -2q23 0 41.5 2t48.5 6q-4 -39 -6 -100.5t-5 -130t-4 -138t-1 -124.5q0 -57 2 -98.5t6 -72t11.5 -53t17.5 -41.5q31 -57 84 -87.5t119 -30.5q84 0 145.5 46t89.5 126q8 25 12.5 46t6.5 59t3 102.5t1 173.5q0 47 -1 95t-2 92t-3 79t-5 57 q29 -4 46.5 -6t39.5 -2q23 0 40.5 2t48.5 6q-4 -41 -6.5 -100.5t-4.5 -128t-3 -140t-1 -139.5q0 -92 1 -161.5t2 -123t4 -93t8 -70.5q-33 4 -50.5 6t-35.5 2q-16 0 -33 -2t-45 -6q2 16 3 29.5t1 32t1 46t1 72.5q-47 -98 -134 -152.5t-198 -54.5q-143 0 -233 90 q-49 47 -72 107.5t-23 148.5q0 23 1 65t4 93l2 252v73.5t-1 56.5t-3.5 48.5t-4.5 48.5zM246 1094l278 338h90l246 -338h-61l-238 211l-252 -211h-63z" />
<glyph unicode="&#xfc;" horiz-adv-x="1105" d="M143 948q29 -4 46.5 -6t37.5 -2q23 0 41.5 2t48.5 6q-4 -39 -6 -100.5t-5 -130t-4 -138t-1 -124.5q0 -57 2 -98.5t6 -72t11.5 -53t17.5 -41.5q31 -57 84 -87.5t119 -30.5q84 0 145.5 46t89.5 126q8 25 12.5 46t6.5 59t3 102.5t1 173.5q0 47 -1 95t-2 92t-3 79t-5 57 q29 -4 46.5 -6t39.5 -2q23 0 40.5 2t48.5 6q-4 -41 -6.5 -100.5t-4.5 -128t-3 -140t-1 -139.5q0 -92 1 -161.5t2 -123t4 -93t8 -70.5q-33 4 -50.5 6t-35.5 2q-16 0 -33 -2t-45 -6q2 16 3 29.5t1 32t1 46t1 72.5q-47 -98 -134 -152.5t-198 -54.5q-143 0 -233 90 q-49 47 -72 107.5t-23 148.5q0 23 1 65t4 93l2 252v73.5t-1 56.5t-3.5 48.5t-4.5 48.5zM254 1276q0 41 28.5 69.5t69.5 28.5t71 -29.5t30 -70.5t-30 -69.5t-71 -28.5t-69.5 29.5t-28.5 70.5zM653 1276q0 41 29 69.5t70 28.5t70.5 -29.5t29.5 -70.5t-29.5 -69.5t-70.5 -28.5 t-70 29.5t-29 70.5z" />
<glyph unicode="&#xff;" horiz-adv-x="950" d="M27 948q37 -4 60.5 -6t45.5 -2q23 0 40 2t44 6q16 -55 51 -150.5t77 -204t88 -217t83 -190.5q37 80 77 173.5t80 193.5t77.5 200.5t68.5 194.5q20 -4 32.5 -6t29.5 -2q25 0 71 8q-10 -20 -18 -36.5t-17.5 -37t-20.5 -47t-30 -65.5q-45 -94 -83 -173t-78 -171 q-166 -369 -268.5 -607.5t-143.5 -361.5q-25 8 -41 10t-39 2q-20 0 -36.5 -2t-41.5 -6q12 23 39 68l66 110q72 121 119 213.5t69 149.5q-10 31 -19.5 54.5t-28 67.5t-51 121.5t-89.5 217.5q-59 135 -99 233q-25 57 -41 96t-28.5 68t-22.5 50.5t-22 45.5zM203 1276 q0 41 28.5 69.5t69.5 28.5t70.5 -29.5t29.5 -70.5t-29.5 -69.5t-70.5 -28.5t-69.5 29.5t-28.5 70.5zM602 1276q0 41 28.5 69.5t69.5 28.5t71 -29.5t30 -70.5t-30 -69.5t-71 -28.5t-69.5 29.5t-28.5 70.5z" />
<glyph unicode="&#x152;" horiz-adv-x="2117" d="M111 653q0 174 51 312.5t147.5 234.5t232.5 148.5t308 52.5q176 0 301 -56.5t217 -179.5l-2 41l-8 119v16.5t-2 32.5q59 -4 151 -6t176 -2q16 0 52.5 1t82.5 2t98 2t99 3q-4 -29 -5 -45t-1 -31v-17t2 -32q-18 2 -75.5 6.5t-125 8.5t-133 6t-102.5 2h-43q-2 -20 -5 -76.5 t-5 -126.5t-3 -142.5t-1 -125.5v-39q29 -2 51 -2h33q98 0 201.5 4t170.5 10q-4 -16 -5 -28.5t-1 -30.5v-27.5t4 -28.5q-25 2 -74 5.5t-106 5.5t-114.5 3t-96.5 1h-63q-2 -78 -3.5 -171t-1.5 -169v-60.5v-52t1.5 -59.5t3.5 -78q195 2 313.5 7t196.5 15q-4 -18 -4.5 -30.5 t-0.5 -30.5v-26.5t5 -26.5q-16 2 -60.5 3t-98.5 2t-110.5 2t-95.5 1q-53 0 -131 -2t-189 -6q2 23 3.5 41t2.5 39.5t2 50.5t3 74q-98 -113 -238.5 -172.5t-306.5 -59.5q-154 0 -288 50.5t-230 142.5q-180 176 -180 495zM303 668q0 -135 35 -254t96 -199q66 -84 170.5 -133 t216.5 -49q129 0 238.5 51t181.5 143q66 86 94.5 199t28.5 283q0 154 -25.5 257t-85.5 183q-66 90 -168 136t-231 46q-285 0 -422 -203q-63 -92 -96 -209.5t-33 -250.5z" />
<glyph unicode="&#x153;" horiz-adv-x="1845" d="M96 455q0 113 37 207t102.5 161.5t158.5 104.5t204 37q129 0 221 -42t160 -132q139 170 364 170q205 0 313.5 -112t108.5 -321q0 -10 -1 -26.5t-3 -38.5q-72 6 -222 9t-341 3h-75.5t-67.5 -2q-2 -14 -2 -25.5v-15.5q0 -86 25.5 -157.5t71.5 -123t110.5 -80t142.5 -28.5 q186 0 311 137l12 -6q-6 -14 -10 -35.5t-8 -64.5q-72 -53 -159 -82t-185 -29q-246 0 -389 178q-68 -86 -167 -131t-218 -45q-113 0 -204 35t-155.5 98.5t-99.5 154.5t-35 202zM274 444q0 -193 83 -304t227 -111q80 0 145.5 35.5t99.5 101.5q35 59 54.5 142t19.5 169 q0 203 -81 313.5t-228 110.5q-72 0 -131.5 -32.5t-101.5 -92t-64.5 -143.5t-22.5 -189zM1061 551q33 -4 63.5 -5t63.5 -3t72.5 -2h93.5h73.5t60.5 1t55.5 2t58.5 3q2 10 2 18v13q0 143 -70 231t-186 88q-123 0 -200 -92t-87 -254z" />
<glyph unicode="&#x178;" horiz-adv-x="1175" d="M14 1374q43 -4 69 -6t54 -2q27 0 47.5 2t51.5 6q16 -37 47.5 -95t68.5 -127t78 -141.5t78 -136t66.5 -113.5t46.5 -75q23 35 55.5 91.5t71 124t78.5 139t75 137t61.5 118t38.5 78.5q20 -4 34 -6t34 -2t39.5 2t50.5 6q-66 -94 -142.5 -212t-145 -229.5t-123 -205.5 t-74.5 -141q-2 -23 -2 -43.5v-26.5v-113l4 -202q0 -84 3 -127t9 -82q-57 6 -73.5 7t-30.5 1q-18 0 -37 -2t-60 -6q4 33 8.5 76t6.5 103t3 140t1 185v65q-145 242 -267 443.5t-225 369.5zM309 1692q0 41 31 71.5t74 30.5t73.5 -30.5t30.5 -73.5t-30.5 -74t-73.5 -31t-74 31 t-31 76zM709 1692q0 41 30.5 71.5t73.5 30.5t74 -30.5t31 -73.5t-31 -74t-74 -31t-73.5 31t-30.5 76z" />
<glyph unicode="&#x2c6;" horiz-adv-x="1024" d="M205 1094l278 338h90l246 -338h-61l-238 211l-252 -211h-63z" />
<glyph unicode="&#x2dc;" horiz-adv-x="1024" d="M186 1161q61 201 197 201q31 0 65.5 -10.5t92.5 -34.5q33 -16 55 -25.5t36.5 -13.5t25 -6t20.5 -2q76 0 110 102h52q-35 -109 -81 -157t-118 -48q-33 0 -66.5 9.5t-99.5 35.5q-55 23 -84 31t-51 8q-74 0 -104 -90h-50z" />
<glyph unicode="&#x2000;" horiz-adv-x="939" />
<glyph unicode="&#x2001;" horiz-adv-x="1878" />
<glyph unicode="&#x2002;" horiz-adv-x="939" />
<glyph unicode="&#x2003;" horiz-adv-x="1878" />
<glyph unicode="&#x2004;" horiz-adv-x="626" />
<glyph unicode="&#x2005;" horiz-adv-x="469" />
<glyph unicode="&#x2006;" horiz-adv-x="313" />
<glyph unicode="&#x2007;" horiz-adv-x="313" />
<glyph unicode="&#x2008;" horiz-adv-x="234" />
<glyph unicode="&#x2009;" horiz-adv-x="375" />
<glyph unicode="&#x200a;" horiz-adv-x="104" />
<glyph unicode="&#x2010;" horiz-adv-x="473" d="M0 481v133h473v-133h-473z" />
<glyph unicode="&#x2011;" horiz-adv-x="473" d="M0 481v133h473v-133h-473z" />
<glyph unicode="&#x2012;" horiz-adv-x="473" d="M0 481v133h473v-133h-473z" />
<glyph unicode="&#x2013;" d="M158 481v133h817v-133h-817z" />
<glyph unicode="&#x2014;" horiz-adv-x="1394" d="M0 481v133h1395v-133h-1395z" />
<glyph unicode="&#x2018;" horiz-adv-x="512" d="M100 879q0 16 8.5 39.5t22.5 48.5l252 419l33 -16l-146 -471q-29 -92 -92 -92q-31 0 -54.5 21.5t-23.5 50.5z" />
<glyph unicode="&#x2019;" horiz-adv-x="512" d="M96 836l148 473q29 92 92 92q31 0 54.5 -21.5t23.5 -50.5q0 -37 -33 -90l-250 -418z" />
<glyph unicode="&#x201a;" horiz-adv-x="512" d="M96 -307l148 473q27 92 92 92q31 0 54.5 -21.5t23.5 -50.5q0 -37 -33 -90l-250 -418z" />
<glyph unicode="&#x201c;" horiz-adv-x="862" d="M100 879q0 16 8.5 39.5t22.5 48.5l252 419l33 -16l-146 -471q-29 -92 -92 -92q-31 0 -54.5 21.5t-23.5 50.5zM451 879q0 35 32 88l250 419l35 -16l-147 -471q-29 -92 -93 -92q-31 0 -54 21.5t-23 50.5z" />
<glyph unicode="&#x201d;" horiz-adv-x="862" d="M96 836l148 473q29 92 92 92q31 0 54.5 -21.5t23.5 -50.5q0 -37 -33 -90l-250 -418zM446 836l148 473q27 92 92 92q31 0 54.5 -21.5t23.5 -50.5q0 -35 -33 -90l-250 -418z" />
<glyph unicode="&#x201e;" horiz-adv-x="862" d="M96 -307l148 473q27 92 92 92q31 0 54.5 -21.5t23.5 -50.5q0 -37 -33 -90l-250 -418zM446 -307l148 473q27 92 92 92q31 0 54.5 -21.5t23.5 -50.5q0 -31 -33 -90l-250 -418z" />
<glyph unicode="&#x2026;" horiz-adv-x="1421" d="M123 96q0 45 34 78t81 33t79.5 -33t32.5 -80t-33.5 -80.5t-83.5 -33.5q-45 0 -77.5 34.5t-32.5 81.5zM596 96q0 45 34 78t81 33t79.5 -33t32.5 -80t-33.5 -80.5t-82.5 -33.5q-45 0 -78 34.5t-33 81.5zM1071 96q0 45 34 78t81 33t79.5 -33t32.5 -80t-33.5 -80.5 t-82.5 -33.5q-45 0 -78 34.5t-33 81.5z" />
<glyph unicode="&#x202f;" horiz-adv-x="375" />
<glyph unicode="&#x2039;" horiz-adv-x="534" d="M82 473l18 31q29 43 55.5 82t53.5 80q18 29 34.5 52t32 48t31 51.5t35.5 59.5q14 -20 39 -35t55 -25q-31 -41 -56.5 -76.5t-72.5 -101.5q-25 -35 -42 -58.5t-31.5 -42t-26.5 -32.5t-29 -33q16 -18 28.5 -32.5t27 -32t32 -41t41.5 -60.5q25 -35 41.5 -58.5t30.5 -43 t27.5 -37.5t29.5 -39q-31 -10 -55.5 -24.5t-38.5 -34.5q-39 63 -67.5 109t-65.5 102l-109 161q-6 10 -10 16.5t-8 14.5z" />
<glyph unicode="&#x203a;" horiz-adv-x="522" d="M100 129q14 20 27.5 37.5t28 38t32 44t41.5 58.5q25 35 42.5 58.5t31.5 42t26.5 33t28.5 32.5q-16 18 -28.5 32.5t-26.5 32t-31.5 41t-42.5 60.5q-25 33 -41 57.5t-30.5 44t-27.5 37t-30 39.5q63 18 95 60q39 -63 67.5 -109.5t65.5 -101.5q29 -41 54.5 -81t51.5 -81 q2 -2 9.5 -14.5t11.5 -16.5q-4 -8 -9.5 -14t-11.5 -17q-27 -41 -52.5 -80.5t-53.5 -80.5q-18 -29 -35 -52.5t-32 -48t-30.5 -51.5t-35.5 -59q-31 41 -95 59z" />
<glyph unicode="&#x205f;" horiz-adv-x="469" />
<glyph unicode="&#x20ac;" horiz-adv-x="1120" d="M-31 518q20 31 27.5 44t17.5 44l97 -2q-2 12 -2 21.5v15.5v12v22.5t2 35.5l-142 -2q20 31 27.5 44t17.5 44h107q43 266 194.5 405t397.5 139q199 0 338 -79q-12 -35 -20.5 -72t-12.5 -78l-10 -4q-125 172 -312 172q-166 0 -275.5 -130t-135.5 -355q53 0 87 -1t54 -1h31.5 h23.5q61 0 137 1t183 3q-20 -31 -27.5 -44.5t-17.5 -43.5q-51 2 -90 3t-72 1h-60.5h-56.5h-115l-83 -2q-4 -14 -4.5 -26.5t-0.5 -25.5v-27.5t5 -29.5h127q47 0 126.5 1t182.5 3q-20 -31 -27.5 -44t-17.5 -44q-90 2 -150.5 3t-116.5 1h-39.5t-80.5 -2q29 -229 136 -357 t277 -128q96 0 179 43t165 133l9 -6q-10 -49 -14.5 -70.5t-8.5 -44.5q-141 -117 -356 -117q-229 0 -372.5 141.5t-180.5 403.5h-148z" />
<glyph unicode="&#x2122;" horiz-adv-x="1699" d="M-18 1288q4 12 5 19.5t1 17.5t-1 18.5t-5 24.5q45 -2 77.5 -4t65.5 -3t70.5 -1h93.5h97t75 1t70.5 3t86.5 4q-8 -25 -8 -41q0 -10 1 -17t5 -22q-31 6 -99 10.5t-155 4.5q-4 -55 -6 -139.5t-2 -170.5q0 -147 3 -256.5t10 -161.5q-27 2 -40.5 3.5t-25.5 1.5q-14 0 -26.5 -1 t-34.5 -4q2 23 4 68t4 105.5t3 132t1 147.5q0 53 -1 126t-5 149h-17q-68 -2 -106.5 -3.5t-62 -3.5t-40 -4t-38.5 -4zM690 575q12 55 23.5 121t26 159t31.5 220t42 303h25q45 -86 93 -174t93 -169t86 -151.5t72 -119.5q14 27 30.5 54.5l55.5 92.5q31 55 54.5 95.5t51 87.5 t66.5 113.5t100 170.5h21q2 -8 2 -13t2 -9q4 -49 14 -144.5t27 -236.5q23 -180 34 -270.5t19 -129.5q-33 4 -42 4.5t-20 0.5h-19t-40 -5q0 33 -5 93.5t-12.5 137.5t-17.5 167t-22 186q-45 -72 -92.5 -153.5t-90.5 -159.5t-78.5 -146.5t-54.5 -111.5h-14q-43 86 -79 152.5 t-70.5 130t-72.5 129t-87 149.5q-12 -86 -23.5 -175t-18.5 -168t-12.5 -139.5t-5.5 -91.5q-27 4 -33 4.5t-14 0.5h-15t-30 -5z" />
<glyph unicode="&#x25fc;" horiz-adv-x="952" d="M0 0v952h952v-952h-952z" />
</font>
</defs>
</svg>
