<svg width="57" height="57" viewBox="0 0 57 57" fill="none" xmlns="http://www.w3.org/2000/svg"><mask id="a" maskUnits="userSpaceOnUse" x="0" y="0" width="57" height="57" fill="#000"><path fill="#fff" d="M0 0h57v57H0z"/><path d="M31.483 49.557a.244.244 0 0 0 .416-.172V35.848a.244.244 0 0 0-.487 0v13.537c0 .065.026.127.071.172z"/><path fill-rule="evenodd" clip-rule="evenodd" d="M28.672 56h-.193a27.492 27.492 0 0 1-7.43-1.029.245.245 0 0 1-.089-.025 27.5 27.5 0 1 1 24.127-4.511 27.722 27.722 0 0 1-1.214.867.243.243 0 0 1-.09.035c-1.116.674-2.118 1.011-3.004 1.011a2.985 2.985 0 0 1-.954-.152 3.058 3.058 0 0 1-1.308-.856.242.242 0 0 1-.022.073C35.39 55.787 29.778 56 28.672 56zm9.613-4.936h-.034a.243.243 0 0 0-.152.075c-3.225 4.53-9.303 4.381-9.599 4.374h-.01a27.03 27.03 0 0 1-7.372-1.029c-3.962-3.625-5.7-7.099-5.173-10.33a7.459 7.459 0 0 1 .747-2.211 11.16 11.16 0 0 0 4.115.824 10.148 10.148 0 0 0 3.654-.64c.142-.07 3.45-1.816 3.825-3.602a1.482 1.482 0 0 0-.304-1.289c-.487-.609-.914-.842-1.3-.72a1.177 1.177 0 0 0-.628.842 1.624 1.624 0 0 0-.71-.63 1.015 1.015 0 0 0-1.29.57 1.674 1.674 0 0 0-.426 1.339 1.44 1.44 0 0 0 .62.913l1.775 1.015h.092a15.78 15.78 0 0 1-1.786 1.136 9.944 9.944 0 0 1-3.938.61 10.745 10.745 0 0 1-3.476-.773c1.975-3.366 6.013-5.197 6.063-5.197a.223.223 0 0 0 .141-.183l.315-1.918a.244.244 0 0 0-.111-.243c-.02-.01-1.787-1.056-1.929-2.466a2.446 2.446 0 0 1 1.015-2.03h.001c2.739-2.476 2.74-2.476 4.92-4.414a.234.234 0 0 0 .082-.172v-4.262a.235.235 0 0 0-.081-.183.213.213 0 0 0-.203 0l-.015.002c-.224.03-2.824.39-4.46-.925a3.978 3.978 0 0 1-1.37-3.045c-.223-5.013 2.628-6.9 2.628-6.9a2.68 2.68 0 0 1 2.324-.355c.852.416 1.37 1.603 1.522 3.521v1.015a.253.253 0 0 0 .091.193.234.234 0 0 0 .213 0 2.842 2.842 0 0 1 1.847.08 1.37 1.37 0 0 1 .67.853 1.229 1.229 0 0 1-.091 1.015 2.394 2.394 0 0 1-1.441.842.254.254 0 0 0-.163.102.263.263 0 0 0 0 .192c.01.02.548 2.253-.517 2.77a.243.243 0 0 0-.112.325.253.253 0 0 0 .325.112c1.187-.548.954-2.385.822-3.044a2.658 2.658 0 0 0 1.542-.995 1.663 1.663 0 0 0 .132-1.42 1.855 1.855 0 0 0-.903-1.147 3.044 3.044 0 0 0-1.898-.183v-.73c-.172-2.121-.78-3.44-1.796-3.938a3.044 3.044 0 0 0-2.79.396l-.003.002c-.162.108-3.08 2.046-2.849 7.315a4.485 4.485 0 0 0 1.553 3.43 6.627 6.627 0 0 0 4.587 1.014v3.877l-.608.54c-1.531 1.36-1.822 1.618-4.233 3.803a2.85 2.85 0 0 0-1.147 2.435 4.262 4.262 0 0 0 2.03 2.74l-.264 1.634c-.728.34-4.354 2.157-6.205 5.386a10.735 10.735 0 0 1-4.022-3.131c-4.709-5.47 1.025-12.624 1.147-12.766.121-.142 2.912-3.622 3.338-10.918.487-8.535 8.128-8.636 8.484-8.636a7.702 7.702 0 0 1 5.144 1.603c1.888 1.512 3.024 3.968 3.39 7.266v.008c-.005.301-.122 7.843 5.317 9.632.226.07.441.14.656.209.287.093.573.185.886.278l.003.001c5.764 1.776 14.528 4.476 11.383 16.398a.246.246 0 0 0-.005.037 27.052 27.052 0 0 1-1.643 2.653l-.008.006a.235.235 0 0 0-.017.015 63.84 63.84 0 0 1-1.159 1.396 7.373 7.373 0 0 0 .388-3.802c-.558-3.004-3.186-5.581-5.216-6.88a40.308 40.308 0 0 1-9.376-7.976.224.224 0 0 0-.02-.017c-.542-1.014-1.22-1.76-2.03-2.235a4.688 4.688 0 0 0-4.232-.132.234.234 0 0 0 .027.438.25.25 0 0 0 .186-.011 4.302 4.302 0 0 1 3.775.121c1.978 1.157 3.145 4.293 3.379 9.042 0 .081.06 8.118.619 12.979v.003c.01.162.158 2.56 1.342 4.1zm10.974-6.397a6.899 6.899 0 0 1-.929 2.026 34.75 34.75 0 0 1-2.177 2.196c-1.494-7.475-8.25-11.38-9.297-11.913a191.077 191.077 0 0 1-.055-3.005c-.113-2.331-.437-4.265-.968-5.793.106.109.217.223.33.342a40.68 40.68 0 0 0 8.26 6.667c1.948 1.248 4.475 3.714 4.992 6.556a6.901 6.901 0 0 1-.156 2.924zM36.87 37.532c1.538.855 7.612 4.7 8.863 11.732-2.884 2.52-4.676 2.83-5.757 2.485-2.314-.77-2.557-4.78-2.557-4.83-.315-2.776-.473-6.611-.55-9.387zm-21.31 6.582c.137-.839.41-1.614.77-2.326a11.158 11.158 0 0 1-4.178-3.253c-4.973-5.764 1.075-13.303 1.146-13.374.071-.071 2.811-3.511 3.217-10.645a9.133 9.133 0 0 1 8.95-9.062 7.996 7.996 0 0 1 5.47 1.705c2.03 1.593 3.196 4.16 3.572 7.62v.013c-.005.348-.105 7.516 4.992 9.202l1.532.477c5.33 1.625 14.003 4.29 12.12 15.114a27.026 27.026 0 0 0-.237-22.722 27.033 27.033 0 1 0-32.772 37.324c-3.573-3.5-5.115-6.88-4.582-10.073zm9.428-6.99c-.132 0-.325.072-.558.356a1.226 1.226 0 0 0-.335.954c.057.242.202.456.406.598l1.766 1.015a.243.243 0 0 1 .111.234 3.806 3.806 0 0 0 1.462-1.878 1.015 1.015 0 0 0-.213-.883c-.325-.406-.61-.619-.772-.568-.162.05-.436.822-.466 1.34a.286.286 0 0 1 0 .091.234.234 0 0 1-.254.213.244.244 0 0 1-.223-.254v-.07a1.532 1.532 0 0 0-.731-1.127.618.618 0 0 0-.193-.02z"/></mask><path d="M31.483 49.557a.244.244 0 0 0 .416-.172V35.848a.244.244 0 0 0-.487 0v13.537c0 .065.026.127.071.172z" fill="#6168A7"/><path fill-rule="evenodd" clip-rule="evenodd" d="M28.672 56h-.193a27.492 27.492 0 0 1-7.43-1.029.245.245 0 0 1-.089-.025 27.5 27.5 0 1 1 24.127-4.511 27.722 27.722 0 0 1-1.214.867.243.243 0 0 1-.09.035c-1.116.674-2.118 1.011-3.004 1.011a2.985 2.985 0 0 1-.954-.152 3.058 3.058 0 0 1-1.308-.856.242.242 0 0 1-.022.073C35.39 55.787 29.778 56 28.672 56zm9.613-4.936h-.034a.243.243 0 0 0-.152.075c-3.225 4.53-9.303 4.381-9.599 4.374h-.01a27.03 27.03 0 0 1-7.372-1.029c-3.962-3.625-5.7-7.099-5.173-10.33a7.459 7.459 0 0 1 .747-2.211 11.16 11.16 0 0 0 4.115.824 10.148 10.148 0 0 0 3.654-.64c.142-.07 3.45-1.816 3.825-3.602a1.482 1.482 0 0 0-.304-1.289c-.487-.609-.914-.842-1.3-.72a1.177 1.177 0 0 0-.628.842 1.624 1.624 0 0 0-.71-.63 1.015 1.015 0 0 0-1.29.57 1.674 1.674 0 0 0-.426 1.339 1.44 1.44 0 0 0 .62.913l1.775 1.015h.092a15.78 15.78 0 0 1-1.786 1.136 9.944 9.944 0 0 1-3.938.61 10.745 10.745 0 0 1-3.476-.773c1.975-3.366 6.013-5.197 6.063-5.197a.223.223 0 0 0 .141-.183l.315-1.918a.244.244 0 0 0-.111-.243c-.02-.01-1.787-1.056-1.929-2.466a2.446 2.446 0 0 1 1.015-2.03h.001c2.739-2.476 2.74-2.476 4.92-4.414a.234.234 0 0 0 .082-.172v-4.262a.235.235 0 0 0-.081-.183.213.213 0 0 0-.203 0l-.015.002c-.224.03-2.824.39-4.46-.925a3.978 3.978 0 0 1-1.37-3.045c-.223-5.013 2.628-6.9 2.628-6.9a2.68 2.68 0 0 1 2.324-.355c.852.416 1.37 1.603 1.522 3.521v1.015a.253.253 0 0 0 .091.193.234.234 0 0 0 .213 0 2.842 2.842 0 0 1 1.847.08 1.37 1.37 0 0 1 .67.853 1.229 1.229 0 0 1-.091 1.015 2.394 2.394 0 0 1-1.441.842.254.254 0 0 0-.163.102.263.263 0 0 0 0 .192c.01.02.548 2.253-.517 2.77a.243.243 0 0 0-.112.325.253.253 0 0 0 .325.112c1.187-.548.954-2.385.822-3.044a2.658 2.658 0 0 0 1.542-.995 1.663 1.663 0 0 0 .132-1.42 1.855 1.855 0 0 0-.903-1.147 3.044 3.044 0 0 0-1.898-.183v-.73c-.172-2.121-.78-3.44-1.796-3.938a3.044 3.044 0 0 0-2.79.396l-.003.002c-.162.108-3.08 2.046-2.849 7.315a4.485 4.485 0 0 0 1.553 3.43 6.627 6.627 0 0 0 4.587 1.014v3.877l-.608.54c-1.531 1.36-1.822 1.618-4.233 3.803a2.85 2.85 0 0 0-1.147 2.435 4.262 4.262 0 0 0 2.03 2.74l-.264 1.634c-.728.34-4.354 2.157-6.205 5.386a10.735 10.735 0 0 1-4.022-3.131c-4.709-5.47 1.025-12.624 1.147-12.766.121-.142 2.912-3.622 3.338-10.918.487-8.535 8.128-8.636 8.484-8.636a7.702 7.702 0 0 1 5.144 1.603c1.888 1.512 3.024 3.968 3.39 7.266v.008c-.005.301-.122 7.843 5.317 9.632.226.07.441.14.656.209.287.093.573.185.886.278l.003.001c5.764 1.776 14.528 4.476 11.383 16.398a.246.246 0 0 0-.005.037 27.052 27.052 0 0 1-1.643 2.653l-.008.006a.235.235 0 0 0-.017.015 63.84 63.84 0 0 1-1.159 1.396 7.373 7.373 0 0 0 .388-3.802c-.558-3.004-3.186-5.581-5.216-6.88a40.308 40.308 0 0 1-9.376-7.976.224.224 0 0 0-.02-.017c-.542-1.014-1.22-1.76-2.03-2.235a4.688 4.688 0 0 0-4.232-.132.234.234 0 0 0 .027.438.25.25 0 0 0 .186-.011 4.302 4.302 0 0 1 3.775.121c1.978 1.157 3.145 4.293 3.379 9.042 0 .081.06 8.118.619 12.979v.003c.01.162.158 2.56 1.342 4.1zm10.974-6.397a6.899 6.899 0 0 1-.929 2.026 34.75 34.75 0 0 1-2.177 2.196c-1.494-7.475-8.25-11.38-9.297-11.913a191.077 191.077 0 0 1-.055-3.005c-.113-2.331-.437-4.265-.968-5.793.106.109.217.223.33.342a40.68 40.68 0 0 0 8.26 6.667c1.948 1.248 4.475 3.714 4.992 6.556a6.901 6.901 0 0 1-.156 2.924zM36.87 37.532c1.538.855 7.612 4.7 8.863 11.732-2.884 2.52-4.676 2.83-5.757 2.485-2.314-.77-2.557-4.78-2.557-4.83-.315-2.776-.473-6.611-.55-9.387zm-21.31 6.582c.137-.839.41-1.614.77-2.326a11.158 11.158 0 0 1-4.178-3.253c-4.973-5.764 1.075-13.303 1.146-13.374.071-.071 2.811-3.511 3.217-10.645a9.133 9.133 0 0 1 8.95-9.062 7.996 7.996 0 0 1 5.47 1.705c2.03 1.593 3.196 4.16 3.572 7.62v.013c-.005.348-.105 7.516 4.992 9.202l1.532.477c5.33 1.625 14.003 4.29 12.12 15.114a27.026 27.026 0 0 0-.237-22.722 27.033 27.033 0 1 0-32.772 37.324c-3.573-3.5-5.115-6.88-4.582-10.073zm9.428-6.99c-.132 0-.325.072-.558.356a1.226 1.226 0 0 0-.335.954c.057.242.202.456.406.598l1.766 1.015a.243.243 0 0 1 .111.234 3.806 3.806 0 0 0 1.462-1.878 1.015 1.015 0 0 0-.213-.883c-.325-.406-.61-.619-.772-.568-.162.05-.436.822-.466 1.34a.286.286 0 0 1 0 .091.234.234 0 0 1-.254.213.244.244 0 0 1-.223-.254v-.07a1.532 1.532 0 0 0-.731-1.127.618.618 0 0 0-.193-.02z" fill="#6168A7"/><path d="M31.483 49.557a.244.244 0 0 0 .416-.172V35.848a.244.244 0 0 0-.487 0v13.537c0 .065.026.127.071.172z" stroke="#6168A7" stroke-width=".405" mask="url(#a)"/><path clip-rule="evenodd" d="M28.672 56h-.193a27.492 27.492 0 0 1-7.43-1.029.245.245 0 0 1-.089-.025 27.5 27.5 0 1 1 24.127-4.511 27.722 27.722 0 0 1-1.214.867.243.243 0 0 1-.09.035c-1.116.674-2.118 1.011-3.004 1.011a2.985 2.985 0 0 1-.954-.152 3.058 3.058 0 0 1-1.308-.856.242.242 0 0 1-.022.073C35.39 55.787 29.778 56 28.672 56zm9.613-4.936h-.034a.243.243 0 0 0-.152.075c-3.225 4.53-9.303 4.381-9.599 4.374h-.01a27.03 27.03 0 0 1-7.372-1.029c-3.962-3.625-5.7-7.099-5.173-10.33a7.459 7.459 0 0 1 .747-2.211 11.16 11.16 0 0 0 4.115.824 10.148 10.148 0 0 0 3.654-.64c.142-.07 3.45-1.816 3.825-3.602a1.482 1.482 0 0 0-.304-1.289c-.487-.609-.914-.842-1.3-.72a1.177 1.177 0 0 0-.628.842 1.624 1.624 0 0 0-.71-.63 1.015 1.015 0 0 0-1.29.57 1.674 1.674 0 0 0-.426 1.339 1.44 1.44 0 0 0 .62.913l1.775 1.015h.092a15.78 15.78 0 0 1-1.786 1.136 9.944 9.944 0 0 1-3.938.61 10.745 10.745 0 0 1-3.476-.773c1.975-3.366 6.013-5.197 6.063-5.197a.223.223 0 0 0 .141-.183l.315-1.918a.244.244 0 0 0-.111-.243c-.02-.01-1.787-1.056-1.929-2.466a2.446 2.446 0 0 1 1.015-2.03h.001c2.739-2.476 2.74-2.476 4.92-4.414a.234.234 0 0 0 .082-.172v-4.262a.235.235 0 0 0-.081-.183.213.213 0 0 0-.203 0l-.015.002c-.224.03-2.824.39-4.46-.925a3.978 3.978 0 0 1-1.37-3.045c-.223-5.013 2.628-6.9 2.628-6.9a2.68 2.68 0 0 1 2.324-.355c.852.416 1.37 1.603 1.522 3.521v1.015a.253.253 0 0 0 .091.193.234.234 0 0 0 .213 0 2.842 2.842 0 0 1 1.847.08 1.37 1.37 0 0 1 .67.853 1.229 1.229 0 0 1-.091 1.015 2.394 2.394 0 0 1-1.441.842.254.254 0 0 0-.163.102.263.263 0 0 0 0 .192c.01.02.548 2.253-.517 2.77a.243.243 0 0 0-.112.325.253.253 0 0 0 .325.112c1.187-.548.954-2.385.822-3.044a2.658 2.658 0 0 0 1.542-.995 1.663 1.663 0 0 0 .132-1.42 1.855 1.855 0 0 0-.903-1.147 3.044 3.044 0 0 0-1.898-.183v-.73c-.172-2.121-.78-3.44-1.796-3.938a3.044 3.044 0 0 0-2.79.396l-.003.002c-.162.108-3.08 2.046-2.849 7.315a4.485 4.485 0 0 0 1.553 3.43 6.627 6.627 0 0 0 4.587 1.014v3.877l-.608.54c-1.531 1.36-1.822 1.618-4.233 3.803a2.85 2.85 0 0 0-1.147 2.435 4.262 4.262 0 0 0 2.03 2.74l-.264 1.634c-.728.34-4.354 2.157-6.205 5.386a10.735 10.735 0 0 1-4.022-3.131c-4.709-5.47 1.025-12.624 1.147-12.766.121-.142 2.912-3.622 3.338-10.918.487-8.535 8.128-8.636 8.484-8.636a7.702 7.702 0 0 1 5.144 1.603c1.888 1.512 3.024 3.968 3.39 7.266v.008c-.005.301-.122 7.843 5.317 9.632.226.07.441.14.656.209.287.093.573.185.886.278l.003.001c5.764 1.776 14.528 4.476 11.383 16.398a.246.246 0 0 0-.005.037 27.052 27.052 0 0 1-1.643 2.653l-.008.006a.235.235 0 0 0-.017.015 63.84 63.84 0 0 1-1.159 1.396 7.373 7.373 0 0 0 .388-3.802c-.558-3.004-3.186-5.581-5.216-6.88a40.308 40.308 0 0 1-9.376-7.976.224.224 0 0 0-.02-.017c-.542-1.014-1.22-1.76-2.03-2.235a4.688 4.688 0 0 0-4.232-.132.234.234 0 0 0 .027.438.25.25 0 0 0 .186-.011 4.302 4.302 0 0 1 3.775.121c1.978 1.157 3.145 4.293 3.379 9.042 0 .081.06 8.118.619 12.979v.003c.01.162.158 2.56 1.342 4.1zm10.974-6.397a6.899 6.899 0 0 1-.929 2.026 34.75 34.75 0 0 1-2.177 2.196c-1.494-7.475-8.25-11.38-9.297-11.913a191.077 191.077 0 0 1-.055-3.005c-.113-2.331-.437-4.265-.968-5.793.106.109.217.223.33.342a40.68 40.68 0 0 0 8.26 6.667c1.948 1.248 4.475 3.714 4.992 6.556a6.901 6.901 0 0 1-.156 2.924zM36.87 37.532c1.538.855 7.612 4.7 8.863 11.732-2.884 2.52-4.676 2.83-5.757 2.485-2.314-.77-2.557-4.78-2.557-4.83-.315-2.776-.473-6.611-.55-9.387zm-21.31 6.582c.137-.839.41-1.614.77-2.326a11.158 11.158 0 0 1-4.178-3.253c-4.973-5.764 1.075-13.303 1.146-13.374.071-.071 2.811-3.511 3.217-10.645a9.133 9.133 0 0 1 8.95-9.062 7.996 7.996 0 0 1 5.47 1.705c2.03 1.593 3.196 4.16 3.572 7.62v.013c-.005.348-.105 7.516 4.992 9.202l1.532.477c5.33 1.625 14.003 4.29 12.12 15.114a27.026 27.026 0 0 0-.237-22.722 27.033 27.033 0 1 0-32.772 37.324c-3.573-3.5-5.115-6.88-4.582-10.073zm9.428-6.99c-.132 0-.325.072-.558.356a1.226 1.226 0 0 0-.335.954c.057.242.202.456.406.598l1.766 1.015a.243.243 0 0 1 .111.234 3.806 3.806 0 0 0 1.462-1.878 1.015 1.015 0 0 0-.213-.883c-.325-.406-.61-.619-.772-.568-.162.05-.436.822-.466 1.34a.286.286 0 0 1 0 .091.234.234 0 0 1-.254.213.244.244 0 0 1-.223-.254v-.07a1.532 1.532 0 0 0-.731-1.127.618.618 0 0 0-.193-.02z" stroke="#6168A7" stroke-width=".405" mask="url(#a)"/></svg>