<svg width="16" height="13" viewBox="0 0 16 13" fill="none" xmlns="http://www.w3.org/2000/svg"><path d="M14.115 2.05A3.29 3.29 0 0 0 15.56.234a6.57 6.57 0 0 1-2.085.796 3.288 3.288 0 0 0-5.596 2.995A9.319 9.319 0 0 1 1.114.595a3.29 3.29 0 0 0 1.015 4.384 3.27 3.27 0 0 1-1.486-.412v.041a3.285 3.285 0 0 0 2.634 3.22c-.484.131-.99.15-1.483.056a3.29 3.29 0 0 0 3.067 2.28A6.584 6.584 0 0 1 .784 11.57 6.67 6.67 0 0 1 0 11.525 9.29 9.29 0 0 0 5.032 13a9.275 9.275 0 0 0 9.34-9.343c0-.142-.004-.284-.01-.424A6.669 6.669 0 0 0 16 1.533a6.561 6.561 0 0 1-1.885.517z" fill="#6168A7"/></svg>