<svg width="242" height="205" viewBox="0 0 242 205" fill="none" xmlns="http://www.w3.org/2000/svg">
<g clip-path="url(#clip0_3273_4936)">
<path d="M105.611 181.181C93.381 183.747 81.8587 189.079 72.199 196.973C61.1683 205.985 45.1394 215.968 29.8285 214.091C2.76774 210.772 -4.94363 185.644 -22.4745 182.055C-40.0034 178.47 -84.1449 103.754 -51.0021 73.2529C-17.8574 42.756 19.8705 24.5871 58.9665 28.2189C136.768 35.4462 164.86 91.0421 157.966 136.997C157.966 136.997 154.053 171.017 105.614 181.174L105.611 181.181Z" fill="#E2DBD5"/>
<path d="M189.818 145.613C181.557 153.243 176.458 161.67 172.643 172.229C168.285 184.284 155.171 202.91 142.478 208.531C120.044 218.466 110.176 192.807 94.9779 198.131C79.7832 203.458 11.1818 166.136 22.6935 127.27C34.2087 88.4075 79.191 76.1973 86.8318 41.6982C94.4726 7.199 182.042 33.1382 213.536 79.9928C213.536 79.9928 233.77 106.771 201.048 136.988L189.818 145.613Z" fill="#EFEAE6"/>
<path d="M102.897 171.548C102.897 171.548 137.281 69.6333 154.306 72.4195C169.827 74.9569 144.756 110.686 145.246 119.34C145.731 127.994 166.423 96.5885 184.433 83.375C202.445 70.1621 210.437 80.4192 198.346 98.0615C186.652 115.124 151.788 131.612 158.483 134.627C165.179 137.639 208.702 118.376 213.048 128.848C218.376 141.689 154.498 152.227 160.181 155.55C165.865 158.873 196.48 152.74 194.946 162.013C193.412 171.286 153.216 167.016 153.588 171.194C154.192 177.964 193.131 170.395 193.592 179.723C194.068 189.265 146.821 179.104 146.885 186.516C146.921 190.774 193.099 193.007 193.795 198.969C195.384 212.567 92 202.609 92 202.609L102.893 171.551L102.897 171.548Z" fill="#DCD3CB"/>
<path d="M80.9674 160.584C80.9674 160.584 75.9381 160.765 75.4105 161.006C74.883 161.248 68.2663 167.488 68.2663 167.488C68.2663 167.488 64.311 174.092 64.9422 174.632C65.5719 175.172 67.7999 172.508 67.9711 171.957C68.1422 171.406 72.6769 166.285 73.272 165.932C73.8671 165.579 78.3452 164.395 78.4959 164.202C78.6482 164.009 81.6677 162.493 81.7446 162.252C81.8215 162.01 80.9689 160.584 80.9689 160.584H80.9674Z" fill="#DCA799"/>
<path d="M72.8276 163.719C72.9092 163.5 74.6883 160.997 75.6429 160.953C76.5976 160.909 76.9776 161.631 76.9399 161.752C76.9006 161.873 76.1689 162.658 75.6555 163.113C75.142 163.569 72.8276 163.719 72.8276 163.719Z" fill="#DCA799"/>
<path d="M68.4452 170.278C68.2678 170.798 65.2829 177.001 65.4619 177.221C65.6409 177.441 67.2001 177.396 67.6319 176.917L68.0621 176.438C68.0621 176.438 68.932 176.444 69.4454 175.69C69.9589 174.937 70.901 173.03 71.3642 172.641C71.8274 172.252 73.0851 169.571 73.363 169.512C73.6394 169.452 77.7925 166.923 77.7925 166.923L79.9514 168.293C79.9514 168.293 78.7707 169.987 78.1206 170.854C77.4706 171.719 76.1925 173.409 76.4751 174.731C76.7593 176.053 77.7768 176.252 77.7862 176.251C77.7972 176.249 78.8068 173.91 79.1161 173.553C79.4254 173.197 81.6896 170.622 82.3491 170.287C83.007 169.953 85.4141 169.18 86.2824 168.125C87.1491 167.072 90.2502 162.928 90.2502 162.928L83.343 161.166C83.343 161.166 73.9518 164.016 73.7807 164.117C73.6095 164.217 68.4452 170.278 68.4452 170.278Z" fill="#DCA799"/>
<path d="M65.9079 166.432C65.9079 166.432 68.4044 165.366 68.7907 165.139C69.1754 164.911 71.672 163.388 71.8965 163.314C72.1226 163.242 76.7373 162.155 76.7373 162.155C76.7373 162.155 79.7489 160.569 80.1729 160.406C80.5968 160.243 84.048 159.021 84.7578 158.844C85.4675 158.668 88.2985 157.024 88.7444 156.856C89.1904 156.688 93.2053 155.611 93.2053 155.611C93.2053 155.611 97.6724 159.45 97.7368 161.1C97.7368 161.1 90.3538 162.782 90.0367 162.995C90.0335 162.997 90.0304 163 90.0273 163.002C88.1242 164.3 85.838 164.911 83.5409 164.738C82.8202 164.685 82.0571 164.663 81.5373 164.745C80.2545 164.947 74.4574 165.586 73.3756 165.602C72.2937 165.616 67.4796 167.348 66.9348 167.393C66.3899 167.439 65.0317 166.957 65.9079 166.432Z" fill="#ECBAAB"/>
<path d="M137.611 55.2035C132.888 39.7671 122.165 35.2309 116.291 34.6845C105.701 33.6984 100.436 36.5859 92.3134 45.2721C81.7053 56.6166 80.6973 53.6898 66.035 58.1915C31.6373 68.754 36.9775 114.099 56.3816 129.311C87.168 153.447 108.744 133.83 123.401 110.4C139.191 85.1607 139.541 61.5108 137.611 55.2035Z" fill="#C74532"/>
<path d="M94.0622 162.431C94.0622 162.431 86.1375 175.859 83.0411 187.915C80.9026 196.246 79.8239 205 79.8239 205H147.327C147.327 205 139.793 171.138 125.641 164.709C111.489 158.281 94.0622 162.431 94.0622 162.431Z" fill="#2C67A9"/>
<path d="M134.732 92.1195C124.931 91.1994 98.3837 93.6018 86.3421 95.5488C84.6212 95.8267 94.6891 155.561 91.9366 166.062L86.3311 177.54C86.3311 177.54 120.087 184.789 137.055 175.618L127.57 161.147C129.261 153.408 142.25 92.8246 134.732 92.118V92.1195Z" fill="#B59A94"/>
<path d="M102.754 76.6186C102.754 76.6186 101.29 112.268 109.758 112.999C118.226 113.731 118.427 92.0063 118.535 89.3386L119.124 74.8176L102.754 76.6186Z" fill="#ECBAAB"/>
<path opacity="0.5" d="M102.666 84.1984C108.07 90.5231 115.912 89.5417 118.695 85.4122L119.126 74.8167L102.755 76.6176C102.755 76.6176 102.626 79.7596 102.666 84.1969V84.1984Z" fill="#DCA799"/>
<path d="M75.599 110.733C75.4184 125.597 77.2508 148.219 86.7425 161.039C89.2234 164.389 93.5084 152.356 93.5084 152.356C93.5084 152.356 90.2942 94.9336 86.3248 95.5538C82.6867 96.1238 75.7466 98.4979 75.599 110.733Z" fill="#DCA799"/>
<path d="M93.02 141.267C91.676 123.652 89.0726 95.1217 86.3248 95.5519C82.6867 96.1219 74.4057 98.496 74.2565 110.731C74.1372 120.555 74.9081 134.279 78.1772 145.81C81.137 144.111 85.5272 142.023 89.0114 141.786C90.3664 141.715 91.6964 141.508 93.0185 141.267H93.02Z" fill="#C8B1AC"/>
<path d="M99.6524 46.1263C99.6524 46.1263 97.4228 51.1445 97.4228 61.5987C97.4228 72.0529 99.9319 78.0463 104.81 81.5321C109.689 85.0163 115.315 83.4649 118.053 81.5321C122.996 78.0431 127.81 65.0845 126.416 55.8849C125.022 46.6853 120.84 28.5639 99.6524 46.1278V46.1263Z" fill="#ECBAAB"/>
<path d="M133.628 92.0496C133.628 92.0496 134.121 93.6182 133.383 106.746C132.522 122.052 128.003 155.778 128.003 155.778C128.003 155.778 106.61 154.533 92.1847 155.214L85.2178 158.796L89.4337 163.378C89.4337 163.378 131.219 171.018 135.404 169.668C139.587 168.316 154.977 97.0568 133.628 92.0496Z" fill="#ECBAAB"/>
<path d="M91.0934 95.5248C91.0934 95.5248 87.8039 91.714 87.6233 91.1645C87.4427 90.6133 87.515 81.5189 87.515 81.5189C87.515 81.5189 89.6661 74.1281 90.4904 74.2223C91.3148 74.3165 90.8767 77.7615 90.5894 78.2624C90.302 78.7633 89.6331 85.57 89.7791 86.2451C89.9252 86.9203 92.103 91.009 92.0637 91.2524C92.0245 91.4958 92.9682 94.7397 92.8425 94.9596C92.7169 95.181 91.0934 95.5248 91.0934 95.5248Z" fill="#DCA799"/>
<path d="M87.8573 87.4248C87.7521 87.6336 87.1256 90.6405 87.7442 91.3706C88.3613 92.1008 89.1495 91.8872 89.2123 91.7773C89.2752 91.6674 89.3521 90.5965 89.3364 89.9104C89.3207 89.2242 87.8573 87.4248 87.8573 87.4248Z" fill="#DCA799"/>
<path d="M89.6834 79.7514C89.944 79.2662 92.461 72.8599 92.7437 72.841C93.0247 72.8222 94.0532 73.9967 93.9966 74.6389L93.9385 75.2795C93.9385 75.2795 94.5352 75.9123 94.3327 76.801C94.1301 77.6897 93.3733 79.6776 93.4031 80.2821C93.433 80.8866 92.3228 83.6328 92.4673 83.8762C92.6118 84.1196 93.5821 88.885 93.5821 88.885L96.0551 89.5351C96.0551 89.5351 96.4948 87.5174 96.6863 86.4513C96.8779 85.3851 97.2469 83.2999 98.4088 82.6091C99.5708 81.9182 100.409 82.5274 100.416 82.5368C100.422 82.5463 99.3933 84.878 99.3431 85.3459C99.2928 85.8154 98.9458 89.2273 99.1484 89.9371C99.3509 90.6468 100.422 92.9377 100.238 94.2896C100.056 95.6431 99.128 100.734 99.128 100.734L93.1378 96.8678C93.1378 96.8678 88.8386 88.0466 88.7962 87.8519C88.7538 87.6572 89.6834 79.7498 89.6834 79.7498V79.7514Z" fill="#DCA799"/>
<path d="M99.3352 99.5874C98.8846 97.3279 97.5813 96.1534 95.8918 94.5864C95.3611 94.0949 94.8273 93.5501 94.5336 93.112C93.8098 92.0333 90.3366 87.3495 89.6112 86.5456C88.8857 85.7416 86.8806 81.0358 86.543 80.6056C86.2055 80.1754 84.9289 79.5081 85.1393 80.5083C85.1393 80.5083 86.0563 83.0629 86.1521 83.501C86.2479 83.9375 86.8273 86.8031 86.9277 87.0182C87.0282 87.2333 89.3709 91.355 89.3709 91.355C89.3709 91.355 90.2565 94.6429 90.4261 95.0637C90.5941 95.4845 92.0465 98.8479 92.3998 99.4869C92.7531 100.128 93.1456 102.363 93.3262 102.805C93.3262 102.805 88.3896 118.093 87.2559 120.777C86.1207 123.46 81.2013 142.082 80.187 147.038C79.5087 150.351 82.3837 161.429 85.5633 162.802C88.6628 164.142 92.3385 164.591 95.3564 147.038C96.1195 142.598 99.4922 100.365 99.3368 99.5874H99.3352Z" fill="#ECBAAB"/>
<path d="M133.601 92.0332C133.601 92.0332 132.973 92.1777 132.816 106.747C132.731 114.584 131.499 127.222 130.269 137.705C135.002 137.424 141.683 137.692 146.277 138.345C149.794 116.465 147.841 92.5074 133.601 92.0332Z" fill="#C8B1AC"/>
<path d="M94.0689 65.6435C94.9325 67.6078 96.7083 68.7273 98.0351 68.1432C99.3635 67.5591 99.7388 65.4943 98.8768 63.53C98.0132 61.5657 96.2373 60.4462 94.9105 61.0303C93.5821 61.6144 93.2069 63.6792 94.0689 65.6435Z" fill="#ECBAAB"/>
<path d="M128.867 66.4662C128.003 68.4305 126.228 69.55 124.901 68.9659C123.572 68.3818 123.197 66.3171 124.059 64.3528C124.923 62.3885 126.699 61.269 128.025 61.8531C129.354 62.4356 129.729 64.502 128.867 66.4662Z" fill="#ECBAAB"/>
<path d="M117.347 73.6828L107.013 72.2241C107.013 72.2241 106.698 76.1825 111.223 76.955C116.742 77.8972 117.347 73.6828 117.347 73.6828Z" fill="white"/>
<path d="M97.4228 61.5987C97.4228 61.5987 119.171 50.7002 123.596 44.0128C128.021 37.3254 115.97 38.3162 115.97 38.3162L107.009 38.2644L97.7384 42.6829L92.8552 56.6118L97.4228 61.5971V61.5987Z" fill="#C74532"/>
<path d="M8.67938 142.218C9.86919 144.762 11.2834 146.798 12.9205 148.858C14.0708 153.54 15.6917 158.89 17.8542 164.563C16.1536 163.744 13.9912 161.758 12.9759 160.969C10.9728 159.407 9.11305 157.658 7.43163 155.752C4.17246 152.055 -0.223661 149.484 -4.7897 147.668C-7.60716 146.546 -10.7688 145.752 -13.6532 146.685C-8.2029 154.74 -1.65834 161.228 7.92129 163.826C11.392 164.767 14.4715 164.896 17.9973 164.924C19.5926 169.068 21.4669 173.373 23.6718 177.72C24.2676 178.904 24.8809 180.061 25.4918 181.206C23.7997 180.502 21.8073 179.15 20.8252 178.588C18.6183 177.326 16.5272 175.86 14.5933 174.215C10.8391 171.022 6.12296 169.105 1.33962 167.959C-1.60926 167.251 -4.84857 166.912 -7.57362 168.248C-1.03094 175.438 6.37205 180.934 16.2248 182.135C19.6205 182.552 22.5545 182.286 25.841 181.849C28.1664 186.119 30.5991 190.091 33.0228 193.699C31.1562 193.536 28.2393 192.132 26.9563 191.643C24.5856 190.734 22.2919 189.605 20.129 188.275C15.9321 185.695 10.976 184.517 6.07913 184.115C3.05635 183.868 -0.196816 184.026 -2.68737 185.762C4.87436 191.873 13.0336 196.169 22.9505 195.852C26.6296 195.738 29.6653 194.923 33.1463 193.885C33.2199 193.994 33.2886 194.102 33.3622 194.211C36.6332 199.104 39.9613 203.265 43.0074 206.518C46.0572 209.778 48.8163 212.122 50.8033 213.621C51.8037 214.364 52.5953 214.921 53.1533 215.265C53.7099 215.613 54.0089 215.78 54.0341 215.743C54.0932 215.657 52.9953 214.836 51.1138 213.236C49.2386 211.632 46.6 209.212 43.6718 205.914C40.7424 202.621 37.5283 198.451 34.3362 193.562C34.2439 193.421 34.1515 193.281 34.0592 193.14C36.8692 190.962 39.2564 188.982 41.453 186.111C47.4896 178.232 48.7532 169.103 48.1927 159.391C45.3307 160.405 43.3066 162.952 41.7472 165.557C39.2162 169.772 37.2891 174.486 36.9364 179.4C36.7592 181.934 36.3403 184.456 35.6922 186.913C35.3554 188.203 34.8147 191.269 33.9032 192.914C31.642 189.465 29.3641 185.702 27.1709 181.668C27.2599 181.653 27.3476 181.644 27.4353 181.634C27.3476 181.644 27.2561 181.647 27.1559 181.643C27.0973 181.538 27.0437 181.434 26.9851 181.328C29.2451 178.649 31.141 176.23 32.677 173C36.931 164.036 36.2614 154.84 33.6865 145.466C31.0999 147.055 29.6537 149.972 28.6724 152.841C27.0813 157.49 26.1758 162.505 26.8607 167.383C27.2161 169.898 27.3333 172.448 27.2188 174.987C27.159 176.257 27.2565 179.137 26.7956 180.961C26.1211 179.708 25.4554 178.442 24.8035 177.142C22.5575 172.706 20.6296 168.318 18.9856 164.113C21.1514 161.533 22.9745 159.17 24.4589 156.039C28.7129 147.075 28.0433 137.879 25.4683 128.505C22.8817 130.094 21.4355 133.011 20.4543 135.88C18.8631 140.529 17.9576 145.544 18.6425 150.422C18.9979 152.937 19.1139 155.492 19.0006 158.026C18.9487 159.159 19.0162 161.569 18.7031 163.376C16.9835 158.902 15.5902 154.654 14.4841 150.788C14.6765 151.018 14.8651 151.242 15.0612 151.478C13.9758 150.186 14.1915 145.876 14.1257 144.239C14.0222 141.698 14.1543 139.152 14.5244 136.635C15.2391 131.764 14.3616 126.741 12.7953 122.082C11.8281 119.205 10.3988 116.28 7.8194 114.68C5.19197 124.039 4.46577 133.234 8.6731 142.221L8.67938 142.218Z" fill="#FBF9F8"/>
<path d="M196.706 57.4873C196.709 57.4772 196.713 57.4676 196.715 57.4577C197.217 55.5778 196.316 53.4938 194.272 52.9485C192.647 52.5152 191.394 53.4314 190.781 54.4384C190.752 53.26 190.121 51.8413 188.497 51.408C186.452 50.8627 184.634 52.2214 184.132 54.101C184.13 54.1111 184.128 54.1211 184.125 54.131C184.005 54.5373 182.905 58.7016 188.29 63.7715L188.29 63.7723C188.29 63.7723 188.29 63.7721 188.291 63.7721C188.291 63.7722 188.291 63.7725 188.291 63.7728C188.292 63.7729 188.292 63.7725 188.292 63.7726C188.292 63.7726 188.293 63.773 188.293 63.7732L188.293 63.7724C195.488 62.058 196.608 57.899 196.706 57.4872L196.706 57.4873Z" fill="#C74532"/>
<path d="M186.409 61.7272C186.925 62.3861 187.545 63.0697 188.29 63.7709L188.29 63.7717C188.29 63.7717 188.29 63.7715 188.291 63.7715C188.291 63.7716 188.291 63.7719 188.291 63.7722C188.292 63.7722 188.292 63.7719 188.292 63.772C188.293 63.772 188.293 63.7723 188.293 63.7727L188.294 63.7718C195.488 62.0574 196.608 57.8985 196.706 57.4866C196.709 57.4766 196.712 57.4669 196.715 57.4571C196.779 57.2193 196.819 56.9779 196.838 56.737C193.581 60.9884 189.165 61.7385 186.409 61.7274L186.409 61.7272Z" fill="#AB3423"/>
<path d="M184.366 54.6226C184.366 54.6226 185.278 51.0289 189.009 51.9787C189.009 51.9787 186.314 51.918 184.366 54.6226Z" fill="#DF7464"/>
<path d="M184.034 16.9712C184.033 16.9608 184.033 16.9505 184.032 16.9404C183.874 15.0012 182.327 13.3397 180.218 13.5114C178.543 13.6478 177.669 14.9312 177.429 16.0853C177.006 14.9852 175.936 13.86 174.261 13.9964C172.152 14.168 170.894 16.0579 171.052 17.9969C171.053 18.0073 171.054 18.0174 171.055 18.0275C171.079 18.4505 171.438 22.7426 178.211 25.7136L178.211 25.7145C178.211 25.7145 178.212 25.714 178.212 25.7139C178.213 25.7139 178.213 25.7141 178.213 25.7143C178.214 25.7143 178.214 25.7138 178.214 25.7138C178.214 25.7138 178.215 25.714 178.215 25.7142L178.215 25.7133C184.418 21.6859 184.079 17.3921 184.033 16.9712L184.034 16.9712Z" fill="#C74532"/>
<path d="M175.754 24.4183C176.461 24.8659 177.275 25.3021 178.211 25.713L178.211 25.7138C178.211 25.7138 178.212 25.7133 178.212 25.7133C178.212 25.7133 178.213 25.7135 178.213 25.7137C178.213 25.7137 178.214 25.7132 178.214 25.7132C178.214 25.7132 178.215 25.7133 178.215 25.7135L178.215 25.7127C184.418 21.6853 184.079 17.3915 184.033 16.9706C184.033 16.9602 184.033 16.9499 184.032 16.9398C184.012 16.6944 183.969 16.4534 183.907 16.22C182.263 21.3176 178.355 23.5047 175.754 24.4185L175.754 24.4183Z" fill="#AB3423"/>
<path d="M171.447 18.4095C171.447 18.4095 171.101 14.7183 174.935 14.3619C174.935 14.3619 172.375 15.2086 171.447 18.4095Z" fill="#DF7464"/>
<path d="M151.152 38.4101C151.154 38.4054 151.157 38.4009 151.159 38.3963C151.577 37.5178 151.324 36.4112 150.369 35.9568C149.61 35.5957 148.91 35.9319 148.517 36.371C148.61 35.789 148.429 35.034 147.67 34.6729C146.715 34.2185 145.697 34.7207 145.279 35.599C145.277 35.6037 145.275 35.6085 145.273 35.6131C145.177 35.8019 144.256 37.7489 146.441 40.7322L146.441 40.7326C146.441 40.7326 146.442 40.7326 146.442 40.7326C146.442 40.7327 146.442 40.7328 146.442 40.733C146.442 40.7331 146.442 40.7329 146.443 40.733C146.443 40.733 146.443 40.7332 146.443 40.7334L146.443 40.733C150.136 40.546 151.066 38.6035 151.152 38.41L151.152 38.4101Z" fill="#C74532"/>
<path d="M145.703 39.5558C145.897 39.9268 146.139 40.3194 146.441 40.732L146.441 40.7324C146.441 40.7324 146.442 40.7323 146.442 40.7324C146.442 40.7324 146.442 40.7326 146.442 40.7328C146.442 40.7328 146.442 40.7327 146.443 40.7327C146.443 40.7328 146.443 40.733 146.443 40.7332L146.443 40.7328C150.136 40.5458 151.066 38.6033 151.152 38.4098C151.154 38.4051 151.157 38.4007 151.159 38.3961C151.212 38.2849 151.254 38.17 151.285 38.0533C149.296 39.8464 147.057 39.8126 145.703 39.5559L145.703 39.5558Z" fill="#AB3423"/>
<path d="M145.347 35.8766C145.347 35.8766 146.122 34.193 147.87 35.0001C147.87 35.0001 146.551 34.7245 145.347 35.8766Z" fill="#DF7464"/>
</g>
<defs>
<clipPath id="clip0_3273_4936">
<rect width="242" height="205" fill="white"/>
</clipPath>
</defs>
</svg>
