<svg width="15" height="23" viewBox="0 0 15 23" fill="none" xmlns="http://www.w3.org/2000/svg">
<path d="M13.8747 1.13974C14.0759 1.32091 14.2355 1.53611 14.3443 1.77302C14.4532 2.00992 14.5093 2.26388 14.5093 2.52036C14.5093 2.77684 14.4532 3.0308 14.3443 3.26771C14.2355 3.50462 14.0759 3.71982 13.8747 3.90099L5.45587 11.4993L13.8747 19.0977C14.2804 19.4638 14.5084 19.9604 14.5084 20.4783C14.5084 20.9961 14.2804 21.4927 13.8747 21.8589C13.469 22.2251 12.9188 22.4308 12.345 22.4308C11.7713 22.4308 11.221 22.2251 10.8153 21.8589L0.855867 12.8702C0.654718 12.689 0.495133 12.4738 0.38625 12.2369C0.277365 12 0.221321 11.746 0.221321 11.4895C0.221321 11.233 0.277365 10.9791 0.38625 10.7422C0.495133 10.5053 0.654718 10.2901 0.855867 10.1089L10.8153 1.12015C11.6398 0.375987 13.0285 0.375988 13.8747 1.13974Z" fill="#9B847A"/>
</svg>
