<svg width="11" height="13" viewBox="0 0 11 13" fill="none" xmlns="http://www.w3.org/2000/svg">
<path fill-rule="evenodd" clip-rule="evenodd" d="M3.10529 1.5C3.10529 1.22386 3.32914 1 3.60529 1H6.81603C7.09217 1 7.31603 1.22386 7.31603 1.5V3.10537V3.10559H3.10529V3.10537V1.5ZM2.10529 3.10559V3.10537V1.5C2.10529 0.671573 2.77686 0 3.60529 0H6.81603C7.64446 0 8.31603 0.671573 8.31603 1.5V3.10537V3.10559H9.42149C9.97377 3.10559 10.4215 3.55331 10.4215 4.10559V11.2244C10.4215 11.7767 9.97377 12.2244 9.42149 12.2244H1C0.447716 12.2244 0 11.7767 0 11.2244V4.10559C0 3.55331 0.447715 3.10559 1 3.10559H2.10529ZM6.51394 7.01387C6.51394 7.5562 6.18253 8.02113 5.71118 8.21718V9.61917H4.71118V8.21712C4.23991 8.02103 3.90857 7.55614 3.90857 7.01387C3.90857 6.29441 4.4918 5.71118 5.21126 5.71118C5.93071 5.71118 6.51394 6.29441 6.51394 7.01387Z" fill="white"/>
</svg>
