<svg width="22" height="20" viewBox="0 0 22 20" fill="none" xmlns="http://www.w3.org/2000/svg">
<path d="M21.0832 7.61176C21.0387 7.47575 20.9208 7.37657 20.7787 7.3559L13.9623 6.36818L10.914 0.209643C10.8507 0.0811521 10.7195 0 10.5763 0C10.4332 0 10.3017 0.0811521 10.2387 0.209643L7.19001 6.36855L0.37362 7.35628C0.231565 7.37694 0.114002 7.47575 0.0691623 7.61213C0.0250762 7.74776 0.0616262 7.89729 0.164494 7.99686L5.09724 12.7908L3.93254 19.5603C3.90842 19.7012 3.96645 19.8435 4.08213 19.9277C4.19856 20.0126 4.35267 20.0235 4.4789 19.9563L10.5763 16.7605L16.673 19.9563C16.7281 19.9852 16.7887 19.9995 16.8486 19.9995C16.9266 19.9995 17.0043 19.9754 17.0702 19.9277C17.1862 19.8435 17.2443 19.7012 17.2198 19.5603L16.0555 12.7912L20.9882 7.99686C21.0907 7.89654 21.1276 7.74739 21.0832 7.61176Z" fill="#88726D"/>
</svg>
