<svg width="67" height="57" viewBox="0 0 67 57" fill="none" xmlns="http://www.w3.org/2000/svg">
<path d="M60.7358 20.1012C57.1426 8.47286 46.2922 0 33.4994 0C20.7065 0 9.85593 8.47286 6.26303 20.1013C2.59305 21.1935 0.00219727 24.6108 0.00219727 28.4999C0.00219727 32.3886 2.59305 35.8059 6.26289 36.8981C9.8558 48.527 20.7065 57 33.4994 57C46.2923 57 57.1429 48.527 60.7359 36.8984C64.4065 35.8072 66.9979 32.3901 66.9979 28.4999C66.9979 24.6094 64.4064 21.1922 60.7358 20.1012ZM5.50435 33.8458C3.68748 32.7322 2.50197 30.7239 2.50197 28.4997C2.50197 26.2754 3.68735 24.2671 5.50448 23.1537C5.17434 24.8862 4.9994 26.6728 4.9994 28.4999C4.9994 30.3269 5.17421 32.1136 5.50435 33.8458ZM33.4994 54.5001C19.163 54.5001 7.49931 42.8364 7.49931 28.5C7.49931 18.5853 13.0785 9.9503 21.2613 5.56601C22.5044 8.21116 26.4146 14.8296 35.6836 18.5373C35.8357 18.5982 35.9928 18.627 36.1473 18.627C36.6432 18.627 37.1127 18.3297 37.3082 17.8409C37.5645 17.2 37.2527 16.4726 36.6117 16.2161C28.1899 12.8473 24.6044 6.74301 23.5263 4.48976C26.3655 3.30595 29.4577 2.61205 32.6972 2.51339C33.5634 4.27032 36.0506 8.39501 41.1898 10.7311C41.3577 10.8074 41.5333 10.8434 41.7062 10.8434C42.1814 10.8434 42.6355 10.5711 42.845 10.1103C43.1307 9.48186 42.8528 8.74098 42.2243 8.45533C38.7617 6.88145 36.6838 4.30762 35.607 2.58588C48.9614 3.66252 59.4991 14.8733 59.4991 28.5001C59.4995 42.8364 47.8361 54.5001 33.4994 54.5001ZM61.4941 33.8468C61.8243 32.1142 61.9991 30.3272 61.9991 28.5C61.9991 26.6727 61.8242 24.8854 61.4938 23.1526C63.3117 24.2654 64.4977 26.2741 64.4977 28.4999C64.498 30.7254 63.3121 32.7341 61.4941 33.8468Z" fill="#7F6660"/>
<path d="M22.7966 26.9677C19.8081 26.9677 17.3769 29.3989 17.3769 32.3874C17.3769 33.0777 17.9364 33.6373 18.6268 33.6373C19.3171 33.6373 19.8766 33.0777 19.8766 32.3874C19.8766 30.7773 21.1865 29.4676 22.7964 29.4676C24.4064 29.4676 25.7164 30.7775 25.7164 32.3874C25.7164 33.0777 26.2759 33.6373 26.9663 33.6373C27.6566 33.6373 28.2162 33.0777 28.2162 32.3874C28.2164 29.3989 25.7851 26.9677 22.7966 26.9677Z" fill="#7F6660"/>
<path d="M44.2019 26.9677C41.2134 26.9677 38.782 29.3989 38.782 32.3874C38.782 33.0777 39.3415 33.6373 40.0319 33.6373C40.7224 33.6373 41.2818 33.0777 41.2818 32.3874C41.2818 30.7773 42.5916 29.4676 44.2017 29.4676C45.812 29.4676 47.1217 30.7775 47.1217 32.3874C47.1217 33.0777 47.6812 33.6373 48.3716 33.6373C49.0621 33.6373 49.6214 33.0777 49.6214 32.3874C49.6214 29.3989 47.1904 26.9677 44.2019 26.9677Z" fill="#7F6660"/>
<path d="M41.1495 40.8006C40.6612 40.3125 39.8699 40.3125 39.3816 40.8006C36.2047 43.9775 31.0354 43.9775 27.8585 40.8006C27.3701 40.3125 26.5789 40.3125 26.0908 40.8006C25.6026 41.2886 25.6026 42.0802 26.0908 42.5681C28.1033 44.5806 30.7774 45.689 33.6202 45.689C36.4631 45.689 39.137 44.5807 41.1496 42.5681C41.6377 42.08 41.6377 41.2886 41.1495 40.8006Z" fill="#7F6660"/>
<path d="M35.167 34.1958H31.8312C31.1407 34.1958 30.5814 34.7554 30.5814 35.4457C30.5814 36.1359 31.141 36.6956 31.8312 36.6956H35.167C35.8575 36.6956 36.4169 36.1359 36.4169 35.4457C36.4169 34.7554 35.8574 34.1958 35.167 34.1958Z" fill="#7F6660"/>
</svg>
