<svg width="22" height="20" viewBox="0 0 22 20" fill="none" xmlns="http://www.w3.org/2000/svg">
<path fill-rule="evenodd" clip-rule="evenodd" d="M2 0C0.895431 0 0 0.89543 0 2V4.4167H21.5V2C21.5 0.89543 20.6046 0 19.5 0H17.1497V2.03926C17.1497 2.38578 16.8688 2.66669 16.5223 2.66669C16.1758 2.66669 15.8949 2.38578 15.8949 2.03926V0H5.10323V2.03926C5.10323 2.38578 4.82232 2.66669 4.4758 2.66669C4.12928 2.66669 3.84837 2.38578 3.84837 2.03926V0H2Z" fill="#C35748"/>
<path fill-rule="evenodd" clip-rule="evenodd" d="M0 5.75H21.5V18.0001C21.5 19.1047 20.6046 20.0001 19.5 20.0001H2C0.89543 20.0001 0 19.1047 0 18.0001V5.75ZM3.84837 9.25C3.84837 8.69771 4.29609 8.25 4.84837 8.25H5.60907C6.16135 8.25 6.60907 8.69772 6.60907 9.25V10C6.60907 10.5523 6.16136 11 5.60907 11H4.84837C4.29609 11 3.84837 10.5523 3.84837 10V9.25ZM4.84837 14.251C4.29609 14.251 3.84837 14.6987 3.84837 15.251V16.001C3.84837 16.5533 4.29609 17.001 4.84837 17.001H5.60907C6.16136 17.001 6.60907 16.5533 6.60907 16.001V15.251C6.60907 14.6987 6.16135 14.251 5.60907 14.251H4.84837ZM9.11893 15.251C9.11893 14.6987 9.56664 14.251 10.1189 14.251H10.8796C11.4319 14.251 11.8796 14.6987 11.8796 15.251V16.001C11.8796 16.5533 11.4319 17.001 10.8796 17.001H10.1189C9.56664 17.001 9.11893 16.5533 9.11893 16.001V15.251ZM10.1189 8.25C9.56664 8.25 9.11893 8.69771 9.11893 9.25V10C9.11893 10.5523 9.56664 11 10.1189 11H10.8796C11.4319 11 11.8796 10.5523 11.8796 10V9.25C11.8796 8.69772 11.4319 8.25 10.8796 8.25H10.1189ZM14.4724 9.25C14.4724 8.69771 14.9201 8.25 15.4724 8.25H16.2331C16.7854 8.25 17.2331 8.69772 17.2331 9.25V10C17.2331 10.5523 16.7854 11 16.2331 11H15.4724C14.9201 11 14.4724 10.5523 14.4724 10V9.25ZM15.4724 14.251C14.9201 14.251 14.4724 14.6987 14.4724 15.251V16.001C14.4724 16.5533 14.9201 17.001 15.4724 17.001H16.2331C16.7854 17.001 17.2331 16.5533 17.2331 16.001V15.251C17.2331 14.6987 16.7854 14.251 16.2331 14.251H15.4724Z" fill="#C35748"/>
</svg>
