<svg width="29" height="37" viewBox="0 0 29 37" fill="none" xmlns="http://www.w3.org/2000/svg">
<path d="M27.4132 8.10202C26.7235 7.39451 25.768 6.98855 24.791 6.98855H5.76202C5.21112 6.98855 4.76255 6.52876 4.76255 5.95417C4.76255 5.66471 4.87296 5.39167 5.07178 5.18731C5.27225 4.98245 5.53857 4.86928 5.82102 4.86928H23.9952C24.2985 4.86928 24.5439 4.61767 24.5439 4.30678C24.5439 3.99588 24.2985 3.74428 23.9952 3.74428H5.82102C5.24542 3.74428 4.70416 3.97389 4.29583 4.39194C3.88902 4.80937 3.66502 5.36422 3.66502 5.96351C3.66502 7.14892 4.60556 8.11355 5.76202 8.11355H6.81725V21.4192C6.81725 21.7582 7.08785 21.9828 7.36997 21.9828C7.5048 21.9828 7.64227 21.9315 7.75405 21.8169L10.8194 18.6749C10.9265 18.5651 11.067 18.5101 11.2074 18.5101C11.3478 18.5101 11.4882 18.5651 11.5954 18.6749L14.6607 21.8169C14.7725 21.9315 14.91 21.9828 15.0448 21.9828C15.3269 21.9828 15.5975 21.7582 15.5975 21.4192V8.11355H24.791C25.4785 8.11355 26.1517 8.39919 26.6372 8.89739C27.1308 9.40331 27.4025 10.0757 27.4025 10.7904V32.7427C27.4025 33.4458 27.135 34.1066 26.65 34.6038C26.165 35.1009 25.5203 35.375 24.8344 35.375H4.25401C3.54445 35.375 2.87726 35.0921 2.37563 34.5785C1.87406 34.0632 1.59754 33.3788 1.59754 32.6521V5.09011C1.59754 3.17958 3.11411 1.625 4.978 1.625H26.3687C26.672 1.625 26.9175 1.37345 26.9175 1.0625C26.9175 0.751606 26.672 0.5 26.3687 0.5H4.978C2.50854 0.5 0.5 2.55886 0.5 5.09011V32.6521C0.5 33.6793 0.890119 34.6455 1.59913 35.3734C2.30868 36.1001 3.2513 36.5 4.25401 36.5H24.8344C25.814 36.5 26.7342 36.1089 27.4261 35.3992C28.1184 34.69 28.5 33.7468 28.5 32.7427V10.7904C28.5 9.77523 28.1142 8.8205 27.4132 8.10202ZM14.5 20.0612L12.3715 17.8794C12.0606 17.5607 11.6472 17.3852 11.2074 17.3852C10.7677 17.3852 10.3542 17.5607 10.0433 17.8794L7.91478 20.0612V8.15214H14.5V20.0612Z" fill="#726364" stroke="#726364" stroke-width="0.2"/>
</svg>
