<svg width="7" height="12" viewBox="0 0 7 12" fill="none" xmlns="http://www.w3.org/2000/svg">
<path d="M6.68998 0.709778C6.78268 0.802292 6.85623 0.91218 6.90641 1.03315C6.95659 1.15413 6.98242 1.28381 6.98242 1.41478C6.98242 1.54575 6.95659 1.67543 6.90641 1.7964C6.85623 1.91738 6.78268 2.02726 6.68998 2.11978L2.80998 5.99978L6.68998 9.87978C6.87696 10.0668 6.982 10.3204 6.982 10.5848C6.982 10.8492 6.87696 11.1028 6.68998 11.2898C6.503 11.4768 6.2494 11.5818 5.98498 11.5818C5.72055 11.5818 5.46696 11.4768 5.27998 11.2898L0.689979 6.69978C0.597275 6.60726 0.523727 6.49738 0.473546 6.3764C0.423364 6.25543 0.397535 6.12575 0.397535 5.99478C0.397535 5.86381 0.423364 5.73413 0.473546 5.61315C0.523727 5.49218 0.597275 5.38229 0.689979 5.28978L5.27998 0.699778C5.65998 0.319778 6.29998 0.319778 6.68998 0.709778Z" fill="#9B847A"/>
</svg>
