<svg width="68" height="69" viewBox="0 0 68 69" fill="none" xmlns="http://www.w3.org/2000/svg">
<path fill-rule="evenodd" clip-rule="evenodd" d="M60.9439 32.0672C60.6363 31.0704 60.272 30.0885 59.8526 29.1232L66.1612 20.4693C66.4244 20.1081 66.4752 19.6339 66.294 19.2251C66.1129 18.8165 65.7274 18.5357 65.2827 18.4882L52.4096 17.1152C52.0676 14.5099 49.8346 12.4917 47.1375 12.4917C46.813 12.4917 46.4959 12.5226 46.1873 12.5785L40.9382 0.744074C40.757 0.335466 40.3716 0.0546152 39.927 0.00717781C39.4811 -0.0406639 39.0465 0.153129 38.7833 0.514434L30.3083 12.1437C20.2736 13.3233 11.5728 19.7654 7.5115 29.074C7.08362 30.0544 6.71531 31.0529 6.40266 32.0658C2.73165 33.1608 0.140381 36.5802 0.140381 40.4714C0.140381 44.3644 2.73421 47.7853 6.40791 48.8785C10.0047 60.5186 20.8659 69 33.6717 69C46.4775 69 57.3388 60.5186 60.9356 48.8782C64.6096 47.7855 67.2031 44.3653 67.2031 40.4713C67.2031 36.5805 64.6135 33.1624 60.9439 32.0672ZM2.6427 40.4714C2.6427 38.2467 3.82729 36.2378 5.64366 35.1226C5.312 36.8721 5.14314 38.658 5.14314 40.4714C5.14314 42.3004 5.31833 44.0889 5.64878 45.8232C3.82972 44.7087 2.6427 42.6981 2.6427 40.4714ZM52.1447 19.6033L62.8623 20.7463L54.7454 31.8812L50.3756 22.0262C51.1761 21.4097 51.797 20.5714 52.1447 19.6033ZM47.1374 14.994C48.6905 14.994 49.9542 16.2576 49.9542 17.8106C49.9542 19.3637 48.6907 20.6272 47.1374 20.6272C45.5842 20.6272 44.3208 19.3637 44.3208 17.8106C44.3208 16.2576 45.5842 14.994 47.1374 14.994ZM39.5293 3.7395L43.9003 13.5939C43.0993 14.2104 42.478 15.049 42.1302 16.0172L31.4136 14.8754L39.5293 3.7395ZM28.2094 15.0237L28.115 15.1533C27.8518 15.5146 27.8012 15.989 27.9824 16.3975C28.1637 16.8062 28.549 17.0869 28.9936 17.1344L41.8653 18.5059C42.0245 19.7192 42.5933 20.8047 43.429 21.6187C42.124 22.9927 39.583 25.3056 35.7785 27.221C32.3612 28.9413 28.6252 29.989 24.6743 30.3349C20.1807 30.7281 15.3889 30.2071 10.4108 28.7921C13.9657 21.7187 20.5375 16.6644 28.2094 15.0237ZM33.6717 66.4976C19.3209 66.4976 7.6456 54.8223 7.6456 40.4714C7.6456 37.2298 8.23129 34.0834 9.38461 31.1014C13.6297 32.3394 17.7613 32.9646 21.7183 32.9646C22.7893 32.9646 23.848 32.919 24.8922 32.8274C29.1603 32.4537 33.2017 31.3195 36.9033 29.4561C41.4315 27.1767 44.3181 24.383 45.6409 22.9142C46.1158 23.0537 46.6177 23.1299 47.1372 23.1299C47.4621 23.1299 47.7798 23.0991 48.0888 23.043L53.336 34.8766C53.5171 35.2854 53.9026 35.5661 54.3472 35.6135C54.3918 35.6184 54.436 35.6205 54.4802 35.6205C54.8772 35.6205 55.2543 35.4314 55.4912 35.1064L58.114 31.5086C59.1657 34.3677 59.698 37.3734 59.698 40.4717C59.6979 54.8223 48.0225 66.4976 33.6717 66.4976ZM61.6946 45.8235C62.025 44.0892 62.2002 42.3004 62.2002 40.4714C62.2002 38.6571 62.0328 36.8717 61.7017 35.1239C63.5169 36.239 64.7006 38.247 64.7006 40.4714C64.7006 42.6988 63.5139 44.7094 61.6946 45.8235ZM22.9578 38.9383C19.9663 38.9383 17.5327 41.3719 17.5327 44.3634C17.5327 45.0544 18.0928 45.6146 18.7838 45.6146C19.4749 45.6146 20.035 45.0544 20.035 44.3634C20.035 42.7518 21.3461 41.4406 22.9578 41.4406C24.5695 41.4406 25.8807 42.7516 25.8807 44.3634C25.8807 45.0544 26.4408 45.6146 27.1319 45.6146C27.823 45.6146 28.383 45.0544 28.383 44.3634C28.383 41.3719 25.9493 38.9383 22.9578 38.9383ZM38.959 44.3634C38.959 41.3719 41.3928 38.9383 44.3843 38.9383C47.3757 38.9383 49.8094 41.3719 49.8095 44.3634C49.8095 45.0544 49.2494 45.6146 48.5584 45.6146C47.8673 45.6146 47.3072 45.0544 47.3072 44.3634C47.3072 42.7516 45.9961 41.4406 44.3843 41.4406C42.7725 41.4406 41.4614 42.7518 41.4614 44.3634C41.4614 45.0544 40.9013 45.6146 40.2102 45.6146C39.5191 45.6146 38.959 45.0544 38.959 44.3634ZM41.3291 52.7844C40.8403 52.2957 40.0483 52.2957 39.5595 52.7844C36.3793 55.9645 31.205 55.9645 28.0248 52.7844C27.536 52.2957 26.744 52.2957 26.2553 52.7844C25.7667 53.273 25.7667 54.0652 26.2553 54.5537C28.27 56.5683 30.9465 57.6778 33.7922 57.6778C36.6379 57.6778 39.3146 56.5684 41.3291 54.5537C41.8178 54.065 41.8178 53.2727 41.3291 52.7844ZM32.0014 46.1731H35.3405C36.0317 46.1731 36.5917 46.7333 36.5917 47.4242C36.5917 48.1152 36.0317 48.6754 35.3405 48.6754H32.0014C31.3105 48.6754 30.7503 48.1152 30.7503 47.4242C30.7503 46.7333 31.3102 46.1731 32.0014 46.1731Z" fill="#7F6660"/>
</svg>
