<svg width="13" height="13" viewBox="0 0 13 13" fill="none" xmlns="http://www.w3.org/2000/svg">
<path d="M10.0538 4.46298L7.85522 2.19837L2.9081 7.00125C2.30028 7.59135 1.85235 8.32621 1.60637 9.13687L1.31894 10.0841C1.20659 10.4544 1.53931 10.8064 1.91532 10.7152L2.85481 10.4872C3.72241 10.2766 4.51781 9.83756 5.15837 9.21567L10.0538 4.46298Z" fill="#DBD9D7"/>
<path d="M8.4921 1.58038L10.6907 3.84499L11.5813 2.89605C11.908 2.54792 11.9451 2.0157 11.65 1.64043C11.5012 1.45133 11.3444 1.26151 11.2191 1.13246C11.0938 1.00341 10.9087 0.840999 10.7241 0.686731C10.3577 0.38059 9.82461 0.401912 9.46697 0.718209L8.4921 1.58038Z" fill="#DBD9D7"/>
</svg>
