<svg width="15" height="15" viewBox="0 0 15 15" fill="none" xmlns="http://www.w3.org/2000/svg">
<path d="M12.0082 5.70131L9.50732 3.12531L3.75251 8.71232C3.14469 9.30242 2.69677 10.0373 2.45078 10.8479L2.03732 12.2105C1.92497 12.5808 2.25769 12.9329 2.6337 12.8416L4.00154 12.5096C4.86915 12.2991 5.66454 11.86 6.30511 11.2381L12.0082 5.70131Z" fill="white"/>
<path d="M10.2317 2.42215L12.7326 4.99815L13.823 3.83637C14.1498 3.48824 14.1862 2.95666 13.8934 2.57952C13.7047 2.33643 13.4959 2.07974 13.3337 1.91264C13.1715 1.74553 12.9211 1.52925 12.6837 1.33343C12.3154 1.02963 11.7829 1.05029 11.4253 1.36659L10.2317 2.42215Z" fill="white"/>
</svg>
