<svg width="111" height="130" viewBox="0 0 111 130" fill="none" xmlns="http://www.w3.org/2000/svg">
<path d="M15.3511 108.858C15.3511 108.858 -4.31844 79.6147 -8.09504 80.4505C-11.8716 81.2863 -31.4661 64.5508 -35.0079 69.9517C-39.3495 76.577 -7.0876 91.8229 -10.3936 92.9681C-13.6996 94.1132 -29.6693 85.7708 -30.0771 91.2659C-30.4848 96.7609 -9.56999 99.6254 -10.2933 101.963C-11.4636 105.747 -30.2279 96.2898 -31.6563 101.553C-33.1156 106.936 -7.87572 107.37 -8.85742 111.592C-9.42136 114.019 -24.0867 110.562 -25.2005 113.874C-27.7434 121.425 20.4826 131.949 20.4826 131.949L15.349 108.855L15.3511 108.858Z" fill="#CCBAAF"/>
<path d="M111 91.2367C111 115.939 89.2172 129.298 62.6587 132.209C62.4821 132.23 62.3034 132.249 62.1248 132.268C60.481 132.44 58.8204 132.571 57.1431 132.664H57.141C55.1924 132.769 53.2271 132.822 51.247 132.822C51.1293 132.822 51.0137 132.822 50.8981 132.822C47.3625 132.81 43.9615 132.594 40.6971 132.192C2.80679 127.551 -16.7837 98.0957 -16.7837 72.2284C-16.7837 44.0606 20.0031 24.0459 51.247 30.814C81.9717 37.4701 111 63.0689 111 91.2367Z" fill="#EFEAE6"/>
<path d="M84.8493 91.0103C84.1468 92.5124 83.3119 93.7146 82.3453 94.9311C81.6661 97.6952 80.7092 100.854 79.4324 104.203C80.4364 103.719 81.7131 102.547 82.3126 102.081C83.4952 101.159 84.5932 100.126 85.586 99.0008C87.5102 96.8185 90.1057 95.3003 92.8015 94.2285C94.465 93.5657 96.3316 93.0969 98.0346 93.6479C94.8167 98.4036 90.9527 102.234 85.2969 103.768C83.2477 104.324 81.4296 104.4 79.3479 104.416C78.406 106.863 77.2995 109.405 75.9977 111.971C75.6459 112.67 75.2838 113.353 74.9231 114.03C75.9221 113.613 77.0985 112.816 77.6783 112.483C78.9813 111.739 80.2159 110.873 81.3577 109.901C83.5742 108.017 86.3586 106.885 89.1827 106.208C90.9238 105.79 92.8363 105.59 94.4452 106.379C90.5823 110.624 86.2115 113.868 80.3944 114.578C78.3896 114.824 76.6573 114.667 74.717 114.409C73.344 116.93 71.9077 119.275 70.4768 121.405C71.5788 121.309 73.301 120.48 74.0585 120.191C75.4582 119.655 76.8124 118.988 78.0893 118.203C80.5672 116.68 83.4934 115.984 86.3845 115.747C88.1692 115.601 90.0898 115.694 91.5603 116.719C87.0958 120.327 82.2785 122.863 76.4235 122.676C74.2513 122.609 72.4591 122.128 70.4038 121.515C70.3604 121.579 70.3199 121.643 70.2764 121.707C68.3452 124.596 66.3802 127.053 64.5818 128.974C62.7812 130.898 61.1522 132.282 59.979 133.167C59.3884 133.606 58.921 133.935 58.5916 134.138C58.263 134.344 58.0864 134.442 58.0716 134.42C58.0367 134.369 58.6849 133.885 59.7957 132.94C60.9028 131.993 62.4607 130.564 64.1895 128.617C65.9191 126.673 67.8167 124.211 69.7013 121.324C69.7558 121.241 69.8103 121.158 69.8649 121.075C68.2058 119.79 66.7964 118.62 65.4995 116.925C61.9355 112.273 61.1894 106.884 61.5204 101.15C63.2101 101.748 64.4051 103.252 65.3258 104.79C66.8201 107.279 67.9579 110.062 68.1662 112.963C68.2708 114.459 68.5181 115.948 68.9007 117.399C69.0996 118.16 69.4188 119.971 69.957 120.942C71.292 118.905 72.6369 116.684 73.9318 114.302C73.8792 114.293 73.8274 114.288 73.7756 114.282C73.8274 114.288 73.8815 114.29 73.9406 114.287C73.9752 114.225 74.0069 114.164 74.0415 114.101C72.7072 112.52 71.5878 111.091 70.6809 109.184C68.1693 103.892 68.5647 98.4626 70.0849 92.928C71.6121 93.8664 72.4659 95.5885 73.0452 97.2825C73.9847 100.028 74.5193 102.988 74.1149 105.868C73.9051 107.353 73.8359 108.859 73.9035 110.358C73.9388 111.107 73.8812 112.808 74.1533 113.884C74.5516 113.145 74.9446 112.398 75.3295 111.63C76.6556 109.011 77.7938 106.42 78.7644 103.938C77.4857 102.414 76.4093 101.019 75.533 99.1704C73.0214 93.8782 73.4167 88.4487 74.937 82.9141C76.4641 83.8525 77.318 85.5746 77.8973 87.2686C78.8367 90.0136 79.3714 92.9742 78.967 95.8545C78.7572 97.339 78.6887 98.8476 78.7556 100.344C78.7862 101.013 78.7464 102.435 78.9312 103.502C79.9465 100.861 80.7691 98.3531 81.4221 96.0706C81.3086 96.2063 81.1972 96.3383 81.0814 96.4776C81.7223 95.7147 81.5949 93.1702 81.6337 92.204C81.6948 90.7036 81.6168 89.2006 81.3983 87.7142C80.9764 84.8384 81.4945 81.8728 82.4192 79.1221C82.9902 77.4235 83.8341 75.6968 85.357 74.7518C86.9083 80.2774 87.337 85.7062 84.853 91.0125L84.8493 91.0103Z" fill="white"/>
<path d="M18.3136 124.773C20.095 121.565 21.3273 118.774 20.949 116.983C20.949 116.983 20.949 116.98 20.949 116.974C20.8911 116.693 20.8148 116.151 20.7203 115.406C20.3634 112.643 19.7289 107.14 18.6705 102.296C18.5333 101.653 18.3838 101.021 18.2282 100.411C18.1306 100.015 18.0269 99.6336 17.9202 99.2584C17.6365 98.258 17.4626 97.2819 17.3894 96.3272C16.8739 90.0468 20.5006 84.7913 24.1853 81.7563C24.6703 81.3537 25.1583 80.9907 25.6372 80.6704C27.0373 79.734 28.3641 79.1484 29.3859 78.9867C30.3437 78.1479 31.6156 74.7744 32.6497 71.6113C33.0401 70.4187 33.3939 69.2596 33.6867 68.2744C33.6959 68.2408 33.705 68.2103 33.7142 68.1798C34.0375 67.0878 34.2785 66.2216 34.3974 65.7915C34.4493 65.5993 34.4767 65.4956 34.4767 65.4956L34.7482 65.6664L35.8676 66.3741L35.8707 66.3771L38.622 68.1188L42.8892 70.8213C42.8892 70.8213 42.8892 70.8426 42.8831 70.8518C42.7642 71.2727 42.6696 71.7272 42.5873 72.1969C42.5476 72.444 42.511 72.6972 42.4805 72.9534C42.3859 73.6916 42.328 74.4571 42.2975 75.2167V75.2258C42.2731 75.7901 42.2639 76.3513 42.2639 76.8912C42.2639 78.0869 43.2614 79.0416 44.457 78.9837C44.4814 78.9837 44.5089 78.9806 44.5333 78.9806H44.5363C46.9155 78.8739 49.5539 78.8434 50.9265 78.9837C53.5192 79.249 56.3224 79.6425 59.4305 79.9201C59.4732 79.9231 59.4946 79.9262 59.4946 79.9262C62.9962 80.2373 66.8883 80.399 71.3081 80.0604L70.7438 53.9079C70.7438 53.9079 68.0504 51.2603 67.8918 49.8358C67.7332 48.4114 67.6295 42.3323 68.7703 41.707C69.2797 41.4264 69.4078 46.0901 69.7891 46.3372C70.9421 47.0845 75.3893 47.4688 74.9531 52.0533C76.4812 57.3912 83.9299 84.0074 80.8186 85.6972H80.8125C80.8125 85.6972 80.8064 85.7063 80.8034 85.7063C79.9371 86.3164 79.019 86.8807 78.0552 87.4053C77.8508 87.5151 77.6464 87.6249 77.436 87.7317C77.317 87.7957 77.198 87.8567 77.076 87.9147C76.7314 88.0916 76.3775 88.2594 76.0237 88.421C75.8254 88.5156 75.6272 88.604 75.4228 88.6925C75.1452 88.8176 74.8646 88.9365 74.581 89.0524C74.404 89.1256 74.2271 89.1988 74.0502 89.269C73.6415 89.4337 73.2297 89.5893 72.8118 89.7387C72.6959 89.7845 72.58 89.8272 72.4611 89.8668C72.4214 89.8851 72.3818 89.8973 72.339 89.9126C72.2048 89.9614 72.0706 90.0071 71.9334 90.0529C71.9303 90.056 71.9273 90.0559 71.9242 90.0559C71.6833 90.1383 71.4423 90.2176 71.2013 90.2969C70.9604 90.3762 70.7163 90.4525 70.4754 90.5287C69.9904 90.6812 69.5024 90.8246 69.0113 90.9619C68.8283 91.0168 68.6452 91.0656 68.4622 91.1144C68.3646 91.1418 68.2609 91.1693 68.1603 91.1967C67.9254 91.2608 67.6905 91.3218 67.4557 91.3797C66.9249 91.514 66.3911 91.6421 65.8573 91.7641C65.6743 91.8068 65.4913 91.8464 65.3114 91.8861C65.287 91.8922 65.2656 91.8983 65.2412 91.9013C65.0063 91.9532 64.7715 92.002 64.5397 92.0508C64.2895 92.1026 64.0425 92.1545 63.7924 92.2033C63.2037 92.3223 62.615 92.4321 62.0293 92.5327C61.5169 92.6212 61.0075 92.7066 60.5042 92.7859C60.1931 92.8347 59.882 92.8835 59.577 92.9262C59.2933 92.9689 59.0096 93.0086 58.729 93.0452C58.4575 93.0848 58.1891 93.1184 57.9237 93.1519C57.5303 93.2038 57.1398 93.2495 56.7525 93.2953H56.7494C56.5786 93.3166 56.4108 93.338 56.2431 93.3532C56.0174 93.3807 55.7947 93.4051 55.5751 93.4264C55.4256 93.4417 55.2761 93.4569 55.1267 93.4722C55.2517 93.8016 55.3616 94.131 55.4531 94.4635C55.5446 94.7838 55.6239 95.1071 55.6849 95.4304C55.6849 95.4365 55.6849 95.4426 55.6849 95.4487C55.8496 96.315 55.8984 97.1813 55.8069 98.0384C54.9467 106.021 48.5931 116.242 46.6776 122.931C46.4336 123.776 46.2628 124.566 46.1835 125.286C46.0309 126.655 46.0279 128.397 46.1225 130.285C41.3855 130.865 36.4502 131.176 31.3198 131.194C31.152 131.194 30.9842 131.194 30.8134 131.194C27.9401 131.194 25.0882 131.118 22.2606 130.965H22.2576C19.8235 130.831 17.4138 130.642 15.0286 130.395C16.1754 128.458 17.3315 126.552 18.3197 124.77L18.3136 124.773Z" fill="#E5BDB1"/>
<path d="M51.5945 93.765C59.3359 93.2403 70.1337 91.7091 78.0459 87.4022C79.6168 86.4323 80.6508 85.7917 80.7972 85.7033H80.8003C80.7972 85.7002 80.7942 85.7033 80.7881 85.7033C80.6325 85.7643 79.812 86.0845 78.5187 86.5177C73.4767 88.2044 61.282 91.5871 53.6564 87.7744C48.2484 85.0688 49.4441 89.3605 51.5945 93.765Z" fill="#E5BDB1"/>
<path d="M15.0226 130.398C17.4079 130.645 19.8176 130.834 22.2516 130.968H22.2547C25.0822 131.121 27.9342 131.197 30.8075 131.197C30.9783 131.197 31.1461 131.197 31.3138 131.197C33.1257 127.558 34.4281 124.154 35.2181 121.873C35.8312 120.11 36.1362 119.021 36.1362 119.021C31.6158 116.742 27.1167 115.641 22.8403 115.437C22.1266 115.403 21.4189 115.394 20.7174 115.409C20.8119 116.154 20.8882 116.696 20.9462 116.977C20.9462 116.983 20.9462 116.986 20.9462 116.986C21.3244 118.777 20.0921 121.568 18.3108 124.776C17.3225 126.558 16.1665 128.464 15.0196 130.401L15.0226 130.398Z" fill="#E1B1A4"/>
<path d="M16.7978 89.0831C20.51 82.4977 29.383 78.9838 29.383 78.9838C32.1526 87.8051 44.0271 92.6732 44.0271 92.6732C47.4281 87.1645 44.5273 78.9869 44.5273 78.9808C44.5273 78.9808 49.0447 77.8369 53.62 78.8191C58.1954 79.8013 59.4917 79.9233 59.4917 79.9233C59.4917 79.9233 60.2481 91.5263 55.377 94.5003C55.5813 95.0676 55.743 95.6197 55.8436 96.1474C57.1339 102.772 49.365 122.846 49.365 122.846C32.601 123.764 20.9461 116.98 20.9461 116.98C20.9461 116.98 16.807 105.762 15.9529 97.0869C15.6296 93.8079 15.776 90.8888 16.7948 89.08L16.7978 89.0831Z" fill="#C74532"/>
<path d="M15.9557 97.0899C16.8097 105.765 20.9489 116.983 20.9489 116.983C27.2567 114.964 21.0648 96.0955 21.0648 96.0955C18.3501 96.0223 17.4228 96.0833 15.9587 97.0899H15.9557Z" fill="#BB3D21"/>
<path d="M-0.905651 112.048C6.97 91.3213 19.8053 80.066 19.8053 80.066C26.7811 78.605 28.8278 83.2352 30.4841 89.9823C30.9142 91.7392 15.9071 104.266 9.64504 111.142L18.3138 124.773L22.2516 130.968C19.8175 130.834 17.4078 130.645 15.0226 130.398C14.7633 130.37 14.504 130.343 14.2478 130.312C7.09506 122.934 -2.07998 113.045 -0.905651 112.048Z" fill="#E5BDB1"/>
<path d="M29.3828 78.9835C29.3828 78.9835 23.2641 78.1843 19.9912 80.0998C16.7183 82.0154 9.46494 90.7176 9.46494 90.7176C9.46494 90.7176 14.1318 101.994 22.6724 101.015C22.6724 101.015 35.8188 87.8047 32.6557 84.6294C29.4926 81.4541 29.3859 78.9804 29.3859 78.9804L29.3828 78.9835Z" fill="#D04D39"/>
<path d="M30.3624 40.6458C30.1737 40.0943 27.9306 34.2216 18.6923 36.6676C18.6923 36.6676 23.3507 35.8463 24.724 37.5893C24.724 37.5893 20.9252 36.0709 18.6682 37.6084C16.4121 39.1471 16.2657 43.957 16.6852 45.398C17.1046 46.8389 19.8872 51.0533 21.5883 50.9696C22.2322 50.9378 22.9114 50.6891 23.5055 50.3932C23.2829 51.1776 23.0894 52.0272 22.9387 52.9563C21.5506 61.5475 27.523 67.7323 30.3675 65.9911C32.1926 64.8749 33.7734 68.0857 33.7734 68.0857L48.3187 46.6948C48.3187 46.6948 36.8339 34.1997 30.3626 40.6448L30.3624 40.6458Z" fill="#795D56"/>
<path d="M44.109 68.9847C44.109 68.9847 43.07 72.1304 42.3016 75.147C36.6448 73.5504 34.9444 67.5937 34.436 64.4023L44.1088 68.9858L44.109 68.9847Z" fill="#E1B1A4"/>
<path d="M47.0542 70.6598C47.0542 70.6598 33.1809 71.5722 32.7458 62.9239C32.3107 54.2757 30.2269 48.5697 39.0658 47.6213C47.9048 46.673 49.793 49.8867 50.6405 52.738C51.488 55.5893 50.651 70.1997 47.0542 70.6598Z" fill="#E5BDB1"/>
<path d="M49.9913 47.949C47.7174 45.4532 46.1238 46.1041 45.2534 46.9304C37.4594 43.1315 32.8727 49.5415 32.8727 49.5415C32.2489 55.7922 27.9498 59.5682 27.9498 59.5682C27.9498 59.5682 30.557 61.0063 36.3177 59.2197C38.0772 58.6732 39.606 57.3286 40.8823 55.7257C38.7166 59.7992 35.6432 62.8086 35.6432 62.8086C42.4535 59.2448 44.7746 49.4147 45.0026 48.376C45.8879 49.0949 47.64 50.6669 48.2284 52.2623C49.0285 54.4304 49.5634 58.9491 50.8779 58.7293C50.8779 58.7293 53.4023 51.6922 49.9913 47.949Z" fill="#795D56"/>
<circle cx="-7.3183" cy="3.46076" r="30.2628" stroke="#584747"/>
<path d="M66.7421 25.1361C66.7421 20.7186 63.1611 17.1377 58.7436 17.1377C54.3261 17.1377 50.7302 20.7469 50.7452 25.164C50.7528 27.3574 51.6436 29.3427 53.08 30.7832C54.1984 31.9043 55.0168 33.2894 55.4299 34.8179L56.0749 37.2033H61.3177L61.9284 34.9444C62.3508 33.3827 63.1967 31.9734 64.3502 30.8389C65.8258 29.388 66.7413 27.3688 66.7413 25.1357L66.7421 25.1361Z" fill="#F4D242"/>
<path d="M59.9546 39.9971H57.3983C56.674 39.9971 56.0544 39.4624 56.0132 38.7838L55.7974 36.1644L61.587 36.1272L61.3401 38.7838C61.2989 39.4624 60.6793 39.9971 59.955 39.9971H59.9546Z" fill="#59595B"/>
<path d="M61.0665 37.2697C59.4494 37.3388 57.8263 37.2559 56.2092 37.3275C56.0657 37.3339 56.0762 37.5433 56.2173 37.5481C57.8356 37.6019 59.4583 37.5017 61.077 37.553C61.2585 37.5587 61.2504 37.262 61.0665 37.2697Z" fill="#808183"/>
<path d="M61.0665 37.9721C59.4494 38.0412 57.8263 37.9583 56.2092 38.0299C56.0657 38.0363 56.0762 38.2457 56.2173 38.2505C57.8356 38.3043 59.4583 38.2041 61.077 38.2554C61.2585 38.261 61.2504 37.9644 61.0665 37.9721Z" fill="#808183"/>
<path d="M59.3955 13.0707C59.3955 13.586 59.1215 15.4391 58.7832 15.4391C58.4449 15.4391 58.1709 13.586 58.1709 13.0707C58.1709 12.5554 58.4449 12.1375 58.7832 12.1375C59.1215 12.1375 59.3955 12.5554 59.3955 13.0707Z" fill="#F4D242"/>
<path d="M67.0225 15.9163C66.6317 16.2521 65.4046 17.6675 65.6249 17.9242C65.8452 18.1804 67.4291 17.1809 67.8203 16.8451C68.2111 16.5092 68.3494 16.029 68.1291 15.7724C67.9088 15.5162 67.4133 15.5804 67.0225 15.9163Z" fill="#F4D242"/>
<path d="M69.9952 24.1854C69.484 24.2505 67.611 24.2121 67.5686 23.8766C67.5262 23.5412 69.3296 23.036 69.8408 22.9709C70.3521 22.9058 70.8011 23.1253 70.844 23.4607C70.8864 23.7962 70.5065 24.1208 69.9952 24.1854Z" fill="#F4D242"/>
<path d="M51.2449 15.3017C51.6506 15.6194 52.9403 16.9778 52.7322 17.2438C52.5236 17.5101 50.8961 16.5834 50.4903 16.2653C50.0845 15.9476 49.9244 15.4739 50.133 15.208C50.3415 14.9416 50.8395 14.9837 51.2453 15.3013L51.2449 15.3017Z" fill="#F4D242"/>
<path d="M47.371 22.8605C47.8823 22.9255 49.7552 22.8871 49.7976 22.5517C49.8401 22.2162 48.0367 21.711 47.5254 21.6459C47.0141 21.5809 46.5651 21.8003 46.5223 22.1358C46.4798 22.4713 46.8598 22.7958 47.371 22.8605Z" fill="#F4D242"/>
<path d="M62.1957 29.2084C61.9386 29.0205 61.739 28.7744 61.5935 28.4975C61.8837 28.1394 62.0114 27.6577 62.0643 27.2102C62.0967 26.9366 62.106 26.6622 62.1104 26.387C62.1149 26.1214 62.0797 25.8963 61.855 25.731C61.6545 25.5839 61.387 25.7164 61.2334 25.8595C61.0559 26.0244 60.9699 26.2944 60.9016 26.5195C60.7633 26.9738 60.7658 27.4604 60.8526 27.9236C60.883 28.0853 60.9282 28.2437 60.9864 28.3973C60.8729 28.4862 60.7443 28.5565 60.6021 28.6018C60.1652 28.7416 59.8333 28.4898 59.6313 28.1172C59.5981 28.0562 59.5666 27.9911 59.5367 27.9236C59.571 27.8314 59.6038 27.7393 59.6345 27.6484C59.7832 27.2058 59.8653 26.7422 59.9025 26.2774C59.9332 25.8923 59.9441 25.4319 59.5735 25.204C59.4542 25.1304 59.3205 25.1862 59.2457 25.2901C58.7041 26.0414 58.7344 27.0377 59.0286 27.8896C58.9341 28.116 58.8229 28.3358 58.6992 28.548C58.5635 28.782 58.3044 29.1426 57.9899 29.0969C57.6973 29.0545 57.4633 28.6867 57.3178 28.4595C57.2111 28.293 57.1274 28.1152 57.0616 27.9301C57.0988 27.8323 57.1335 27.7332 57.165 27.633C57.2899 27.2393 57.3598 26.8295 57.3926 26.4185C57.4197 26.0753 57.431 25.5936 57.0555 25.4291C56.9464 25.3814 56.7851 25.3862 56.7273 25.5152C56.3979 26.2483 56.3349 27.0526 56.5426 27.8294C56.5495 27.8557 56.558 27.882 56.5657 27.9082C56.3381 28.4874 55.9921 29.0237 55.5718 29.48C55.3831 29.685 55.6817 29.9869 55.8782 29.7864C56.2528 29.4041 56.5644 28.9696 56.8078 28.4979C56.8801 28.6337 56.9613 28.7643 57.0507 28.8879C57.2956 29.2274 57.6027 29.5451 58.0437 29.569C58.4555 29.5912 58.7902 29.2448 59.0133 28.9441C59.1204 28.7998 59.2142 28.6422 59.2974 28.4785C59.4991 28.7998 59.7901 29.0549 60.1862 29.1102C60.5507 29.1612 60.904 29.048 61.2027 28.8479C61.3777 29.1458 61.604 29.4142 61.8675 29.6348C62.1686 29.8866 62.5126 29.4408 62.1957 29.2093V29.2084ZM59.4409 25.8725C59.4579 26.064 59.4134 26.3005 59.4029 26.4169C59.3835 26.6291 59.3463 26.8392 59.2974 27.047C59.2473 26.6383 59.2808 26.2196 59.4409 25.8729V25.8725ZM61.3094 27.0777C61.3243 26.8788 61.3769 26.6828 61.4431 26.4953C61.473 26.4104 61.5114 26.3304 61.5595 26.2544C61.5632 26.2483 61.5801 26.2269 61.5971 26.2079C61.5995 26.2208 61.6048 26.2394 61.6064 26.2657C61.6319 26.7511 61.5919 27.2745 61.4407 27.7373C61.4221 27.7947 61.3995 27.8504 61.374 27.9042C61.3102 27.6326 61.2883 27.3509 61.309 27.0777H61.3094Z" fill="white"/>
<path d="M62.6508 28.0313C61.8004 30.6268 60.9052 33.2099 59.9433 35.7666C59.8281 36.0726 60.2997 36.2601 60.4141 35.9545C61.3724 33.3942 62.2628 30.8103 63.061 28.1954C63.1435 27.9258 62.7397 27.7601 62.6508 28.0317V28.0313Z" fill="white"/>
<path d="M54.9156 27.8683C55.5942 30.5143 56.2284 33.1729 56.7922 35.8457C56.8597 36.1658 57.358 36.0704 57.2901 35.7507C56.7215 33.0764 56.0825 30.4194 55.3493 27.7854C55.2737 27.5138 54.8445 27.591 54.9156 27.8683Z" fill="white"/>
</svg>
