<svg width="14" height="16" viewBox="0 0 14 16" fill="none" xmlns="http://www.w3.org/2000/svg">
<path d="M13.0284 3.28931H12.3915C12.3908 2.57215 12.3623 1.90397 11.9095 1.44923C11.6084 1.14693 11.1771 1 10.5907 1C9.49762 1 8.00164 1.53115 7.25002 2.405C6.49846 1.53115 5.00243 1 3.90931 1C3.32297 1 2.89161 1.14693 2.59064 1.44923C2.13779 1.90397 2.10929 2.57211 2.10859 3.28931H1.47166C1.21117 3.28931 1 3.50101 1 3.76216V14.5271C1 14.7883 1.21117 15 1.47166 15H13.0283C13.2888 15 13.5 14.7883 13.5 14.5271V3.7622C13.5 3.50106 13.2889 3.28931 13.0284 3.28931ZM12.5566 5.77364H8.95995V4.2351H12.5566V5.77364ZM6.48346 4.2351H8.01654V9.36505L7.51178 9.0275C7.43251 8.97446 7.34124 8.94793 7.25002 8.94793C7.1588 8.94793 7.06749 8.97446 6.98826 9.0275L6.48351 9.36505L6.48346 4.2351ZM10.5907 1.94573C10.9093 1.94573 11.1284 2.00353 11.2418 2.11741C11.4317 2.30809 11.4475 2.77461 11.4481 3.28931H7.78911C8.10047 2.62203 9.43828 1.94573 10.5907 1.94573ZM3.25832 2.11741C3.37168 2.00353 3.5907 1.94573 3.90931 1.94573C5.06177 1.94573 6.39957 2.62203 6.71099 3.28931H3.05209C3.05261 2.77456 3.0684 2.30809 3.25832 2.11741ZM5.5401 4.2351V5.77364H1.94341V4.2351H5.5401ZM1.94341 14.0543V6.71937H5.5401V10.249C5.5401 10.4234 5.63588 10.5837 5.7893 10.6659C5.94268 10.7482 6.12888 10.7392 6.27361 10.6424L7.25007 9.9893L8.22653 10.6424C8.30553 10.6952 8.39679 10.7218 8.48834 10.7218C8.5646 10.7218 8.64111 10.7033 8.71079 10.6659C8.86422 10.5837 8.96 10.4234 8.96 10.249V6.71937H12.5567V14.0543H1.94341Z" fill="#232120" stroke="#F6F2EF" stroke-width="0.3"/>
</svg>
