<svg width="179" height="150" viewBox="0 0 179 150" fill="none" xmlns="http://www.w3.org/2000/svg">
<path d="M57.7396 128.619C57.7396 128.619 32.8033 91.5453 28.0154 92.6048C23.2276 93.6644 -1.61359 72.4477 -6.10388 79.2948C-11.608 87.6941 29.2926 107.022 25.1014 108.474C20.9102 109.926 0.664238 99.3497 0.147329 106.316C-0.36958 113.283 26.1455 116.914 25.2285 119.878C23.7449 124.675 -0.0438349 112.685 -1.85478 119.358C-3.70482 126.182 28.2935 126.732 27.0489 132.085C26.3339 135.162 7.7417 130.779 6.32971 134.978C3.10587 144.551 64.2452 157.893 64.2452 157.893L57.737 128.615L57.7396 128.619Z" fill="#CCBAAF"/>
<path d="M179 106.279C179 137.596 151.384 154.532 117.714 158.223C117.491 158.249 117.264 158.274 117.038 158.298C114.954 158.515 112.848 158.681 110.722 158.799H110.719C108.249 158.933 105.757 159 103.247 159C103.098 159 102.951 159 102.805 159C98.3224 158.984 94.0108 158.711 89.8723 158.201C41.8362 152.317 17 114.975 17 82.1811C17 46.4709 63.6371 21.0969 103.247 29.6773C142.199 38.1157 179 70.569 179 106.279Z" fill="#EFEAE6"/>
<path d="M145.847 105.992C144.956 107.897 143.898 109.421 142.673 110.963C141.812 114.467 140.598 118.471 138.98 122.717C140.253 122.104 141.871 120.618 142.631 120.027C144.13 118.859 145.522 117.549 146.781 116.122C149.22 113.356 152.511 111.431 155.929 110.072C158.037 109.232 160.404 108.637 162.563 109.336C158.483 115.365 153.585 120.221 146.414 122.166C143.817 122.871 141.512 122.967 138.873 122.988C137.678 126.09 136.276 129.312 134.625 132.565C134.179 133.452 133.72 134.318 133.263 135.175C134.529 134.648 136.021 133.636 136.756 133.215C138.408 132.271 139.973 131.173 141.42 129.942C144.23 127.552 147.76 126.117 151.341 125.26C153.548 124.73 155.973 124.476 158.012 125.476C153.115 130.858 147.574 134.971 140.199 135.87C137.658 136.182 135.462 135.983 133.002 135.656C131.261 138.852 129.44 141.825 127.626 144.526C129.023 144.404 131.206 143.353 132.167 142.987C133.941 142.307 135.658 141.462 137.277 140.466C140.418 138.535 144.128 137.653 147.793 137.353C150.056 137.167 152.491 137.286 154.355 138.585C148.695 143.159 142.588 146.375 135.165 146.137C132.411 146.052 130.139 145.442 127.534 144.665C127.478 144.746 127.427 144.827 127.372 144.909C124.924 148.571 122.433 151.686 120.153 154.121C117.87 156.561 115.805 158.316 114.317 159.437C113.569 159.994 112.976 160.411 112.558 160.668C112.142 160.929 111.918 161.053 111.899 161.026C111.855 160.961 112.677 160.347 114.085 159.149C115.489 157.949 117.463 156.137 119.655 153.669C121.848 151.204 124.254 148.083 126.643 144.423C126.712 144.318 126.781 144.213 126.85 144.108C124.747 142.478 122.96 140.995 121.316 138.846C116.798 132.949 115.852 126.116 116.271 118.847C118.414 119.605 119.929 121.512 121.096 123.462C122.99 126.617 124.433 130.145 124.697 133.823C124.829 135.72 125.143 137.607 125.628 139.447C125.88 140.412 126.285 142.707 126.967 143.938C128.66 141.357 130.365 138.54 132.006 135.521C131.94 135.51 131.874 135.503 131.808 135.495C131.874 135.503 131.942 135.505 132.017 135.502C132.061 135.423 132.101 135.345 132.145 135.266C130.454 133.261 129.034 131.45 127.885 129.033C124.701 122.323 125.202 115.44 127.129 108.423C129.065 109.613 130.148 111.796 130.882 113.944C132.073 117.424 132.751 121.177 132.238 124.829C131.972 126.711 131.885 128.62 131.97 130.52C132.015 131.47 131.942 133.627 132.287 134.991C132.792 134.054 133.29 133.106 133.778 132.133C135.459 128.813 136.902 125.528 138.133 122.381C136.512 120.45 135.147 118.681 134.036 116.337C130.852 109.628 131.353 102.745 133.28 95.7281C135.217 96.9177 136.299 99.101 137.034 101.249C138.224 104.729 138.902 108.482 138.39 112.133C138.124 114.016 138.037 115.928 138.122 117.825C138.16 118.673 138.11 120.476 138.344 121.829C139.631 118.48 140.674 115.301 141.502 112.407C141.358 112.579 141.217 112.747 141.07 112.923C141.883 111.956 141.721 108.73 141.77 107.506C141.848 105.603 141.749 103.698 141.472 101.814C140.937 98.1676 141.594 94.4079 142.766 90.9206C143.49 88.7673 144.56 86.5783 146.491 85.3802C148.457 92.3854 149.001 99.2678 145.852 105.995L145.847 105.992Z" fill="white"/>
<path d="M61.4956 148.796C63.7539 144.728 65.3162 141.19 64.8367 138.92C64.8367 138.92 64.8367 138.916 64.8367 138.908C64.7632 138.552 64.6665 137.864 64.5466 136.921C64.0942 133.417 63.2899 126.441 61.948 120.3C61.774 119.484 61.5845 118.684 61.3873 117.911C61.2636 117.408 61.1321 116.925 60.9968 116.449C60.6372 115.181 60.4167 113.943 60.3239 112.733C59.6704 104.771 64.2682 98.1079 68.9395 94.2603C69.5544 93.7499 70.1731 93.2897 70.7802 92.8837C72.5551 91.6965 74.2373 90.9541 75.5327 90.7491C76.7469 89.6857 78.3594 85.4088 79.6703 81.3988C80.1653 79.8868 80.6139 78.4174 80.9851 77.1683C80.9967 77.1258 81.0083 77.0871 81.0199 77.0485C81.4298 75.6641 81.7353 74.5659 81.8861 74.0206C81.9518 73.777 81.9866 73.6455 81.9866 73.6455L82.3308 73.8621L83.75 74.7592L83.7538 74.7631L87.2418 76.9711L92.6517 80.3972C92.6517 80.3972 92.6517 80.4243 92.644 80.4359C92.4932 80.9696 92.3733 81.5457 92.2689 82.1412C92.2186 82.4545 92.1722 82.7754 92.1335 83.1003C92.0137 84.0361 91.9402 85.0067 91.9015 85.9695V85.9811C91.8706 86.6965 91.859 87.4081 91.859 88.0925C91.859 89.6084 93.1235 90.8187 94.6393 90.7452C94.6703 90.7452 94.7051 90.7414 94.736 90.7414H94.7399C97.7561 90.606 101.101 90.5674 102.841 90.7452C106.128 91.0817 109.682 91.5805 113.622 91.9324C113.676 91.9363 113.703 91.9401 113.703 91.9401C118.143 92.3346 123.077 92.5395 128.68 92.1103L127.965 58.955C127.965 58.955 124.55 55.5984 124.349 53.7926C124.148 51.9867 124.017 44.2798 125.463 43.4871C126.109 43.1313 126.271 49.0439 126.754 49.3571C128.216 50.3046 133.854 50.7918 133.301 56.6038C135.239 63.371 144.682 97.1141 140.737 99.2564H140.73C140.73 99.2564 140.722 99.268 140.718 99.268C139.62 100.041 138.456 100.757 137.234 101.422C136.975 101.561 136.716 101.7 136.449 101.836C136.298 101.917 136.147 101.994 135.993 102.068C135.556 102.292 135.107 102.505 134.659 102.71C134.407 102.829 134.156 102.942 133.897 103.054C133.545 103.212 133.189 103.363 132.829 103.51C132.605 103.603 132.381 103.696 132.157 103.785C131.638 103.993 131.116 104.191 130.587 104.38C130.44 104.438 130.293 104.492 130.142 104.543C130.092 104.566 130.041 104.581 129.987 104.601C129.817 104.662 129.647 104.72 129.473 104.778C129.469 104.782 129.465 104.782 129.461 104.782C129.156 104.887 128.85 104.987 128.545 105.088C128.239 105.188 127.93 105.285 127.625 105.382C127.01 105.575 126.391 105.757 125.768 105.931C125.536 106 125.304 106.062 125.072 106.124C124.949 106.159 124.817 106.194 124.689 106.229C124.392 106.31 124.094 106.387 123.796 106.461C123.123 106.631 122.447 106.793 121.77 106.948C121.538 107.002 121.306 107.052 121.078 107.102C121.047 107.11 121.02 107.118 120.989 107.122C120.691 107.188 120.393 107.249 120.099 107.311C119.782 107.377 119.469 107.443 119.152 107.505C118.406 107.655 117.659 107.795 116.917 107.922C116.267 108.034 115.621 108.143 114.983 108.243C114.589 108.305 114.195 108.367 113.808 108.421C113.448 108.475 113.089 108.526 112.733 108.572C112.389 108.622 112.048 108.665 111.712 108.707C111.213 108.773 110.718 108.831 110.227 108.889H110.223C110.007 108.916 109.794 108.943 109.581 108.962C109.295 108.997 109.013 109.028 108.734 109.055C108.545 109.075 108.355 109.094 108.166 109.113C108.325 109.531 108.464 109.949 108.58 110.37C108.696 110.776 108.796 111.186 108.874 111.596C108.874 111.604 108.874 111.611 108.874 111.619C109.082 112.717 109.144 113.816 109.028 114.902C107.938 125.022 99.8829 137.98 97.4545 146.46C97.1451 147.532 96.9286 148.533 96.828 149.446C96.6347 151.182 96.6308 153.39 96.7507 155.784C90.7453 156.518 84.4886 156.913 77.9843 156.936C77.7716 156.936 77.559 156.936 77.3424 156.936C73.6997 156.936 70.0841 156.839 66.4995 156.646H66.4956C63.4098 156.476 60.3549 156.236 57.3309 155.923C58.7849 153.467 60.2505 151.05 61.5033 148.792L61.4956 148.796Z" fill="#E5BDB1"/>
<path d="M103.688 109.485C113.502 108.82 127.191 106.878 137.222 101.418C139.214 100.189 140.525 99.3766 140.71 99.2644H140.714C140.71 99.2605 140.706 99.2644 140.699 99.2644C140.501 99.3418 139.461 99.7478 137.822 100.297C131.43 102.435 115.969 106.724 106.302 101.89C99.4459 98.4601 100.962 103.901 103.688 109.485Z" fill="#E5BDB1"/>
<path d="M57.3232 155.927C60.3472 156.24 63.4021 156.48 66.4879 156.65H66.4918C70.0765 156.843 73.6921 156.94 77.3348 156.94C77.5513 156.94 77.764 156.94 77.9767 156.94C80.2736 152.327 81.9248 148.011 82.9264 145.119C83.7036 142.884 84.0903 141.503 84.0903 141.503C78.3595 138.614 72.6557 137.218 67.2343 136.959C66.3294 136.917 65.4322 136.905 64.5428 136.925C64.6627 137.868 64.7594 138.556 64.8329 138.912C64.8329 138.92 64.8329 138.924 64.8329 138.924C65.3124 141.194 63.7501 144.732 61.4918 148.8C60.2389 151.058 58.7733 153.475 57.3194 155.931L57.3232 155.927Z" fill="#E1B1A4"/>
<path d="M59.5737 103.549C64.2798 95.2002 75.5288 90.7454 75.5288 90.7454C79.04 101.929 94.0941 108.1 94.0941 108.1C98.4057 101.117 94.7282 90.7493 94.7282 90.7415C94.7282 90.7415 100.455 89.2914 106.256 90.5366C112.056 91.7817 113.7 91.9364 113.7 91.9364C113.7 91.9364 114.659 106.646 108.483 110.417C108.742 111.136 108.947 111.836 109.075 112.505C110.71 120.904 100.861 146.352 100.861 146.352C79.6084 147.516 64.8328 138.916 64.8328 138.916C64.8328 138.916 59.5853 124.693 58.5026 113.696C58.0927 109.539 58.2783 105.838 59.5698 103.545L59.5737 103.549Z" fill="#C74532"/>
<path d="M58.5066 113.7C59.5893 124.697 64.8368 138.92 64.8368 138.92C72.8337 136.36 64.9837 112.439 64.9837 112.439C61.5421 112.346 60.3666 112.423 58.5104 113.7H58.5066Z" fill="#BB3D21"/>
<path d="M37.1299 132.663C47.1144 106.387 63.3866 92.1179 63.3866 92.1179C72.2303 90.2656 74.825 96.1356 76.9248 104.689C77.47 106.917 58.4446 122.798 50.5057 131.514L61.4956 148.796L66.4879 156.65C63.402 156.48 60.3471 156.24 57.3232 155.927C56.9945 155.892 56.6658 155.857 56.341 155.818C47.2729 146.464 35.6411 133.927 37.1299 132.663Z" fill="#E5BDB1"/>
<path d="M75.529 90.7453C75.529 90.7453 67.7719 89.7321 63.6226 92.1606C59.4734 94.589 50.2777 105.621 50.2777 105.621C50.2777 105.621 56.1942 119.918 67.0217 118.676C67.0217 118.676 83.6883 101.929 79.6782 97.903C75.6682 93.8775 75.5328 90.7414 75.5328 90.7414L75.529 90.7453Z" fill="#D04D39"/>
<path d="M76.7708 42.1421C76.5315 41.4429 73.6878 33.9977 61.9757 37.0986C61.9757 37.0986 67.8816 36.0575 69.6225 38.2672C69.6225 38.2672 64.8066 36.3422 61.9453 38.2913C59.0851 40.242 58.8995 46.3399 59.4312 48.1667C59.963 49.9935 63.4906 55.3363 65.6473 55.2302C66.4636 55.1899 67.3246 54.8746 68.0778 54.4995C67.7956 55.4939 67.5503 56.5711 67.3593 57.749C65.5995 68.6406 73.1711 76.4815 76.7772 74.274C79.091 72.8589 81.0951 76.9294 81.0951 76.9294L99.5352 49.8108C99.5352 49.8108 84.9751 33.9699 76.771 42.1408L76.7708 42.1421Z" fill="#795D56"/>
<path d="M94.1981 78.0691C94.1981 78.0691 92.8809 82.0571 91.9068 85.8815C84.7353 83.8574 82.5795 76.3056 81.9351 72.2598L94.1979 78.0705L94.1981 78.0691Z" fill="#E1B1A4"/>
<path d="M97.9318 80.1927C97.9318 80.1927 80.3436 81.3494 79.7921 70.3855C79.2405 59.4216 76.5987 52.1877 87.8044 50.9854C99.0101 49.7831 101.404 53.8574 102.478 57.4722C103.553 61.0869 102.492 79.6094 97.9318 80.1927Z" fill="#E5BDB1"/>
<path d="M101.655 51.4008C98.7727 48.2367 96.7524 49.0619 95.6488 50.1094C85.7679 45.2933 79.953 53.4197 79.953 53.4197C79.1623 61.3442 73.7119 66.1312 73.7119 66.1312C73.7119 66.1312 77.0173 67.9544 84.3205 65.6894C86.5512 64.9967 88.4893 63.2919 90.1073 61.2599C87.3618 66.4241 83.4654 70.2393 83.4654 70.2393C92.0993 65.7213 95.0418 53.259 95.3309 51.9421C96.4532 52.8536 98.6745 54.8465 99.4205 56.869C100.435 59.6177 101.113 65.3464 102.779 65.0678C102.779 65.0678 105.98 56.1463 101.655 51.4008Z" fill="#795D56"/>
<circle cx="29" cy="-5" r="38.5" stroke="#584747"/>
<path d="M122.892 22.4793C122.892 16.8789 118.352 12.3391 112.752 12.3391C107.151 12.3391 102.592 16.9147 102.611 22.5146C102.621 25.2954 103.75 27.8122 105.571 29.6384C106.989 31.0597 108.027 32.8157 108.55 34.7535L109.368 37.7777H116.015L116.789 34.9139C117.325 32.934 118.397 31.1473 119.859 29.7091C121.73 27.8696 122.891 25.3097 122.891 22.4788L122.892 22.4793Z" fill="#F4D242"/>
<path d="M114.287 41.3197H111.046C110.128 41.3197 109.342 40.6418 109.29 39.7815L109.016 36.4607L116.356 36.4136L116.043 39.7815C115.991 40.6418 115.205 41.3197 114.287 41.3197H114.287Z" fill="#59595B"/>
<path d="M115.696 37.862C113.646 37.9496 111.588 37.8446 109.538 37.9353C109.356 37.9435 109.37 38.2089 109.548 38.215C111.6 38.2832 113.657 38.1561 115.709 38.2212C115.94 38.2284 115.929 37.8523 115.696 37.862Z" fill="#808183"/>
<path d="M115.696 38.7521C113.646 38.8398 111.588 38.7347 109.538 38.8254C109.356 38.8336 109.37 39.099 109.548 39.1052C111.6 39.1733 113.657 39.0462 115.709 39.1113C115.94 39.1185 115.929 38.7424 115.696 38.7521Z" fill="#808183"/>
<path d="M113.578 7.1831C113.578 7.8364 113.231 10.1857 112.802 10.1857C112.373 10.1857 112.026 7.8364 112.026 7.1831C112.026 6.52981 112.373 6 112.802 6C113.231 6 113.578 6.52981 113.578 7.1831Z" fill="#F4D242"/>
<path d="M123.248 10.7905C122.752 11.2163 121.196 13.0107 121.476 13.3361C121.755 13.6609 123.763 12.3938 124.259 11.968C124.754 11.5422 124.93 10.9335 124.65 10.6081C124.371 10.2833 123.743 10.3647 123.248 10.7905Z" fill="#F4D242"/>
<path d="M127.016 21.2739C126.368 21.3564 123.993 21.3078 123.94 20.8825C123.886 20.4572 126.172 19.8167 126.82 19.7342C127.468 19.6517 128.038 19.9299 128.092 20.3552C128.146 20.7805 127.664 21.192 127.016 21.2739Z" fill="#F4D242"/>
<path d="M103.245 10.0117C103.759 10.4145 105.394 12.1366 105.13 12.4737C104.866 12.8114 102.802 11.6365 102.288 11.2333C101.774 10.8305 101.571 10.23 101.835 9.89285C102.099 9.55518 102.731 9.60847 103.245 10.0112L103.245 10.0117Z" fill="#F4D242"/>
<path d="M98.3338 19.594C98.982 19.6765 101.356 19.6278 101.41 19.2025C101.464 18.7773 99.1777 18.1368 98.5295 18.0543C97.8813 17.9718 97.3121 18.25 97.2578 18.6753C97.204 19.1006 97.6856 19.512 98.3338 19.594Z" fill="#F4D242"/>
<path d="M117.128 27.642C116.802 27.4037 116.549 27.0917 116.365 26.7407C116.733 26.2867 116.895 25.676 116.962 25.1087C117.003 24.7619 117.015 24.4139 117.02 24.065C117.026 23.7284 116.981 23.443 116.696 23.2334C116.442 23.0469 116.103 23.215 115.908 23.3963C115.683 23.6054 115.574 23.9477 115.488 24.2331C115.312 24.809 115.315 25.4259 115.426 26.0131C115.464 26.2181 115.521 26.4189 115.595 26.6136C115.451 26.7263 115.288 26.8155 115.108 26.8729C114.554 27.0502 114.133 26.731 113.877 26.2585C113.835 26.1812 113.795 26.0987 113.757 26.0131C113.801 25.8963 113.842 25.7795 113.881 25.6642C114.07 25.1031 114.174 24.5154 114.221 23.9261C114.26 23.4378 114.274 22.8542 113.804 22.5652C113.653 22.472 113.483 22.5427 113.388 22.6744C112.702 23.6269 112.74 24.8899 113.113 25.9701C112.993 26.257 112.852 26.5357 112.696 26.8047C112.523 27.1014 112.195 27.5585 111.796 27.5006C111.425 27.4468 111.129 26.9805 110.944 26.6925C110.809 26.4814 110.703 26.256 110.619 26.0213C110.667 25.8973 110.711 25.7718 110.751 25.6447C110.909 25.1456 110.998 24.6261 111.039 24.105C111.073 23.67 111.088 23.0592 110.612 22.8506C110.473 22.7902 110.269 22.7963 110.196 22.9598C109.778 23.8893 109.698 24.9089 109.961 25.8937C109.97 25.927 109.981 25.9603 109.991 25.9936C109.702 26.7279 109.264 27.4078 108.731 27.9863C108.491 28.2461 108.87 28.6288 109.119 28.3747C109.594 27.89 109.989 27.3392 110.298 26.7412C110.389 26.9134 110.492 27.0789 110.606 27.2357C110.916 27.6661 111.305 28.0688 111.864 28.099C112.387 28.1272 112.811 27.6881 113.094 27.3069C113.229 27.124 113.348 26.9241 113.454 26.7166C113.71 27.124 114.079 27.4473 114.581 27.5175C115.043 27.582 115.491 27.4386 115.869 27.1849C116.091 27.5626 116.378 27.9028 116.712 28.1826C117.094 28.5018 117.53 27.9366 117.128 27.643V27.642ZM113.636 23.4127C113.657 23.6556 113.601 23.9554 113.588 24.1029C113.563 24.3719 113.516 24.6384 113.454 24.9017C113.39 24.3837 113.433 23.8529 113.636 23.4132V23.4127ZM116.005 24.9407C116.024 24.6886 116.09 24.4401 116.174 24.2023C116.212 24.0947 116.261 23.9933 116.322 23.8969C116.326 23.8893 116.348 23.8621 116.369 23.838C116.372 23.8544 116.379 23.878 116.381 23.9113C116.413 24.5267 116.363 25.1902 116.171 25.7769C116.148 25.8497 116.119 25.9204 116.087 25.9885C116.006 25.6442 115.978 25.2871 116.004 24.9407H116.005Z" fill="white"/>
<path d="M117.705 26.1499C116.627 29.4405 115.492 32.7151 114.272 35.9565C114.126 36.3444 114.724 36.5821 114.869 36.1948C116.084 32.9488 117.213 29.6731 118.225 26.3579C118.329 26.0162 117.818 25.8061 117.705 26.1504V26.1499Z" fill="white"/>
<path d="M107.898 25.9432C108.759 29.2978 109.563 32.6683 110.277 36.0567C110.363 36.4625 110.995 36.3416 110.909 35.9363C110.188 32.5458 109.378 29.1774 108.448 25.8382C108.352 25.4938 107.808 25.5917 107.898 25.9432Z" fill="white"/>
</svg>
