<svg width="31" height="28" viewBox="0 0 31 28" fill="none" xmlns="http://www.w3.org/2000/svg">
<path d="M30.3849 8.76864C30.3849 8.74433 30.3869 8.72053 30.3869 8.69673C30.3869 4.15693 27.1036 0 22.1667 0C18.2438 0 15.9693 2.8194 15.1934 5.45799C14.4176 2.8194 12.1426 0 8.22016 0C3.2833 0 0 4.15693 0 8.69622C0 8.72053 0.00151934 8.74433 0.00202579 8.76814C-0.0243095 9.75622 0 19.8062 15.1889 27.998V28C15.1889 28 15.1904 27.999 15.1909 27.999C15.1919 27.999 15.1924 27.9995 15.1929 28C15.194 28 15.1945 27.999 15.195 27.999C15.1955 27.999 15.1965 27.9995 15.197 28V27.998C30.3859 19.8062 30.4102 9.75622 30.3839 8.76864H30.3849Z" fill="#C74532"/>
<path d="M9.71887 24.5216C11.2792 25.6966 13.0883 26.865 15.189 27.9979V27.9999C15.189 27.9999 15.1905 27.9989 15.191 27.9989C15.1916 27.9989 15.1926 27.9994 15.1931 27.9999C15.1936 27.9999 15.1946 27.9989 15.1951 27.9989C15.1956 27.9989 15.1966 27.9994 15.1976 27.9999V27.9979C30.3865 19.8061 30.4108 9.75613 30.3845 8.76855C30.3845 8.74424 30.3865 8.72044 30.3865 8.69664C30.3865 8.12233 30.3333 7.55358 30.2315 6.99902C25.4441 18.543 15.9406 22.8893 9.71887 24.5221V24.5216Z" fill="#AB3423"/>
<path d="M0.841243 9.73097C0.841243 9.73097 0.734889 1.08084 9.71877 0.978027C9.71877 0.978027 3.60493 2.46243 0.841243 9.73097Z" fill="#DF7464"/>
</svg>
