<svg width="31" height="28" viewBox="0 0 31 28" fill="none" xmlns="http://www.w3.org/2000/svg">
<path d="M30.9322 8.76864C30.9322 8.74433 30.9343 8.72053 30.9343 8.69673C30.9343 4.15693 27.651 0 22.7141 0C18.7911 0 16.5167 2.8194 15.7408 5.45799C14.9649 2.8194 12.69 0 8.76752 0C3.83067 0 0.547363 4.15693 0.547363 8.69622C0.547363 8.72053 0.548883 8.74433 0.549389 8.76814C0.523054 9.75622 0.547363 19.8062 15.7363 27.998V28C15.7363 28 15.7378 27.999 15.7383 27.999C15.7393 27.999 15.7398 27.9995 15.7403 28C15.7413 28 15.7418 27.999 15.7423 27.999C15.7428 27.999 15.7438 27.9995 15.7444 28V27.998C30.9332 19.8062 30.9576 9.75622 30.9312 8.76864H30.9322Z" fill="white"/>
<path fill-rule="evenodd" clip-rule="evenodd" d="M30.9312 9.08882C30.9316 9.07087 30.932 9.0535 30.9322 9.03671C30.9337 8.94484 30.9332 8.87036 30.9322 8.81429C30.9319 8.79739 30.9316 8.78217 30.9312 8.76864H30.9322C30.9322 8.75642 30.9327 8.74433 30.9332 8.73231C30.9338 8.72041 30.9343 8.70857 30.9343 8.69673C30.9343 8.63158 30.9336 8.56651 30.9322 8.50153C30.9319 8.48687 30.9316 8.47221 30.9312 8.45755C30.9253 8.22658 30.911 7.99678 30.8884 7.76864C30.4758 3.60592 27.3121 0 22.7141 0C19.4834 0 17.3707 1.91216 16.2924 4.06076C16.0613 4.52114 15.8777 4.99238 15.7408 5.45799C15.6039 4.99239 15.4203 4.52116 15.1892 4.06078C14.1108 1.91217 11.9978 0 8.76752 0C3.83067 0 0.547363 4.15693 0.547363 8.69622C0.547363 8.71088 0.547916 8.72536 0.548465 8.73976C0.548827 8.74924 0.549188 8.75869 0.549389 8.76814C0.52364 9.73422 0.546307 19.3633 14.7444 27.4483C15.0669 27.632 15.3968 27.8149 15.7341 27.9968C15.7348 27.9972 15.7355 27.9976 15.7363 27.998V28C15.7363 28 15.7378 27.999 15.7383 27.999C15.7393 27.999 15.7398 27.9995 15.7403 28C15.7413 28 15.7418 27.999 15.7423 27.999C15.7428 27.999 15.7438 27.9995 15.7444 28V27.998C15.7458 27.9972 15.7473 27.9964 15.7487 27.9956C16.0853 27.814 16.4144 27.6316 16.7363 27.4483C29.9548 19.921 30.8864 11.0554 30.9312 9.08882ZM15.7403 26.8607C22.8606 22.9192 26.3946 18.6114 28.1561 15.2207C29.9594 11.7495 29.9415 9.16882 29.9316 8.7953L29.9128 8.09214C29.6399 4.2539 26.785 1 22.7141 1C19.3721 1 17.3945 3.37901 16.7002 5.7401L15.7408 9.00275L14.7814 5.7401C14.0872 3.37906 12.1091 1 8.76752 1C4.48604 1 1.54962 4.59923 1.54736 8.6915C1.5474 8.69244 1.54744 8.69372 1.5475 8.69536L1.54822 8.71444C1.54852 8.72276 1.54889 8.73408 1.54916 8.74687L1.54967 8.77083L1.54903 8.79478C1.53907 9.16858 1.52117 11.7494 3.32451 15.2207C5.08604 18.6114 8.62003 22.9192 15.7403 26.8607Z" fill="#EBE4DF"/>
</svg>
