<svg width="242" height="206" viewBox="0 0 242 206" fill="none" xmlns="http://www.w3.org/2000/svg">
<g clip-path="url(#clip0_3187_10484)">
<path d="M105.611 181.681C93.381 184.247 81.8586 189.579 72.1989 197.473C61.1682 206.485 45.1393 216.468 29.8285 214.591C2.76771 211.272 -4.94367 186.144 -22.4745 182.555C-40.0034 178.97 -84.1449 104.254 -51.0021 73.7527C-17.8575 43.2559 19.8704 25.0869 58.9665 28.7188C136.768 35.9461 164.86 91.542 157.966 137.497C157.966 137.497 154.053 171.517 105.614 181.674L105.611 181.681Z" fill="#E2DBD5"/>
<path d="M189.818 146.113C181.557 153.743 176.458 162.17 172.643 172.729C168.285 184.784 155.171 203.41 142.478 209.031C120.044 218.966 110.176 193.307 94.9779 198.631C79.7832 203.958 11.1818 166.636 22.6935 127.77C34.2087 88.9075 79.191 76.6973 86.8318 42.1982C94.4726 7.699 182.042 33.6382 213.536 80.4928C213.536 80.4928 233.77 107.271 201.048 137.488L189.818 146.113Z" fill="#EFEAE6"/>
<path d="M102.897 172.048C102.897 172.048 137.281 70.1333 154.306 72.9195C169.827 75.4569 144.756 111.186 145.246 119.84C145.731 128.494 166.423 97.0885 184.433 83.875C202.445 70.6621 210.437 80.9192 198.346 98.5615C186.652 115.624 151.788 132.112 158.483 135.127C165.179 138.139 208.702 118.876 213.048 129.348C218.376 142.189 154.498 152.727 160.181 156.05C165.865 159.373 196.48 153.24 194.946 162.513C193.412 171.786 153.216 167.516 153.588 171.694C154.192 178.464 193.131 170.895 193.592 180.223C194.068 189.765 146.821 179.604 146.885 187.016C146.921 191.274 193.099 193.507 193.795 199.469C195.384 213.067 92 203.109 92 203.109L102.893 172.051L102.897 172.048Z" fill="#DCD3CB"/>
<path d="M80.9674 161.084C80.9674 161.084 75.9382 161.264 75.4106 161.506C74.883 161.748 68.2663 167.988 68.2663 167.988C68.2663 167.988 64.3111 174.592 64.9423 175.132C65.5719 175.672 67.8 173.008 67.9711 172.457C68.1423 171.905 72.6769 166.785 73.272 166.432C73.8671 166.079 78.3452 164.895 78.496 164.702C78.6483 164.508 81.6677 162.993 81.7447 162.751C81.8216 162.51 80.969 161.084 80.969 161.084H80.9674Z" fill="#DCA799"/>
<path d="M72.8276 164.219C72.9093 164 74.6883 161.497 75.643 161.453C76.5976 161.409 76.9776 162.131 76.9399 162.252C76.9007 162.373 76.169 163.158 75.6555 163.613C75.1421 164.069 72.8276 164.219 72.8276 164.219Z" fill="#DCA799"/>
<path d="M68.4452 170.778C68.2677 171.298 65.2828 177.502 65.4618 177.721C65.6408 177.941 67.2 177.896 67.6318 177.417L68.062 176.938C68.062 176.938 68.9319 176.944 69.4454 176.19C69.9588 175.437 70.9009 173.531 71.3641 173.141C71.8273 172.752 73.085 170.071 73.3629 170.012C73.6393 169.952 77.7924 167.423 77.7924 167.423L79.9514 168.793C79.9514 168.793 78.7706 170.488 78.1206 171.354C77.4705 172.219 76.1924 173.909 76.475 175.231C76.7592 176.553 77.7767 176.753 77.7861 176.751C77.7971 176.749 78.8067 174.41 79.116 174.053C79.4254 173.697 81.6895 171.122 82.349 170.787C83.0069 170.453 85.414 169.681 86.2823 168.625C87.149 167.572 90.2501 163.428 90.2501 163.428L83.3429 161.666C83.3429 161.666 73.9518 164.516 73.7806 164.617C73.6095 164.717 68.4452 170.778 68.4452 170.778Z" fill="#DCA799"/>
<path d="M65.9079 166.932C65.9079 166.932 68.4045 165.866 68.7908 165.639C69.1755 165.411 71.672 163.888 71.8966 163.814C72.1227 163.742 76.7374 162.655 76.7374 162.655C76.7374 162.655 79.749 161.069 80.1729 160.906C80.5969 160.743 84.0481 159.521 84.7578 159.344C85.4675 159.168 88.2986 157.524 88.7445 157.356C89.1904 157.188 93.2053 156.111 93.2053 156.111C93.2053 156.111 97.6725 159.95 97.7369 161.6C97.7369 161.6 90.3539 163.282 90.0367 163.495C90.0336 163.497 90.0305 163.5 90.0273 163.502C88.1243 164.8 85.8381 165.411 83.5409 165.238C82.8202 165.185 82.0571 165.163 81.5374 165.245C80.2546 165.447 74.4575 166.086 73.3757 166.102C72.2938 166.116 67.4797 167.848 66.9348 167.893C66.39 167.939 65.0318 167.457 65.9079 166.932Z" fill="#ECBAAB"/>
<path d="M137.611 55.7035C132.888 40.2671 122.165 35.7309 116.291 35.1845C105.701 34.1984 100.436 37.0859 92.3134 45.7721C81.7053 57.1166 80.6973 54.1898 66.035 58.6915C31.6373 69.254 36.9775 114.599 56.3816 129.811C87.168 153.947 108.744 134.33 123.401 110.9C139.191 85.6607 139.541 62.0108 137.611 55.7035Z" fill="#C74532"/>
<path d="M94.0623 162.931C94.0623 162.931 86.1376 176.359 83.0413 188.415C80.9027 196.746 79.824 205.5 79.824 205.5H147.327C147.327 205.5 139.793 171.638 125.642 165.209C111.49 158.781 94.0623 162.931 94.0623 162.931Z" fill="#2C67A9"/>
<path d="M134.732 92.6194C124.931 91.6993 98.3837 94.1017 86.3421 96.0487C84.6212 96.3266 94.6891 156.061 91.9366 166.562L86.3311 178.04C86.3311 178.04 120.087 185.289 137.055 176.118L127.57 161.647C129.261 153.908 142.25 93.3244 134.732 92.6179V92.6194Z" fill="#B59A94"/>
<path d="M102.754 77.1186C102.754 77.1186 101.29 112.768 109.758 113.499C118.226 114.231 118.427 92.5063 118.535 89.8386L119.124 75.3176L102.754 77.1186Z" fill="#ECBAAB"/>
<path opacity="0.5" d="M102.666 84.6983C108.07 91.0229 115.912 90.0416 118.696 85.912L119.126 75.3165L102.755 77.1175C102.755 77.1175 102.626 80.2594 102.666 84.6967V84.6983Z" fill="#DCA799"/>
<path d="M75.5991 111.233C75.4185 126.097 77.2509 148.719 86.7426 161.539C89.2235 164.888 93.5084 152.856 93.5084 152.856C93.5084 152.856 90.2943 95.4335 86.3249 96.0537C82.6868 96.6237 75.7467 98.9978 75.5991 111.233Z" fill="#DCA799"/>
<path d="M93.02 141.767C91.6759 124.152 89.0726 95.6217 86.3248 96.0519C82.6867 96.6219 74.4056 98.996 74.2564 111.231C74.1371 121.055 74.908 134.779 78.1771 146.31C81.1369 144.611 85.5271 142.523 89.0113 142.286C90.3664 142.215 91.6963 142.008 93.0184 141.767H93.02Z" fill="#C8B1AC"/>
<path d="M99.6525 46.6262C99.6525 46.6262 97.4229 51.6444 97.4229 62.0986C97.4229 72.5528 99.932 78.5462 104.811 82.0319C109.689 85.5161 115.315 83.9648 118.053 82.0319C122.996 78.543 127.81 65.5844 126.416 56.3848C125.022 47.1851 120.84 29.0638 99.6525 46.6277V46.6262Z" fill="#ECBAAB"/>
<path d="M133.628 92.5494C133.628 92.5494 134.121 94.118 133.383 107.246C132.522 122.552 128.003 156.278 128.003 156.278C128.003 156.278 106.61 155.033 92.1846 155.714L85.2178 159.296L89.4337 163.878C89.4337 163.878 131.219 171.518 135.404 170.168C139.586 168.816 154.977 97.5567 133.628 92.5494Z" fill="#ECBAAB"/>
<path d="M91.0932 96.025C91.0932 96.025 87.8037 92.2142 87.6231 91.6646C87.4425 91.1135 87.5148 82.019 87.5148 82.019C87.5148 82.019 89.6659 74.6282 90.4902 74.7225C91.3146 74.8167 90.8765 78.2616 90.5892 78.7625C90.3018 79.2634 89.6329 86.0701 89.7789 86.7452C89.925 87.4204 92.1028 91.5091 92.0635 91.7525C92.0243 91.9959 92.968 95.2399 92.8423 95.4597C92.7167 95.6811 91.0932 96.025 91.0932 96.025Z" fill="#DCA799"/>
<path d="M87.8572 87.9249C87.752 88.1338 87.1255 91.1406 87.7441 91.8708C88.3612 92.6009 89.1494 92.3874 89.2122 92.2774C89.275 92.1675 89.352 91.0967 89.3363 90.4105C89.3206 89.7243 87.8572 87.9249 87.8572 87.9249Z" fill="#DCA799"/>
<path d="M89.6832 80.2516C89.9439 79.7664 92.4609 73.3601 92.7435 73.3413C93.0246 73.3224 94.053 74.4969 93.9965 75.1391L93.9384 75.7798C93.9384 75.7798 94.5351 76.4125 94.3325 77.3013C94.13 78.19 93.3731 80.1778 93.403 80.7823C93.4328 81.3868 92.3227 84.1331 92.4671 84.3764C92.6116 84.6198 93.582 89.3853 93.582 89.3853L96.055 90.0353C96.055 90.0353 96.4946 88.0177 96.6862 86.9515C96.8778 85.8854 97.2467 83.8002 98.4087 83.1093C99.5706 82.4184 100.409 83.0277 100.415 83.0371C100.422 83.0465 99.3932 85.3782 99.3429 85.8461C99.2927 86.3156 98.9457 89.7276 99.1482 90.4373C99.3508 91.147 100.422 93.4379 100.238 94.7898C100.056 96.1433 99.1278 101.234 99.1278 101.234L93.1376 97.368C93.1376 97.368 88.8385 88.5468 88.7961 88.3521C88.7537 88.1574 89.6832 80.25 89.6832 80.25V80.2516Z" fill="#DCA799"/>
<path d="M99.3353 100.087C98.8846 97.8278 97.5814 96.6533 95.8919 95.0863C95.3612 94.5948 94.8273 94.05 94.5337 93.6119C93.8099 92.5332 90.3366 87.8494 89.6112 87.0454C88.8858 86.2415 86.8807 81.5357 86.5431 81.1055C86.2055 80.6753 84.929 80.0079 85.1394 81.0081C85.1394 81.0081 86.0564 83.5628 86.1521 84.0009C86.2479 84.4374 86.8273 87.3029 86.9278 87.5181C87.0283 87.7332 89.371 91.8549 89.371 91.8549C89.371 91.8549 90.2566 95.1428 90.4261 95.5636C90.5941 95.9844 92.0466 99.3477 92.3998 99.9868C92.7531 100.627 93.1457 102.863 93.3262 103.305C93.3262 103.305 88.3896 118.593 87.256 121.277C86.1207 123.96 81.2014 142.582 80.1871 147.538C79.5087 150.851 82.3837 161.928 85.5633 163.302C88.6628 164.642 92.3386 165.091 95.3565 147.538C96.1196 143.097 99.4923 100.865 99.3369 100.087H99.3353Z" fill="#ECBAAB"/>
<path d="M133.601 92.5333C133.601 92.5333 132.973 92.6778 132.816 107.247C132.731 115.084 131.499 127.722 130.269 138.205C135.002 137.924 141.683 138.192 146.277 138.846C149.794 116.965 147.841 93.0075 133.601 92.5333Z" fill="#C8B1AC"/>
<path d="M94.0689 66.1435C94.9325 68.1078 96.7084 69.2273 98.0352 68.6432C99.3636 68.0591 99.7388 65.9943 98.8768 64.03C98.0132 62.0657 96.2373 60.9462 94.9106 61.5303C93.5822 62.1144 93.2069 64.1792 94.0689 66.1435Z" fill="#ECBAAB"/>
<path d="M128.867 66.9664C128.003 68.9306 126.228 70.0502 124.901 69.4661C123.572 68.882 123.197 66.8172 124.059 64.8529C124.923 62.8886 126.699 61.7691 128.025 62.3532C129.354 62.9357 129.729 65.0021 128.867 66.9664Z" fill="#ECBAAB"/>
<path d="M117.347 74.1828L107.013 72.7241C107.013 72.7241 106.698 76.6825 111.223 77.455C116.742 78.3972 117.347 74.1828 117.347 74.1828Z" fill="white"/>
<path d="M97.4229 62.0987C97.4229 62.0987 119.171 51.2002 123.596 44.5128C128.021 37.8254 115.97 38.8162 115.97 38.8162L107.009 38.7644L97.7385 43.1829L92.8552 57.1118L97.4229 62.0971V62.0987Z" fill="#C74532"/>
<path d="M43.0122 28.8739C46.2773 12.2777 35.4703 -3.82312 18.874 -7.0882C2.27781 -10.3533 -13.823 0.45378 -17.0881 17.05C-20.3531 33.6462 -9.54607 49.747 7.05016 53.012C23.6464 56.2771 39.7471 45.4701 43.0122 28.8739Z" stroke="#2C67A9" stroke-linecap="round" stroke-linejoin="round"/>
<path d="M8.67938 142.718C9.86919 145.262 11.2834 147.298 12.9205 149.358C14.0708 154.04 15.6917 159.39 17.8542 165.063C16.1536 164.244 13.9912 162.258 12.9759 161.469C10.9728 159.907 9.11305 158.158 7.43163 156.252C4.17246 152.555 -0.223661 149.984 -4.7897 148.168C-7.60716 147.046 -10.7688 146.252 -13.6532 147.185C-8.2029 155.24 -1.65834 161.728 7.92129 164.326C11.392 165.267 14.4715 165.396 17.9973 165.424C19.5926 169.568 21.4669 173.873 23.6718 178.22C24.2676 179.404 24.8809 180.561 25.4918 181.706C23.7997 181.002 21.8073 179.65 20.8252 179.088C18.6183 177.826 16.5272 176.36 14.5933 174.715C10.8391 171.522 6.12296 169.605 1.33962 168.459C-1.60926 167.751 -4.84857 167.412 -7.57362 168.748C-1.03094 175.938 6.37205 181.434 16.2248 182.635C19.6205 183.052 22.5545 182.786 25.841 182.349C28.1664 186.619 30.5991 190.591 33.0228 194.199C31.1562 194.036 28.2393 192.632 26.9563 192.143C24.5856 191.234 22.2919 190.105 20.129 188.775C15.9321 186.195 10.976 185.017 6.07913 184.615C3.05635 184.368 -0.196816 184.526 -2.68737 186.262C4.87436 192.373 13.0336 196.669 22.9505 196.352C26.6296 196.238 29.6653 195.423 33.1463 194.385C33.2199 194.494 33.2886 194.602 33.3622 194.711C36.6332 199.604 39.9613 203.765 43.0074 207.018C46.0572 210.278 48.8163 212.622 50.8033 214.121C51.8037 214.864 52.5953 215.421 53.1533 215.765C53.7099 216.113 54.0089 216.28 54.0341 216.243C54.0932 216.157 52.9953 215.336 51.1138 213.736C49.2386 212.132 46.6 209.712 43.6718 206.414C40.7424 203.121 37.5283 198.951 34.3362 194.062C34.2439 193.921 34.1515 193.781 34.0592 193.64C36.8692 191.462 39.2564 189.482 41.453 186.611C47.4896 178.732 48.7532 169.603 48.1927 159.891C45.3307 160.905 43.3066 163.452 41.7472 166.057C39.2162 170.272 37.2891 174.986 36.9364 179.9C36.7592 182.434 36.3403 184.956 35.6922 187.413C35.3554 188.703 34.8147 191.769 33.9032 193.414C31.642 189.965 29.3641 186.202 27.1709 182.168C27.2599 182.153 27.3476 182.144 27.4353 182.134C27.3476 182.144 27.2561 182.147 27.1559 182.143C27.0973 182.038 27.0437 181.934 26.9851 181.828C29.2451 179.149 31.141 176.73 32.677 173.5C36.931 164.536 36.2614 155.34 33.6865 145.966C31.0999 147.555 29.6537 150.472 28.6724 153.341C27.0813 157.99 26.1758 163.005 26.8607 167.883C27.2161 170.398 27.3333 172.948 27.2188 175.487C27.159 176.757 27.2565 179.637 26.7956 181.461C26.1211 180.208 25.4554 178.942 24.8035 177.642C22.5575 173.206 20.6296 168.818 18.9856 164.613C21.1514 162.033 22.9745 159.67 24.4589 156.539C28.7129 147.575 28.0433 138.379 25.4683 129.005C22.8817 130.594 21.4355 133.511 20.4543 136.38C18.8631 141.029 17.9576 146.044 18.6425 150.922C18.9979 153.437 19.1139 155.992 19.0006 158.526C18.9487 159.659 19.0162 162.069 18.7031 163.876C16.9835 159.402 15.5902 155.154 14.4841 151.288C14.6765 151.518 14.8651 151.742 15.0612 151.978C13.9758 150.686 14.1915 146.376 14.1257 144.739C14.0222 142.198 14.1543 139.652 14.5244 137.135C15.2391 132.264 14.3616 127.241 12.7953 122.582C11.8281 119.705 10.3988 116.78 7.8194 115.18C5.19197 124.539 4.46577 133.734 8.6731 142.721L8.67938 142.718Z" fill="#FBF9F8"/>
<path d="M196.706 57.9873C196.709 57.9772 196.712 57.9676 196.715 57.9577C197.217 56.0778 196.316 53.9938 194.272 53.4485C192.647 53.0152 191.394 53.9314 190.781 54.9384C190.752 53.76 190.121 52.3413 188.497 51.908C186.452 51.3627 184.634 52.7214 184.132 54.601C184.13 54.6111 184.128 54.6211 184.125 54.631C184.005 55.0373 182.905 59.2016 188.29 64.2715L188.29 64.2723C188.29 64.2723 188.29 64.2721 188.29 64.2721C188.291 64.2722 188.291 64.2725 188.291 64.2728C188.292 64.2729 188.292 64.2725 188.292 64.2726C188.292 64.2726 188.293 64.273 188.293 64.2732L188.293 64.2724C195.488 62.558 196.608 58.399 196.706 57.9872L196.706 57.9873Z" fill="#C74532"/>
<path d="M186.409 62.2273C186.925 62.8862 187.545 63.5698 188.29 64.271L188.29 64.2718C188.29 64.2718 188.29 64.2716 188.291 64.2716C188.291 64.2717 188.291 64.272 188.291 64.2723C188.292 64.2723 188.292 64.272 188.292 64.2721C188.292 64.2721 188.293 64.2725 188.293 64.2728L188.293 64.272C195.488 62.5575 196.608 58.3986 196.706 57.9868C196.709 57.9767 196.712 57.9671 196.715 57.9572C196.778 57.7194 196.819 57.478 196.838 57.2371C193.581 61.4886 189.165 62.2386 186.409 62.2275L186.409 62.2273Z" fill="#AB3423"/>
<path d="M184.366 55.1225C184.366 55.1225 185.278 51.5288 189.009 52.4785C189.009 52.4785 186.314 52.4179 184.366 55.1225Z" fill="#DF7464"/>
<path d="M184.034 17.4712C184.033 17.4608 184.033 17.4505 184.032 17.4404C183.874 15.5012 182.327 13.8397 180.218 14.0114C178.543 14.1478 177.669 15.4312 177.429 16.5853C177.006 15.4852 175.936 14.36 174.261 14.4964C172.152 14.668 170.894 16.5579 171.052 18.4969C171.053 18.5073 171.054 18.5174 171.055 18.5275C171.079 18.9505 171.438 23.2426 178.211 26.2136L178.211 26.2145C178.211 26.2145 178.212 26.214 178.212 26.2139C178.213 26.2139 178.213 26.2141 178.213 26.2143C178.214 26.2143 178.214 26.2138 178.214 26.2138C178.214 26.2138 178.215 26.214 178.215 26.2142L178.215 26.2133C184.418 22.1859 184.079 17.8921 184.033 17.4712L184.034 17.4712Z" fill="#C74532"/>
<path d="M175.754 24.9184C176.461 25.366 177.275 25.8022 178.211 26.2131L178.211 26.2139C178.211 26.2139 178.212 26.2135 178.212 26.2134C178.212 26.2134 178.213 26.2136 178.213 26.2138C178.213 26.2138 178.214 26.2133 178.214 26.2133C178.214 26.2133 178.215 26.2135 178.215 26.2136L178.215 26.2128C184.418 22.1854 184.079 17.8916 184.033 17.4707C184.033 17.4603 184.033 17.4501 184.032 17.4399C184.012 17.1946 183.969 16.9535 183.907 16.7201C182.263 21.8177 178.355 24.0048 175.754 24.9186L175.754 24.9184Z" fill="#AB3423"/>
<path d="M171.447 18.9097C171.447 18.9097 171.101 15.2184 174.935 14.8621C174.935 14.8621 172.375 15.7087 171.447 18.9097Z" fill="#DF7464"/>
<path d="M143.531 23.8531C143.529 23.8464 143.528 23.8397 143.526 23.8331C143.19 22.5805 141.975 21.6771 140.613 22.0432C139.531 22.3342 139.112 23.2808 139.094 24.0664C138.684 23.3959 137.847 22.7867 136.765 23.0777C135.403 23.4438 134.805 24.8344 135.142 26.0868C135.144 26.0935 135.146 26.1 135.148 26.1065C135.214 26.3811 135.966 29.1523 140.765 30.286L140.765 30.2865C140.765 30.2865 140.765 30.2861 140.765 30.2861C140.766 30.286 140.766 30.2861 140.766 30.2862C140.766 30.2861 140.766 30.2858 140.766 30.2858C140.767 30.2857 140.767 30.2858 140.767 30.2859L140.767 30.2854C144.35 26.8985 143.611 24.1237 143.531 23.8532L143.531 23.8531Z" fill="#C74532"/>
<path d="M138.997 29.7319C139.515 29.9404 140.101 30.1286 140.764 30.2853L140.765 30.2859C140.765 30.2859 140.765 30.2855 140.765 30.2855C140.765 30.2854 140.765 30.2855 140.766 30.2856C140.766 30.2856 140.766 30.2852 140.766 30.2852C140.766 30.2851 140.767 30.2852 140.767 30.2853L140.767 30.2847C144.35 26.8978 143.611 24.1231 143.531 23.8525C143.529 23.8458 143.528 23.8391 143.526 23.8325C143.483 23.6741 143.427 23.5211 143.357 23.3756C142.893 26.9159 140.593 28.8201 138.997 29.732L138.997 29.7319Z" fill="#AB3423"/>
<path d="M135.451 26.31C135.451 26.31 134.78 23.9311 137.251 23.2364C137.251 23.2364 135.674 24.0995 135.451 26.31Z" fill="#DF7464"/>
<path d="M151.152 38.9101C151.154 38.9054 151.157 38.9009 151.159 38.8963C151.577 38.0178 151.324 36.9112 150.369 36.4568C149.61 36.0957 148.91 36.4319 148.517 36.871C148.61 36.289 148.429 35.534 147.67 35.1729C146.715 34.7185 145.697 35.2207 145.279 36.099C145.277 36.1037 145.275 36.1085 145.273 36.1131C145.177 36.3019 144.256 38.2489 146.441 41.2322L146.441 41.2326C146.441 41.2326 146.442 41.2326 146.442 41.2326C146.442 41.2327 146.442 41.2328 146.442 41.233C146.442 41.2331 146.442 41.2329 146.443 41.233C146.443 41.233 146.443 41.2332 146.443 41.2334L146.443 41.233C150.136 41.046 151.066 39.1035 151.152 38.91L151.152 38.9101Z" fill="#C74532"/>
<path d="M145.703 40.0558C145.897 40.4268 146.139 40.8194 146.441 41.232L146.441 41.2324C146.441 41.2324 146.442 41.2323 146.442 41.2324C146.442 41.2324 146.442 41.2326 146.442 41.2328C146.442 41.2328 146.442 41.2327 146.443 41.2327C146.443 41.2328 146.443 41.233 146.443 41.2332L146.443 41.2328C150.136 41.0458 151.066 39.1033 151.152 38.9098C151.154 38.9051 151.157 38.9007 151.159 38.8961C151.212 38.7849 151.254 38.67 151.285 38.5533C149.296 40.3464 147.057 40.3126 145.703 40.0559L145.703 40.0558Z" fill="#AB3423"/>
<path d="M145.347 36.3766C145.347 36.3766 146.122 34.693 147.87 35.5001C147.87 35.5001 146.551 35.2245 145.347 36.3766Z" fill="#DF7464"/>
</g>
<defs>
<clipPath id="clip0_3187_10484">
<rect width="242" height="205" fill="white" transform="translate(0 0.5)"/>
</clipPath>
</defs>
</svg>
