<svg width="335" height="205" viewBox="0 0 335 205" fill="none" xmlns="http://www.w3.org/2000/svg">
<g clip-path="url(#clip0_3187_11008)">
<path d="M177.037 203.183C162.64 206.203 149.075 212.48 137.704 221.773C124.718 232.383 105.849 244.135 87.8243 241.925C55.9677 238.018 46.8897 208.437 26.2521 204.212C5.61662 199.991 -46.3477 112.034 -7.33127 76.1276C31.6873 40.2261 76.1014 18.8372 122.126 23.1127C213.715 31.6208 246.786 97.0695 238.671 151.168C238.671 151.168 234.064 191.217 177.04 203.175L177.037 203.183Z" fill="#E2DBD5"/>
<path d="M276.167 161.311C266.442 170.294 260.439 180.214 255.948 192.644C250.818 206.836 235.38 228.762 220.438 235.38C194.028 247.075 182.411 216.869 164.519 223.137C146.632 229.408 65.8727 185.471 79.4246 139.718C92.9806 93.9679 145.935 79.5937 154.93 38.9806C163.925 -1.63257 267.013 28.9036 304.089 84.0619C304.089 84.0619 327.908 115.586 289.387 151.158L276.167 161.311Z" fill="#EFEAE6"/>
<path d="M173.842 191.843C173.842 191.843 214.319 71.8667 234.362 75.1467C252.634 78.1338 223.12 120.195 223.696 130.383C224.268 140.57 248.627 103.599 269.827 88.0437C291.032 72.4892 300.44 84.5642 286.207 105.333C272.44 125.42 231.397 144.83 239.279 148.379C247.162 151.924 298.398 129.248 303.514 141.576C309.787 156.692 234.587 169.097 241.279 173.009C247.97 176.921 284.01 169.701 282.204 180.618C280.399 191.535 233.079 186.508 233.517 191.427C234.228 199.396 280.067 190.486 280.61 201.467C281.17 212.7 225.55 200.738 225.626 209.463C225.668 214.477 280.03 217.105 280.849 224.124C282.719 240.132 161.014 228.409 161.014 228.409L173.837 191.847L173.842 191.843Z" fill="#DCD3CB"/>
<path d="M148.026 178.936C148.026 178.936 142.106 179.148 141.484 179.433C140.863 179.718 133.074 187.063 133.074 187.063C133.074 187.063 128.418 194.838 129.161 195.474C129.902 196.11 132.525 192.973 132.727 192.324C132.928 191.675 138.266 185.647 138.967 185.231C139.667 184.816 144.939 183.422 145.117 183.194C145.296 182.967 148.85 181.183 148.941 180.899C149.032 180.614 148.028 178.936 148.028 178.936H148.026Z" fill="#DCA799"/>
<path d="M138.444 182.627C138.54 182.368 140.634 179.421 141.758 179.37C142.882 179.318 143.329 180.168 143.285 180.31C143.239 180.453 142.377 181.377 141.773 181.913C141.168 182.449 138.444 182.627 138.444 182.627Z" fill="#DCA799"/>
<path d="M133.285 190.348C133.076 190.96 129.562 198.263 129.773 198.522C129.984 198.781 131.819 198.727 132.327 198.163L132.834 197.599C132.834 197.599 133.858 197.607 134.462 196.72C135.067 195.832 136.176 193.588 136.721 193.13C137.266 192.671 138.747 189.516 139.074 189.446C139.399 189.376 144.289 186.398 144.289 186.398L146.83 188.012C146.83 188.012 145.44 190.006 144.675 191.026C143.91 192.045 142.405 194.034 142.738 195.59C143.072 197.146 144.27 197.381 144.281 197.379C144.294 197.378 145.483 194.623 145.847 194.204C146.211 193.784 148.876 190.753 149.653 190.359C150.427 189.965 153.261 189.056 154.283 187.814C155.303 186.573 158.954 181.695 158.954 181.695L150.823 179.621C150.823 179.621 139.767 182.976 139.566 183.095C139.364 183.213 133.285 190.348 133.285 190.348Z" fill="#DCA799"/>
<path d="M130.297 185.821C130.297 185.821 133.236 184.566 133.691 184.297C134.144 184.029 137.083 182.236 137.347 182.15C137.614 182.065 143.046 180.785 143.046 180.785C143.046 180.785 146.591 178.919 147.09 178.726C147.59 178.534 151.652 177.096 152.488 176.887C153.323 176.68 156.656 174.745 157.181 174.547C157.706 174.349 162.433 173.081 162.433 173.081C162.433 173.081 167.691 177.601 167.767 179.543C167.767 179.543 159.076 181.523 158.702 181.774C158.699 181.776 158.695 181.78 158.691 181.782C156.451 183.31 153.76 184.029 151.055 183.826C150.207 183.763 149.309 183.737 148.697 183.834C147.187 184.072 140.362 184.824 139.089 184.843C137.815 184.859 132.148 186.898 131.506 186.952C130.865 187.005 129.266 186.438 130.297 185.821Z" fill="#ECBAAB"/>
<path d="M214.708 54.8794C209.148 36.7074 196.525 31.3673 189.61 30.724C177.143 29.5632 170.945 32.9625 161.383 43.188C148.895 56.543 147.708 53.0975 130.447 58.397C89.9536 70.8314 96.2402 124.212 119.083 142.12C155.326 170.534 180.725 147.44 197.98 119.858C216.568 90.1457 216.98 62.3046 214.708 54.8794Z" fill="#C74532"/>
<path d="M163.441 181.11C163.441 181.11 154.112 196.917 150.467 211.11C147.95 220.918 146.68 231.223 146.68 231.223H226.146C226.146 231.223 217.277 191.359 200.617 183.792C183.957 176.224 163.441 181.11 163.441 181.11Z" fill="#2C67A9"/>
<path d="M211.318 98.3378C199.78 97.2546 168.529 100.083 154.353 102.375C152.327 102.702 164.18 173.022 160.939 185.384L154.34 198.897C154.34 198.897 194.078 207.431 214.054 196.634L202.888 179.599C204.878 170.488 220.169 99.1678 211.318 98.336V98.3378Z" fill="#B59A94"/>
<path d="M173.673 80.09C173.673 80.09 171.95 122.057 181.919 122.918C191.888 123.78 192.124 98.2047 192.252 95.0642L192.945 77.9698L173.673 80.09Z" fill="#ECBAAB"/>
<path opacity="0.5" d="M173.57 89.0126C179.932 96.4581 189.163 95.3028 192.441 90.4414L192.947 77.9681L173.675 80.0883C173.675 80.0883 173.524 83.787 173.57 89.0107V89.0126Z" fill="#DCA799"/>
<path d="M141.706 120.249C141.494 137.749 143.651 164.379 154.824 179.472C157.745 183.414 162.789 169.25 162.789 169.25C162.789 169.25 159.006 101.65 154.333 102.381C150.05 103.052 141.88 105.846 141.706 120.249Z" fill="#DCA799"/>
<path d="M162.215 156.196C160.632 135.458 157.568 101.872 154.333 102.379C150.05 103.05 140.302 105.845 140.126 120.248C139.985 131.813 140.893 147.969 144.741 161.544C148.226 159.544 153.394 157.085 157.496 156.806C159.091 156.723 160.657 156.479 162.213 156.196H162.215Z" fill="#C8B1AC"/>
<path d="M170.022 44.1935C170.022 44.1935 167.397 50.1011 167.397 62.408C167.397 74.7149 170.351 81.7704 176.094 85.874C181.837 89.9756 188.46 88.1494 191.684 85.874C197.503 81.7667 203.17 66.5116 201.529 55.6816C199.887 44.8516 194.965 23.5187 170.022 44.1954V44.1935Z" fill="#ECBAAB"/>
<path d="M210.019 98.2551C210.019 98.2551 210.599 100.102 209.731 115.557C208.718 133.575 203.398 173.278 203.398 173.278C203.398 173.278 178.213 171.812 161.231 172.614L153.03 176.83L157.993 182.224C157.993 182.224 207.183 191.219 212.11 189.629C217.034 188.037 235.152 104.15 210.019 98.2551Z" fill="#ECBAAB"/>
<path d="M159.947 102.347C159.947 102.347 156.074 97.8608 155.862 97.2139C155.649 96.5651 155.734 85.8589 155.734 85.8589C155.734 85.8589 158.266 77.1583 159.237 77.2692C160.207 77.3801 159.692 81.4356 159.353 82.0253C159.015 82.6149 158.228 90.6279 158.4 91.4227C158.571 92.2176 161.135 97.0309 161.089 97.3174C161.043 97.6039 162.154 101.423 162.006 101.682C161.858 101.942 159.947 102.347 159.947 102.347Z" fill="#DCA799"/>
<path d="M156.137 92.8118C156.013 93.0576 155.276 96.5974 156.004 97.4569C156.73 98.3164 157.658 98.065 157.732 97.9356C157.806 97.8062 157.897 96.5456 157.878 95.7378C157.86 94.9301 156.137 92.8118 156.137 92.8118Z" fill="#DCA799"/>
<path d="M158.287 83.7784C158.594 83.2073 161.557 75.6656 161.889 75.6435C162.22 75.6213 163.431 77.0039 163.364 77.7599L163.296 78.5141C163.296 78.5141 163.998 79.259 163.76 80.3052C163.522 81.3514 162.631 83.6915 162.666 84.4032C162.701 85.1148 161.394 88.3478 161.564 88.6343C161.734 88.9208 162.876 94.5308 162.876 94.5308L165.788 95.296C165.788 95.296 166.305 92.9208 166.531 91.6657C166.756 90.4106 167.191 87.9559 168.559 87.1426C169.926 86.3293 170.913 87.0465 170.921 87.0576C170.928 87.0686 169.717 89.8136 169.658 90.3644C169.599 90.9171 169.191 94.9338 169.429 95.7692C169.668 96.6047 170.928 99.3016 170.712 100.893C170.498 102.486 169.405 108.479 169.405 108.479L162.353 103.928C162.353 103.928 157.292 93.5437 157.242 93.3145C157.192 93.0853 158.287 83.7766 158.287 83.7766V83.7784Z" fill="#DCA799"/>
<path d="M169.649 107.129C169.118 104.469 167.584 103.087 165.595 101.242C164.97 100.663 164.342 100.022 163.996 99.5061C163.144 98.2362 159.055 92.7224 158.201 91.776C157.347 90.8296 154.987 85.2898 154.59 84.7833C154.192 84.2768 152.689 83.4913 152.937 84.6687C152.937 84.6687 154.017 87.6761 154.129 88.1918C154.242 88.7057 154.924 92.0791 155.042 92.3323C155.161 92.5856 157.919 97.4377 157.919 97.4377C157.919 97.4377 158.961 101.308 159.161 101.804C159.359 102.299 161.068 106.258 161.484 107.011C161.9 107.765 162.362 110.397 162.575 110.917C162.575 110.917 156.763 128.915 155.429 132.074C154.092 135.233 148.301 157.155 147.107 162.989C146.309 166.889 149.693 179.93 153.436 181.547C157.085 183.124 161.412 183.653 164.965 162.989C165.863 157.761 169.834 108.044 169.651 107.129H169.649Z" fill="#ECBAAB"/>
<path d="M209.987 98.2361C209.987 98.2361 209.248 98.4061 209.063 115.558C208.963 124.783 207.512 139.661 206.065 152.002C211.636 151.671 219.501 151.987 224.91 152.756C229.05 126.998 226.751 98.7943 209.987 98.2361Z" fill="#C8B1AC"/>
<path d="M163.45 67.1696C164.466 69.482 166.557 70.8 168.119 70.1123C169.683 69.4247 170.124 66.994 169.11 64.6816C168.093 62.3692 166.002 61.0513 164.44 61.7389C162.877 62.4265 162.435 64.8572 163.45 67.1696Z" fill="#ECBAAB"/>
<path d="M204.414 68.1381C203.398 70.4505 201.307 71.7685 199.745 71.0808C198.181 70.3932 197.74 67.9625 198.754 65.6501C199.771 63.3377 201.862 62.0198 203.423 62.7074C204.987 63.3932 205.429 65.8257 204.414 68.1381Z" fill="#ECBAAB"/>
<path d="M190.852 76.6337L178.688 74.9165C178.688 74.9165 178.316 79.5764 183.643 80.4859C190.141 81.5949 190.852 76.6337 190.852 76.6337Z" fill="white"/>
<path d="M167.398 62.4077C167.398 62.4077 193 49.5777 198.209 41.7052C203.418 33.8327 189.231 34.9991 189.231 34.9991L178.682 34.9381L167.769 40.1396L162.021 56.5371L167.398 62.4059V62.4077Z" fill="#C74532"/>
<path d="M103.344 23.2952C107.188 3.75776 94.4657 -15.1964 74.9283 -19.0401C55.3909 -22.8839 36.4367 -10.1616 32.593 9.37587C28.7492 28.9133 41.4716 47.8674 61.009 51.7111C80.5464 55.5549 99.5006 42.8326 103.344 23.2952Z" stroke="#2C67A9" stroke-linecap="round" stroke-linejoin="round"/>
<path d="M62.9269 157.315C64.3275 160.31 65.9924 162.707 67.9197 165.132C69.2738 170.644 71.1819 176.941 73.7277 183.62C71.7257 182.656 69.1801 180.318 67.9849 179.389C65.6267 177.55 63.4374 175.491 61.458 173.247C57.6212 168.896 52.446 165.868 47.0708 163.731C43.754 162.41 40.032 161.475 36.6365 162.574C43.0527 172.056 50.7571 179.694 62.0344 182.752C66.1203 183.861 69.7455 184.012 73.8962 184.045C75.7742 188.924 77.9806 193.992 80.5762 199.108C81.2776 200.503 81.9997 201.864 82.7189 203.213C80.7268 202.383 78.3813 200.793 77.2252 200.13C74.6272 198.645 72.1655 196.919 69.8888 194.982C65.4693 191.224 59.9174 188.967 54.2863 187.618C50.8149 186.785 47.0015 186.385 43.7935 187.958C51.4957 196.423 60.2106 202.892 71.8095 204.306C75.807 204.797 79.2609 204.484 83.1298 203.969C85.8674 208.996 88.7312 213.672 91.5844 217.919C89.3871 217.728 85.9532 216.075 84.4428 215.499C81.652 214.429 78.9518 213.101 76.4056 211.535C71.465 208.498 65.6305 207.11 59.8658 206.638C56.3073 206.346 52.4776 206.532 49.5457 208.576C58.4475 215.77 68.0527 220.827 79.7272 220.454C84.0583 220.32 87.6319 219.36 91.7299 218.138C91.8165 218.267 91.8973 218.394 91.984 218.522C95.8347 224.282 99.7526 229.181 103.339 233.011C106.929 236.848 110.177 239.608 112.516 241.372C113.694 242.247 114.626 242.903 115.282 243.307C115.938 243.718 116.29 243.913 116.319 243.871C116.389 243.769 115.096 242.802 112.882 240.919C110.674 239.031 107.568 236.182 104.121 232.299C100.672 228.422 96.8885 223.513 93.1307 217.758C93.022 217.593 92.9133 217.427 92.8045 217.262C96.1125 214.698 98.9228 212.366 101.509 208.986C108.615 199.711 110.103 188.965 109.443 177.532C106.074 178.725 103.691 181.723 101.855 184.791C98.8755 189.752 96.6068 195.301 96.1916 201.087C95.983 204.07 95.4898 207.038 94.7269 209.931C94.3305 211.45 93.694 215.059 92.6209 216.996C89.9589 212.935 87.2773 208.506 84.6954 203.757C84.8002 203.739 84.9035 203.728 85.0068 203.716C84.9035 203.728 84.7958 203.732 84.6778 203.727C84.6088 203.603 84.5457 203.481 84.4767 203.356C87.1372 200.203 89.3692 197.354 91.1774 193.552C96.1853 183 95.397 172.174 92.3658 161.138C89.3207 163.009 87.6182 166.443 86.4631 169.821C84.59 175.294 83.524 181.197 84.3303 186.94C84.7486 189.9 84.8867 192.902 84.7518 195.892C84.6815 197.386 84.7963 200.777 84.2537 202.924C83.4596 201.449 82.6759 199.959 81.9085 198.429C79.2645 193.206 76.9949 188.04 75.0596 183.091C77.6092 180.053 79.7554 177.271 81.5028 173.585C86.5107 163.033 85.7224 152.207 82.6912 141.171C79.6461 143.043 77.9436 146.476 76.7885 149.854C74.9154 155.327 73.8494 161.231 74.6557 166.974C75.074 169.934 75.2106 172.941 75.0772 175.925C75.0162 177.258 75.0956 180.095 74.7271 182.223C72.7026 176.956 71.0624 171.955 69.7603 167.404C69.9868 167.675 70.2088 167.938 70.4396 168.216C69.1619 166.695 69.4159 161.621 69.3384 159.695C69.2166 156.703 69.3721 153.706 69.8078 150.743C70.6491 145.008 69.6161 139.095 67.7722 133.61C66.6337 130.224 64.951 126.781 61.9145 124.897C58.8214 135.914 57.9665 146.739 62.9195 157.319L62.9269 157.315Z" fill="#FBF9F8"/>
<path d="M284.276 57.5679C284.279 57.556 284.283 57.5447 284.287 57.5331C284.877 55.32 283.817 52.8667 281.41 52.2247C279.498 51.7146 278.023 52.7932 277.301 53.9786C277.266 52.5915 276.524 50.9212 274.612 50.4112C272.205 49.7692 270.064 51.3687 269.474 53.5815C269.471 53.5934 269.468 53.6052 269.465 53.6168C269.324 54.0951 268.029 58.9974 274.368 64.9658L274.368 64.9667C274.368 64.9667 274.369 64.9665 274.369 64.9665C274.369 64.9666 274.37 64.967 274.37 64.9673C274.37 64.9674 274.371 64.967 274.371 64.967C274.371 64.9671 274.372 64.9675 274.372 64.9678L274.372 64.9668C282.841 62.9486 284.16 58.0526 284.276 57.5677L284.276 57.5679Z" fill="#C74532"/>
<path d="M272.154 62.5593C272.761 63.335 273.491 64.1398 274.368 64.9652L274.368 64.9662C274.368 64.9662 274.369 64.9659 274.369 64.966C274.369 64.9661 274.37 64.9664 274.37 64.9668C274.37 64.9668 274.371 64.9665 274.371 64.9665C274.371 64.9666 274.372 64.967 274.372 64.9674L274.372 64.9664C282.842 62.9481 284.16 58.0521 284.276 57.5673C284.279 57.5554 284.283 57.5441 284.286 57.5325C284.361 57.2525 284.409 56.9684 284.432 56.6848C280.597 61.6897 275.399 62.5727 272.154 62.5596L272.154 62.5593Z" fill="#AB3423"/>
<path d="M269.749 54.1957C269.749 54.1957 270.822 49.9651 275.215 51.0832C275.215 51.0832 272.041 51.0118 269.749 54.1957Z" fill="#DF7464"/>
<path d="M269.358 9.87154C269.357 9.85931 269.357 9.84726 269.356 9.83529C269.17 7.55241 267.349 5.59647 264.866 5.79858C262.893 5.95918 261.865 7.47005 261.583 8.82866C261.085 7.53358 259.825 6.20895 257.853 6.36953C255.37 6.57164 253.889 8.79641 254.075 11.079C254.076 11.0913 254.078 11.1032 254.079 11.1151C254.106 11.6131 254.53 16.6658 262.503 20.1633L262.503 20.1643C262.503 20.1643 262.504 20.1637 262.504 20.1637C262.505 20.1637 262.505 20.1639 262.505 20.1641C262.506 20.1641 262.506 20.1636 262.506 20.1636C262.507 20.1635 262.507 20.1637 262.507 20.164L262.507 20.163C269.81 15.4218 269.411 10.3671 269.357 9.87158L269.358 9.87154Z" fill="#C74532"/>
<path d="M259.61 18.6388C260.443 19.1658 261.401 19.6792 262.503 20.1629L262.504 20.1639C262.504 20.1639 262.504 20.1634 262.505 20.1634C262.505 20.1633 262.505 20.1635 262.506 20.1638C262.506 20.1638 262.506 20.1632 262.507 20.1632C262.507 20.1632 262.507 20.1634 262.508 20.1636L262.508 20.1626C269.81 15.4214 269.411 10.3667 269.357 9.8712C269.356 9.85897 269.356 9.84692 269.355 9.83495C269.332 9.54615 269.282 9.26233 269.208 8.98763C267.273 14.9886 262.672 17.5633 259.61 18.6391L259.61 18.6388Z" fill="#AB3423"/>
<path d="M254.54 11.5652C254.54 11.5652 254.133 7.21975 258.646 6.80026C258.646 6.80026 255.633 7.797 254.54 11.5652Z" fill="#DF7464"/>
<path d="M221.677 17.3846C221.675 17.3767 221.674 17.3687 221.672 17.361C221.275 15.8864 219.846 14.8229 218.242 15.2539C216.968 15.5965 216.475 16.7109 216.454 17.6357C215.971 16.8463 214.986 16.1292 213.712 16.4717C212.108 16.9028 211.405 18.5397 211.801 20.0141C211.803 20.022 211.806 20.0296 211.808 20.0373C211.886 20.3606 212.771 23.6228 218.42 24.9574L218.42 24.9581C218.42 24.9581 218.421 24.9576 218.421 24.9576C218.421 24.9575 218.422 24.9576 218.422 24.9577C218.422 24.9577 218.422 24.9573 218.422 24.9572C218.423 24.9572 218.423 24.9573 218.423 24.9574L218.423 24.9567C222.641 20.9696 221.772 17.7031 221.677 17.3846L221.677 17.3846Z" fill="#C74532"/>
<path d="M216.34 24.305C216.949 24.5504 217.639 24.772 218.42 24.9566L218.42 24.9572C218.42 24.9572 218.421 24.9568 218.421 24.9567C218.421 24.9567 218.421 24.9567 218.421 24.9569C218.422 24.9568 218.422 24.9564 218.422 24.9564C218.422 24.9563 218.423 24.9564 218.423 24.9565L218.423 24.9558C222.641 20.9687 221.771 17.7022 221.677 17.3837C221.675 17.3758 221.673 17.3679 221.671 17.3602C221.621 17.1736 221.554 16.9935 221.472 16.8223C220.925 20.99 218.218 23.2316 216.34 24.3052L216.34 24.305Z" fill="#AB3423"/>
<path d="M212.165 20.2771C212.165 20.2771 211.375 17.4766 214.284 16.6588C214.284 16.6588 212.428 17.6748 212.165 20.2771Z" fill="#DF7464"/>
<path d="M230.649 35.1095C230.651 35.104 230.654 35.0988 230.657 35.0934C231.149 34.0592 230.851 32.7565 229.727 32.2215C228.833 31.7964 228.01 32.1921 227.547 32.7091C227.656 32.024 227.443 31.1352 226.55 30.7101C225.425 30.1751 224.227 30.7663 223.735 31.8003C223.732 31.8059 223.73 31.8115 223.728 31.8169C223.614 32.0392 222.531 34.3312 225.103 37.8432L225.103 37.8437C225.103 37.8437 225.103 37.8436 225.104 37.8437C225.104 37.8438 225.104 37.844 225.104 37.8441C225.104 37.8442 225.104 37.8441 225.105 37.8441C225.105 37.8442 225.105 37.8444 225.105 37.8446L225.105 37.8441C229.453 37.624 230.547 35.3372 230.648 35.1094L230.649 35.1095Z" fill="#C74532"/>
<path d="M224.234 36.4581C224.462 36.8948 224.748 37.357 225.103 37.8427L225.103 37.8432C225.103 37.8432 225.104 37.8431 225.104 37.8432C225.104 37.8432 225.104 37.8435 225.104 37.8436C225.104 37.8437 225.104 37.8436 225.105 37.8436C225.105 37.8437 225.105 37.8439 225.105 37.8441L225.105 37.8437C229.453 37.6236 230.548 35.3368 230.649 35.109C230.651 35.1035 230.654 35.0982 230.657 35.0928C230.719 34.962 230.769 34.8267 230.806 34.6893C228.464 36.8002 225.828 36.7605 224.234 36.4582L224.234 36.4581Z" fill="#AB3423"/>
<path d="M223.815 32.1272C223.815 32.1272 224.728 30.1452 226.785 31.0953C226.785 31.0953 225.232 30.7709 223.815 32.1272Z" fill="#DF7464"/>
</g>
<defs>
<clipPath id="clip0_3187_11008">
<rect width="335" height="205" fill="white"/>
</clipPath>
</defs>
</svg>
