<svg width="70" height="70" viewBox="0 0 70 70" fill="none" xmlns="http://www.w3.org/2000/svg">
<path d="M0.340367 30.1291L4.55071 27.9691L1.70573 24.1863L6.22628 22.783L4.08653 18.5629L8.78304 17.9733L7.41865 13.4456L12.1436 13.6868L11.5796 8.98756L16.1967 10.0404L16.4503 5.31721L20.812 7.15463L21.8826 2.54627L25.865 5.10668L27.7201 0.75375L31.1869 3.97383L33.7819 0.0151992L36.6339 3.79264L39.8708 0.340785L42.0309 4.55113L45.8136 1.70615L47.2169 6.22669L51.437 4.08695L52.0266 8.78346L56.5543 7.41907L56.3131 12.144L61.0124 11.58L59.9595 16.1972L64.6827 16.4507L62.8453 20.8124L67.4536 21.883L64.8932 25.8654L69.2462 27.7205L66.0261 31.1873L69.9847 33.7823L66.2073 36.6343L69.6591 39.8712L65.4488 42.0313L68.2938 45.814L63.7732 47.2173L65.913 51.4374L61.2165 52.027L62.5808 56.5547L57.8559 56.3136L58.4199 61.0128L53.8028 59.9599L53.5492 64.6831L49.1875 62.8457L48.1169 67.4541L44.1345 64.8937L42.2794 69.2466L38.8126 66.0265L36.2176 69.9851L33.3656 66.2077L30.1287 69.6595L27.9686 65.4492L24.1859 68.2942L22.7826 63.7736L18.5625 65.9134L17.9729 61.2169L13.4452 62.5813L13.6864 57.8563L8.98714 58.4203L10.04 53.8032L5.31679 53.5496L7.15421 49.1879L2.54585 48.1174L5.10626 44.1349L0.753332 42.2798L3.97341 38.813L0.0147811 36.2181L3.79222 33.366L0.340367 30.1291Z" fill="#C35748"/>
</svg>
