<svg width="101" height="101" viewBox="0 0 101 101" fill="none" xmlns="http://www.w3.org/2000/svg">
<path d="M1.31136 43.8662L7.32614 40.7804L3.26189 35.3765L9.7198 33.3718L6.66302 27.343L13.3723 26.5007L11.4232 20.0326L18.1731 20.3771L17.3674 13.664L23.9633 15.168L24.3255 8.42062L30.5566 11.0455L32.0859 4.46213L37.7751 8.11986L40.4252 1.90139L45.3779 6.5015L49.0849 0.846315L53.1593 6.24266L57.7834 1.31144L60.8692 7.32622L66.2732 3.26196L68.2778 9.71988L74.3066 6.6631L75.1489 13.3724L81.617 11.4233L81.2725 18.1731L87.9856 17.3675L86.4816 23.9634L93.229 24.3256L90.6041 30.5567L97.1875 32.086L93.5297 37.7752L99.7482 40.4253L95.1481 45.3779L100.803 49.085L95.4069 53.1593L100.338 57.7835L94.3234 60.8693L98.3876 66.2732L91.9297 68.2779L94.9865 74.3066L88.2772 75.1489L90.2263 81.6171L83.4765 81.2725L84.2822 87.9857L77.6862 86.4817L77.324 93.2291L71.0929 90.6042L69.5636 97.1876L63.8744 93.5298L61.2243 99.7483L56.2717 95.1482L52.5646 100.803L48.4903 95.407L43.8661 100.338L40.7803 94.3235L35.3764 98.3877L33.3717 91.9298L27.343 94.9866L26.5007 88.2773L20.0325 90.2264L20.3771 83.4765L13.6639 84.2822L15.1679 77.6863L8.42054 77.3241L11.0454 71.093L4.46205 69.5637L8.11979 63.8745L1.90131 61.2244L6.50143 56.2717L0.846241 52.5647L6.24258 48.4903L1.31136 43.8662Z" fill="#CD5242"/>
</svg>
