<?xml version="1.0"?>
<!--Icons from directory ""-->
<svg xmlns="http://www.w3.org/2000/svg" width="17" height="34" viewBox="0 0 17 34"><svg width="17" height="17" fill="none" id="profile_ico_courses" y="0"><path d="M2.165 3.93H.582v11.08c0 .87.712 1.582 1.583 1.582h11.078V15.01H2.165V3.93zM14.826.766H5.33c-.87 0-1.583.713-1.583 1.583v9.496c0 .87.713 1.583 1.583 1.583h9.496c.87 0 1.583-.712 1.583-1.583V2.348c0-.87-.712-1.583-1.583-1.583zm-.791 7.122H6.12V6.305h7.914v1.582zm-3.165 3.166H6.12V9.47h4.748v1.583zm3.165-6.33H6.12V3.138h7.914v1.583z" fill="#CB5050"/></svg><svg width="17" height="17" fill="none" id="profile_ico_courses_0" y="17"><path d="M2.165 3.93H.582v11.08c0 .87.712 1.582 1.583 1.582h11.079V15.01H2.164V3.93zM14.826.766H5.33c-.87 0-1.583.713-1.583 1.583v9.496c0 .87.713 1.583 1.583 1.583h9.496c.87 0 1.583-.712 1.583-1.583V2.348c0-.87-.712-1.583-1.583-1.583zm-.791 7.122H6.122V6.305h7.913v1.582zm-3.165 3.166H6.122V9.47h4.748v1.583zm3.165-6.33H6.122V3.138h7.913v1.583z" fill="#E4DEDB"/></svg></svg>
