<svg width="11" height="12" viewBox="0 0 11 12" fill="none" xmlns="http://www.w3.org/2000/svg">
<g clip-path="url(#clip0)">
<path d="M2.50386 4.64994C2.39723 4.59149 2.26337 4.63057 2.2049 4.73725L2.20048 4.74526C2.14203 4.85191 2.18109 4.98578 2.28779 5.04422C2.32138 5.06264 2.35765 5.07135 2.39343 5.07135C2.47126 5.07135 2.5467 5.03 2.58675 4.95692L2.59117 4.9489C2.64962 4.84225 2.61052 4.70839 2.50386 4.64994Z" fill="#9B847A"/>
<path d="M9.5511 5.34988C9.20479 4.00199 8.23384 2.88151 6.92371 2.3579C6.6974 1.65117 6.03198 1.16235 5.28522 1.16235C4.51936 1.16235 3.86905 1.66552 3.64683 2.35854C2.85779 2.67458 2.18209 3.20773 1.68773 3.90618C1.37543 4.34745 1.15027 4.83526 1.01843 5.34994C0.449799 5.39241 0 5.86831 0 6.44759C0 7.02721 0.450254 7.50335 1.01934 7.54535C1.50837 9.44453 3.23549 10.852 5.28522 10.852C7.33491 10.852 9.06203 9.44453 9.55103 7.54535C10.1201 7.50335 10.5704 7.02721 10.5704 6.44755C10.5704 5.868 10.1202 5.39192 9.5511 5.34988ZM0.440468 6.44755C0.440468 6.14367 0.646776 5.88707 0.926644 5.81036C0.907733 5.94141 0.894561 6.07375 0.887418 6.2071C0.887294 6.20895 0.887232 6.21077 0.887129 6.21263C0.885849 6.23691 0.884713 6.26121 0.883846 6.28555C0.883495 6.29478 0.883309 6.30401 0.883062 6.31323C0.882525 6.3307 0.881967 6.34815 0.881637 6.36563C0.881162 6.39295 0.880873 6.42026 0.880873 6.44757C0.880873 6.48092 0.881389 6.51424 0.882174 6.5476C0.882401 6.55805 0.88269 6.56845 0.88302 6.57886C0.883722 6.60312 0.884672 6.62737 0.885787 6.65161C0.886241 6.66189 0.886654 6.67219 0.88717 6.6825C0.88878 6.71276 0.890721 6.74299 0.89293 6.77321C0.893983 6.78742 0.895222 6.80154 0.896378 6.8157C0.897885 6.83362 0.899454 6.85156 0.901168 6.86946C0.902675 6.88523 0.904223 6.90103 0.905895 6.91674C0.907836 6.93515 0.910045 6.95355 0.912213 6.97192C0.915083 6.996 0.918159 7.02001 0.9214 7.04393C0.923258 7.05764 0.924972 7.07133 0.926954 7.08496C0.646921 7.00834 0.440468 6.7516 0.440468 6.44755ZM5.28522 1.60282C5.72139 1.60282 6.12032 1.82682 6.35316 2.17744C6.34878 2.1774 6.34439 2.17738 6.33999 2.17738C6.33714 2.17738 6.33437 2.17759 6.33152 2.17761C6.33043 2.17765 6.32931 2.17763 6.3282 2.17769C5.64251 2.18407 5.08665 2.7436 5.08665 3.43074C5.08665 3.69813 5.17066 3.95236 5.3216 4.16212C5.30948 4.16245 5.29732 4.16263 5.28522 4.16263C4.5795 4.16263 4.00535 3.58849 4.00535 2.88277C4.00533 2.17699 4.57948 1.60282 5.28522 1.60282ZM9.24767 6.55191C9.24755 6.55728 9.24724 6.56261 9.24708 6.56798C9.24617 6.59748 9.24509 6.627 9.24354 6.6565C9.24328 6.66177 9.24286 6.66703 9.24255 6.6723C9.24088 6.70176 9.23902 6.73124 9.23671 6.76068C9.23626 6.76663 9.23562 6.77253 9.23512 6.77848C9.23277 6.80692 9.23019 6.83535 9.22723 6.86374C9.22643 6.87165 9.2254 6.87951 9.22453 6.8874C9.22164 6.91341 9.21863 6.93939 9.21524 6.96534C9.21381 6.9762 9.2122 6.98699 9.21068 6.99781C9.20758 7.02025 9.2044 7.04267 9.20087 7.06503C9.19858 7.07959 9.1961 7.09404 9.19364 7.10855C9.19061 7.12666 9.18757 7.14474 9.18427 7.16279C9.18093 7.18114 9.17736 7.19939 9.17374 7.21762C9.17106 7.23129 9.16837 7.24498 9.16553 7.25862C8.79021 9.05664 7.19297 10.4115 5.28518 10.4115C3.37598 10.4115 1.77779 9.05472 1.40398 7.25474C1.4006 7.23843 1.39748 7.22202 1.39432 7.20563C1.39127 7.18998 1.38815 7.17433 1.3853 7.15862C1.38125 7.13636 1.37756 7.114 1.37388 7.09167C1.37221 7.0814 1.37037 7.07116 1.36878 7.06088C1.36441 7.0326 1.3604 7.00427 1.3566 6.97589C1.35596 6.97108 1.35518 6.96629 1.35458 6.96148C1.35024 6.92805 1.34628 6.89452 1.34279 6.861C1.34279 6.86085 1.34275 6.86067 1.34275 6.86052C1.32848 6.72344 1.32128 6.5855 1.32128 6.44763C1.32128 6.41652 1.3218 6.38539 1.32254 6.35428C1.32281 6.34406 1.32312 6.33386 1.32345 6.32366C1.32409 6.30273 1.32495 6.28179 1.32594 6.26086C1.3265 6.24868 1.32704 6.23647 1.32772 6.22431C1.32877 6.20578 1.33009 6.18724 1.3314 6.16872C1.33369 6.13672 1.33627 6.10478 1.3393 6.07292C1.33965 6.06927 1.33994 6.06561 1.34029 6.06198C1.47564 4.69134 2.32452 3.475 3.56505 2.87583C3.56505 2.87816 3.56489 2.88046 3.56489 2.88279C3.56489 3.04044 3.58661 3.19301 3.62651 3.33814C3.23124 3.54862 2.88413 3.82907 2.59317 4.17386C2.51472 4.26683 2.52651 4.40577 2.61948 4.48418C2.66081 4.51907 2.71122 4.53609 2.76139 4.53609C2.82403 4.53609 2.88626 4.50949 2.9298 4.45788C3.17558 4.16662 3.46711 3.92792 3.79814 3.74607C4.0965 4.25801 4.65116 4.6031 5.28522 4.6031C5.47966 4.6031 5.67071 4.57077 5.85297 4.50704C5.93235 4.47927 5.989 4.40873 5.99895 4.32519C6.0089 4.24168 5.9704 4.15978 5.89975 4.11418C5.66641 3.96345 5.5271 3.70798 5.5271 3.43078C5.5271 2.99163 5.87718 2.63296 6.31292 2.61857C7.77572 3.00994 8.86363 4.19273 9.16503 5.63431C9.17001 5.65816 9.17486 5.68204 9.17938 5.70599C9.18173 5.7185 9.1839 5.7311 9.18619 5.74365C9.1897 5.76324 9.19315 5.78288 9.19637 5.80253C9.19831 5.8143 9.20015 5.82609 9.20198 5.8379C9.20539 5.86001 9.20865 5.88214 9.21167 5.90431C9.21295 5.91354 9.21427 5.92277 9.21549 5.93202C9.22387 5.99639 9.2307 6.06101 9.23597 6.12575C9.23657 6.13317 9.23704 6.14064 9.2376 6.14809C9.2395 6.17299 9.24113 6.19793 9.24255 6.22287C9.24309 6.23255 9.24361 6.24228 9.24408 6.25198C9.24528 6.27572 9.24617 6.29948 9.24691 6.32323C9.24722 6.33241 9.24755 6.3416 9.2478 6.35077C9.24858 6.38306 9.24908 6.41535 9.24908 6.44759C9.24906 6.48238 9.24858 6.51717 9.24767 6.55191ZM9.64344 7.08496C9.64586 7.06832 9.64805 7.05159 9.65028 7.03489C9.65263 7.01726 9.6549 6.99959 9.65707 6.98187C9.65977 6.95966 9.66235 6.9374 9.66473 6.91515C9.66628 6.90057 9.6677 6.88596 9.66906 6.87132C9.67092 6.85214 9.67262 6.83296 9.6742 6.81378C9.6753 6.80048 9.67648 6.78723 9.67745 6.77389C9.67972 6.74332 9.68166 6.71274 9.68329 6.6821C9.68385 6.67224 9.68418 6.66235 9.68465 6.65246C9.68577 6.62783 9.68672 6.60322 9.68744 6.57857C9.68775 6.56831 9.68804 6.55803 9.68831 6.54774C9.68903 6.51436 9.68956 6.48098 9.68956 6.44755C9.68956 6.4185 9.68921 6.38946 9.68866 6.36041C9.68843 6.34986 9.68808 6.33933 9.68779 6.32878C9.68731 6.31055 9.68676 6.29232 9.68608 6.27407C9.68556 6.2611 9.6849 6.24814 9.68432 6.2352C9.68356 6.2195 9.68277 6.20386 9.68182 6.18821C9.68102 6.17413 9.68013 6.16009 9.67916 6.14605C9.67817 6.1316 9.6771 6.11719 9.67596 6.10276C9.67482 6.08812 9.67369 6.07346 9.67239 6.05886C9.67113 6.04474 9.66975 6.03068 9.66836 6.01658C9.66696 6.00207 9.6656 5.98753 9.66405 5.97302C9.66229 5.95663 9.66029 5.94032 9.65833 5.92395C9.65616 5.90576 9.65395 5.88761 9.65156 5.86948C9.64894 5.84971 9.64635 5.82993 9.64349 5.81021C9.92356 5.88681 10.13 6.14351 10.13 6.44751C10.1299 6.75164 9.92352 7.00834 9.64344 7.08496Z" fill="#9B847A"/>
<path d="M4.50175 6.70271C4.39873 6.3183 4.04888 6.0498 3.6509 6.0498C3.25298 6.0498 2.90308 6.3183 2.80004 6.70271C2.76856 6.82021 2.83828 6.94096 2.95575 6.97244C3.07326 7.00389 3.194 6.93421 3.22548 6.81674C3.27701 6.62451 3.45194 6.49025 3.65088 6.49025C3.84984 6.49025 4.02476 6.62451 4.07627 6.81674C4.10264 6.91511 4.19164 6.98 4.28886 6.98C4.30771 6.98 4.32691 6.97756 4.34601 6.97244C4.46354 6.94096 4.53324 6.82021 4.50175 6.70271Z" fill="#9B847A"/>
<path d="M6.91946 6.0498C6.52148 6.0498 6.17159 6.31832 6.06859 6.70273C6.03712 6.82023 6.10684 6.94098 6.22434 6.97244C6.34179 7.00395 6.46256 6.93419 6.49402 6.81672C6.54553 6.62451 6.72046 6.49025 6.91944 6.49025C7.1184 6.49025 7.29333 6.62451 7.34484 6.81674C7.3712 6.91511 7.46016 6.98 7.55742 6.98C7.57627 6.98 7.59547 6.97756 7.61457 6.97244C7.73206 6.94096 7.80176 6.82019 7.77027 6.70271C7.66725 6.31832 7.3174 6.0498 6.91946 6.0498Z" fill="#9B847A"/>
<path d="M5.98028 8.24779C5.86283 8.21633 5.74203 8.28601 5.71055 8.40352C5.65902 8.59575 5.48409 8.73001 5.28515 8.73001C5.08617 8.73001 4.91125 8.59575 4.85976 8.40352C4.82827 8.28603 4.70752 8.21631 4.59003 8.24779C4.47253 8.27928 4.40284 8.40003 4.43432 8.51753C4.53734 8.90198 4.8872 9.17045 5.28517 9.17045C5.68311 9.17045 6.03301 8.90196 6.13603 8.51753C6.16747 8.40005 6.09775 8.27928 5.98028 8.24779Z" fill="#9B847A"/>
</g>
<defs>
<clipPath id="clip0">
<rect width="10.5704" height="10.5704" fill="white" transform="translate(0 0.721924)"/>
</clipPath>
</defs>
</svg>
