<svg width="61" height="61" viewBox="0 0 61 61" fill="none" xmlns="http://www.w3.org/2000/svg">
<g clip-path="url(#clip0)">
<path d="M14.4476 22.6678C13.8323 22.3305 13.0598 22.5561 12.7224 23.1717L12.6969 23.2179C12.3596 23.8334 12.585 24.6059 13.2007 24.9432C13.3945 25.0495 13.6039 25.0997 13.8103 25.0997C14.2595 25.0997 14.6948 24.8611 14.926 24.4393L14.9515 24.3931C15.2888 23.7776 15.0631 23.0051 14.4476 22.6678Z" fill="white"/>
<path d="M55.1175 26.7073C53.119 18.9288 47.5158 12.4627 39.9553 9.44106C38.6492 5.36264 34.8092 2.54175 30.4998 2.54175C26.0801 2.54175 22.3273 5.44544 21.0449 9.44476C16.4915 11.2686 12.5921 14.3452 9.73929 18.3759C7.93705 20.9224 6.6377 23.7375 5.87687 26.7076C2.59538 26.9527 -0.000335693 29.699 -0.000335693 33.042C-0.000335693 36.3869 2.598 39.1346 5.88211 39.3769C8.7042 50.3368 18.6711 58.4589 30.4998 58.4589C42.3282 58.4589 52.2951 50.3368 55.1171 39.3769C58.4012 39.1346 60.9997 36.3869 60.9997 33.0417C60.9997 29.6972 58.4014 26.9499 55.1175 26.7073ZM2.54153 33.0417C2.54153 31.2881 3.7321 29.8073 5.34717 29.3646C5.23804 30.1209 5.16203 30.8846 5.12081 31.6541C5.12009 31.6648 5.11973 31.6753 5.11914 31.686C5.11175 31.8262 5.1052 31.9664 5.10019 32.1069C5.09817 32.1601 5.0971 32.2134 5.09567 32.2666C5.09257 32.3674 5.08935 32.4681 5.08745 32.569C5.08471 32.7266 5.08304 32.8842 5.08304 33.0419C5.08304 33.2343 5.08602 33.4266 5.09054 33.6191C5.09185 33.6794 5.09352 33.7394 5.09543 33.7995C5.09948 33.9395 5.10496 34.0795 5.11139 34.2193C5.11401 34.2787 5.1164 34.3381 5.11938 34.3976C5.12867 34.5722 5.13987 34.7467 5.15262 34.9211C5.15869 35.003 5.16584 35.0845 5.17251 35.1663C5.18121 35.2697 5.19026 35.3732 5.20015 35.4765C5.20885 35.5675 5.21779 35.6587 5.22744 35.7493C5.23864 35.8556 5.25138 35.9618 5.26389 36.0678C5.28045 36.2067 5.29821 36.3453 5.31691 36.4834C5.32763 36.5625 5.33752 36.6415 5.34896 36.7201C3.73294 36.278 2.54153 34.7963 2.54153 33.0417ZM30.4998 5.08361C33.0169 5.08361 35.319 6.37629 36.6627 8.39965C36.6374 8.39942 36.6121 8.3993 36.5867 8.3993C36.5702 8.3993 36.5543 8.40049 36.5378 8.40061C36.5315 8.40085 36.5251 8.40073 36.5186 8.40108C32.5616 8.4379 29.3539 11.6668 29.3539 15.6322C29.3539 17.1753 29.8387 18.6424 30.7097 19.8529C30.6398 19.8548 30.5696 19.8559 30.4998 19.8559C26.4272 19.8559 23.1139 16.5426 23.1139 12.47C23.1138 8.39703 26.4271 5.08361 30.4998 5.08361ZM53.3664 33.644C53.3657 33.675 53.3639 33.7057 53.363 33.7367C53.3577 33.9069 53.3516 34.0773 53.3426 34.2476C53.3411 34.278 53.3387 34.3083 53.3369 34.3387C53.3272 34.5087 53.3165 34.6789 53.3032 34.8488C53.3006 34.8831 53.2969 34.9171 53.294 34.9515C53.2804 35.1156 53.2655 35.2797 53.2485 35.4435C53.2439 35.4891 53.2379 35.5345 53.2329 35.58C53.2162 35.7302 53.1988 35.88 53.1793 36.0298C53.1711 36.0925 53.1618 36.1548 53.1529 36.2172C53.1351 36.3467 53.1167 36.4761 53.0964 36.6051C53.0831 36.6891 53.0688 36.7725 53.0547 36.8563C53.0371 36.9608 53.0196 37.0651 53.0006 37.1693C52.9813 37.2752 52.9607 37.3805 52.9398 37.4857C52.9243 37.5646 52.9088 37.6436 52.8924 37.7223C50.7265 48.0984 41.5091 55.917 30.4995 55.917C19.4819 55.917 10.259 48.0873 8.10182 37.6999C8.08228 37.6058 8.06429 37.5111 8.04607 37.4165C8.02843 37.3262 8.01044 37.2359 7.994 37.1452C7.97065 37.0168 7.94932 36.8877 7.92811 36.7588C7.91846 36.6996 7.90786 36.6405 7.89869 36.5812C7.87343 36.418 7.85032 36.2545 7.82839 36.0907C7.8247 36.0629 7.82017 36.0353 7.81672 36.0075C7.7917 35.8146 7.76882 35.6211 7.74869 35.4277C7.74869 35.4268 7.74845 35.4258 7.74845 35.4249C7.66613 34.6338 7.62455 33.8378 7.62455 33.0422C7.62455 32.8627 7.62752 32.683 7.63181 32.5035C7.63336 32.4445 7.63515 32.3856 7.63705 32.3268C7.64075 32.206 7.64575 32.0852 7.65147 31.9644C7.65469 31.8941 7.65778 31.8237 7.66172 31.7535C7.66779 31.6465 7.67542 31.5395 7.68292 31.4326C7.69615 31.248 7.71104 31.0637 7.72856 30.8798C7.73058 30.8587 7.73225 30.8376 7.73427 30.8167C8.51536 22.9069 13.4141 15.8876 20.573 12.4299C20.573 12.4434 20.572 12.4566 20.572 12.4701C20.572 13.3799 20.6974 14.2603 20.9277 15.0979C18.6466 16.3125 16.6435 17.9309 14.9644 19.9207C14.5117 20.4572 14.5797 21.259 15.1162 21.7115C15.3547 21.9128 15.6457 22.011 15.9352 22.011C16.2967 22.011 16.6558 21.8575 16.907 21.5597C18.3254 19.8789 20.0078 18.5014 21.9181 17.452C23.6399 20.4063 26.8407 22.3977 30.4998 22.3977C31.6219 22.3977 32.7244 22.2112 33.7761 21.8434C34.2342 21.6831 34.5612 21.276 34.6186 20.794C34.676 20.312 34.4538 19.8394 34.0461 19.5762C32.6996 18.7064 31.8956 17.2321 31.8956 15.6324C31.8956 13.0982 33.9159 11.0284 36.4305 10.9453C44.8721 13.2039 51.1502 20.0296 52.8895 28.3487C52.9182 28.4863 52.9462 28.6241 52.9723 28.7623C52.9859 28.8345 52.9984 28.9072 53.0116 28.9797C53.0319 29.0927 53.0518 29.206 53.0704 29.3194C53.0816 29.3874 53.0922 29.4554 53.1028 29.5235C53.1224 29.6511 53.1413 29.7788 53.1587 29.9068C53.166 29.9601 53.1737 30.0133 53.1807 30.0667C53.2291 30.4382 53.2685 30.8111 53.2989 31.1847C53.3023 31.2275 53.3051 31.2706 53.3083 31.3136C53.3193 31.4573 53.3287 31.6012 53.3369 31.7451C53.34 31.801 53.343 31.8571 53.3457 31.9131C53.3526 32.0501 53.3577 32.1873 53.362 32.3243C53.3638 32.3773 53.3657 32.4303 53.3672 32.4832C53.3717 32.6696 53.3745 32.8559 53.3745 33.042C53.3744 33.2427 53.3717 33.4435 53.3664 33.644ZM55.6504 36.7201C55.6643 36.6241 55.6769 36.5276 55.6898 36.4312C55.7034 36.3294 55.7165 36.2275 55.729 36.1252C55.7446 35.997 55.7595 35.8686 55.7732 35.7402C55.7821 35.6561 55.7904 35.5717 55.7982 35.4872C55.8089 35.3765 55.8187 35.2659 55.8279 35.1552C55.8342 35.0785 55.841 35.002 55.8466 34.925C55.8597 34.7486 55.8709 34.5721 55.8803 34.3953C55.8835 34.3384 55.8854 34.2813 55.8882 34.2242C55.8946 34.0821 55.9001 33.9401 55.9043 33.7978C55.906 33.7386 55.9077 33.6793 55.9093 33.6199C55.9134 33.4273 55.9165 33.2346 55.9165 33.0417C55.9165 32.8741 55.9145 32.7065 55.9113 32.5389C55.91 32.478 55.908 32.4172 55.9063 32.3563C55.9035 32.2511 55.9003 32.1459 55.8964 32.0406C55.8934 31.9658 55.8896 31.891 55.8863 31.8163C55.8819 31.7257 55.8773 31.6354 55.8718 31.5451C55.8672 31.4639 55.8621 31.3828 55.8565 31.3018C55.8508 31.2184 55.8446 31.1353 55.838 31.052C55.8315 30.9675 55.8249 30.8829 55.8174 30.7987C55.8101 30.7172 55.8022 30.6361 55.7942 30.5547C55.7861 30.4709 55.7782 30.3871 55.7693 30.3033C55.7591 30.2087 55.7476 30.1146 55.7363 30.0201C55.7238 29.9151 55.711 29.8104 55.6972 29.7058C55.6821 29.5917 55.6672 29.4775 55.6506 29.3638C57.2669 29.8058 58.458 31.2872 58.458 33.0415C58.4578 34.7966 57.2666 36.278 55.6504 36.7201Z" fill="white"/>
<path d="M25.9789 34.5142C25.3844 32.2958 23.3654 30.7463 21.0688 30.7463C18.7724 30.7463 16.7532 32.2958 16.1586 34.5142C15.9769 35.1922 16.3793 35.889 17.0572 36.0707C17.7353 36.2522 18.4321 35.8501 18.6137 35.1722C18.9111 34.0629 19.9206 33.2881 21.0686 33.2881C22.2168 33.2881 23.2263 34.0629 23.5235 35.1722C23.6757 35.7399 24.1893 36.1143 24.7503 36.1143C24.8591 36.1143 24.9699 36.1003 25.0801 36.0707C25.7584 35.889 26.1606 35.1922 25.9789 34.5142Z" fill="white"/>
<path d="M39.9311 30.7463C37.6344 30.7463 35.6152 32.2959 35.0208 34.5143C34.8392 35.1923 35.2416 35.8892 35.9196 36.0707C36.5974 36.2526 37.2944 35.85 37.4759 35.1721C37.7732 34.0629 38.7827 33.2881 39.931 33.2881C41.0791 33.2881 42.0886 34.0629 42.3858 35.1722C42.538 35.7399 43.0514 36.1143 43.6126 36.1143C43.7214 36.1143 43.8322 36.1003 43.9424 36.0707C44.6204 35.8891 45.0227 35.1921 44.841 34.5142C44.2465 32.2959 42.2275 30.7463 39.9311 30.7463Z" fill="white"/>
<path d="M34.5109 43.4306C33.8331 43.249 33.136 43.6511 32.9543 44.3293C32.6569 45.4386 31.6475 46.2134 30.4994 46.2134C29.3511 46.2134 28.3417 45.4386 28.0445 44.3293C27.8628 43.6512 27.166 43.2489 26.488 43.4306C25.8099 43.6123 25.4077 44.3091 25.5894 44.9872C26.1839 47.2058 28.2029 48.7551 30.4995 48.7551C32.796 48.7551 34.8152 47.2057 35.4097 44.9872C35.5911 44.3093 35.1888 43.6123 34.5109 43.4306Z" fill="white"/>
</g>
<defs>
<clipPath id="clip0">
<rect width="61" height="61" fill="white"/>
</clipPath>
</defs>
</svg>
