<?xml version="1.0"?>
<!--Icons from directory ""-->
<svg xmlns="http://www.w3.org/2000/svg" width="13" height="26" viewBox="0 0 13 26"><svg width="13" height="13" fill="none" id="profile_ico_person" y="0"><path d="M6.497.165a3.165 3.165 0 110 6.33 3.165 3.165 0 010-6.33zm0 7.913c3.498 0 6.331 1.417 6.331 3.166v1.582H.167v-1.582c0-1.75 2.833-3.166 6.33-3.166z" fill="#CB5050"/></svg><svg width="13" height="13" fill="none" id="profile_ico_person_0" y="13"><path d="M6.497.165a3.165 3.165 0 110 6.33 3.165 3.165 0 010-6.33zm0 7.913c3.498 0 6.331 1.417 6.331 3.166v1.582H.167v-1.582c0-1.75 2.833-3.166 6.33-3.166z" fill="#E4DEDB"/></svg></svg>
