<svg width="61" height="61" viewBox="0 0 61 61" fill="none" xmlns="http://www.w3.org/2000/svg">
<g clip-path="url(#clip0)">
<path d="M14.4592 22.6738C13.847 22.3307 13.0725 22.5484 12.7289 23.1605L12.6991 23.2141C12.3598 23.8286 12.5829 24.6017 13.1976 24.9409C13.3923 25.0484 13.6029 25.0994 13.8107 25.0994C14.2584 25.0994 14.6926 24.8622 14.9245 24.4424L14.9458 24.4041C15.2891 23.7918 15.0713 23.0173 14.4592 22.6738Z" fill="white"/>
<path d="M55.1197 26.7072C54.4438 24.0727 53.3451 21.5554 51.8504 19.2469C49.4188 15.4915 46.0594 12.455 42.098 10.4211C42.2116 10.1509 42.4375 9.85686 42.7621 9.45167C43.1243 8.99953 43.5347 8.4871 43.8583 7.8279C44.3177 6.89205 44.4733 5.33905 43.7291 4.14097C43.2781 3.41481 42.334 2.54771 40.3984 2.54187C40.3743 2.54187 40.351 2.54175 40.3272 2.54175C34.8497 2.54175 32.0933 4.49577 30.7075 6.40464C30.6388 6.40143 30.5698 6.39928 30.5002 6.39928C30.4304 6.39928 30.3614 6.40131 30.2925 6.40464C28.9066 4.49565 26.1508 2.54175 20.673 2.54175C20.6496 2.54175 20.6255 2.54175 20.6019 2.54187C18.6656 2.54771 17.7217 3.41469 17.2706 4.14109C16.5266 5.33917 16.6825 6.89217 17.142 7.82778C17.4654 8.48687 17.8757 8.99929 18.2378 9.45143C18.5647 9.85949 18.7916 10.1548 18.9043 10.4266C18.7857 10.4835 18.689 10.5314 18.6154 10.5705C12.1865 13.977 7.63417 19.8677 5.8809 26.707C2.59762 26.9502 0 29.6975 0 33.042C0 36.3867 2.59834 39.1342 5.88245 39.3767C8.7043 50.3368 18.6714 58.4589 30.5 58.4589C42.3286 58.4589 52.2957 50.3368 55.1178 39.3768C58.4017 39.1342 61 36.3866 61 33.0417C61 29.6976 58.4026 26.9506 55.1197 26.7072ZM5.09064 33.6187C5.09195 33.6793 5.09374 33.7396 5.09553 33.7998C5.09958 33.9394 5.10506 34.079 5.11149 34.2185C5.11411 34.2783 5.11649 34.3381 5.11947 34.3978C5.12877 34.572 5.13997 34.7462 5.15259 34.9202C5.15879 35.0028 5.16594 35.0853 5.17285 35.1677C5.18131 35.2705 5.19048 35.3731 5.20025 35.4758C5.20895 35.5669 5.21776 35.658 5.22741 35.7486C5.23921 35.8588 5.25208 35.9689 5.2653 36.0789C5.28079 36.2085 5.29735 36.3377 5.31474 36.4666C5.32606 36.551 5.3369 36.6355 5.34918 36.7197C3.73291 36.2777 2.54175 34.7962 2.54175 33.0417C2.54175 31.2874 3.73303 29.806 5.34918 29.3639C5.3487 29.3673 5.3481 29.3708 5.34763 29.3741C5.32678 29.5185 5.30724 29.663 5.28853 29.808C5.28782 29.8149 5.28675 29.8217 5.28591 29.8288C5.26733 29.9744 5.25029 30.1202 5.23444 30.2664C5.23373 30.2726 5.23289 30.279 5.2323 30.2852C5.21657 30.4303 5.20216 30.5755 5.18881 30.7214C5.18822 30.7291 5.18726 30.7369 5.18667 30.7446C5.1738 30.8861 5.16236 31.028 5.152 31.1701C5.15104 31.1821 5.14997 31.1942 5.14938 31.2063C5.13961 31.3422 5.13091 31.4785 5.12352 31.615C5.12245 31.6327 5.12126 31.6504 5.12031 31.6681C5.11328 31.7982 5.10756 31.9286 5.10255 32.0591C5.10172 32.0822 5.10041 32.1052 5.09958 32.1283C5.09529 32.2527 5.09195 32.3775 5.08957 32.5023C5.08885 32.5306 5.08778 32.559 5.0873 32.5873C5.08456 32.7385 5.08313 32.8901 5.08313 33.0419C5.08313 33.2342 5.08623 33.4265 5.09064 33.6187ZM40.3278 5.08361C40.3486 5.08361 40.3699 5.08361 40.3908 5.08373C40.8167 5.08504 41.3672 5.15522 41.5698 5.4819C41.7896 5.83587 41.6894 6.47744 41.5766 6.70786C41.3761 7.11603 41.0856 7.47882 40.7783 7.86269C40.1661 8.62721 39.472 9.49372 39.472 10.798C39.472 10.9706 39.485 11.135 39.5074 11.2931C39.5143 11.3707 39.5276 11.4472 39.5481 11.5216C39.7438 12.4398 40.2869 13.1194 40.7781 13.7329C41.0856 14.1169 41.3761 14.4795 41.5765 14.8877C41.6896 15.1181 41.7899 15.7597 41.57 16.1137C41.3669 16.4406 40.8165 16.5107 40.3908 16.5121C40.3699 16.5122 40.3496 16.5122 40.329 16.5122C37.0829 16.5122 34.6615 15.7334 33.2264 14.2458C34.244 13.4394 34.8987 12.194 34.8987 10.798C34.8987 9.40175 34.2439 8.15625 33.2262 7.34991C34.6609 5.8622 37.0816 5.08361 40.3278 5.08361ZM30.5002 8.94139C31.524 8.94139 32.3567 9.77418 32.3567 10.798C32.3567 11.8217 31.5239 12.6545 30.5002 12.6545C29.4766 12.6545 28.6437 11.8216 28.6437 10.798C28.6437 9.77418 29.4766 8.94139 30.5002 8.94139ZM19.43 5.48214C19.6331 5.15522 20.1836 5.08504 20.6095 5.08385C23.8833 5.07039 26.3288 5.85183 27.7739 7.35026C26.7565 8.15649 26.1018 9.40187 26.1018 10.798C26.1018 12.1939 26.7562 13.4392 27.7737 14.2454C26.329 15.7422 23.8847 16.5199 20.6097 16.5119C20.1835 16.5106 19.6329 16.4403 19.4302 16.1135C19.2104 15.7594 19.3106 15.1181 19.4237 14.8876C19.624 14.4793 19.9146 14.1166 20.222 13.7327C20.8344 12.9683 21.5282 12.1019 21.5282 10.7978C21.5282 9.4936 20.8344 8.62697 20.222 7.86257C19.9145 7.47858 19.624 7.11603 19.4236 6.70774C19.3104 6.47732 19.2101 5.83599 19.43 5.48214ZM53.367 33.6445C53.3663 33.6715 53.3648 33.6983 53.364 33.7255C53.3588 33.9002 53.3524 34.0746 53.3432 34.249C53.3419 34.2728 53.34 34.2963 53.3388 34.3199C53.3289 34.4973 53.3177 34.6746 53.3038 34.8516C53.3017 34.8766 53.2992 34.9014 53.297 34.9263C53.2827 35.1001 53.2671 35.2741 53.2487 35.4477C53.245 35.4835 53.2405 35.5192 53.2366 35.5548C53.2189 35.715 53.2003 35.8752 53.1793 36.0349C53.1722 36.0882 53.1644 36.1411 53.1569 36.1942C53.1378 36.3334 53.1178 36.4724 53.096 36.6112C53.0841 36.6867 53.0712 36.7618 53.0584 36.837C53.0396 36.9498 53.0204 37.0624 52.9999 37.1751C52.9816 37.2754 52.9621 37.3751 52.9424 37.4749C52.9258 37.5587 52.9095 37.6425 52.8921 37.7261C50.7248 48.1002 41.5085 55.917 30.5 55.917C19.4787 55.917 10.2531 48.0821 8.10013 37.6895C8.08369 37.6108 8.06892 37.5317 8.05355 37.4528C8.03306 37.3486 8.01233 37.2443 7.99326 37.1396C7.97158 37.0196 7.95168 36.8993 7.93203 36.779C7.92095 36.7122 7.90915 36.6458 7.89878 36.5788C7.87376 36.4176 7.85101 36.2562 7.82945 36.0944C7.82551 36.0653 7.82111 36.0365 7.81717 36.0073C7.68969 35.0248 7.62512 34.033 7.62512 33.0423C7.62512 32.8042 7.63012 32.5667 7.63751 32.3298C7.63989 32.251 7.64359 32.1721 7.6468 32.0935C7.65359 31.9335 7.6617 31.7736 7.67158 31.6142C7.67706 31.5245 7.68266 31.4349 7.68922 31.3453C7.70125 31.1827 7.71567 31.0204 7.73104 30.8586C7.7383 30.783 7.74414 30.7075 7.752 30.632C7.77536 30.4109 7.80216 30.1905 7.83171 29.9709C7.84386 29.8798 7.85816 29.7889 7.8715 29.6981C7.89259 29.5546 7.91451 29.4113 7.93822 29.2687C7.95407 29.1729 7.97075 29.0771 7.9879 28.9814C8.01423 28.8343 8.04247 28.6878 8.07154 28.5413C8.08822 28.4581 8.10406 28.3748 8.1217 28.2917C9.26878 22.8618 12.3583 18.0272 16.8391 14.6944C16.6682 15.5591 16.7384 16.5974 17.2709 17.4549C17.2897 17.4854 17.3108 17.5164 17.3317 17.5475C16.4806 18.2718 15.6871 19.0652 14.9651 19.9209C14.5124 20.4574 14.5804 21.2592 15.1169 21.7118C15.3554 21.9132 15.6465 22.0114 15.9359 22.0114C16.2974 22.0114 16.6565 21.8579 16.9077 21.56C17.7157 20.6022 18.6248 19.732 19.6129 18.9667C19.9098 19.0219 20.2383 19.0536 20.6018 19.0545C20.6254 19.0546 20.6484 19.0546 20.6721 19.0546C26.1498 19.0546 28.9065 17.1006 30.2925 15.1915C30.3613 15.1947 30.4307 15.1969 30.5004 15.1969C30.5698 15.1969 30.639 15.1948 30.7079 15.1915C32.0935 17.1005 34.8496 19.0546 40.3284 19.0546C40.3515 19.0546 40.3753 19.0545 40.3987 19.0545C42.3346 19.0486 43.2784 18.1816 43.7294 17.4552C44.261 16.5994 44.3319 15.5633 44.1624 14.6996C49.3149 18.556 52.6745 24.4763 53.2771 30.9433C53.2796 30.9701 53.2823 30.9971 53.2847 31.024C53.2945 31.1342 53.3035 31.2445 53.3119 31.355C53.3202 31.4712 53.3279 31.5876 53.335 31.704C53.3396 31.784 53.3439 31.8639 53.3477 31.9441C53.3543 32.0796 53.3599 32.215 53.3638 32.3505C53.3656 32.4036 53.367 32.4567 53.3682 32.5098C53.3723 32.6873 53.3752 32.8648 53.3752 33.0426C53.375 33.243 53.3723 33.4437 53.367 33.6445ZM55.6509 36.7197C55.6631 36.6355 55.6739 36.5509 55.6854 36.4666C55.7028 36.3383 55.7192 36.2096 55.7346 36.0807C55.7478 35.9699 55.761 35.8587 55.7727 35.7477C55.7824 35.6575 55.7912 35.5671 55.7997 35.4766C55.8096 35.3733 55.8187 35.2699 55.8274 35.1666C55.8344 35.0847 55.8414 35.0028 55.8475 34.9206C55.8605 34.7464 55.8716 34.5721 55.8808 34.3977C55.884 34.3382 55.8861 34.2784 55.8889 34.2189C55.8953 34.0791 55.9007 33.9392 55.9048 33.7994C55.9066 33.7391 55.9083 33.6792 55.9098 33.6187C55.914 33.4265 55.9171 33.2342 55.9171 33.0417C55.9171 31.8038 55.8277 30.5752 55.6519 29.364C57.2676 29.8062 58.4585 31.2875 58.4585 33.0417C58.4581 34.7963 57.267 36.2777 55.6509 36.7197Z" fill="white"/>
<path d="M25.9787 34.5127C25.3842 32.2943 23.3651 30.7451 21.0685 30.7451C18.7722 30.7451 16.753 32.2944 16.1584 34.5127C15.9767 35.1907 16.3789 35.8876 17.0569 36.0693C17.7349 36.2508 18.4318 35.8487 18.6135 35.1707C18.9109 34.0615 19.9204 33.2869 21.0684 33.2869C22.2166 33.2869 23.2262 34.0615 23.5233 35.1707C23.6756 35.7385 24.1891 36.1129 24.7501 36.1129C24.8589 36.1129 24.9698 36.0988 25.0799 36.0693C25.7583 35.8876 26.1604 35.1909 25.9787 34.5127Z" fill="white"/>
<path d="M39.931 30.7451C37.6345 30.7451 35.6154 32.2944 35.0207 34.5127C34.839 35.1907 35.2413 35.8876 35.9192 36.0693C36.5972 36.2508 37.2941 35.8487 37.4758 35.1707C37.7732 34.0615 38.7827 33.2869 39.9308 33.2869C41.079 33.2869 42.0886 34.0615 42.3857 35.1707C42.5379 35.7384 43.0513 36.1129 43.6125 36.1129C43.7214 36.1129 43.8321 36.0988 43.9423 36.0693C44.6204 35.8876 45.0226 35.1906 44.8409 34.5127C44.2465 32.2945 42.2275 30.7451 39.931 30.7451Z" fill="white"/>
<path d="M34.5111 43.4306C33.8328 43.2492 33.1362 43.6511 32.9545 44.3292C32.6571 45.4384 31.6476 46.213 30.4996 46.213C29.3513 46.213 28.3417 45.4384 28.0447 44.3292C27.863 43.6511 27.1659 43.2489 26.4881 43.4306C25.8101 43.6123 25.4078 44.3091 25.5895 44.9872C26.1841 47.2056 28.203 48.7548 30.4997 48.7548C32.796 48.7548 34.8152 47.2055 35.4099 44.9872C35.5913 44.3091 35.189 43.6122 34.5111 43.4306Z" fill="white"/>
</g>
<defs>
<clipPath id="clip0">
<rect width="61" height="61" fill="white"/>
</clipPath>
</defs>
</svg>
