<svg width="11" height="12" viewBox="0 0 11 12" fill="none" xmlns="http://www.w3.org/2000/svg">
<g clip-path="url(#clip0)">
<path d="M2.5146 4.64994C2.40797 4.59149 2.27411 4.63057 2.21564 4.73725L2.21122 4.74526C2.15278 4.85191 2.19184 4.98578 2.29853 5.04422C2.33212 5.06264 2.3684 5.07135 2.40417 5.07135C2.48201 5.07135 2.55744 5.03 2.5975 4.95692L2.60191 4.9489C2.66036 4.84225 2.62126 4.70839 2.5146 4.64994Z" fill="white"/>
<path d="M9.56184 5.34988C9.21554 4.00199 8.24459 2.88151 6.93446 2.3579C6.70814 1.65117 6.04272 1.16235 5.29596 1.16235C4.5301 1.16235 3.8798 1.66552 3.65757 2.35854C2.86853 2.67458 2.19283 3.20773 1.69848 3.90618C1.38617 4.34745 1.16102 4.83526 1.02918 5.34994C0.460542 5.39241 0.0107422 5.86831 0.0107422 6.44759C0.0107422 7.02721 0.460996 7.50335 1.03008 7.54535C1.51911 9.44453 3.24623 10.852 5.29596 10.852C7.34565 10.852 9.07277 9.44453 9.56178 7.54535C10.1309 7.50335 10.5811 7.02721 10.5811 6.44755C10.5811 5.868 10.1309 5.39192 9.56184 5.34988ZM0.45121 6.44755C0.45121 6.14367 0.657518 5.88707 0.937386 5.81036C0.918475 5.94141 0.905303 6.07375 0.89816 6.2071C0.898036 6.20895 0.897974 6.21077 0.897871 6.21263C0.896591 6.23691 0.895456 6.26121 0.894588 6.28555C0.894237 6.29478 0.894052 6.30401 0.893804 6.31323C0.893267 6.3307 0.89271 6.34815 0.892379 6.36563C0.891905 6.39295 0.891616 6.42026 0.891616 6.44757C0.891616 6.48092 0.892132 6.51424 0.892916 6.5476C0.893143 6.55805 0.893432 6.56845 0.893763 6.57886C0.894465 6.60312 0.895414 6.62737 0.896529 6.65161C0.896983 6.66189 0.897396 6.67219 0.897912 6.6825C0.899523 6.71276 0.901463 6.74299 0.903672 6.77321C0.904725 6.78742 0.905964 6.80154 0.90712 6.8157C0.908627 6.83362 0.910196 6.85156 0.91191 6.86946C0.913417 6.88523 0.914965 6.90103 0.916638 6.91674C0.918578 6.93515 0.920787 6.95355 0.922955 6.97192C0.925825 6.996 0.928901 7.02001 0.932142 7.04393C0.934 7.05764 0.935714 7.07133 0.937696 7.08496C0.657663 7.00834 0.45121 6.7516 0.45121 6.44755ZM5.29596 1.60282C5.73214 1.60282 6.13106 1.82682 6.3639 2.17744C6.35953 2.1774 6.35513 2.17738 6.35073 2.17738C6.34788 2.17738 6.34511 2.17759 6.34227 2.17761C6.34117 2.17765 6.34006 2.17763 6.33894 2.17769C5.65325 2.18407 5.09739 2.7436 5.09739 3.43074C5.09739 3.69813 5.1814 3.95236 5.33234 4.16212C5.32022 4.16245 5.30806 4.16263 5.29596 4.16263C4.59024 4.16263 4.0161 3.58849 4.0161 2.88277C4.01608 2.17699 4.59022 1.60282 5.29596 1.60282ZM9.25842 6.55191C9.25829 6.55728 9.25798 6.56261 9.25782 6.56798C9.25691 6.59748 9.25583 6.627 9.25429 6.6565C9.25402 6.66177 9.2536 6.66703 9.2533 6.6723C9.25162 6.70176 9.24976 6.73124 9.24745 6.76068C9.247 6.76663 9.24636 6.77253 9.24586 6.77848C9.24351 6.80692 9.24093 6.83535 9.23798 6.86374C9.23717 6.87165 9.23614 6.87951 9.23527 6.8874C9.23238 6.91341 9.22937 6.93939 9.22598 6.96534C9.22456 6.9762 9.22295 6.98699 9.22142 6.99781C9.21832 7.02025 9.21514 7.04267 9.21161 7.06503C9.20932 7.07959 9.20684 7.09404 9.20439 7.10855C9.20135 7.12666 9.19832 7.14474 9.19501 7.16279C9.19167 7.18114 9.1881 7.19939 9.18448 7.21762C9.1818 7.23129 9.17912 7.24498 9.17627 7.25862C8.80096 9.05664 7.20371 10.4115 5.29592 10.4115C3.38672 10.4115 1.78853 9.05472 1.41473 7.25474C1.41134 7.23843 1.40822 7.22202 1.40506 7.20563C1.40201 7.18998 1.39889 7.17433 1.39604 7.15862C1.392 7.13636 1.3883 7.114 1.38463 7.09167C1.38295 7.0814 1.38112 7.07116 1.37953 7.06088C1.37515 7.0326 1.37114 7.00427 1.36735 6.97589C1.36671 6.97108 1.36592 6.96629 1.36532 6.96148C1.36099 6.92805 1.35702 6.89452 1.35353 6.861C1.35353 6.86085 1.35349 6.86067 1.35349 6.86052C1.33923 6.72344 1.33202 6.5855 1.33202 6.44763C1.33202 6.41652 1.33254 6.38539 1.33328 6.35428C1.33355 6.34406 1.33386 6.33386 1.33419 6.32366C1.33483 6.30273 1.3357 6.28179 1.33669 6.26086C1.33724 6.24868 1.33778 6.23647 1.33846 6.22431C1.33952 6.20578 1.34084 6.18724 1.34214 6.16872C1.34443 6.13672 1.34701 6.10478 1.35004 6.07292C1.3504 6.06927 1.35068 6.06561 1.35104 6.06198C1.48639 4.69134 2.33526 3.475 3.57579 2.87583C3.57579 2.87816 3.57563 2.88046 3.57563 2.88279C3.57563 3.04044 3.59735 3.19301 3.63726 3.33814C3.24198 3.54862 2.89487 3.82907 2.60392 4.17386C2.52546 4.26683 2.53725 4.40577 2.63022 4.48418C2.67155 4.51907 2.72197 4.53609 2.77213 4.53609C2.83477 4.53609 2.897 4.50949 2.94054 4.45788C3.18632 4.16662 3.47785 3.92792 3.80888 3.74607C4.10725 4.25801 4.6619 4.6031 5.29596 4.6031C5.4904 4.6031 5.68145 4.57077 5.86371 4.50704C5.94309 4.47927 5.99974 4.40873 6.00969 4.32519C6.01964 4.24168 5.98114 4.15978 5.91049 4.11418C5.67716 3.96345 5.53784 3.70798 5.53784 3.43078C5.53784 2.99163 5.88792 2.63296 6.32366 2.61857C7.78647 3.00994 8.87437 4.19273 9.17577 5.63431C9.18075 5.65816 9.1856 5.68204 9.19012 5.70599C9.19247 5.7185 9.19464 5.7311 9.19693 5.74365C9.20044 5.76324 9.20389 5.78288 9.20711 5.80253C9.20905 5.8143 9.21089 5.82609 9.21273 5.8379C9.21613 5.86001 9.2194 5.88214 9.22241 5.90431C9.22369 5.91354 9.22501 5.92277 9.22623 5.93202C9.23461 5.99639 9.24145 6.06101 9.24671 6.12575C9.24731 6.13317 9.24778 6.14064 9.24834 6.14809C9.25024 6.17299 9.25187 6.19793 9.2533 6.22287C9.25383 6.23255 9.25435 6.24228 9.25482 6.25198C9.25602 6.27572 9.25691 6.29948 9.25765 6.32323C9.25796 6.33241 9.25829 6.3416 9.25854 6.35077C9.25932 6.38306 9.25982 6.41535 9.25982 6.44759C9.2598 6.48238 9.25932 6.51717 9.25842 6.55191ZM9.65419 7.08496C9.6566 7.06832 9.65879 7.05159 9.66102 7.03489C9.66337 7.01726 9.66564 6.99959 9.66781 6.98187C9.67052 6.95966 9.6731 6.9374 9.67547 6.91515C9.67702 6.90057 9.67844 6.88596 9.67981 6.87132C9.68167 6.85214 9.68336 6.83296 9.68495 6.81378C9.68604 6.80048 9.68722 6.78723 9.68819 6.77389C9.69046 6.74332 9.6924 6.71274 9.69403 6.6821C9.69459 6.67224 9.69492 6.66235 9.69539 6.65246C9.69651 6.62783 9.69746 6.60322 9.69818 6.57857C9.69849 6.56831 9.69878 6.55803 9.69905 6.54774C9.69977 6.51436 9.70031 6.48098 9.70031 6.44755C9.70031 6.4185 9.69996 6.38946 9.6994 6.36041C9.69917 6.34986 9.69882 6.33933 9.69853 6.32878C9.69806 6.31055 9.6975 6.29232 9.69682 6.27407C9.6963 6.2611 9.69564 6.24814 9.69506 6.2352C9.6943 6.2195 9.69351 6.20386 9.69256 6.18821C9.69176 6.17413 9.69087 6.16009 9.6899 6.14605C9.68891 6.1316 9.68784 6.11719 9.6867 6.10276C9.68557 6.08812 9.68443 6.07346 9.68313 6.05886C9.68187 6.04474 9.68049 6.03068 9.6791 6.01658C9.6777 6.00207 9.67634 5.98753 9.67479 5.97302C9.67303 5.95663 9.67103 5.94032 9.66907 5.92395C9.6669 5.90576 9.66469 5.88761 9.6623 5.86948C9.65968 5.84971 9.6571 5.82993 9.65423 5.81021C9.9343 5.88681 10.1407 6.14351 10.1407 6.44751C10.1407 6.75164 9.93426 7.00834 9.65419 7.08496Z" fill="white"/>
<path d="M4.5125 6.70271C4.40948 6.3183 4.05962 6.0498 3.66164 6.0498C3.26372 6.0498 2.91382 6.3183 2.81078 6.70271C2.7793 6.82021 2.84902 6.94096 2.96649 6.97244C3.084 7.00389 3.20474 6.93421 3.23622 6.81674C3.28775 6.62451 3.46268 6.49025 3.66162 6.49025C3.86058 6.49025 4.03551 6.62451 4.08702 6.81674C4.11338 6.91511 4.20238 6.98 4.2996 6.98C4.31845 6.98 4.33765 6.97756 4.35675 6.97244C4.47428 6.94096 4.54398 6.82021 4.5125 6.70271Z" fill="white"/>
<path d="M6.9302 6.0498C6.53223 6.0498 6.18233 6.31832 6.07933 6.70273C6.04787 6.82023 6.11759 6.94098 6.23508 6.97244C6.35253 7.00395 6.4733 6.93419 6.50477 6.81672C6.55628 6.62451 6.7312 6.49025 6.93018 6.49025C7.12914 6.49025 7.30407 6.62451 7.35558 6.81674C7.38194 6.91511 7.4709 6.98 7.56816 6.98C7.58701 6.98 7.60621 6.97756 7.62531 6.97244C7.7428 6.94096 7.8125 6.82019 7.78102 6.70271C7.678 6.31832 7.32814 6.0498 6.9302 6.0498Z" fill="white"/>
<path d="M5.99102 8.24779C5.87357 8.21633 5.75278 8.28601 5.72129 8.40352C5.66976 8.59575 5.49483 8.73001 5.2959 8.73001C5.09692 8.73001 4.92199 8.59575 4.8705 8.40352C4.83902 8.28603 4.71826 8.21631 4.60077 8.24779C4.48328 8.27928 4.41358 8.40003 4.44506 8.51753C4.54808 8.90198 4.89794 9.17045 5.29592 9.17045C5.69385 9.17045 6.04375 8.90196 6.14677 8.51753C6.17821 8.40005 6.10849 8.27928 5.99102 8.24779Z" fill="white"/>
</g>
<defs>
<clipPath id="clip0">
<rect width="10.5704" height="10.5704" fill="white" transform="translate(0.0107422 0.721924)"/>
</clipPath>
</defs>
</svg>
