<svg width="12" height="12" viewBox="0 0 12 12" fill="none" xmlns="http://www.w3.org/2000/svg">
<g clip-path="url(#clip0)">
<path d="M3.02485 4.65097C2.91878 4.59152 2.78456 4.62924 2.72502 4.73531L2.71986 4.7446C2.66106 4.85109 2.69973 4.98506 2.80624 5.04383C2.83997 5.06246 2.87648 5.07129 2.91248 5.07129C2.99007 5.07129 3.0653 5.03019 3.10549 4.95745L3.10919 4.95081C3.16867 4.84471 3.13093 4.71049 3.02485 4.65097Z" fill="white"/>
<path d="M10.071 5.34986C9.95384 4.89335 9.76345 4.45714 9.50443 4.05711C9.08308 3.40635 8.50094 2.88017 7.81449 2.52773C7.83418 2.48091 7.87333 2.42995 7.92957 2.35974C7.99233 2.28139 8.06345 2.1926 8.11952 2.07837C8.19913 1.9162 8.22609 1.64708 8.09714 1.43948C8.01898 1.31364 7.85539 1.16339 7.51998 1.16237C7.51579 1.16237 7.51177 1.16235 7.50764 1.16235C6.55847 1.16235 6.08082 1.50096 5.84069 1.83174C5.82878 1.83118 5.81683 1.83081 5.80477 1.83081C5.79267 1.83081 5.78072 1.83116 5.76877 1.83174C5.52862 1.50094 5.05107 1.16235 4.10186 1.16235C4.0978 1.16235 4.09363 1.16235 4.08954 1.16237C3.75401 1.16339 3.59044 1.31362 3.51228 1.4395C3.38335 1.64711 3.41037 1.91622 3.48998 2.07834C3.54603 2.19255 3.61713 2.28135 3.67987 2.3597C3.73652 2.43041 3.77583 2.48159 3.79536 2.52868C3.77482 2.53855 3.75806 2.54685 3.7453 2.55362C2.63128 3.14391 1.84242 4.16468 1.5386 5.34984C0.969661 5.39198 0.519531 5.86804 0.519531 6.44759C0.519531 7.02719 0.969785 7.50329 1.53887 7.5453C2.02786 9.44453 3.755 10.852 5.80473 10.852C7.85446 10.852 9.5816 9.44453 10.0706 7.54533C10.6397 7.50329 11.0899 7.02717 11.0899 6.44755C11.0899 5.86806 10.6398 5.39204 10.071 5.34986ZM1.40166 6.54754C1.40189 6.55802 1.4022 6.56847 1.40251 6.57892C1.40321 6.60309 1.40416 6.62729 1.40528 6.65147C1.40573 6.66183 1.40614 6.67219 1.40666 6.68254C1.40827 6.71272 1.41021 6.7429 1.4124 6.77307C1.41347 6.78737 1.41471 6.80166 1.41591 6.81595C1.41738 6.83376 1.41896 6.85154 1.42066 6.86934C1.42216 6.88513 1.42369 6.9009 1.42536 6.91661C1.42741 6.93571 1.42964 6.95479 1.43193 6.97384C1.43461 6.9963 1.43748 7.01868 1.4405 7.04102C1.44246 7.05566 1.44434 7.0703 1.44646 7.08489C1.16639 7.0083 0.959978 6.75157 0.959978 6.44755C0.959978 6.14355 1.16641 5.88685 1.44646 5.81023C1.44638 5.81083 1.44628 5.81143 1.4462 5.81201C1.44258 5.83703 1.4392 5.86207 1.43596 5.8872C1.43583 5.88839 1.43565 5.88957 1.4355 5.89079C1.43228 5.91602 1.42933 5.94129 1.42658 5.96662C1.42646 5.96769 1.42631 5.96881 1.42621 5.96988C1.42349 5.99503 1.42099 6.02019 1.41868 6.04546C1.41857 6.04681 1.41841 6.04815 1.4183 6.04949C1.41607 6.07402 1.41409 6.09861 1.4123 6.12321C1.41213 6.1253 1.41195 6.12741 1.41184 6.12949C1.41015 6.15305 1.40864 6.17666 1.40736 6.20032C1.40718 6.20338 1.40697 6.20646 1.4068 6.20951C1.40559 6.23206 1.4046 6.25466 1.40373 6.27727C1.40358 6.28128 1.40336 6.28526 1.40321 6.28926C1.40247 6.31082 1.40189 6.33245 1.40148 6.35407C1.40135 6.35898 1.40117 6.3639 1.40109 6.36881C1.40061 6.39501 1.40036 6.42127 1.40036 6.44757C1.40036 6.48089 1.4009 6.51422 1.40166 6.54754ZM7.50774 1.60282C7.51135 1.60282 7.51503 1.60282 7.51866 1.60284C7.59247 1.60307 7.68785 1.61523 7.72297 1.67184C7.76106 1.73318 7.7437 1.84435 7.72414 1.88428C7.6894 1.95501 7.63907 2.01787 7.5858 2.08439C7.47972 2.21687 7.35945 2.36703 7.35945 2.59303C7.35945 2.62295 7.3617 2.65144 7.36558 2.67883C7.36677 2.69227 7.36909 2.70553 7.37264 2.71843C7.40654 2.87754 7.50066 2.99531 7.58578 3.10161C7.63907 3.16815 7.6894 3.23099 7.72412 3.30172C7.74372 3.34165 7.7611 3.45283 7.72299 3.51416C7.68781 3.57081 7.59243 3.58297 7.51866 3.5832C7.51503 3.58322 7.51152 3.58322 7.50795 3.58322C6.94545 3.58322 6.52585 3.44826 6.27718 3.19049C6.45351 3.05076 6.56696 2.83495 6.56696 2.59303C6.56696 2.35109 6.45349 2.13526 6.27714 1.99554C6.52575 1.73774 6.94522 1.60282 7.50774 1.60282ZM5.80477 2.27132C5.98218 2.27132 6.12647 2.41563 6.12647 2.59303C6.12647 2.77044 5.98216 2.91475 5.80477 2.91475C5.62739 2.91475 5.48306 2.77042 5.48306 2.59303C5.48306 2.41563 5.62739 2.27132 5.80477 2.27132ZM3.88647 1.67188C3.92165 1.61523 4.01705 1.60307 4.09086 1.60286C4.65815 1.60053 5.08192 1.73594 5.33234 1.9956C5.15603 2.1353 5.04259 2.35111 5.04259 2.59303C5.04259 2.83493 5.15599 3.05072 5.3323 3.19042C5.08196 3.44979 4.6584 3.58456 4.09088 3.58318C4.01703 3.58295 3.92163 3.57077 3.88649 3.51414C3.8484 3.45279 3.86576 3.34165 3.88538 3.3017C3.92008 3.23095 3.97044 3.16811 4.0237 3.10159C4.12982 2.96913 4.25006 2.81899 4.25006 2.59301C4.25006 2.36701 4.12982 2.21683 4.0237 2.08437C3.97041 2.01783 3.92008 1.95501 3.88536 1.88426C3.86574 1.84433 3.84836 1.7332 3.88647 1.67188ZM9.76725 6.552C9.76712 6.55668 9.76685 6.56133 9.76673 6.56604C9.76582 6.5963 9.76471 6.62653 9.76312 6.65675C9.76289 6.66088 9.76256 6.66495 9.76235 6.66903C9.76064 6.69978 9.7587 6.7305 9.75628 6.76118C9.75593 6.76551 9.7555 6.7698 9.75511 6.77412C9.75263 6.80424 9.74992 6.83438 9.74675 6.86446C9.74611 6.87068 9.74532 6.87685 9.74464 6.88302C9.74158 6.91079 9.73836 6.93854 9.73471 6.96622C9.73349 6.97545 9.73213 6.98462 9.73083 6.99383C9.72752 7.01794 9.72406 7.04203 9.72028 7.06609C9.71821 7.07917 9.71598 7.09218 9.71377 7.10521C9.71051 7.12476 9.70719 7.14427 9.70364 7.1638C9.70046 7.18118 9.69707 7.19846 9.69367 7.21574C9.6908 7.23028 9.68797 7.24479 9.68495 7.25928C9.30939 9.05695 7.71234 10.4115 5.80473 10.4115C3.89489 10.4115 2.29625 9.05382 1.92316 7.25295C1.92032 7.2393 1.91776 7.22559 1.91509 7.21192C1.91154 7.19386 1.90795 7.17579 1.90465 7.15765C1.90089 7.13686 1.89744 7.11601 1.89403 7.09515C1.89211 7.08359 1.89007 7.07207 1.88827 7.06047C1.88394 7.03254 1.88 7.00456 1.87626 6.97653C1.87558 6.97149 1.87481 6.96649 1.87413 6.96143C1.85204 6.79119 1.84085 6.61932 1.84085 6.44766C1.84085 6.40639 1.84172 6.36524 1.843 6.32418C1.84341 6.31053 1.84405 6.29686 1.84461 6.28324C1.84579 6.25551 1.84719 6.2278 1.8489 6.20018C1.84985 6.18463 1.85082 6.16911 1.85196 6.15358C1.85404 6.1254 1.85654 6.09728 1.85921 6.06925C1.86046 6.05614 1.86148 6.04307 1.86284 6.02998C1.86689 5.99166 1.87153 5.95347 1.87665 5.91542C1.87876 5.89963 1.88123 5.88387 1.88355 5.86814C1.8872 5.84328 1.891 5.81845 1.89511 5.79374C1.89785 5.77714 1.90074 5.76054 1.90372 5.74396C1.90828 5.71846 1.91317 5.69307 1.91821 5.6677C1.9211 5.65327 1.92385 5.63883 1.9269 5.62444C2.12567 4.68351 2.66105 3.84575 3.4375 3.26824C3.40789 3.41806 3.42005 3.59798 3.51232 3.74659C3.51558 3.75187 3.51923 3.75724 3.52287 3.76263C3.37538 3.88813 3.23788 4.02563 3.11277 4.17391C3.03432 4.26687 3.0461 4.40581 3.13907 4.48425C3.1804 4.51914 3.23084 4.53615 3.28099 4.53615C3.34362 4.53615 3.40585 4.50956 3.44939 4.45794C3.58941 4.29195 3.74693 4.14116 3.91816 4.00856C3.96961 4.01812 4.02653 4.02361 4.08952 4.02377C4.09361 4.02379 4.09759 4.02379 4.1017 4.02379C5.05091 4.02379 5.5286 3.68519 5.76877 3.35437C5.7807 3.35493 5.79271 3.3553 5.80479 3.3553C5.81683 3.3553 5.82882 3.35495 5.84076 3.35437C6.08086 3.68517 6.55845 4.02379 7.50784 4.02379C7.51185 4.02379 7.51598 4.02377 7.52002 4.02377C7.85549 4.02274 8.01904 3.8725 8.09719 3.74663C8.1893 3.59833 8.20159 3.4188 8.17223 3.26912C9.06508 3.93739 9.64723 4.96328 9.75166 6.08393C9.75209 6.08857 9.75257 6.09324 9.75298 6.0979C9.75467 6.117 9.75624 6.13612 9.75769 6.15526C9.75913 6.17541 9.76047 6.19558 9.76169 6.21575C9.7625 6.2296 9.76324 6.24345 9.7639 6.25735C9.76504 6.28082 9.76601 6.30429 9.76669 6.32777C9.767 6.33698 9.76725 6.34616 9.76745 6.35537C9.76815 6.38613 9.76867 6.41689 9.76867 6.4477C9.76863 6.48242 9.76815 6.51721 9.76725 6.552ZM10.163 7.08489C10.1651 7.0703 10.167 7.05564 10.169 7.04102C10.172 7.01879 10.1748 6.99649 10.1775 6.97415C10.1798 6.95495 10.1821 6.93569 10.1841 6.91645C10.1858 6.90082 10.1873 6.88515 10.1888 6.86948C10.1905 6.85158 10.1921 6.83366 10.1936 6.81576C10.1948 6.80156 10.196 6.78737 10.1971 6.77313C10.1993 6.74295 10.2013 6.71274 10.2028 6.68252C10.2034 6.67221 10.2038 6.66185 10.2042 6.65153C10.2054 6.62731 10.2063 6.60307 10.207 6.57884C10.2073 6.56839 10.2076 6.558 10.2079 6.54754C10.2086 6.51422 10.2091 6.48089 10.2091 6.44755C10.2091 6.23303 10.1937 6.02013 10.1632 5.81025C10.4432 5.88689 10.6495 6.14357 10.6495 6.44755C10.6495 6.7516 10.443 7.0083 10.163 7.08489Z" fill="white"/>
<path d="M5.02128 6.70243C4.91826 6.31801 4.56839 6.04956 4.17043 6.04956C3.77251 6.04956 3.42261 6.31803 3.31957 6.70243C3.28809 6.81992 3.35779 6.94068 3.47528 6.97216C3.59275 7.00362 3.71353 6.93394 3.74501 6.81645C3.79654 6.62424 3.97147 6.49001 4.17041 6.49001C4.36937 6.49001 4.54432 6.62424 4.5958 6.81645C4.62219 6.91485 4.71117 6.97972 4.80839 6.97972C4.82724 6.97972 4.84646 6.97728 4.86554 6.97216C4.98309 6.94068 5.05277 6.81994 5.02128 6.70243Z" fill="white"/>
<path d="M7.43901 6.04956C7.04107 6.04956 6.69119 6.31803 6.58813 6.70243C6.55664 6.81992 6.62636 6.94068 6.74383 6.97216C6.86131 7.00362 6.98208 6.93394 7.01357 6.81645C7.0651 6.62424 7.24003 6.49001 7.43898 6.49001C7.63794 6.49001 7.81289 6.62424 7.86438 6.81645C7.89075 6.91483 7.97971 6.97972 8.07697 6.97972C8.09584 6.97972 8.11502 6.97728 8.13411 6.97216C8.25161 6.94068 8.32131 6.8199 8.28982 6.70243C8.18682 6.31805 7.83697 6.04956 7.43901 6.04956Z" fill="white"/>
<path d="M6.49982 8.2478C6.38228 8.21635 6.26157 8.28601 6.23009 8.4035C6.17856 8.59571 6.00363 8.72995 5.80469 8.72995C5.60571 8.72995 5.43076 8.59571 5.37929 8.4035C5.34781 8.28601 5.22701 8.21631 5.10956 8.2478C4.99207 8.27928 4.92237 8.40004 4.95385 8.51753C5.05687 8.90195 5.40673 9.1704 5.80471 9.1704C6.20263 9.1704 6.55253 8.90193 6.65557 8.51753C6.68701 8.40004 6.61729 8.27926 6.49982 8.2478Z" fill="white"/>
</g>
<defs>
<clipPath id="clip0">
<rect width="10.5704" height="10.5704" fill="white" transform="translate(0.519531 0.721924)"/>
</clipPath>
</defs>
</svg>
