<svg width="30" height="28" viewBox="0 0 30 28" fill="none" xmlns="http://www.w3.org/2000/svg">
<path d="M7.09028 0C7.32664 0 7.55332 0.0921872 7.72045 0.256282C7.88759 0.420376 7.98148 0.642936 7.98148 0.875V1.75H22.2407V0.875C22.2407 0.642936 22.3346 0.420376 22.5018 0.256282C22.6689 0.0921872 22.8956 0 23.1319 0C23.3683 0 23.595 0.0921872 23.7621 0.256282C23.9293 0.420376 24.0231 0.642936 24.0231 0.875V1.75H25.8056C26.751 1.75 27.6577 2.11875 28.3263 2.77513C28.9948 3.4315 29.3704 4.32174 29.3704 5.25V24.5C29.3704 25.4283 28.9948 26.3185 28.3263 26.9749C27.6577 27.6313 26.751 28 25.8056 28H4.41667C3.47122 28 2.56449 27.6313 1.89596 26.9749C1.22743 26.3185 0.851852 25.4283 0.851852 24.5V5.25C0.851852 4.32174 1.22743 3.4315 1.89596 2.77513C2.56449 2.11875 3.47122 1.75 4.41667 1.75H6.19907V0.875C6.19907 0.642936 6.29297 0.420376 6.4601 0.256282C6.62724 0.0921872 6.85392 0 7.09028 0V0ZM2.63426 7V24.5C2.63426 24.9641 2.82205 25.4092 3.15631 25.7374C3.49058 26.0656 3.94394 26.25 4.41667 26.25H25.8056C26.2783 26.25 26.7316 26.0656 27.0659 25.7374C27.4002 25.4092 27.588 24.9641 27.588 24.5V7H2.63426Z" fill="#CB5050"/>
</svg>
